<?xml version="1.0" encoding="UTF-8" standalone="no"?>
<!DOCTYPE svg PUBLIC "-//W3C//DTD SVG 1.1//EN" "http://www.w3.org/Graphics/SVG/1.1/DTD/svg11.dtd">
<svg version="1.1" xmlns="http://www.w3.org/2000/svg" xmlns:xlink="http://www.w3.org/1999/xlink" preserveAspectRatio="xMidYMid meet" viewBox="82.28408676530718 -1 477.4318345334343 430.1345535199277" width="473.43" height="426.13"><defs><path d="M554.15 203.69C519.27 197.2 499.89 193.6 496.02 192.88C494.6 192.61 493.05 191.29 492.58 189.92C490.79 185.76 476.54 152.51 474.76 148.35C474.09 147.07 474.22 145.05 475.04 143.86C478.43 138.92 505.52 99.43 508.91 94.49C509.72 93.31 509.56 91.5 508.54 90.48C504.31 86.25 470.47 52.41 466.24 48.17C465.21 47.15 463.41 46.99 462.22 47.8C457.2 51.25 417.02 78.83 411.99 82.27C410.81 83.09 408.77 83.23 407.48 82.6C403.45 80.95 371.21 67.75 367.18 66.1C365.81 65.65 364.48 64.12 364.21 62.7C363.09 56.69 354.14 8.59 353.02 2.58C352.76 1.16 351.36 0 349.92 0C343.94 0 296.07 0 290.09 0C288.65 0 287.25 1.16 286.99 2.58C285.87 8.59 276.92 56.69 275.8 62.7C275.53 64.12 274.2 65.65 272.83 66.1C268.8 67.75 236.56 80.95 232.53 82.6C231.24 83.23 229.2 83.09 228.02 82.27C222.99 78.83 182.81 51.25 177.79 47.8C176.6 46.99 174.79 47.15 173.77 48.17C169.54 52.41 135.7 86.25 131.47 90.48C130.45 91.5 130.28 93.31 131.1 94.49C134.49 99.43 161.58 138.92 164.97 143.86C165.78 145.05 165.91 147.07 165.25 148.35C163.47 152.51 149.21 185.76 147.43 189.92C146.95 191.29 145.41 192.61 143.99 192.88C138.17 193.96 91.67 202.61 85.86 203.69C84.44 203.96 83.28 205.35 83.28 206.79C83.28 212.78 83.29 260.64 83.29 266.62C83.29 268.06 84.45 269.47 85.87 269.72C91.54 270.78 136.9 279.22 142.57 280.28C143.98 280.53 145.5 281.88 145.93 283.26C147.7 287.68 161.86 323.05 163.63 327.48C164.27 328.77 164.12 330.8 163.3 331.99C160.08 336.68 134.31 374.23 131.09 378.92C130.28 380.11 130.44 381.92 131.46 382.94C135.69 387.18 169.54 421.02 173.77 425.25C174.79 426.26 176.6 426.43 177.79 425.62C182.4 422.45 219.28 397.14 223.89 393.97C225.08 393.16 227.07 393.1 228.31 393.82C230.34 394.91 246.61 403.59 248.64 404.68C249.93 405.33 251.43 404.78 251.98 403.45C256.18 393.32 289.72 312.28 293.91 302.15C294.46 300.82 293.91 299.12 292.68 298.36C292.17 298.05 288.1 295.56 287.59 295.25C286.65 294.67 285.37 293.69 284.37 292.78C266.02 281.03 253.84 260.47 253.84 237.05C253.84 200.51 283.46 170.89 320 170.89C356.54 170.89 386.16 200.51 386.16 237.05C386.16 260.47 373.98 281.03 355.63 292.78C354.63 293.69 353.35 294.67 352.41 295.25C351.91 295.56 347.84 298.05 347.33 298.36C346.1 299.12 345.54 300.82 346.1 302.15C350.29 312.28 383.82 393.32 388.02 403.45C388.57 404.78 390.07 405.33 391.36 404.68C393.39 403.6 409.66 394.91 411.69 393.83C412.93 393.1 414.92 393.16 416.11 393.98C420.72 397.14 457.6 422.46 462.22 425.62C463.4 426.43 465.21 426.26 466.23 425.25C470.46 421.02 504.31 387.18 508.54 382.95C509.56 381.93 509.73 380.12 508.91 378.93C505.69 374.23 479.92 336.69 476.7 331.99C475.89 330.81 475.73 328.78 476.37 327.48C478.14 323.06 492.3 287.68 494.07 283.26C494.5 281.89 496.01 280.54 497.43 280.28C503.1 279.22 548.46 270.78 554.13 269.73C555.55 269.47 556.71 268.07 556.71 266.62C556.71 260.64 556.72 212.78 556.72 206.8C556.72 205.35 555.56 203.96 554.15 203.69" id="c3D2FcbWY"></path></defs><g><g><use xlink:href="#c3D2FcbWY" opacity="1" fill="#0099b0" fill-opacity="1"></use><g><use xlink:href="#c3D2FcbWY" opacity="1" fill-opacity="0" stroke="#000000" stroke-width="1" stroke-opacity="0"></use></g></g></g></svg>