G04*
G04 #@! TF.GenerationSoftware,Altium Limited,Altium Designer,19.1.6 (110)*
G04*
G04 Layer_Color=128*
%FSLAX25Y25*%
%MOIN*%
G70*
G01*
G75*
%ADD110C,0.00200*%
D110*
X69803Y84685D02*
X72165D01*
X70984Y83504D02*
Y85866D01*
X69803Y89685D02*
X72165D01*
X70984Y88504D02*
Y90866D01*
X69803Y74685D02*
X72165D01*
X70984Y73504D02*
Y75866D01*
X69803Y79685D02*
X72165D01*
X70984Y78504D02*
Y80866D01*
X69803Y134685D02*
X72165D01*
X70984Y133504D02*
Y135866D01*
X69803Y94685D02*
X72165D01*
X70984Y93504D02*
Y95866D01*
X69803Y99685D02*
X72165D01*
X70984Y98504D02*
Y100866D01*
X69803Y104685D02*
X72165D01*
X70984Y103504D02*
Y105866D01*
X69803Y109685D02*
X72165D01*
X70984Y108504D02*
Y110866D01*
X69803Y119685D02*
X72165D01*
X70984Y118504D02*
Y120866D01*
X69803Y144685D02*
X72165D01*
X70984Y143504D02*
Y145866D01*
X69803Y129685D02*
X72165D01*
X70984Y128504D02*
Y130866D01*
X69803Y139685D02*
X72165D01*
X70984Y138504D02*
Y140866D01*
X69803Y169685D02*
X72165D01*
X70984Y168504D02*
Y170866D01*
X69803Y174685D02*
X72165D01*
X70984Y173504D02*
Y175866D01*
X69803Y154685D02*
X72165D01*
X70984Y153504D02*
Y155866D01*
X69803Y159685D02*
X72165D01*
X70984Y158504D02*
Y160866D01*
X69803Y179685D02*
X72165D01*
X70984Y178504D02*
Y180866D01*
X69803Y184685D02*
X72165D01*
X70984Y183504D02*
Y185866D01*
X69803Y194685D02*
X72165D01*
X70984Y193504D02*
Y195866D01*
X69803Y199685D02*
X72165D01*
X70984Y198504D02*
Y200866D01*
X69803Y164685D02*
X72165D01*
X70984Y163504D02*
Y165866D01*
X69803Y189685D02*
X72165D01*
X70984Y188504D02*
Y190866D01*
X69803Y219685D02*
X72165D01*
X70984Y218504D02*
Y220866D01*
X69803Y204685D02*
X72165D01*
X70984Y203504D02*
Y205866D01*
X69803Y214685D02*
X72165D01*
X70984Y213504D02*
Y215866D01*
X69803Y209685D02*
X72165D01*
X70984Y208504D02*
Y210866D01*
X74803Y89685D02*
X77165D01*
X75984Y88504D02*
Y90866D01*
X74803Y94685D02*
X77165D01*
X75984Y93504D02*
Y95866D01*
X74803Y74685D02*
X77165D01*
X75984Y73504D02*
Y75866D01*
X74803Y79685D02*
X77165D01*
X75984Y78504D02*
Y80866D01*
X69803Y114685D02*
X72165D01*
X70984Y113504D02*
Y115866D01*
X69803Y124685D02*
X72165D01*
X70984Y123504D02*
Y125866D01*
X74803Y99685D02*
X77165D01*
X75984Y98504D02*
Y100866D01*
X74803Y104685D02*
X77165D01*
X75984Y103504D02*
Y105866D01*
X74803Y114685D02*
X77165D01*
X75984Y113504D02*
Y115866D01*
X74803Y119685D02*
X77165D01*
X75984Y118504D02*
Y120866D01*
X74803Y84685D02*
X77165D01*
X75984Y83504D02*
Y85866D01*
X74803Y109685D02*
X77165D01*
X75984Y108504D02*
Y110866D01*
X74803Y124685D02*
X77165D01*
X75984Y123504D02*
Y125866D01*
X74803Y129685D02*
X77165D01*
X75984Y128504D02*
Y130866D01*
X74803Y139685D02*
X77165D01*
X75984Y138504D02*
Y140866D01*
X74803Y134685D02*
X77165D01*
X75984Y133504D02*
Y135866D01*
X74803Y144685D02*
X77165D01*
X75984Y143504D02*
Y145866D01*
X69803Y149685D02*
X72165D01*
X70984Y148504D02*
Y150866D01*
X74803Y149685D02*
X77165D01*
X75984Y148504D02*
Y150866D01*
X74803Y154685D02*
X77165D01*
X75984Y153504D02*
Y155866D01*
X74803Y169685D02*
X77165D01*
X75984Y168504D02*
Y170866D01*
X74803Y174685D02*
X77165D01*
X75984Y173504D02*
Y175866D01*
X74803Y159685D02*
X77165D01*
X75984Y158504D02*
Y160866D01*
X74803Y164685D02*
X77165D01*
X75984Y163504D02*
Y165866D01*
X74803Y189685D02*
X77165D01*
X75984Y188504D02*
Y190866D01*
X74803Y194685D02*
X77165D01*
X75984Y193504D02*
Y195866D01*
X74803Y179685D02*
X77165D01*
X75984Y178504D02*
Y180866D01*
X74803Y184685D02*
X77165D01*
X75984Y183504D02*
Y185866D01*
X74803Y214685D02*
X77165D01*
X75984Y213504D02*
Y215866D01*
X74803Y219685D02*
X77165D01*
X75984Y218504D02*
Y220866D01*
X74803Y199685D02*
X77165D01*
X75984Y198504D02*
Y200866D01*
X74803Y209685D02*
X77165D01*
X75984Y208504D02*
Y210866D01*
X74803Y204685D02*
X77165D01*
X75984Y203504D02*
Y205866D01*
X237795Y154685D02*
X240158D01*
X238976Y153504D02*
Y155866D01*
X237795Y149685D02*
X240158D01*
X238976Y148504D02*
Y150866D01*
X237795Y159685D02*
X240158D01*
X238976Y158504D02*
Y160866D01*
X237795Y164685D02*
X240158D01*
X238976Y163504D02*
Y165866D01*
X237795Y169685D02*
X240158D01*
X238976Y168504D02*
Y170866D01*
X237795Y179685D02*
X240158D01*
X238976Y178504D02*
Y180866D01*
X237795Y199685D02*
X240158D01*
X238976Y198504D02*
Y200866D01*
X237795Y194685D02*
X240158D01*
X238976Y193504D02*
Y195866D01*
X237795Y209685D02*
X240158D01*
X238976Y208504D02*
Y210866D01*
X237795Y189685D02*
X240158D01*
X238976Y188504D02*
Y190866D01*
X237795Y214685D02*
X240158D01*
X238976Y213504D02*
Y215866D01*
X237795Y219685D02*
X240158D01*
X238976Y218504D02*
Y220866D01*
X242795Y154685D02*
X245158D01*
X243976Y153504D02*
Y155866D01*
X242795Y149685D02*
X245158D01*
X243976Y148504D02*
Y150866D01*
X237795Y174685D02*
X240158D01*
X238976Y173504D02*
Y175866D01*
X242795Y159685D02*
X245158D01*
X243976Y158504D02*
Y160866D01*
X242795Y169685D02*
X245158D01*
X243976Y168504D02*
Y170866D01*
X242795Y164685D02*
X245158D01*
X243976Y163504D02*
Y165866D01*
X242795Y174685D02*
X245158D01*
X243976Y173504D02*
Y175866D01*
X242795Y179685D02*
X245158D01*
X243976Y178504D02*
Y180866D01*
X237795Y184685D02*
X240158D01*
X238976Y183504D02*
Y185866D01*
X242795Y184685D02*
X245158D01*
X243976Y183504D02*
Y185866D01*
X237795Y204685D02*
X240158D01*
X238976Y203504D02*
Y205866D01*
X242795Y189685D02*
X245158D01*
X243976Y188504D02*
Y190866D01*
X242795Y194685D02*
X245158D01*
X243976Y193504D02*
Y195866D01*
X242795Y204685D02*
X245158D01*
X243976Y203504D02*
Y205866D01*
X242795Y199685D02*
X245158D01*
X243976Y198504D02*
Y200866D01*
X242795Y219685D02*
X245158D01*
X243976Y218504D02*
Y220866D01*
X242795Y209685D02*
X245158D01*
X243976Y208504D02*
Y210866D01*
X242795Y214685D02*
X245158D01*
X243976Y213504D02*
Y215866D01*
X79803Y231221D02*
X82165D01*
X80984Y230039D02*
Y232402D01*
X74803Y231221D02*
X77165D01*
X75984Y230039D02*
Y232402D01*
X89803Y231221D02*
X92165D01*
X90984Y230039D02*
Y232402D01*
X84803Y231221D02*
X87165D01*
X85984Y230039D02*
Y232402D01*
X74803Y236221D02*
X77165D01*
X75984Y235039D02*
Y237402D01*
X79803Y236221D02*
X82165D01*
X80984Y235039D02*
Y237402D01*
X84803Y236221D02*
X87165D01*
X85984Y235039D02*
Y237402D01*
X89803Y236221D02*
X92165D01*
X90984Y235039D02*
Y237402D01*
X94803Y236221D02*
X97165D01*
X95984Y235039D02*
Y237402D01*
X104803Y231221D02*
X107165D01*
X105984Y230039D02*
Y232402D01*
X94803Y231221D02*
X97165D01*
X95984Y230039D02*
Y232402D01*
X99803Y231221D02*
X102165D01*
X100984Y230039D02*
Y232402D01*
X109803Y231221D02*
X112165D01*
X110984Y230039D02*
Y232402D01*
X114803Y231221D02*
X117165D01*
X115984Y230039D02*
Y232402D01*
X119803Y231221D02*
X122165D01*
X120984Y230039D02*
Y232402D01*
X109803Y236221D02*
X112165D01*
X110984Y235039D02*
Y237402D01*
X99803Y236221D02*
X102165D01*
X100984Y235039D02*
Y237402D01*
X104803Y236221D02*
X107165D01*
X105984Y235039D02*
Y237402D01*
X114803Y236221D02*
X117165D01*
X115984Y235039D02*
Y237402D01*
X119803Y236221D02*
X122165D01*
X120984Y235039D02*
Y237402D01*
X182047Y59055D02*
X184409D01*
X183228Y57874D02*
Y60236D01*
X187047Y59055D02*
X189409D01*
X188228Y57874D02*
Y60236D01*
X177047Y59055D02*
X179409D01*
X178228Y57874D02*
Y60236D01*
X202047Y59055D02*
X204409D01*
X203228Y57874D02*
Y60236D01*
X207047Y59055D02*
X209409D01*
X208228Y57874D02*
Y60236D01*
X192047Y59055D02*
X194409D01*
X193228Y57874D02*
Y60236D01*
X187047Y64055D02*
X189409D01*
X188228Y62874D02*
Y65236D01*
X192047Y64055D02*
X194409D01*
X193228Y62874D02*
Y65236D01*
X177047Y64055D02*
X179409D01*
X178228Y62874D02*
Y65236D01*
X182047Y64055D02*
X184409D01*
X183228Y62874D02*
Y65236D01*
X197047Y64055D02*
X199409D01*
X198228Y62874D02*
Y65236D01*
X197047Y59055D02*
X199409D01*
X198228Y57874D02*
Y60236D01*
X207047Y64055D02*
X209409D01*
X208228Y62874D02*
Y65236D01*
X202047Y64055D02*
X204409D01*
X203228Y62874D02*
Y65236D01*
X222047Y59055D02*
X224410D01*
X223228Y57874D02*
Y60236D01*
X227047Y59055D02*
X229410D01*
X228228Y57874D02*
Y60236D01*
X212047Y59055D02*
X214409D01*
X213228Y57874D02*
Y60236D01*
X217047Y59055D02*
X219409D01*
X218228Y57874D02*
Y60236D01*
X232047Y59055D02*
X234409D01*
X233228Y57874D02*
Y60236D01*
X237047Y59055D02*
X239409D01*
X238228Y57874D02*
Y60236D01*
X242047Y59055D02*
X244409D01*
X243228Y57874D02*
Y60236D01*
X247047Y59055D02*
X249410D01*
X248228Y57874D02*
Y60236D01*
X227047Y64055D02*
X229410D01*
X228228Y62874D02*
Y65236D01*
X232047Y64055D02*
X234409D01*
X233228Y62874D02*
Y65236D01*
X212047Y64055D02*
X214409D01*
X213228Y62874D02*
Y65236D01*
X222047Y64055D02*
X224410D01*
X223228Y62874D02*
Y65236D01*
X217047Y64055D02*
X219409D01*
X218228Y62874D02*
Y65236D01*
X237047Y64055D02*
X239409D01*
X238228Y62874D02*
Y65236D01*
X242047Y64055D02*
X244409D01*
X243228Y62874D02*
Y65236D01*
X247047Y64055D02*
X249410D01*
X248228Y62874D02*
Y65236D01*
X172795Y231221D02*
X175157D01*
X173976Y230039D02*
Y232402D01*
X177795Y231221D02*
X180157D01*
X178976Y230039D02*
Y232402D01*
X167795Y231221D02*
X170157D01*
X168976Y230039D02*
Y232402D01*
X192795Y231221D02*
X195157D01*
X193976Y230039D02*
Y232402D01*
X197795Y231221D02*
X200157D01*
X198976Y230039D02*
Y232402D01*
X182795Y231221D02*
X185157D01*
X183976Y230039D02*
Y232402D01*
X177795Y236221D02*
X180157D01*
X178976Y235039D02*
Y237402D01*
X182795Y236221D02*
X185157D01*
X183976Y235039D02*
Y237402D01*
X167795Y236221D02*
X170157D01*
X168976Y235039D02*
Y237402D01*
X172795Y236221D02*
X175157D01*
X173976Y235039D02*
Y237402D01*
X187795Y236221D02*
X190157D01*
X188976Y235039D02*
Y237402D01*
X187795Y231221D02*
X190157D01*
X188976Y230039D02*
Y232402D01*
X197795Y236221D02*
X200157D01*
X198976Y235039D02*
Y237402D01*
X192795Y236221D02*
X195157D01*
X193976Y235039D02*
Y237402D01*
X212795Y231221D02*
X215157D01*
X213976Y230039D02*
Y232402D01*
X217795Y231221D02*
X220157D01*
X218976Y230039D02*
Y232402D01*
X202795Y231221D02*
X205157D01*
X203976Y230039D02*
Y232402D01*
X207795Y231221D02*
X210157D01*
X208976Y230039D02*
Y232402D01*
X222795Y231221D02*
X225157D01*
X223976Y230039D02*
Y232402D01*
X227795Y231221D02*
X230157D01*
X228976Y230039D02*
Y232402D01*
X232795Y231221D02*
X235157D01*
X233976Y230039D02*
Y232402D01*
X237795Y231221D02*
X240157D01*
X238976Y230039D02*
Y232402D01*
X217795Y236221D02*
X220157D01*
X218976Y235039D02*
Y237402D01*
X222795Y236221D02*
X225157D01*
X223976Y235039D02*
Y237402D01*
X202795Y236221D02*
X205157D01*
X203976Y235039D02*
Y237402D01*
X212795Y236221D02*
X215157D01*
X213976Y235039D02*
Y237402D01*
X207795Y236221D02*
X210157D01*
X208976Y235039D02*
Y237402D01*
X227795Y236221D02*
X230157D01*
X228976Y235039D02*
Y237402D01*
X232795Y236221D02*
X235157D01*
X233976Y235039D02*
Y237402D01*
X237795Y236221D02*
X240157D01*
X238976Y235039D02*
Y237402D01*
X133268Y229921D02*
X136811D01*
X135039Y228150D02*
Y231693D01*
X128740Y240551D02*
X133465D01*
X131102Y238189D02*
Y242913D01*
X152953Y229921D02*
X156496D01*
X154724Y228150D02*
Y231693D01*
X156299Y240551D02*
X161024D01*
X158661Y238189D02*
Y242913D01*
X212913Y112441D02*
X215669D01*
X214291Y111063D02*
Y113819D01*
X212913Y122441D02*
X215669D01*
X214291Y121063D02*
Y123819D01*
X212913Y127441D02*
X215669D01*
X214291Y126063D02*
Y128819D01*
X212913Y117441D02*
X215669D01*
X214291Y116063D02*
Y118819D01*
X212913Y132441D02*
X215669D01*
X214291Y131063D02*
Y133819D01*
X217913Y112441D02*
X220669D01*
X219291Y111063D02*
Y113819D01*
X217913Y117441D02*
X220669D01*
X219291Y116063D02*
Y118819D01*
X217913Y122441D02*
X220669D01*
X219291Y121063D02*
Y123819D01*
X217913Y127441D02*
X220669D01*
X219291Y126063D02*
Y128819D01*
X217913Y132441D02*
X220669D01*
X219291Y131063D02*
Y133819D01*
X243110Y89370D02*
X245866D01*
X244488Y87992D02*
Y90748D01*
X250197Y89370D02*
X252953D01*
X251575Y87992D02*
Y90748D01*
X115079Y68898D02*
X124134D01*
X119606Y64370D02*
Y73425D01*
X136575Y87441D02*
X140197D01*
X138386Y85630D02*
Y89252D01*
X162480Y68898D02*
X171535D01*
X167008Y64370D02*
Y73425D01*
X136575Y79567D02*
X140197D01*
X138386Y77756D02*
Y81378D01*
X146417Y79567D02*
X150039D01*
X148228Y77756D02*
Y81378D01*
X146417Y87441D02*
X150039D01*
X148228Y85630D02*
Y89252D01*
X93701Y57874D02*
X97638D01*
X95669Y55905D02*
Y59842D01*
X83858Y69685D02*
X86221D01*
X85039Y68504D02*
Y70866D01*
X85827Y79921D02*
X88976D01*
X87402Y78347D02*
Y81496D01*
X91339Y79921D02*
X94488D01*
X92913Y78347D02*
Y81496D01*
X96850Y79921D02*
X100000D01*
X98425Y78347D02*
Y81496D01*
X102362Y79921D02*
X105512D01*
X103937Y78347D02*
Y81496D01*
X105118Y69685D02*
X107480D01*
X106299Y68504D02*
Y70866D01*
X243307Y234252D02*
X251181D01*
X247244Y230315D02*
Y238189D01*
X64567Y59055D02*
X73228D01*
X68898Y54724D02*
Y63386D01*
X200787Y183628D02*
X201575D01*
X201181Y183234D02*
Y184021D01*
X203150Y185433D02*
X203937D01*
X203543Y185039D02*
Y185827D01*
X198425Y185433D02*
X199213D01*
X198819Y185039D02*
Y185827D01*
X140945Y105709D02*
X142126D01*
X141535Y105118D02*
Y106299D01*
X140945Y110039D02*
X142126D01*
X141535Y109449D02*
Y110630D01*
X145276Y105709D02*
X146457D01*
X145866Y105118D02*
Y106299D01*
X145276Y110039D02*
X146457D01*
X145866Y109449D02*
Y110630D01*
X100000Y148819D02*
X100787D01*
X100393Y148425D02*
Y149212D01*
X101460Y151941D02*
X102248D01*
X101854Y151547D02*
Y152334D01*
X99606Y153543D02*
X100393D01*
X100000Y153149D02*
Y153937D01*
X103543Y150394D02*
X104331D01*
X103937Y150000D02*
Y150787D01*
X130315Y109840D02*
X131102D01*
X130709Y109447D02*
Y110234D01*
X162992Y167716D02*
X163779D01*
X163385Y167323D02*
Y168110D01*
X162992Y163779D02*
X163779D01*
X163385Y163385D02*
Y164173D01*
X149212Y153543D02*
X150000D01*
X149606Y153150D02*
Y153937D01*
X123593Y187431D02*
X124380D01*
X123986Y187037D02*
Y187825D01*
X213397Y157895D02*
X214184D01*
X213791Y157501D02*
Y158288D01*
X198031Y151575D02*
X198819D01*
X198425Y151181D02*
Y151969D01*
X195275Y159449D02*
X196063D01*
X195669Y159055D02*
Y159842D01*
X213779Y167716D02*
X214566D01*
X214173Y167323D02*
Y168110D01*
X205512Y169685D02*
X206299D01*
X205906Y169291D02*
Y170079D01*
X223625Y181496D02*
X224412D01*
X224019Y181102D02*
Y181890D01*
X214567D02*
X215354D01*
X214961Y181496D02*
Y182283D01*
X217717Y181869D02*
X218504D01*
X218110Y181475D02*
Y182262D01*
X211024Y172047D02*
X211811D01*
X211417Y171653D02*
Y172441D01*
X201969Y137402D02*
X202756D01*
X202362Y137008D02*
Y137795D01*
X114961Y183071D02*
X115748D01*
X115354Y182677D02*
Y183465D01*
X127165Y175197D02*
X127953D01*
X127559Y174803D02*
Y175590D01*
X123457Y167094D02*
X124245D01*
X123851Y166700D02*
Y167488D01*
X147244Y167323D02*
X148031D01*
X147638Y166929D02*
Y167717D01*
X135039Y171653D02*
X135827D01*
X135433Y171259D02*
Y172047D01*
Y159055D02*
X136220D01*
X135827Y158661D02*
Y159449D01*
X155118Y159055D02*
X155905D01*
X155511Y158661D02*
Y159449D01*
X147244Y162598D02*
X148031D01*
X147637Y162204D02*
Y162992D01*
X151575D02*
X152362D01*
X151968Y162598D02*
Y163385D01*
X150787Y166929D02*
X151575D01*
X151181Y166535D02*
Y167323D01*
X127559Y187402D02*
X128347D01*
X127953Y187008D02*
Y187795D01*
X131496Y183071D02*
X132283D01*
X131890Y182677D02*
Y183465D01*
X131496Y171653D02*
X132283D01*
X131890Y171260D02*
Y172047D01*
X155512Y167717D02*
X156299D01*
X155905Y167323D02*
Y168110D01*
X142913Y162992D02*
X143701D01*
X143307Y162598D02*
Y163385D01*
X139370Y170472D02*
X140157D01*
X139763Y170078D02*
Y170866D01*
X143701D02*
X144488D01*
X144094Y170472D02*
Y171259D01*
X131102Y166929D02*
X131889D01*
X131496Y166535D02*
Y167323D01*
X127119Y162946D02*
X127907D01*
X127513Y162552D02*
Y163340D01*
X122989Y159595D02*
X123777D01*
X123383Y159201D02*
Y159988D01*
X123622Y163760D02*
X124409D01*
X124016Y163366D02*
Y164154D01*
X147637Y155118D02*
X148425D01*
X148031Y154724D02*
Y155511D01*
X138976Y155118D02*
X139763D01*
X139370Y154724D02*
Y155511D01*
X147244Y159449D02*
X148031D01*
X147638Y159055D02*
Y159843D01*
X139370Y159449D02*
X140157D01*
X139764Y159055D02*
Y159843D01*
X131540Y163429D02*
X132327D01*
X131933Y163036D02*
Y163823D01*
X131496Y159449D02*
X132283D01*
X131890Y159055D02*
Y159843D01*
X135433Y175197D02*
X136221D01*
X135827Y174803D02*
Y175591D01*
X86614Y138976D02*
X87402D01*
X87008Y138583D02*
Y139370D01*
X201969Y71260D02*
X202756D01*
X202362Y70866D02*
Y71653D01*
X203149Y98425D02*
X203937D01*
X203543Y98031D02*
Y98819D01*
X222441Y82520D02*
X223228D01*
X222835Y82126D02*
Y82913D01*
X222441Y77520D02*
X223228D01*
X222835Y77126D02*
Y77913D01*
X165354Y116142D02*
X166142D01*
X165748Y115748D02*
Y116535D01*
X166142Y118898D02*
X166929D01*
X166535Y118504D02*
Y119291D01*
X165748Y122047D02*
X166535D01*
X166142Y121653D02*
Y122441D01*
X167716Y125590D02*
X168504D01*
X168110Y125197D02*
Y125984D01*
X170280Y122835D02*
X171067D01*
X170673Y122441D02*
Y123228D01*
X169685Y129921D02*
X170472D01*
X170078Y129527D02*
Y130315D01*
X173228Y133071D02*
X174015D01*
X173622Y132677D02*
Y133464D01*
X166142Y129921D02*
X166929D01*
X166535Y129528D02*
Y130315D01*
X164173Y128347D02*
X164961D01*
X164567Y127953D02*
Y128740D01*
X161811Y125872D02*
X162598D01*
X162205Y125478D02*
Y126266D01*
X162204Y130708D02*
X162992D01*
X162598Y130315D02*
Y131102D01*
X166535Y132283D02*
X167323D01*
X166929Y131889D02*
Y132677D01*
X150393Y127953D02*
X151181D01*
X150787Y127559D02*
Y128346D01*
X152756Y128347D02*
X153543D01*
X153150Y127953D02*
Y128740D01*
X147244Y126771D02*
X148031D01*
X147637Y126378D02*
Y127165D01*
X211024Y103543D02*
X211811D01*
X211417Y103150D02*
Y103937D01*
X153610Y132311D02*
X154398D01*
X154004Y131917D02*
Y132705D01*
X200394Y127559D02*
X201181D01*
X200787Y127165D02*
Y127953D01*
X135422Y93701D02*
X136209D01*
X135815Y93307D02*
Y94095D01*
X144488Y93701D02*
X145276D01*
X144882Y93307D02*
Y94095D01*
X144488Y97244D02*
X145276D01*
X144882Y96850D02*
Y97638D01*
X135827Y97638D02*
X136614D01*
X136221Y97244D02*
Y98032D01*
X131539Y100787D02*
X132327D01*
X131933Y100394D02*
Y101181D01*
X173228Y120079D02*
X174016D01*
X173622Y119685D02*
Y120472D01*
X179527Y137795D02*
X180315D01*
X179921Y137401D02*
Y138189D01*
X180315Y141732D02*
X181102D01*
X180709Y141339D02*
Y142126D01*
X176378Y145275D02*
X177165D01*
X176771Y144882D02*
Y145669D01*
X135433Y143307D02*
X136221D01*
X135827Y142913D02*
Y143701D01*
X147244Y135039D02*
X148031D01*
X147637Y134645D02*
Y135433D01*
X155680Y117436D02*
X156467D01*
X156074Y117042D02*
Y117829D01*
X163386Y112992D02*
X164173D01*
X163779Y112598D02*
Y113386D01*
X161429Y107874D02*
X162216D01*
X161823Y107480D02*
Y108267D01*
X220866Y103543D02*
X221654D01*
X221260Y103150D02*
Y103937D01*
X220866Y107480D02*
X221654D01*
X221260Y107087D02*
Y107874D01*
X65748Y174016D02*
X66535D01*
X66142Y173622D02*
Y174409D01*
X229429Y126378D02*
X230413D01*
X229921Y125886D02*
Y126870D01*
X229429Y123228D02*
X230413D01*
X229921Y122736D02*
Y123721D01*
X229429Y120079D02*
X230413D01*
X229921Y119587D02*
Y120571D01*
X229429Y116929D02*
X230413D01*
X229921Y116437D02*
Y117421D01*
X232579Y116929D02*
X233563D01*
X233071Y116437D02*
Y117421D01*
X232579Y120079D02*
X233563D01*
X233071Y119587D02*
Y120571D01*
X232579Y123228D02*
X233563D01*
X233071Y122736D02*
Y123721D01*
X232579Y113779D02*
X233563D01*
X233071Y113287D02*
Y114272D01*
X229429Y113779D02*
X230413D01*
X229921Y113287D02*
Y114272D01*
X226279Y113779D02*
X227264D01*
X226772Y113287D02*
Y114272D01*
X226279Y116929D02*
X227264D01*
X226772Y116437D02*
Y117421D01*
X226279Y120029D02*
X227264D01*
X226772Y119537D02*
Y120521D01*
X226279Y123228D02*
X227264D01*
X226772Y122736D02*
Y123721D01*
X232579Y126378D02*
X233563D01*
X233071Y125886D02*
Y126870D01*
X226279Y126378D02*
X227264D01*
X226772Y125886D02*
Y126870D01*
X251181Y126671D02*
X251968D01*
X251575Y126277D02*
Y127065D01*
X227815Y94095D02*
X228602D01*
X228209Y93701D02*
Y94488D01*
X227815Y89370D02*
X228602D01*
X228209Y88976D02*
Y89764D01*
X194488Y154724D02*
X195276D01*
X194882Y154331D02*
Y155118D01*
X182677Y175197D02*
X183465D01*
X183071Y174803D02*
Y175591D01*
X182677Y170472D02*
X183465D01*
X183071Y170079D02*
Y170866D01*
X181496Y180315D02*
X182283D01*
X181889Y179921D02*
Y180708D01*
X205512Y177953D02*
X206299D01*
X205906Y177559D02*
Y178347D01*
X133858Y119685D02*
X134646D01*
X134252Y119291D02*
Y120079D01*
X136614Y118898D02*
X137402D01*
X137008Y118504D02*
Y119291D01*
X135039Y122441D02*
X135827D01*
X135433Y122047D02*
Y122834D01*
X152362Y97244D02*
X153150D01*
X152756Y96850D02*
Y97638D01*
X238386Y103829D02*
X239173D01*
X238780Y103436D02*
Y104223D01*
X96456Y154330D02*
X97244D01*
X96850Y153937D02*
Y154724D01*
X87795Y141732D02*
X88582D01*
X88189Y141338D02*
Y142126D01*
X133858Y134252D02*
X134646D01*
X134252Y133858D02*
Y134646D01*
X126771Y123622D02*
X127559D01*
X127165Y123228D02*
Y124015D01*
X103937Y140945D02*
X104724D01*
X104331Y140551D02*
Y141339D01*
X141339Y123228D02*
X142126D01*
X141732Y122835D02*
Y123622D01*
X238386Y89370D02*
X239173D01*
X238780Y88976D02*
Y89764D01*
X250590Y76772D02*
X251378D01*
X250984Y76378D02*
Y77165D01*
X250394Y101969D02*
X251181D01*
X250787Y101575D02*
Y102362D01*
X207480Y172834D02*
X208267D01*
X207874Y172441D02*
Y173228D01*
X210236Y166929D02*
X211023D01*
X210630Y166535D02*
Y167323D01*
X213450Y176048D02*
X214237D01*
X213844Y175655D02*
Y176442D01*
X213779Y164173D02*
X214567D01*
X214173Y163779D02*
Y164567D01*
X212992Y154677D02*
X213779D01*
X213385Y154283D02*
Y155071D01*
X211811Y150000D02*
X212598D01*
X212205Y149606D02*
Y150394D01*
X143307Y198819D02*
X144095D01*
X143701Y198425D02*
Y199213D01*
X213779Y160630D02*
X214566D01*
X214173Y160236D02*
Y161023D01*
X201574Y162598D02*
X202362D01*
X201968Y162204D02*
Y162992D01*
X201533Y169110D02*
X202321D01*
X201927Y168716D02*
Y169504D01*
X205118Y164567D02*
X205905D01*
X205511Y164173D02*
Y164960D01*
X149213Y199213D02*
X150000D01*
X149606Y198819D02*
Y199606D01*
X163385Y134645D02*
X164173D01*
X163779Y134252D02*
Y135039D01*
X164961Y177165D02*
X165748D01*
X165354Y176772D02*
Y177559D01*
X125591Y177165D02*
X126378D01*
X125984Y176772D02*
Y177559D01*
X205118Y161024D02*
X205906D01*
X205512Y160630D02*
Y161417D01*
X205118Y157480D02*
X205905D01*
X205511Y157086D02*
Y157874D01*
Y167323D02*
X206299D01*
X205905Y166929D02*
Y167717D01*
X208661Y176378D02*
X209449D01*
X209055Y175984D02*
Y176772D01*
X87402Y185433D02*
X88189D01*
X87795Y185039D02*
Y185827D01*
X82284Y187955D02*
X83071D01*
X82677Y187562D02*
Y188349D01*
X194488Y183858D02*
X195276D01*
X194882Y183465D02*
Y184252D01*
X170866Y159449D02*
X171653D01*
X171260Y159055D02*
Y159843D01*
X166929Y167323D02*
X167717D01*
X167323Y166929D02*
Y167717D01*
X192126Y177559D02*
X192913D01*
X192520Y177165D02*
Y177953D01*
X194095Y180709D02*
X194882D01*
X194488Y180315D02*
Y181102D01*
X166929Y163386D02*
X167717D01*
X167323Y162992D02*
Y163779D01*
X190945Y166535D02*
X191732D01*
X191339Y166142D02*
Y166929D01*
X179527Y177952D02*
X180315D01*
X179921Y177559D02*
Y178346D01*
X194488Y175590D02*
X195275D01*
X194881Y175197D02*
Y175984D01*
X182283Y185433D02*
X183071D01*
X182677Y185039D02*
Y185827D01*
X201575Y178347D02*
X202362D01*
X201969Y177953D02*
Y178740D01*
X135039Y139370D02*
X135827D01*
X135433Y138976D02*
Y139763D01*
X137402Y141732D02*
X138189D01*
X137795Y141339D02*
Y142126D01*
X104724Y183465D02*
X105512D01*
X105118Y183071D02*
Y183858D01*
X101575Y183465D02*
X102362D01*
X101969Y183071D02*
Y183858D01*
X99213Y185433D02*
X100000D01*
X99606Y185039D02*
Y185827D01*
X96850Y187402D02*
X97638D01*
X97244Y187008D02*
Y187795D01*
X94488Y185433D02*
X95276D01*
X94882Y185039D02*
Y185827D01*
X92520Y187402D02*
X93307D01*
X92913Y187008D02*
Y187795D01*
X90158Y185433D02*
X90945D01*
X90551Y185039D02*
Y185827D01*
X84646Y185433D02*
X85433D01*
X85039Y185039D02*
Y185827D01*
X83939Y202185D02*
X84726D01*
X84332Y201791D02*
Y202579D01*
X81102Y197244D02*
X81890D01*
X81496Y196850D02*
Y197638D01*
X102756Y120079D02*
X103543D01*
X103149Y119685D02*
Y120472D01*
X155118Y183071D02*
X155905D01*
X155512Y182677D02*
Y183465D01*
X93701Y172441D02*
X94488D01*
X94095Y172047D02*
Y172835D01*
X93701Y164567D02*
X94488D01*
X94095Y164173D02*
Y164961D01*
X101969Y138189D02*
X102756D01*
X102362Y137795D02*
Y138583D01*
X98130Y137106D02*
X98917D01*
X98523Y136712D02*
Y137500D01*
X102756Y129134D02*
X103543D01*
X103150Y128740D02*
Y129528D01*
X105512Y126771D02*
X106299D01*
X105905Y126378D02*
Y127165D01*
Y130315D02*
X106693D01*
X106299Y129921D02*
Y130708D01*
X105512Y122047D02*
X106299D01*
X105905Y121653D02*
Y122441D01*
X102747Y125197D02*
X103534D01*
X103140Y124803D02*
Y125590D01*
X110901Y139764D02*
X111688D01*
X111294Y139370D02*
Y140157D01*
X94488Y140945D02*
X95275D01*
X94882Y140551D02*
Y141338D01*
X102756Y117717D02*
X103543D01*
X103150Y117323D02*
Y118110D01*
X102756Y114567D02*
X103543D01*
X103150Y114173D02*
Y114961D01*
X151181Y147638D02*
X151968D01*
X151575Y147244D02*
Y148031D01*
X124015Y148031D02*
X124803D01*
X124409Y147637D02*
Y148425D01*
X169697Y95755D02*
X170484D01*
X170091Y95361D02*
Y96148D01*
X159055Y159449D02*
X159843D01*
X159449Y159055D02*
Y159843D01*
X175984Y151181D02*
X176771D01*
X176378Y150787D02*
Y151575D01*
X172835Y157480D02*
X173622D01*
X173228Y157087D02*
Y157874D01*
X159055Y163386D02*
X159843D01*
X159449Y162992D02*
Y163779D01*
X159055Y167323D02*
X159843D01*
X159449Y166929D02*
Y167717D01*
X161024Y169291D02*
X161811D01*
X161417Y168898D02*
Y169685D01*
X159055Y171260D02*
X159843D01*
X159449Y170866D02*
Y171653D01*
X157087Y173228D02*
X157874D01*
X157480Y172835D02*
Y173622D01*
X159055Y175197D02*
X159843D01*
X159449Y174803D02*
Y175591D01*
X157087Y177165D02*
X157874D01*
X157480Y176772D02*
Y177559D01*
X177165Y192913D02*
X177952D01*
X177559Y192519D02*
Y193307D01*
X84646Y160630D02*
X85433D01*
X85039Y160236D02*
Y161024D01*
X81496Y157874D02*
X82284D01*
X81890Y157480D02*
Y158268D01*
X93307Y159449D02*
X94094D01*
X93701Y159055D02*
Y159842D01*
X87402Y152362D02*
X88189D01*
X87795Y151969D02*
Y152756D01*
X97244Y142519D02*
X98031D01*
X97638Y142126D02*
Y142913D01*
X154724Y155905D02*
X155511D01*
X155118Y155511D02*
Y156299D01*
Y151181D02*
X155905D01*
X155511Y150787D02*
Y151575D01*
X121653Y149606D02*
X122441D01*
X122047Y149213D02*
Y150000D01*
X146457Y130315D02*
X147244D01*
X146850Y129921D02*
Y130709D01*
X143701Y130315D02*
X144488D01*
X144095Y129921D02*
Y130709D01*
X154330Y122441D02*
X155118D01*
X154724Y122047D02*
Y122834D01*
X94882Y146456D02*
X95669D01*
X95275Y146063D02*
Y146850D01*
X86614D02*
X87401D01*
X87008Y146456D02*
Y147244D01*
X85433Y150787D02*
X86220D01*
X85827Y150393D02*
Y151181D01*
X85039Y155118D02*
X85827D01*
X85433Y154724D02*
Y155511D01*
X96456Y162598D02*
X97244D01*
X96850Y162204D02*
Y162992D01*
X83465Y152362D02*
X84252D01*
X83858Y151969D02*
Y152756D01*
X106693Y166535D02*
X107480D01*
X107086Y166141D02*
Y166929D01*
X139370Y224410D02*
X140157D01*
X139764Y224016D02*
Y224803D01*
X113779Y200394D02*
X114567D01*
X114173Y200000D02*
Y200787D01*
X166929Y151575D02*
X167717D01*
X167323Y151181D02*
Y151969D01*
X155118Y175197D02*
X155905D01*
X155512Y174803D02*
Y175591D01*
X164961Y185039D02*
X165748D01*
X165354Y184646D02*
Y185433D01*
X123622Y175591D02*
X124409D01*
X124016Y175197D02*
Y175984D01*
X78740Y157480D02*
X79528D01*
X79134Y157087D02*
Y157874D01*
X132677Y109055D02*
X133465D01*
X133071Y108661D02*
Y109449D01*
X138976Y121260D02*
X139764D01*
X139370Y120866D02*
Y121653D01*
X123228Y120472D02*
X124016D01*
X123622Y120079D02*
Y120866D01*
X109843Y113386D02*
X110630D01*
X110236Y112992D02*
Y113779D01*
X123207Y98053D02*
X123994D01*
X123600Y97659D02*
Y98447D01*
X125984Y105118D02*
X126772D01*
X126378Y104724D02*
Y105512D01*
X144488Y225590D02*
X145276D01*
X144882Y225197D02*
Y225984D01*
X146850Y224410D02*
X147638D01*
X147244Y224016D02*
Y224803D01*
X137402Y202362D02*
X138189D01*
X137795Y201969D02*
Y202756D01*
X123622Y179134D02*
X124409D01*
X124016Y178740D02*
Y179528D01*
X125591Y181102D02*
X126378D01*
X125984Y180709D02*
Y181496D01*
X117717Y185039D02*
X118504D01*
X118110Y184646D02*
Y185433D01*
X123622Y198819D02*
X124409D01*
X124016Y198425D02*
Y199213D01*
X125591Y145669D02*
X126378D01*
X125984Y145276D02*
Y146063D01*
X117717Y149606D02*
X118504D01*
X118110Y149213D02*
Y150000D01*
X131496Y155512D02*
X132283D01*
X131890Y155118D02*
Y155905D01*
X116142Y123687D02*
X116929D01*
X116535Y123293D02*
Y124080D01*
X148228Y118504D02*
X149016D01*
X148622Y118110D02*
Y118898D01*
X151969Y119291D02*
X152756D01*
X152362Y118898D02*
Y119685D01*
X150405Y123228D02*
X151193D01*
X150799Y122835D02*
Y123622D01*
X131496Y179134D02*
X132283D01*
X131890Y178740D02*
Y179528D01*
X140945Y236221D02*
X141732D01*
X141339Y235827D02*
Y236614D01*
X148425Y236221D02*
X149213D01*
X148819Y235827D02*
Y236614D01*
X139370Y234252D02*
X140157D01*
X139764Y233858D02*
Y234646D01*
X131496Y221654D02*
X132283D01*
X131890Y221260D02*
Y222047D01*
X217323Y142126D02*
X218110D01*
X217717Y141732D02*
Y142520D01*
X220079Y141732D02*
X220866D01*
X220472Y141339D02*
Y142126D01*
X157087Y153543D02*
X157874D01*
X157480Y153150D02*
Y153937D01*
X159055Y155512D02*
X159843D01*
X159449Y155118D02*
Y155905D01*
X159055Y151575D02*
X159843D01*
X159449Y151181D02*
Y151969D01*
X149213Y141732D02*
X150000D01*
X149606Y141339D02*
Y142126D01*
X161024Y157480D02*
X161811D01*
X161417Y157087D02*
Y157874D01*
X164961Y157480D02*
X165748D01*
X165354Y157087D02*
Y157874D01*
X151181Y159449D02*
X151969D01*
X151575Y159055D02*
Y159843D01*
X149213Y157480D02*
X150000D01*
X149606Y157087D02*
Y157874D01*
X249606Y116556D02*
X250394D01*
X250000Y116162D02*
Y116950D01*
X245276Y135433D02*
X246063D01*
X245669Y135039D02*
Y135827D01*
X153150Y185039D02*
X153937D01*
X153543Y184646D02*
Y185433D01*
X161024Y188976D02*
X161811D01*
X161417Y188583D02*
Y189370D01*
X164961Y192913D02*
X165748D01*
X165354Y192520D02*
Y193307D01*
X168898Y192913D02*
X169685D01*
X169291Y192520D02*
Y193307D01*
X164961Y188976D02*
X165748D01*
X165354Y188583D02*
Y189370D01*
X172835Y192913D02*
X173622D01*
X173228Y192519D02*
Y193307D01*
X164961Y181102D02*
X165748D01*
X165354Y180709D02*
Y181496D01*
X168898Y185039D02*
X169685D01*
X169291Y184646D02*
Y185433D01*
X175197Y188582D02*
X175984D01*
X175590Y188189D02*
Y188976D01*
X168898Y188976D02*
X169685D01*
X169291Y188583D02*
Y189370D01*
X137402Y177165D02*
X138189D01*
X137795Y176772D02*
Y177559D01*
X139370Y187008D02*
X140157D01*
X139764Y186614D02*
Y187402D01*
X141339Y177165D02*
X142126D01*
X141732Y176772D02*
Y177559D01*
X145276Y185039D02*
X146063D01*
X145669Y184646D02*
Y185433D01*
X145276Y181102D02*
X146063D01*
X145669Y180709D02*
Y181496D01*
X149213Y181102D02*
X150000D01*
X149606Y180709D02*
Y181496D01*
X149213Y177165D02*
X150000D01*
X149606Y176772D02*
Y177559D01*
X153150Y181102D02*
X153937D01*
X153543Y180709D02*
Y181496D01*
X138189Y206299D02*
X138976D01*
X138583Y205906D02*
Y206693D01*
X164961Y196850D02*
X165748D01*
X165354Y196457D02*
Y197244D01*
X113779Y196850D02*
X114567D01*
X114173Y196457D02*
Y197244D01*
X172835Y145669D02*
X173622D01*
X173228Y145276D02*
Y146063D01*
X162992Y151575D02*
X163779D01*
X163386Y151181D02*
Y151969D01*
X172835Y181102D02*
X173622D01*
X173228Y180709D02*
Y181496D01*
X161024Y181102D02*
X161811D01*
X161417Y180709D02*
Y181496D01*
X153150Y177165D02*
X153937D01*
X153543Y176772D02*
Y177559D01*
X168898Y196850D02*
X169685D01*
X169291Y196457D02*
Y197244D01*
X161024Y192913D02*
X161811D01*
X161417Y192520D02*
Y193307D01*
X172835Y149606D02*
X173622D01*
X173228Y149213D02*
Y150000D01*
X161024Y141732D02*
X161811D01*
X161417Y141339D02*
Y142126D01*
X203150Y152756D02*
X203937D01*
X203543Y152362D02*
Y153150D01*
X130315Y105512D02*
X131102D01*
X130709Y105118D02*
Y105905D01*
X118110Y109449D02*
X118898D01*
X118504Y109055D02*
Y109843D01*
X127559Y147638D02*
X128347D01*
X127953Y147244D02*
Y148031D01*
X145275Y149606D02*
X146063D01*
X145669Y149212D02*
Y150000D01*
X135433Y147638D02*
X136221D01*
X135827Y147244D02*
Y148031D01*
X143307Y143701D02*
X144095D01*
X143701Y143307D02*
Y144095D01*
X117717Y173228D02*
X118504D01*
X118110Y172835D02*
Y173622D01*
X117717Y177165D02*
X118504D01*
X118110Y176772D02*
Y177559D01*
X117717Y181102D02*
X118504D01*
X118110Y180709D02*
Y181496D01*
X127559Y143701D02*
X128347D01*
X127953Y143307D02*
Y144095D01*
X153555Y100394D02*
X154342D01*
X153949Y100000D02*
Y100787D01*
X142323Y118504D02*
X143110D01*
X142717Y118110D02*
Y118898D01*
X147244Y179134D02*
X148031D01*
X147638Y178740D02*
Y179528D01*
X220472Y175197D02*
X221260D01*
X220866Y174803D02*
Y175591D01*
X157087Y185039D02*
X157874D01*
X157480Y184646D02*
Y185433D01*
X161024Y185039D02*
X161811D01*
X161417Y184646D02*
Y185433D01*
X157087Y181102D02*
X157874D01*
X157480Y180709D02*
Y181496D01*
X156299Y96051D02*
X157087D01*
X156693Y95658D02*
Y96445D01*
X139370Y175197D02*
X140157D01*
X139764Y174803D02*
Y175591D01*
X133465Y177165D02*
X134252D01*
X133858Y176772D02*
Y177559D01*
X145276Y196850D02*
X146063D01*
X145669Y196457D02*
Y197244D01*
X141339Y196850D02*
X142126D01*
X141732Y196457D02*
Y197244D01*
X129528Y192913D02*
X130315D01*
X129921Y192520D02*
Y193307D01*
X137402Y192913D02*
X138189D01*
X137795Y192520D02*
Y193307D01*
X133465Y196850D02*
X134252D01*
X133858Y196457D02*
Y197244D01*
X137402Y196850D02*
X138189D01*
X137795Y196457D02*
Y197244D01*
X129528Y161417D02*
X130315D01*
X129921Y161024D02*
Y161811D01*
X141339Y153543D02*
X142126D01*
X141732Y153150D02*
Y153937D01*
X117717Y141732D02*
X118504D01*
X118110Y141339D02*
Y142126D01*
X157087Y192913D02*
X157874D01*
X157480Y192520D02*
Y193307D01*
X145276Y192913D02*
X146063D01*
X145669Y192520D02*
Y193307D01*
X137402Y137795D02*
X138189D01*
X137795Y137402D02*
Y138189D01*
X147244Y147638D02*
X148031D01*
X147638Y147244D02*
Y148031D01*
X224409Y177952D02*
X225196D01*
X224803Y177559D02*
Y178346D01*
X220472Y172047D02*
X221260D01*
X220866Y171653D02*
Y172441D01*
X217283Y175237D02*
X218071D01*
X217677Y174843D02*
Y175630D01*
X168898Y177165D02*
X169685D01*
X169291Y176772D02*
Y177559D01*
X125591Y169291D02*
X126378D01*
X125984Y168898D02*
Y169685D01*
X141339Y149606D02*
X142126D01*
X141732Y149213D02*
Y150000D01*
X143307Y159449D02*
X144095D01*
X143701Y159055D02*
Y159843D01*
X222047Y152756D02*
X222835D01*
X222441Y152362D02*
Y153150D01*
X135433Y155512D02*
X136221D01*
X135827Y155118D02*
Y155905D01*
X139370Y163386D02*
X140157D01*
X139764Y162992D02*
Y163779D01*
X139370Y167323D02*
X140157D01*
X139764Y166929D02*
Y167717D01*
X143307Y167323D02*
X144095D01*
X143701Y166929D02*
Y167717D01*
X143307Y175197D02*
X144095D01*
X143701Y174803D02*
Y175591D01*
X147244Y171260D02*
X148031D01*
X147638Y170866D02*
Y171653D01*
X147244Y175197D02*
X148031D01*
X147638Y174803D02*
Y175591D01*
X155118Y171260D02*
X155905D01*
X155512Y170866D02*
Y171653D01*
M02*
