G04*
G04 #@! TF.GenerationSoftware,Altium Limited,Altium Designer,19.1.6 (110)*
G04*
G04 Layer_Physical_Order=4*
G04 Layer_Color=16711680*
%FSLAX25Y25*%
%MOIN*%
G70*
G01*
G75*
%ADD12C,0.02362*%
%ADD24C,0.01772*%
G04:AMPARAMS|DCode=26|XSize=31.5mil|YSize=35.43mil|CornerRadius=4.1mil|HoleSize=0mil|Usage=FLASHONLY|Rotation=0.000|XOffset=0mil|YOffset=0mil|HoleType=Round|Shape=RoundedRectangle|*
%AMROUNDEDRECTD26*
21,1,0.03150,0.02724,0,0,0.0*
21,1,0.02331,0.03543,0,0,0.0*
1,1,0.00819,0.01165,-0.01362*
1,1,0.00819,-0.01165,-0.01362*
1,1,0.00819,-0.01165,0.01362*
1,1,0.00819,0.01165,0.01362*
%
%ADD26ROUNDEDRECTD26*%
G04:AMPARAMS|DCode=34|XSize=19.68mil|YSize=21.65mil|CornerRadius=4.92mil|HoleSize=0mil|Usage=FLASHONLY|Rotation=270.000|XOffset=0mil|YOffset=0mil|HoleType=Round|Shape=RoundedRectangle|*
%AMROUNDEDRECTD34*
21,1,0.01968,0.01181,0,0,270.0*
21,1,0.00984,0.02165,0,0,270.0*
1,1,0.00984,-0.00591,-0.00492*
1,1,0.00984,-0.00591,0.00492*
1,1,0.00984,0.00591,0.00492*
1,1,0.00984,0.00591,-0.00492*
%
%ADD34ROUNDEDRECTD34*%
%ADD35R,0.01968X0.01968*%
G04:AMPARAMS|DCode=36|XSize=19.68mil|YSize=21.65mil|CornerRadius=4.92mil|HoleSize=0mil|Usage=FLASHONLY|Rotation=180.000|XOffset=0mil|YOffset=0mil|HoleType=Round|Shape=RoundedRectangle|*
%AMROUNDEDRECTD36*
21,1,0.01968,0.01181,0,0,180.0*
21,1,0.00984,0.02165,0,0,180.0*
1,1,0.00984,-0.00492,0.00591*
1,1,0.00984,0.00492,0.00591*
1,1,0.00984,0.00492,-0.00591*
1,1,0.00984,-0.00492,-0.00591*
%
%ADD36ROUNDEDRECTD36*%
%ADD59C,0.07087*%
%ADD60C,0.05500*%
%ADD71C,0.00433*%
%ADD72C,0.00598*%
%ADD75C,0.00700*%
%ADD76C,0.01968*%
%ADD77C,0.00600*%
%ADD78C,0.01772*%
%ADD79C,0.00591*%
%ADD81C,0.01575*%
%ADD82C,0.01181*%
%ADD85O,0.03740X0.03543*%
G04:AMPARAMS|DCode=86|XSize=35.43mil|YSize=37.4mil|CornerRadius=8.86mil|HoleSize=0mil|Usage=FLASHONLY|Rotation=270.000|XOffset=0mil|YOffset=0mil|HoleType=Round|Shape=RoundedRectangle|*
%AMROUNDEDRECTD86*
21,1,0.03543,0.01968,0,0,270.0*
21,1,0.01772,0.03740,0,0,270.0*
1,1,0.01772,-0.00984,-0.00886*
1,1,0.01772,-0.00984,0.00886*
1,1,0.01772,0.00984,0.00886*
1,1,0.01772,0.00984,-0.00886*
%
%ADD86ROUNDEDRECTD86*%
G04:AMPARAMS|DCode=87|XSize=35.43mil|YSize=37.4mil|CornerRadius=8.86mil|HoleSize=0mil|Usage=FLASHONLY|Rotation=180.000|XOffset=0mil|YOffset=0mil|HoleType=Round|Shape=RoundedRectangle|*
%AMROUNDEDRECTD87*
21,1,0.03543,0.01968,0,0,180.0*
21,1,0.01772,0.03740,0,0,180.0*
1,1,0.01772,-0.00886,0.00984*
1,1,0.01772,0.00886,0.00984*
1,1,0.01772,0.00886,-0.00984*
1,1,0.01772,-0.00886,-0.00984*
%
%ADD87ROUNDEDRECTD87*%
%ADD88O,0.03543X0.03740*%
%ADD89O,0.03937X0.03740*%
G04:AMPARAMS|DCode=90|XSize=37.4mil|YSize=39.37mil|CornerRadius=9.35mil|HoleSize=0mil|Usage=FLASHONLY|Rotation=90.000|XOffset=0mil|YOffset=0mil|HoleType=Round|Shape=RoundedRectangle|*
%AMROUNDEDRECTD90*
21,1,0.03740,0.02067,0,0,90.0*
21,1,0.01870,0.03937,0,0,90.0*
1,1,0.01870,0.01034,0.00935*
1,1,0.01870,0.01034,-0.00935*
1,1,0.01870,-0.01034,-0.00935*
1,1,0.01870,-0.01034,0.00935*
%
%ADD90ROUNDEDRECTD90*%
%ADD91C,0.05906*%
%ADD92C,0.11811*%
%ADD93O,0.05512X0.10236*%
%ADD94O,0.04331X0.04724*%
G04:AMPARAMS|DCode=95|XSize=43.31mil|YSize=47.24mil|CornerRadius=10.83mil|HoleSize=0mil|Usage=FLASHONLY|Rotation=0.000|XOffset=0mil|YOffset=0mil|HoleType=Round|Shape=RoundedRectangle|*
%AMROUNDEDRECTD95*
21,1,0.04331,0.02559,0,0,0.0*
21,1,0.02165,0.04724,0,0,0.0*
1,1,0.02165,0.01083,-0.01280*
1,1,0.02165,-0.01083,-0.01280*
1,1,0.02165,-0.01083,0.01280*
1,1,0.02165,0.01083,0.01280*
%
%ADD95ROUNDEDRECTD95*%
%ADD96O,0.10236X0.07874*%
%ADD97C,0.01968*%
%ADD98R,0.04724X0.05512*%
G04:AMPARAMS|DCode=99|XSize=19.68mil|YSize=21.65mil|CornerRadius=4.04mil|HoleSize=0mil|Usage=FLASHONLY|Rotation=90.000|XOffset=0mil|YOffset=0mil|HoleType=Round|Shape=RoundedRectangle|*
%AMROUNDEDRECTD99*
21,1,0.01968,0.01358,0,0,90.0*
21,1,0.01161,0.02165,0,0,90.0*
1,1,0.00807,0.00679,0.00581*
1,1,0.00807,0.00679,-0.00581*
1,1,0.00807,-0.00679,-0.00581*
1,1,0.00807,-0.00679,0.00581*
%
%ADD99ROUNDEDRECTD99*%
G04:AMPARAMS|DCode=100|XSize=19.68mil|YSize=21.65mil|CornerRadius=4.04mil|HoleSize=0mil|Usage=FLASHONLY|Rotation=180.000|XOffset=0mil|YOffset=0mil|HoleType=Round|Shape=RoundedRectangle|*
%AMROUNDEDRECTD100*
21,1,0.01968,0.01358,0,0,180.0*
21,1,0.01161,0.02165,0,0,180.0*
1,1,0.00807,-0.00581,0.00679*
1,1,0.00807,0.00581,0.00679*
1,1,0.00807,0.00581,-0.00679*
1,1,0.00807,-0.00581,-0.00679*
%
%ADD100ROUNDEDRECTD100*%
%ADD101C,0.01780*%
G36*
X68898Y244024D02*
X128208D01*
X128369Y243550D01*
X128219Y243435D01*
X127570Y242590D01*
X127163Y241607D01*
X127024Y240551D01*
X127163Y239496D01*
X127570Y238512D01*
X128219Y237667D01*
X129063Y237019D01*
X130047Y236612D01*
X131102Y236473D01*
X132158Y236612D01*
X133142Y237019D01*
X133986Y237667D01*
X134634Y238512D01*
X135042Y239496D01*
X135180Y240551D01*
X135042Y241607D01*
X134634Y242590D01*
X133986Y243435D01*
X133836Y243550D01*
X133996Y244024D01*
X155767D01*
X155928Y243550D01*
X155778Y243435D01*
X155130Y242590D01*
X154722Y241607D01*
X154583Y240551D01*
X154722Y239496D01*
X155130Y238512D01*
X155778Y237667D01*
X156622Y237019D01*
X157606Y236612D01*
X158661Y236473D01*
X159717Y236612D01*
X160701Y237019D01*
X161545Y237667D01*
X162193Y238512D01*
X162601Y239496D01*
X162740Y240551D01*
X162601Y241607D01*
X162193Y242590D01*
X161545Y243435D01*
X161395Y243550D01*
X161555Y244024D01*
X246063D01*
X246153Y244042D01*
X247591Y243900D01*
X249060Y243455D01*
X250413Y242731D01*
X251600Y241757D01*
X252574Y240571D01*
X253297Y239217D01*
X253743Y237748D01*
X253884Y236311D01*
X253866Y236221D01*
Y90039D01*
X253366Y89990D01*
X253344Y90103D01*
X252929Y90724D01*
X252308Y91139D01*
X251575Y91285D01*
X250842Y91139D01*
X250221Y90724D01*
X249806Y90103D01*
X249660Y89370D01*
X249806Y88637D01*
X250221Y88016D01*
X250842Y87601D01*
X251575Y87455D01*
X252308Y87601D01*
X252929Y88016D01*
X253344Y88637D01*
X253366Y88750D01*
X253866Y88701D01*
Y59055D01*
X253884Y58965D01*
X253743Y57528D01*
X253297Y56059D01*
X252574Y54705D01*
X251600Y53518D01*
X250413Y52544D01*
X249060Y51821D01*
X247591Y51375D01*
X246153Y51234D01*
X246063Y51252D01*
X156759Y51252D01*
X156757Y51256D01*
X156675Y51752D01*
X156816Y51846D01*
X159965Y54995D01*
X160124Y55232D01*
X160179Y55512D01*
Y67777D01*
X160679Y67801D01*
X160695Y67642D01*
X161061Y66435D01*
X161656Y65322D01*
X162457Y64346D01*
X163432Y63546D01*
X164545Y62951D01*
X165752Y62585D01*
X167008Y62461D01*
X168264Y62585D01*
X169471Y62951D01*
X170584Y63546D01*
X171559Y64346D01*
X172360Y65322D01*
X172954Y66435D01*
X173321Y67642D01*
X173444Y68898D01*
X173321Y70153D01*
X172954Y71361D01*
X172360Y72474D01*
X171559Y73449D01*
X170584Y74249D01*
X169471Y74844D01*
X168264Y75210D01*
X167008Y75334D01*
X165752Y75210D01*
X164545Y74844D01*
X163432Y74249D01*
X162457Y73449D01*
X161656Y72474D01*
X161061Y71361D01*
X160695Y70153D01*
X160679Y69994D01*
X160179Y70019D01*
Y106939D01*
X160679Y107090D01*
X160824Y106875D01*
X161282Y106568D01*
X161823Y106461D01*
X162363Y106568D01*
X162822Y106875D01*
X163128Y107333D01*
X163236Y107874D01*
X163128Y108414D01*
X162822Y108873D01*
X162363Y109179D01*
X161823Y109287D01*
X161282Y109179D01*
X160824Y108873D01*
X160679Y108657D01*
X160179Y108809D01*
Y122813D01*
X161888Y124522D01*
X162205Y124459D01*
X162745Y124566D01*
X163204Y124873D01*
X163441Y125228D01*
X163992Y125384D01*
X164407Y124969D01*
X164407Y124969D01*
X164539Y124881D01*
X165597Y123823D01*
X165456Y123256D01*
X165143Y123046D01*
X164836Y122588D01*
X164729Y122047D01*
X164836Y121507D01*
X165143Y121048D01*
X165601Y120742D01*
X165885Y120685D01*
X165952Y120393D01*
X165938Y120165D01*
X165536Y119897D01*
X165230Y119438D01*
X165122Y118898D01*
X165230Y118357D01*
X165463Y118008D01*
X165372Y117611D01*
X165288Y117463D01*
X165207Y117447D01*
X164749Y117141D01*
X164443Y116682D01*
X164335Y116142D01*
X164443Y115601D01*
X164749Y115143D01*
X165207Y114836D01*
X165748Y114729D01*
X166289Y114836D01*
X166747Y115143D01*
X166870Y115327D01*
X168798D01*
X174386Y109739D01*
Y61417D01*
X174448Y61107D01*
X174624Y60844D01*
X175979Y59489D01*
X175912Y59153D01*
Y58957D01*
X176089Y58070D01*
X176591Y57319D01*
X177342Y56817D01*
X178228Y56640D01*
X179115Y56817D01*
X179866Y57319D01*
X180368Y58070D01*
X180473Y58600D01*
X180983D01*
X181088Y58070D01*
X181591Y57319D01*
X182342Y56817D01*
X183228Y56640D01*
X184115Y56817D01*
X184866Y57319D01*
X185368Y58070D01*
X185474Y58600D01*
X185983D01*
X186089Y58070D01*
X186591Y57319D01*
X187342Y56817D01*
X188228Y56640D01*
X189115Y56817D01*
X189866Y57319D01*
X190368Y58070D01*
X190473Y58600D01*
X190983D01*
X191088Y58070D01*
X191591Y57319D01*
X192342Y56817D01*
X193228Y56640D01*
X194115Y56817D01*
X194866Y57319D01*
X195368Y58070D01*
X195474Y58600D01*
X195983D01*
X196089Y58070D01*
X196591Y57319D01*
X197342Y56817D01*
X198228Y56640D01*
X199115Y56817D01*
X199866Y57319D01*
X200368Y58070D01*
X200473Y58600D01*
X200983D01*
X201089Y58070D01*
X201591Y57319D01*
X202342Y56817D01*
X203228Y56640D01*
X204115Y56817D01*
X204866Y57319D01*
X205368Y58070D01*
X205473Y58600D01*
X205983D01*
X206088Y58070D01*
X206591Y57319D01*
X207342Y56817D01*
X208228Y56640D01*
X209115Y56817D01*
X209866Y57319D01*
X210368Y58070D01*
X210473Y58600D01*
X210983D01*
X211088Y58070D01*
X211591Y57319D01*
X212342Y56817D01*
X213228Y56640D01*
X214115Y56817D01*
X214866Y57319D01*
X215368Y58070D01*
X215474Y58600D01*
X215983D01*
X216089Y58070D01*
X216591Y57319D01*
X217342Y56817D01*
X218228Y56640D01*
X219115Y56817D01*
X219866Y57319D01*
X220368Y58070D01*
X220474Y58600D01*
X220983D01*
X221089Y58070D01*
X221591Y57319D01*
X222342Y56817D01*
X223228Y56640D01*
X224115Y56817D01*
X224866Y57319D01*
X225368Y58070D01*
X225473Y58600D01*
X225983D01*
X226089Y58070D01*
X226591Y57319D01*
X227342Y56817D01*
X228228Y56640D01*
X229115Y56817D01*
X229866Y57319D01*
X230368Y58070D01*
X230473Y58600D01*
X230983D01*
X231088Y58070D01*
X231591Y57319D01*
X232342Y56817D01*
X233228Y56640D01*
X234115Y56817D01*
X234866Y57319D01*
X235368Y58070D01*
X235473Y58600D01*
X235983D01*
X236088Y58070D01*
X236591Y57319D01*
X237342Y56817D01*
X238228Y56640D01*
X239115Y56817D01*
X239866Y57319D01*
X240368Y58070D01*
X240474Y58600D01*
X240983D01*
X241089Y58070D01*
X241591Y57319D01*
X242342Y56817D01*
X243228Y56640D01*
X244115Y56817D01*
X244866Y57319D01*
X245368Y58070D01*
X245545Y58957D01*
Y59153D01*
X245368Y60040D01*
X244866Y60791D01*
X244115Y61293D01*
X244080Y61300D01*
Y61810D01*
X244115Y61817D01*
X244866Y62319D01*
X245368Y63070D01*
X245430Y63379D01*
X245930Y63330D01*
Y63071D01*
X246037Y62530D01*
X246343Y62072D01*
X246802Y61765D01*
X247342Y61658D01*
X249114D01*
X249655Y61765D01*
X250113Y62072D01*
X250420Y62530D01*
X250527Y63071D01*
Y65039D01*
X250420Y65580D01*
X250113Y66039D01*
X249655Y66345D01*
X249114Y66452D01*
X247342D01*
X246802Y66345D01*
X246343Y66039D01*
X246037Y65580D01*
X245930Y65039D01*
Y64781D01*
X245430Y64731D01*
X245368Y65040D01*
X244866Y65791D01*
X244122Y66289D01*
Y70472D01*
X244060Y70784D01*
X243883Y71049D01*
X227067Y87865D01*
X227107Y87914D01*
X227107Y87914D01*
X227386Y88253D01*
X227439Y88218D01*
X227668Y88065D01*
X228209Y87957D01*
X228749Y88065D01*
X229208Y88371D01*
X229514Y88829D01*
X229622Y89370D01*
X229514Y89911D01*
X229208Y90369D01*
X228749Y90675D01*
X228209Y90783D01*
X227668Y90675D01*
X227209Y90369D01*
X226903Y89911D01*
X226796Y89370D01*
X226903Y88829D01*
X227056Y88600D01*
X227092Y88547D01*
X226703Y88229D01*
X213962Y100970D01*
X213698Y101146D01*
X213386Y101209D01*
X210903D01*
X206663Y105449D01*
Y117202D01*
X206667Y117221D01*
Y119786D01*
X206605Y120098D01*
X206428Y120363D01*
X205618Y121173D01*
X205864Y121633D01*
X205906Y121625D01*
X211939D01*
X211960Y121516D01*
X212484Y120732D01*
X213268Y120208D01*
X213331Y120196D01*
Y119686D01*
X213268Y119674D01*
X212484Y119150D01*
X211960Y118366D01*
X211915Y118139D01*
X211024D01*
X211024Y118139D01*
X210712Y118076D01*
X210447Y117900D01*
X210447Y117900D01*
X209266Y116718D01*
X209089Y116454D01*
X209027Y116142D01*
X209027Y116142D01*
Y105118D01*
X209027Y105118D01*
X209089Y104806D01*
X209266Y104541D01*
X210047Y103760D01*
X210004Y103543D01*
X210112Y103003D01*
X210418Y102544D01*
X210877Y102238D01*
X211417Y102130D01*
X211958Y102238D01*
X212416Y102544D01*
X212723Y103003D01*
X212830Y103543D01*
X212723Y104084D01*
X212416Y104542D01*
X211958Y104849D01*
X211417Y104956D01*
X211201Y104913D01*
X210658Y105456D01*
Y115804D01*
X211362Y116507D01*
X211966D01*
X212484Y115732D01*
X213268Y115208D01*
X213331Y115196D01*
Y114686D01*
X213268Y114673D01*
X212484Y114150D01*
X211960Y113366D01*
X211776Y112441D01*
X211960Y111516D01*
X212484Y110732D01*
X213268Y110208D01*
X214193Y110024D01*
X214390D01*
X215315Y110208D01*
X216098Y110732D01*
X216622Y111516D01*
X216806Y112441D01*
X216622Y113366D01*
X216098Y114150D01*
X215315Y114673D01*
X215251Y114686D01*
Y115196D01*
X215315Y115208D01*
X216098Y115732D01*
X216513Y116353D01*
X216540Y116363D01*
X217043D01*
X217069Y116353D01*
X217484Y115732D01*
X218268Y115208D01*
X219193Y115024D01*
X219390D01*
X220315Y115208D01*
X221098Y115732D01*
X221622Y116516D01*
X221806Y117441D01*
X221622Y118366D01*
X221098Y119150D01*
X220315Y119674D01*
X220251Y119686D01*
Y120196D01*
X220315Y120208D01*
X221098Y120732D01*
X221622Y121516D01*
X221806Y122441D01*
X221622Y123366D01*
X221098Y124150D01*
X220315Y124673D01*
X220251Y124686D01*
Y125196D01*
X220315Y125208D01*
X221098Y125732D01*
X221622Y126516D01*
X221806Y127441D01*
X221622Y128366D01*
X221098Y129150D01*
X220315Y129674D01*
X220251Y129686D01*
Y130196D01*
X220315Y130208D01*
X221098Y130732D01*
X221622Y131516D01*
X221806Y132441D01*
X221622Y133366D01*
X221098Y134150D01*
X220315Y134674D01*
X219390Y134857D01*
X219193D01*
X218268Y134674D01*
X217484Y134150D01*
X217069Y133528D01*
X217043Y133519D01*
X216540D01*
X216513Y133528D01*
X216098Y134150D01*
X215315Y134674D01*
X214390Y134857D01*
X214193D01*
X213268Y134674D01*
X212484Y134150D01*
X211960Y133366D01*
X211776Y132441D01*
X211960Y131516D01*
X212484Y130732D01*
X213268Y130208D01*
X213331Y130196D01*
Y129686D01*
X213268Y129674D01*
X212484Y129150D01*
X211960Y128366D01*
X211776Y127441D01*
X211960Y126516D01*
X212484Y125732D01*
X213268Y125208D01*
X213331Y125196D01*
Y124686D01*
X213268Y124673D01*
X212484Y124150D01*
X211960Y123366D01*
X211939Y123257D01*
X206243D01*
X202157Y127343D01*
X202200Y127559D01*
X202093Y128100D01*
X201786Y128558D01*
X201328Y128865D01*
X200787Y128972D01*
X200247Y128865D01*
X199788Y128558D01*
X199482Y128100D01*
X199475Y128063D01*
X198975Y128113D01*
Y144730D01*
X199435Y144885D01*
X199475Y144886D01*
X208281Y136080D01*
X208707Y135795D01*
X209209Y135695D01*
X225047D01*
X225299Y135443D01*
X225441Y134992D01*
X225241Y134693D01*
X225171Y134341D01*
Y133179D01*
X225241Y132827D01*
X225441Y132528D01*
X225740Y132328D01*
X226093Y132258D01*
X227451D01*
X227803Y132328D01*
X228102Y132528D01*
X228302Y132827D01*
X228372Y133179D01*
Y134341D01*
X228302Y134693D01*
X228102Y134992D01*
X228084Y135004D01*
Y135827D01*
X227984Y136329D01*
X227700Y136755D01*
X226519Y137936D01*
X226093Y138221D01*
X225590Y138321D01*
X209753D01*
X201706Y146367D01*
Y150230D01*
X202206Y150369D01*
X202410Y150064D01*
X203402Y149072D01*
X203828Y148787D01*
X204331Y148687D01*
X205065D01*
X205125Y148647D01*
X205512Y148570D01*
X206693D01*
X207080Y148647D01*
X207408Y148866D01*
X207615Y149175D01*
X207742Y149195D01*
X208006D01*
X208133Y149175D01*
X208340Y148866D01*
X208668Y148647D01*
X209055Y148570D01*
X210236D01*
X210623Y148647D01*
X210644Y148661D01*
X211834D01*
X212205Y148587D01*
X212745Y148695D01*
X213204Y149001D01*
X213510Y149459D01*
X213618Y150000D01*
X213545Y150367D01*
X213847Y150867D01*
X218930D01*
X231758Y138039D01*
Y135004D01*
X231740Y134992D01*
X231541Y134693D01*
X231470Y134341D01*
Y133179D01*
X231541Y132827D01*
X231740Y132528D01*
X232039Y132328D01*
X232392Y132258D01*
X233750D01*
X234103Y132328D01*
X234401Y132528D01*
X234601Y132827D01*
X234671Y133179D01*
Y134341D01*
X234601Y134693D01*
X234401Y134992D01*
X234384Y135004D01*
Y138583D01*
X234284Y139085D01*
X233999Y139511D01*
X222638Y150872D01*
X222802Y151415D01*
X222982Y151451D01*
X223440Y151757D01*
X223746Y152215D01*
X223854Y152756D01*
X223746Y153297D01*
X223440Y153755D01*
X222982Y154061D01*
X222441Y154169D01*
X221900Y154061D01*
X221442Y153755D01*
X221135Y153297D01*
X221100Y153117D01*
X220557Y152953D01*
X220402Y153108D01*
X219976Y153393D01*
X219473Y153493D01*
X214862D01*
X214626Y153935D01*
X214820Y154386D01*
X215289Y154461D01*
X215328Y154403D01*
X215656Y154184D01*
X216043Y154107D01*
X217028D01*
X217415Y154184D01*
X217743Y154403D01*
X217962Y154731D01*
X218039Y155118D01*
Y156299D01*
X217962Y156686D01*
X217743Y157015D01*
X217434Y157221D01*
X217415Y157348D01*
Y157612D01*
X217434Y157740D01*
X217743Y157946D01*
X217962Y158274D01*
X218039Y158661D01*
Y159843D01*
X217962Y160230D01*
X217743Y160558D01*
X217415Y160777D01*
X217028Y160854D01*
X216986D01*
X216360Y161481D01*
X216379Y161647D01*
X216531Y161981D01*
X217028D01*
X217415Y162058D01*
X217743Y162277D01*
X217962Y162605D01*
X218039Y162992D01*
Y164173D01*
X217962Y164560D01*
X217743Y164889D01*
X217434Y165095D01*
X217415Y165222D01*
Y165486D01*
X217434Y165614D01*
X217743Y165820D01*
X217962Y166148D01*
X218039Y166535D01*
Y167717D01*
X217962Y168104D01*
X217743Y168432D01*
X217415Y168651D01*
X217028Y168728D01*
X216847D01*
X216841Y168732D01*
X216339Y168832D01*
X214997D01*
X214714Y169022D01*
X214173Y169129D01*
X213632Y169022D01*
X213174Y168715D01*
X212867Y168257D01*
X212760Y167716D01*
X212867Y167175D01*
X213174Y166717D01*
X213632Y166411D01*
X213821Y166373D01*
X213920Y166307D01*
X214423Y166207D01*
X214852D01*
X214900Y166133D01*
X214726Y165485D01*
X214714Y165479D01*
X214173Y165586D01*
X213632Y165479D01*
X213174Y165172D01*
X212888Y164745D01*
X209102Y160958D01*
X208465D01*
X208268Y160919D01*
X208071Y160958D01*
X207434D01*
X206993Y161399D01*
X207130Y161938D01*
X207388Y162058D01*
X207776Y161981D01*
X208209D01*
X208268Y161969D01*
X208327Y161981D01*
X208760D01*
X209147Y162058D01*
X209475Y162277D01*
X209694Y162605D01*
X209771Y162992D01*
Y164173D01*
X209694Y164560D01*
X209475Y164889D01*
X209166Y165095D01*
X209147Y165222D01*
Y165486D01*
X209166Y165614D01*
X209475Y165820D01*
X209480Y165827D01*
X209630Y165930D01*
X210089Y165623D01*
X210630Y165516D01*
X211170Y165623D01*
X211629Y165930D01*
X211935Y166388D01*
X212042Y166929D01*
X211935Y167470D01*
X211629Y167928D01*
X211170Y168234D01*
X210630Y168342D01*
X210089Y168234D01*
X210068Y168220D01*
X209694Y168104D01*
X209475Y168432D01*
X209147Y168651D01*
X208760Y168728D01*
X207776D01*
X207388Y168651D01*
X207116Y168783D01*
X206817Y169144D01*
X206924Y169685D01*
X206817Y170225D01*
X206510Y170684D01*
X206052Y170990D01*
X205511Y171098D01*
X204971Y170990D01*
X204512Y170684D01*
X204206Y170225D01*
X204098Y169685D01*
X204176Y169296D01*
X203887Y168877D01*
X203834Y168832D01*
X203748Y168826D01*
X203340Y169110D01*
X203233Y169651D01*
X202926Y170109D01*
X202468Y170415D01*
X201927Y170523D01*
X201386Y170415D01*
X200928Y170109D01*
X200622Y169651D01*
X200514Y169110D01*
X200622Y168569D01*
X200928Y168111D01*
X201234Y167906D01*
X201371Y167337D01*
X196969Y162935D01*
X194940D01*
X194438Y162835D01*
X194012Y162550D01*
X193824Y162363D01*
X191535Y164652D01*
X191700Y165194D01*
X191879Y165230D01*
X192338Y165536D01*
X192644Y165995D01*
X192752Y166535D01*
X192644Y167076D01*
X192338Y167534D01*
X191879Y167841D01*
X191339Y167948D01*
X190798Y167841D01*
X190340Y167534D01*
X190033Y167076D01*
X190002Y166917D01*
X189502Y166967D01*
Y175758D01*
X190746Y177003D01*
X191316Y176866D01*
X191521Y176560D01*
X191979Y176254D01*
X192520Y176146D01*
X193060Y176254D01*
X193128Y176299D01*
X193541Y175973D01*
X193465Y175590D01*
X193572Y175048D01*
X193879Y174588D01*
X193942Y174525D01*
X194402Y174218D01*
X194944Y174110D01*
X198344D01*
X198819Y174016D01*
X198913D01*
X199456Y174124D01*
X199513Y174162D01*
X199698Y174199D01*
X200026Y174418D01*
X200246Y174747D01*
X200323Y175134D01*
Y175394D01*
X200330Y175433D01*
X200323Y175472D01*
Y176315D01*
X200246Y176702D01*
X200026Y177030D01*
X199717Y177236D01*
X199698Y177364D01*
Y177628D01*
X199717Y177755D01*
X200026Y177962D01*
X200100Y178072D01*
X200631Y177967D01*
X200663Y177806D01*
X200969Y177347D01*
X201428Y177041D01*
X201969Y176934D01*
X202509Y177041D01*
X202968Y177347D01*
X203274Y177806D01*
X203381Y178347D01*
X203274Y178887D01*
X202968Y179346D01*
X202509Y179652D01*
X201969Y179759D01*
X201428Y179652D01*
X200969Y179346D01*
X200891Y179228D01*
X200420Y179423D01*
X200467Y179661D01*
X200367Y180164D01*
X200083Y180589D01*
X199657Y180874D01*
X199154Y180974D01*
X199016D01*
X198513Y180874D01*
X198507Y180870D01*
X198327D01*
X197940Y180793D01*
X197916Y180777D01*
X196276D01*
X195773Y181280D01*
X195487Y181708D01*
X195086Y181976D01*
X195072Y182204D01*
X195139Y182496D01*
X195423Y182553D01*
X195881Y182859D01*
X196187Y183318D01*
X196295Y183858D01*
X196187Y184399D01*
X195881Y184857D01*
X195423Y185164D01*
X194882Y185271D01*
X194341Y185164D01*
X193883Y184857D01*
X193577Y184399D01*
X193469Y183858D01*
X193577Y183318D01*
X193883Y182859D01*
X194015Y182771D01*
X194080Y182160D01*
X193951Y182021D01*
X192596D01*
X192094Y181921D01*
X191668Y181637D01*
X187261Y177230D01*
X186976Y176804D01*
X186876Y176302D01*
Y166144D01*
X186873Y166140D01*
X186415Y165898D01*
X183616Y168697D01*
X183756Y169264D01*
X184070Y169473D01*
X184376Y169932D01*
X184484Y170472D01*
X184376Y171013D01*
X184070Y171472D01*
X183612Y171778D01*
X183071Y171885D01*
X182530Y171778D01*
X182072Y171472D01*
X181862Y171158D01*
X181295Y171017D01*
X174043Y178270D01*
Y179980D01*
X174227Y180103D01*
X174534Y180562D01*
X174641Y181102D01*
X174534Y181643D01*
X174458Y181756D01*
X174726Y182256D01*
X175197D01*
X175509Y182318D01*
X175773Y182495D01*
X175785Y182512D01*
X184982Y191709D01*
X187189D01*
X187341Y191209D01*
X187219Y191127D01*
X182895Y186803D01*
X182677Y186846D01*
X182136Y186739D01*
X181678Y186432D01*
X181372Y185974D01*
X181264Y185433D01*
X181372Y184892D01*
X181678Y184434D01*
X182136Y184128D01*
X182677Y184020D01*
X183218Y184128D01*
X183676Y184434D01*
X183983Y184892D01*
X184090Y185433D01*
X184047Y185650D01*
X188133Y189736D01*
X219792D01*
X219974Y189504D01*
X219742Y189004D01*
X189764D01*
X189452Y188942D01*
X189188Y188765D01*
X182107Y181684D01*
X181889Y181728D01*
X181349Y181620D01*
X180890Y181314D01*
X180584Y180855D01*
X180476Y180315D01*
X180584Y179774D01*
X180635Y179698D01*
X180307Y179289D01*
X179921Y179365D01*
X179380Y179258D01*
X178922Y178952D01*
X178615Y178493D01*
X178508Y177952D01*
X178615Y177412D01*
X178922Y176953D01*
X179380Y176647D01*
X179921Y176539D01*
X180462Y176647D01*
X180920Y176953D01*
X181226Y177412D01*
X181334Y177952D01*
X181226Y178493D01*
X181175Y178569D01*
X181503Y178978D01*
X181889Y178902D01*
X182430Y179009D01*
X182888Y179315D01*
X183195Y179774D01*
X183302Y180315D01*
X183259Y180532D01*
X190101Y187374D01*
X191419D01*
X191626Y186874D01*
X182494Y177742D01*
X182317Y177478D01*
X182255Y177165D01*
X182255Y177165D01*
Y176319D01*
X182072Y176196D01*
X181765Y175738D01*
X181658Y175197D01*
X181765Y174656D01*
X182072Y174198D01*
X182530Y173891D01*
X183071Y173784D01*
X183612Y173891D01*
X184070Y174198D01*
X184376Y174656D01*
X184484Y175197D01*
X184376Y175738D01*
X184070Y176196D01*
X183887Y176319D01*
Y176828D01*
X192858Y185799D01*
X197739D01*
X197891Y185299D01*
X197820Y185251D01*
X197513Y184793D01*
X197406Y184252D01*
X197513Y183711D01*
X197820Y183253D01*
X198278Y182947D01*
X198819Y182839D01*
X199360Y182947D01*
X199818Y183253D01*
X200182D01*
X200640Y182947D01*
X201181Y182839D01*
X201722Y182947D01*
X202180Y183253D01*
X202544D01*
X203003Y182947D01*
X203543Y182839D01*
X204084Y182947D01*
X204542Y183253D01*
X204849Y183711D01*
X204956Y184252D01*
X204849Y184793D01*
X204542Y185251D01*
X204471Y185299D01*
X204623Y185799D01*
X220922D01*
X224142Y182578D01*
X223978Y182036D01*
X223868Y182014D01*
X223410Y181708D01*
X223104Y181249D01*
X222996Y180709D01*
X223104Y180168D01*
X223410Y179709D01*
X223724Y179500D01*
X223795Y179010D01*
X223777Y178912D01*
X223497Y178493D01*
X223390Y177952D01*
X223497Y177412D01*
X223804Y176953D01*
X224262Y176647D01*
X224803Y176539D01*
X225343Y176647D01*
X225802Y176953D01*
X225850Y177025D01*
X226350Y176873D01*
Y159449D01*
X226412Y159137D01*
X226589Y158872D01*
X226609Y158858D01*
X228856Y156612D01*
X229119Y156436D01*
X229429Y156374D01*
X236673D01*
X236940Y155874D01*
X236738Y155571D01*
X236562Y154685D01*
X236738Y153799D01*
X237240Y153047D01*
X237992Y152545D01*
X238521Y152440D01*
Y151930D01*
X237992Y151825D01*
X237240Y151323D01*
X236738Y150571D01*
X236562Y149685D01*
X236738Y148799D01*
X237240Y148047D01*
X237992Y147545D01*
X238878Y147369D01*
X239075D01*
X239961Y147545D01*
X240713Y148047D01*
X241215Y148799D01*
X241221Y148833D01*
X241731D01*
X241738Y148799D01*
X242240Y148047D01*
X242992Y147545D01*
X243878Y147369D01*
X244075D01*
X244961Y147545D01*
X245713Y148047D01*
X246215Y148799D01*
X246391Y149685D01*
X246215Y150571D01*
X245713Y151323D01*
X244961Y151825D01*
X244432Y151930D01*
Y152440D01*
X244961Y152545D01*
X245713Y153047D01*
X246215Y153799D01*
X246391Y154685D01*
X246215Y155571D01*
X245713Y156323D01*
X244961Y156825D01*
X244432Y156930D01*
Y157440D01*
X244961Y157545D01*
X245713Y158047D01*
X246215Y158799D01*
X246391Y159685D01*
X246215Y160571D01*
X245713Y161323D01*
X244961Y161825D01*
X244432Y161930D01*
Y162440D01*
X244961Y162545D01*
X245713Y163047D01*
X246215Y163799D01*
X246391Y164685D01*
X246215Y165571D01*
X245713Y166323D01*
X244961Y166825D01*
X244432Y166930D01*
Y167440D01*
X244961Y167545D01*
X245713Y168047D01*
X246215Y168799D01*
X246391Y169685D01*
X246215Y170571D01*
X245713Y171323D01*
X244961Y171825D01*
X244432Y171930D01*
Y172440D01*
X244961Y172545D01*
X245713Y173047D01*
X246215Y173799D01*
X246391Y174685D01*
X246215Y175571D01*
X245713Y176323D01*
X244961Y176825D01*
X244432Y176930D01*
Y177440D01*
X244961Y177545D01*
X245713Y178047D01*
X246215Y178799D01*
X246391Y179685D01*
X246215Y180571D01*
X245713Y181323D01*
X244961Y181825D01*
X244432Y181930D01*
Y182440D01*
X244961Y182545D01*
X245713Y183047D01*
X246215Y183799D01*
X246391Y184685D01*
X246215Y185571D01*
X245713Y186323D01*
X244961Y186825D01*
X244432Y186930D01*
Y187440D01*
X244961Y187545D01*
X245713Y188047D01*
X246215Y188799D01*
X246391Y189685D01*
X246215Y190571D01*
X245713Y191323D01*
X244961Y191825D01*
X244432Y191930D01*
Y192440D01*
X244961Y192545D01*
X245713Y193047D01*
X246215Y193799D01*
X246391Y194685D01*
X246215Y195571D01*
X245713Y196323D01*
X244961Y196825D01*
X244432Y196930D01*
Y197440D01*
X244961Y197545D01*
X245713Y198047D01*
X246215Y198799D01*
X246391Y199685D01*
X246215Y200571D01*
X245713Y201323D01*
X244961Y201825D01*
X244432Y201930D01*
Y202440D01*
X244961Y202545D01*
X245713Y203047D01*
X246215Y203799D01*
X246391Y204685D01*
X246215Y205571D01*
X245713Y206323D01*
X244961Y206825D01*
X244432Y206930D01*
Y207440D01*
X244961Y207545D01*
X245713Y208047D01*
X246215Y208799D01*
X246391Y209685D01*
X246215Y210571D01*
X245713Y211323D01*
X244961Y211825D01*
X244432Y211930D01*
Y212440D01*
X244961Y212545D01*
X245713Y213047D01*
X246215Y213799D01*
X246391Y214685D01*
X246215Y215571D01*
X245713Y216323D01*
X244961Y216825D01*
X244075Y217001D01*
X243878D01*
X242992Y216825D01*
X242240Y216323D01*
X241738Y215571D01*
X241731Y215537D01*
X241221D01*
X241215Y215571D01*
X240713Y216323D01*
X239961Y216825D01*
X239653Y216886D01*
X239702Y217386D01*
X239961D01*
X240501Y217494D01*
X240960Y217800D01*
X241266Y218259D01*
X241374Y218799D01*
Y220571D01*
X241266Y221112D01*
X240960Y221570D01*
X240501Y221876D01*
X239961Y221984D01*
X237992D01*
X237451Y221876D01*
X236993Y221570D01*
X236687Y221112D01*
X236579Y220571D01*
Y218799D01*
X236687Y218259D01*
X236993Y217800D01*
X237451Y217494D01*
X237992Y217386D01*
X238251D01*
X238300Y216886D01*
X237992Y216825D01*
X237240Y216323D01*
X236738Y215571D01*
X236724Y215500D01*
X222078D01*
X221871Y216000D01*
X229707Y223836D01*
X229883Y224099D01*
X229945Y224410D01*
Y229037D01*
X230614Y229484D01*
X231116Y230236D01*
X231222Y230765D01*
X231731D01*
X231837Y230236D01*
X232339Y229484D01*
X233090Y228982D01*
X233976Y228806D01*
X234863Y228982D01*
X235614Y229484D01*
X236116Y230236D01*
X236293Y231122D01*
Y231319D01*
X236116Y232205D01*
X235614Y232957D01*
X234863Y233459D01*
X234828Y233466D01*
Y233975D01*
X234863Y233982D01*
X235614Y234484D01*
X236116Y235236D01*
X236178Y235544D01*
X236678Y235495D01*
Y235236D01*
X236785Y234696D01*
X237091Y234237D01*
X237550Y233931D01*
X238090Y233823D01*
X239862D01*
X240403Y233931D01*
X240861Y234237D01*
X241168Y234696D01*
X241275Y235236D01*
Y237205D01*
X241168Y237745D01*
X240861Y238204D01*
X240403Y238510D01*
X239862Y238618D01*
X238090D01*
X237550Y238510D01*
X237091Y238204D01*
X236785Y237745D01*
X236678Y237205D01*
Y236946D01*
X236178Y236897D01*
X236116Y237205D01*
X235614Y237957D01*
X234863Y238459D01*
X233976Y238635D01*
X233090Y238459D01*
X232339Y237957D01*
X231837Y237205D01*
X231731Y236676D01*
X231222D01*
X231116Y237205D01*
X230614Y237957D01*
X229863Y238459D01*
X228976Y238635D01*
X228090Y238459D01*
X227339Y237957D01*
X226836Y237205D01*
X226731Y236676D01*
X226221D01*
X226116Y237205D01*
X225614Y237957D01*
X224863Y238459D01*
X223976Y238635D01*
X223090Y238459D01*
X222339Y237957D01*
X221836Y237205D01*
X221731Y236676D01*
X221221D01*
X221116Y237205D01*
X220614Y237957D01*
X219863Y238459D01*
X218976Y238635D01*
X218090Y238459D01*
X217339Y237957D01*
X216837Y237205D01*
X216731Y236676D01*
X216221D01*
X216116Y237205D01*
X215614Y237957D01*
X214863Y238459D01*
X213976Y238635D01*
X213090Y238459D01*
X212339Y237957D01*
X211837Y237205D01*
X211731Y236676D01*
X211222D01*
X211116Y237205D01*
X210614Y237957D01*
X209863Y238459D01*
X208976Y238635D01*
X208090Y238459D01*
X207339Y237957D01*
X206837Y237205D01*
X206731Y236676D01*
X206222D01*
X206116Y237205D01*
X205614Y237957D01*
X204863Y238459D01*
X203976Y238635D01*
X203090Y238459D01*
X202339Y237957D01*
X201836Y237205D01*
X201731Y236676D01*
X201221D01*
X201116Y237205D01*
X200614Y237957D01*
X199863Y238459D01*
X198976Y238635D01*
X198090Y238459D01*
X197339Y237957D01*
X196836Y237205D01*
X196731Y236676D01*
X196221D01*
X196116Y237205D01*
X195614Y237957D01*
X194863Y238459D01*
X193976Y238635D01*
X193090Y238459D01*
X192339Y237957D01*
X191837Y237205D01*
X191731Y236676D01*
X191221D01*
X191116Y237205D01*
X190614Y237957D01*
X189863Y238459D01*
X188976Y238635D01*
X188090Y238459D01*
X187339Y237957D01*
X186837Y237205D01*
X186731Y236676D01*
X186222D01*
X186116Y237205D01*
X185614Y237957D01*
X184863Y238459D01*
X183976Y238635D01*
X183090Y238459D01*
X182339Y237957D01*
X181836Y237205D01*
X181731Y236676D01*
X181221D01*
X181116Y237205D01*
X180614Y237957D01*
X179863Y238459D01*
X178976Y238635D01*
X178090Y238459D01*
X177339Y237957D01*
X176837Y237205D01*
X176731Y236676D01*
X176222D01*
X176116Y237205D01*
X175614Y237957D01*
X174863Y238459D01*
X173976Y238635D01*
X173090Y238459D01*
X172339Y237957D01*
X171836Y237205D01*
X171731Y236676D01*
X171221D01*
X171116Y237205D01*
X170614Y237957D01*
X169863Y238459D01*
X168976Y238635D01*
X168090Y238459D01*
X167339Y237957D01*
X166837Y237205D01*
X166660Y236319D01*
Y236122D01*
X166837Y235236D01*
X167339Y234484D01*
X168090Y233982D01*
X168124Y233975D01*
Y233466D01*
X168090Y233459D01*
X167339Y232957D01*
X166837Y232205D01*
X166660Y231319D01*
Y231122D01*
X166837Y230236D01*
X167339Y229484D01*
X168090Y228982D01*
X168976Y228806D01*
X169863Y228982D01*
X170614Y229484D01*
X171116Y230236D01*
X171221Y230765D01*
X171731D01*
X171836Y230236D01*
X172339Y229484D01*
X173090Y228982D01*
X173976Y228806D01*
X174863Y228982D01*
X175614Y229484D01*
X176116Y230236D01*
X176222Y230765D01*
X176731D01*
X176837Y230236D01*
X177339Y229484D01*
X178090Y228982D01*
X178976Y228806D01*
X179863Y228982D01*
X180614Y229484D01*
X181116Y230236D01*
X181221Y230765D01*
X181731D01*
X181836Y230236D01*
X182339Y229484D01*
X183090Y228982D01*
X183976Y228806D01*
X184863Y228982D01*
X185614Y229484D01*
X186116Y230236D01*
X186222Y230765D01*
X186731D01*
X186837Y230236D01*
X187339Y229484D01*
X188090Y228982D01*
X188976Y228806D01*
X189863Y228982D01*
X190614Y229484D01*
X191116Y230236D01*
X191221Y230765D01*
X191731D01*
X191837Y230236D01*
X192339Y229484D01*
X193090Y228982D01*
X193976Y228806D01*
X194863Y228982D01*
X195614Y229484D01*
X196116Y230236D01*
X196221Y230765D01*
X196731D01*
X196836Y230236D01*
X197339Y229484D01*
X198090Y228982D01*
X198976Y228806D01*
X199863Y228982D01*
X200614Y229484D01*
X201116Y230236D01*
X201221Y230765D01*
X201731D01*
X201836Y230236D01*
X202339Y229484D01*
X203090Y228982D01*
X203976Y228806D01*
X204863Y228982D01*
X205614Y229484D01*
X206116Y230236D01*
X206222Y230765D01*
X206731D01*
X206837Y230236D01*
X207339Y229484D01*
X208090Y228982D01*
X208976Y228806D01*
X209863Y228982D01*
X210614Y229484D01*
X211116Y230236D01*
X211222Y230765D01*
X211731D01*
X211837Y230236D01*
X212339Y229484D01*
X213090Y228982D01*
X213976Y228806D01*
X214863Y228982D01*
X215614Y229484D01*
X216116Y230236D01*
X216221Y230765D01*
X216731D01*
X216837Y230236D01*
X217339Y229484D01*
X218090Y228982D01*
X218976Y228806D01*
X219863Y228982D01*
X220614Y229484D01*
X221116Y230236D01*
X221221Y230765D01*
X221731D01*
X221836Y230236D01*
X222339Y229484D01*
X223090Y228982D01*
X223976Y228806D01*
X224863Y228982D01*
X225166Y229185D01*
X225665Y228917D01*
Y226576D01*
X217227Y218138D01*
X167323D01*
X167011Y218076D01*
X166747Y217899D01*
X152418Y203571D01*
X140945D01*
X140633Y203509D01*
X140369Y203332D01*
X139665Y202628D01*
X139122Y202793D01*
X139101Y202903D01*
X138794Y203361D01*
X138336Y203668D01*
X137795Y203775D01*
X137255Y203668D01*
X136796Y203361D01*
X136490Y202903D01*
X136382Y202362D01*
X136490Y201821D01*
X136796Y201363D01*
X137255Y201057D01*
X137364Y201035D01*
X137529Y200492D01*
X135333Y198297D01*
X135237Y198152D01*
X135080Y198027D01*
X134639Y197995D01*
X134399Y198156D01*
X133858Y198263D01*
X133318Y198156D01*
X132859Y197850D01*
X132553Y197391D01*
X131996Y197153D01*
X131960Y197173D01*
X131913Y197252D01*
Y206260D01*
X131913Y206260D01*
X131851Y206570D01*
X131676Y206833D01*
X131676Y206833D01*
X116795Y221714D01*
Y228967D01*
X116871Y228982D01*
X117622Y229484D01*
X118124Y230236D01*
X118300Y231122D01*
Y231319D01*
X118124Y232205D01*
X117622Y232957D01*
X116871Y233459D01*
X116836Y233466D01*
Y233975D01*
X116871Y233982D01*
X117622Y234484D01*
X118124Y235236D01*
X118185Y235544D01*
X118685Y235495D01*
Y235236D01*
X118793Y234696D01*
X119099Y234237D01*
X119558Y233931D01*
X120098Y233823D01*
X121870D01*
X122411Y233931D01*
X122869Y234237D01*
X123176Y234696D01*
X123283Y235236D01*
Y237205D01*
X123176Y237745D01*
X122869Y238204D01*
X122411Y238510D01*
X121870Y238618D01*
X120098D01*
X119558Y238510D01*
X119099Y238204D01*
X118793Y237745D01*
X118685Y237205D01*
Y236946D01*
X118185Y236897D01*
X118124Y237205D01*
X117622Y237957D01*
X116871Y238459D01*
X115984Y238635D01*
X115098Y238459D01*
X114347Y237957D01*
X113844Y237205D01*
X113739Y236676D01*
X113229D01*
X113124Y237205D01*
X112622Y237957D01*
X111871Y238459D01*
X110984Y238635D01*
X110098Y238459D01*
X109346Y237957D01*
X108844Y237205D01*
X108739Y236676D01*
X108229D01*
X108124Y237205D01*
X107622Y237957D01*
X106871Y238459D01*
X105984Y238635D01*
X105098Y238459D01*
X104347Y237957D01*
X103844Y237205D01*
X103739Y236676D01*
X103229D01*
X103124Y237205D01*
X102622Y237957D01*
X101871Y238459D01*
X100984Y238635D01*
X100098Y238459D01*
X99347Y237957D01*
X98844Y237205D01*
X98739Y236676D01*
X98229D01*
X98124Y237205D01*
X97622Y237957D01*
X96871Y238459D01*
X95984Y238635D01*
X95098Y238459D01*
X94346Y237957D01*
X93844Y237205D01*
X93739Y236676D01*
X93229D01*
X93124Y237205D01*
X92622Y237957D01*
X91871Y238459D01*
X90984Y238635D01*
X90098Y238459D01*
X89346Y237957D01*
X88844Y237205D01*
X88739Y236676D01*
X88229D01*
X88124Y237205D01*
X87622Y237957D01*
X86871Y238459D01*
X85984Y238635D01*
X85098Y238459D01*
X84346Y237957D01*
X83844Y237205D01*
X83739Y236676D01*
X83229D01*
X83124Y237205D01*
X82622Y237957D01*
X81871Y238459D01*
X80984Y238635D01*
X80098Y238459D01*
X79347Y237957D01*
X78844Y237205D01*
X78739Y236676D01*
X78229D01*
X78124Y237205D01*
X77622Y237957D01*
X76871Y238459D01*
X75984Y238635D01*
X75098Y238459D01*
X74347Y237957D01*
X73844Y237205D01*
X73668Y236319D01*
Y236122D01*
X73844Y235236D01*
X74347Y234484D01*
X75098Y233982D01*
X75132Y233975D01*
Y233466D01*
X75098Y233459D01*
X74347Y232957D01*
X73844Y232205D01*
X73668Y231319D01*
Y231122D01*
X73844Y230236D01*
X74347Y229484D01*
X75098Y228982D01*
X75984Y228806D01*
X76871Y228982D01*
X77622Y229484D01*
X78124Y230236D01*
X78229Y230765D01*
X78739D01*
X78844Y230236D01*
X79347Y229484D01*
X80098Y228982D01*
X80984Y228806D01*
X81871Y228982D01*
X82622Y229484D01*
X83124Y230236D01*
X83229Y230765D01*
X83739D01*
X83844Y230236D01*
X84346Y229484D01*
X85098Y228982D01*
X85984Y228806D01*
X86871Y228982D01*
X87622Y229484D01*
X88124Y230236D01*
X88229Y230765D01*
X88739D01*
X88844Y230236D01*
X89346Y229484D01*
X90098Y228982D01*
X90984Y228806D01*
X91871Y228982D01*
X92622Y229484D01*
X93124Y230236D01*
X93229Y230765D01*
X93739D01*
X93844Y230236D01*
X94346Y229484D01*
X95098Y228982D01*
X95173Y228967D01*
Y221339D01*
X95235Y221028D01*
X95411Y220765D01*
X113912Y202264D01*
X113747Y201722D01*
X113633Y201699D01*
X113174Y201393D01*
X113051Y201209D01*
X105259D01*
X104808Y201659D01*
X104791Y201670D01*
X93703Y212758D01*
X93440Y212934D01*
X93130Y212996D01*
X78288D01*
X78020Y213496D01*
X78223Y213799D01*
X78399Y214685D01*
X78223Y215571D01*
X77720Y216323D01*
X76969Y216825D01*
X76083Y217001D01*
X75886D01*
X74999Y216825D01*
X74248Y216323D01*
X73746Y215571D01*
X73739Y215537D01*
X73229D01*
X73223Y215571D01*
X72720Y216323D01*
X71969Y216825D01*
X71661Y216886D01*
X71710Y217386D01*
X71969D01*
X72509Y217494D01*
X72968Y217800D01*
X73274Y218259D01*
X73382Y218799D01*
Y220571D01*
X73274Y221112D01*
X72968Y221570D01*
X72509Y221876D01*
X71969Y221984D01*
X70000D01*
X69459Y221876D01*
X69001Y221570D01*
X68695Y221112D01*
X68587Y220571D01*
Y218799D01*
X68695Y218259D01*
X69001Y217800D01*
X69459Y217494D01*
X70000Y217386D01*
X70259D01*
X70308Y216886D01*
X69999Y216825D01*
X69248Y216323D01*
X68746Y215571D01*
X68570Y214685D01*
X68746Y213799D01*
X69248Y213047D01*
X69999Y212545D01*
X70529Y212440D01*
Y211930D01*
X69999Y211825D01*
X69248Y211323D01*
X68746Y210571D01*
X68570Y209685D01*
X68746Y208799D01*
X69248Y208047D01*
X69999Y207545D01*
X70529Y207440D01*
Y206930D01*
X69999Y206825D01*
X69248Y206323D01*
X68746Y205571D01*
X68570Y204685D01*
X68746Y203799D01*
X68828Y203676D01*
X66750Y201597D01*
X66574Y201334D01*
X66512Y201024D01*
Y193701D01*
X66574Y193391D01*
X66750Y193127D01*
X68265Y191612D01*
X68265Y191612D01*
X68528Y191436D01*
X68700Y191402D01*
X68906Y191065D01*
X68948Y190874D01*
X68746Y190571D01*
X68570Y189685D01*
X68746Y188799D01*
X69248Y188047D01*
X69999Y187545D01*
X70529Y187440D01*
Y186930D01*
X69999Y186825D01*
X69248Y186323D01*
X68746Y185571D01*
X68570Y184685D01*
X68746Y183799D01*
X69248Y183047D01*
X69999Y182545D01*
X70529Y182440D01*
Y181930D01*
X69999Y181825D01*
X69248Y181323D01*
X68746Y180571D01*
X68570Y179685D01*
X68746Y178799D01*
X68985Y178441D01*
X69001Y177934D01*
X68738Y177758D01*
X66364Y175384D01*
X66142Y175429D01*
X65601Y175321D01*
X65143Y175015D01*
X64836Y174557D01*
X64729Y174016D01*
X64836Y173475D01*
X65143Y173017D01*
X65601Y172710D01*
X66142Y172603D01*
X66682Y172710D01*
X67141Y173017D01*
X67447Y173475D01*
X67555Y174016D01*
X67510Y174238D01*
X68134Y174861D01*
X68585Y174606D01*
X68746Y173799D01*
X69248Y173047D01*
X69999Y172545D01*
X70529Y172440D01*
Y171930D01*
X69999Y171825D01*
X69248Y171323D01*
X68746Y170571D01*
X68570Y169685D01*
X68746Y168799D01*
X69248Y168047D01*
X69999Y167545D01*
X70529Y167440D01*
Y166930D01*
X69999Y166825D01*
X69248Y166323D01*
X68746Y165571D01*
X68570Y164685D01*
X68746Y163799D01*
X69248Y163047D01*
X69999Y162545D01*
X70529Y162440D01*
Y161930D01*
X69999Y161825D01*
X69248Y161323D01*
X68746Y160571D01*
X68570Y159685D01*
X68746Y158799D01*
X69248Y158047D01*
X69999Y157545D01*
X70529Y157440D01*
Y156930D01*
X69999Y156825D01*
X69248Y156323D01*
X68746Y155571D01*
X68570Y154685D01*
X68746Y153799D01*
X69248Y153047D01*
X69019Y152599D01*
X67714Y151294D01*
X67538Y151031D01*
X67476Y150721D01*
Y133287D01*
X67538Y132977D01*
X67714Y132714D01*
X68816Y131612D01*
X68864Y131580D01*
X69079Y131436D01*
X68994Y130943D01*
X68746Y130571D01*
X68570Y129685D01*
X68746Y128799D01*
X69248Y128047D01*
X69999Y127545D01*
X70529Y127440D01*
Y126930D01*
X69999Y126825D01*
X69248Y126323D01*
X68746Y125571D01*
X68570Y124685D01*
X68746Y123799D01*
X69248Y123047D01*
X69999Y122545D01*
X70529Y122440D01*
Y121930D01*
X69999Y121825D01*
X69248Y121323D01*
X68746Y120571D01*
X68570Y119685D01*
X68746Y118799D01*
X69248Y118047D01*
X69999Y117545D01*
X70529Y117440D01*
Y116930D01*
X69999Y116825D01*
X69248Y116323D01*
X68746Y115571D01*
X68570Y114685D01*
X68746Y113799D01*
X69248Y113047D01*
X69999Y112545D01*
X70529Y112440D01*
Y111930D01*
X69999Y111825D01*
X69248Y111323D01*
X68746Y110571D01*
X68570Y109685D01*
X68746Y108799D01*
X69248Y108047D01*
X69999Y107545D01*
X70529Y107440D01*
Y106930D01*
X69999Y106825D01*
X69248Y106323D01*
X68746Y105571D01*
X68570Y104685D01*
X68746Y103799D01*
X69248Y103047D01*
X69999Y102545D01*
X70529Y102440D01*
Y101930D01*
X69999Y101825D01*
X69248Y101323D01*
X68746Y100571D01*
X68570Y99685D01*
X68746Y98799D01*
X69248Y98047D01*
X69999Y97545D01*
X70529Y97440D01*
Y96930D01*
X69999Y96825D01*
X69248Y96323D01*
X68746Y95571D01*
X68570Y94685D01*
X68746Y93799D01*
X69248Y93047D01*
X69999Y92545D01*
X70529Y92440D01*
Y91930D01*
X69999Y91825D01*
X69248Y91323D01*
X68746Y90571D01*
X68570Y89685D01*
X68746Y88799D01*
X69248Y88047D01*
X69999Y87545D01*
X70529Y87440D01*
Y86930D01*
X69999Y86825D01*
X69248Y86323D01*
X68746Y85571D01*
X68570Y84685D01*
X68746Y83799D01*
X69248Y83047D01*
X69999Y82545D01*
X70529Y82440D01*
Y81930D01*
X69999Y81825D01*
X69248Y81323D01*
X68746Y80571D01*
X68570Y79685D01*
X68746Y78799D01*
X69248Y78047D01*
X69999Y77545D01*
X70529Y77440D01*
Y76930D01*
X69999Y76825D01*
X69248Y76323D01*
X68746Y75571D01*
X68570Y74685D01*
X68746Y73799D01*
X69248Y73047D01*
X69999Y72545D01*
X70886Y72369D01*
X71083D01*
X71969Y72545D01*
X72720Y73047D01*
X73223Y73799D01*
X73229Y73833D01*
X73739D01*
X73746Y73799D01*
X74248Y73047D01*
X74999Y72545D01*
X75254Y72495D01*
Y59842D01*
X75309Y59563D01*
X75468Y59326D01*
X82948Y51846D01*
X83088Y51752D01*
X83007Y51256D01*
X83005Y51252D01*
X68898D01*
X68807Y51234D01*
X67370Y51375D01*
X65901Y51821D01*
X64547Y52545D01*
X63361Y53518D01*
X62387Y54705D01*
X61663Y56059D01*
X61218Y57528D01*
X61076Y58965D01*
X61094Y59055D01*
X61094Y236221D01*
X61076Y236311D01*
X61218Y237748D01*
X61664Y239217D01*
X62387Y240571D01*
X63361Y241757D01*
X64547Y242731D01*
X65901Y243455D01*
X67370Y243900D01*
X68807Y244042D01*
X68898Y244024D01*
D02*
G37*
G36*
X162221Y198209D02*
Y194599D01*
X161721Y194266D01*
X161417Y194326D01*
X160877Y194219D01*
X160418Y193912D01*
X160112Y193454D01*
X160004Y192913D01*
X160112Y192373D01*
X160418Y191914D01*
X160877Y191608D01*
X161417Y191500D01*
X161606Y191538D01*
X162042Y191220D01*
X162074Y190786D01*
X161635Y190346D01*
X161417Y190389D01*
X160877Y190282D01*
X160418Y189976D01*
X160112Y189517D01*
X160004Y188976D01*
X160112Y188436D01*
X160418Y187977D01*
X160877Y187671D01*
X161417Y187563D01*
X161958Y187671D01*
X162417Y187977D01*
X162723Y188436D01*
X162830Y188976D01*
X162787Y189194D01*
X163612Y190018D01*
X163788Y190283D01*
X163850Y190594D01*
Y191770D01*
X164350Y191922D01*
X164355Y191914D01*
X164814Y191608D01*
X165354Y191500D01*
X165895Y191608D01*
X166353Y191914D01*
X166660Y192373D01*
X166767Y192913D01*
X166724Y193131D01*
X167797Y194204D01*
X167974Y194468D01*
X168036Y194780D01*
Y195168D01*
X168519Y195461D01*
X168668Y195393D01*
X168784Y194858D01*
X168728Y194802D01*
X168552Y194537D01*
X168490Y194226D01*
Y194044D01*
X168292Y193912D01*
X167986Y193454D01*
X167878Y192913D01*
X167986Y192373D01*
X168061Y192260D01*
X167794Y191760D01*
X167323D01*
X167011Y191698D01*
X166747Y191521D01*
X165572Y190346D01*
X165354Y190389D01*
X164814Y190282D01*
X164355Y189976D01*
X164049Y189517D01*
X163941Y188976D01*
X164049Y188436D01*
X164355Y187977D01*
X164814Y187671D01*
X165354Y187563D01*
X165895Y187671D01*
X166353Y187977D01*
X166660Y188436D01*
X166767Y188976D01*
X166724Y189194D01*
X167378Y189848D01*
X167585Y189817D01*
X167651Y189768D01*
X167936Y189266D01*
X167878Y188976D01*
X167986Y188436D01*
X168292Y187977D01*
X168751Y187671D01*
X169291Y187563D01*
X169832Y187671D01*
X170291Y187977D01*
X170414Y188162D01*
X172835D01*
X173146Y188224D01*
X173411Y188400D01*
X173687Y188677D01*
X173902Y188635D01*
X174198Y188480D01*
X174285Y188042D01*
X174591Y187583D01*
X175049Y187277D01*
X175488Y187190D01*
X175643Y186894D01*
X175685Y186679D01*
X174859Y185854D01*
X170414D01*
X170291Y186038D01*
X169832Y186345D01*
X169291Y186452D01*
X168751Y186345D01*
X168292Y186038D01*
X167986Y185580D01*
X167878Y185039D01*
X167986Y184499D01*
X168292Y184040D01*
X168751Y183734D01*
X169291Y183626D01*
X169832Y183734D01*
X170291Y184040D01*
X170414Y184224D01*
X171435D01*
X171587Y183724D01*
X171471Y183647D01*
X169741Y181917D01*
X166477D01*
X166353Y182102D01*
X165895Y182408D01*
X165354Y182515D01*
X164814Y182408D01*
X164355Y182102D01*
X164049Y181643D01*
X163941Y181102D01*
X163999Y180813D01*
X163714Y180311D01*
X163648Y180262D01*
X163441Y180231D01*
X162787Y180885D01*
X162830Y181102D01*
X162723Y181643D01*
X162417Y182102D01*
X161958Y182408D01*
X161417Y182515D01*
X160877Y182408D01*
X160418Y182102D01*
X160112Y181643D01*
X160004Y181102D01*
X160112Y180562D01*
X160418Y180103D01*
X160423Y180100D01*
X160272Y179600D01*
X158626D01*
X158475Y180100D01*
X158479Y180103D01*
X158786Y180562D01*
X158893Y181102D01*
X158786Y181643D01*
X158479Y182102D01*
X158021Y182408D01*
X157480Y182515D01*
X157318Y182483D01*
X156892Y182908D01*
X156925Y183071D01*
X156892Y183233D01*
X157318Y183659D01*
X157480Y183626D01*
X158021Y183734D01*
X158479Y184040D01*
X158786Y184499D01*
X158893Y185039D01*
X158786Y185580D01*
X158479Y186038D01*
X156830Y187688D01*
X156840Y187703D01*
X156917Y188091D01*
Y189075D01*
X156840Y189462D01*
X156621Y189790D01*
X156293Y190009D01*
X155905Y190086D01*
X154724D01*
X154717Y190085D01*
X154320Y190401D01*
X154299Y190941D01*
X155708Y192350D01*
X156280Y192215D01*
X156481Y191914D01*
X156940Y191608D01*
X157480Y191500D01*
X158021Y191608D01*
X158479Y191914D01*
X158786Y192373D01*
X158893Y192913D01*
X158786Y193454D01*
X158479Y193912D01*
X158179Y194113D01*
X158044Y194685D01*
X161759Y198400D01*
X162221Y198209D01*
D02*
G37*
G36*
X156084Y181185D02*
X156067Y181102D01*
X156175Y180562D01*
X156481Y180103D01*
X156486Y180100D01*
X156334Y179600D01*
X155162D01*
X155162Y179600D01*
X154850Y179538D01*
X154585Y179361D01*
X154585Y179361D01*
X153760Y178535D01*
X153543Y178578D01*
X153003Y178471D01*
X152544Y178165D01*
X152238Y177706D01*
X152130Y177165D01*
X152238Y176625D01*
X152544Y176166D01*
X153003Y175860D01*
X153543Y175752D01*
X154084Y175860D01*
X154542Y176166D01*
X154849Y176625D01*
X154956Y177165D01*
X154913Y177382D01*
X155353Y177821D01*
X155786Y177789D01*
X156105Y177352D01*
X156067Y177165D01*
X156175Y176625D01*
X156481Y176166D01*
X156940Y175860D01*
X157480Y175752D01*
X157563Y175769D01*
X157945Y175431D01*
Y174963D01*
X157563Y174625D01*
X157480Y174641D01*
X156940Y174534D01*
X156481Y174227D01*
X156175Y173769D01*
X156067Y173228D01*
X156175Y172688D01*
X156481Y172229D01*
X156940Y171923D01*
X157480Y171815D01*
X157643Y171848D01*
X158068Y171423D01*
X158036Y171260D01*
X158143Y170719D01*
X158450Y170261D01*
X158908Y169954D01*
X159449Y169847D01*
X159611Y169879D01*
X160037Y169454D01*
X160004Y169291D01*
X160037Y169129D01*
X159611Y168703D01*
X159449Y168736D01*
X158908Y168628D01*
X158450Y168322D01*
X158263Y168042D01*
X158193Y168001D01*
X157758Y167944D01*
X157656Y167965D01*
X156905Y168716D01*
X156446Y169022D01*
X155905Y169130D01*
X155365Y169022D01*
X154906Y168716D01*
X154600Y168257D01*
X154492Y167717D01*
X154600Y167176D01*
X154906Y166717D01*
X155418Y166206D01*
Y165492D01*
X155525Y164951D01*
X155722Y164657D01*
X155758Y164475D01*
X155978Y164147D01*
X156306Y163928D01*
X156693Y163851D01*
X157618D01*
X158043Y163420D01*
X158036Y163386D01*
X158043Y163351D01*
X157618Y162921D01*
X156693D01*
X156306Y162844D01*
X155978Y162625D01*
X155758Y162297D01*
X155681Y161909D01*
Y160944D01*
X155679Y160920D01*
X155515Y160478D01*
X155309Y160428D01*
X154971Y160360D01*
X154512Y160054D01*
X154206Y159596D01*
X154098Y159055D01*
X154206Y158514D01*
X154512Y158056D01*
X154914Y157787D01*
X154928Y157560D01*
X154861Y157267D01*
X154577Y157211D01*
X154119Y156904D01*
X153918Y156604D01*
X153346Y156469D01*
X151758Y158057D01*
X151493Y158234D01*
X151181Y158296D01*
X151181Y158296D01*
X150728D01*
X150605Y158479D01*
X150147Y158786D01*
X149606Y158893D01*
X149066Y158786D01*
X148607Y158479D01*
X148301Y158021D01*
X148193Y157480D01*
X148291Y156989D01*
X148156Y156750D01*
X147980Y156520D01*
X147491Y156423D01*
X147032Y156117D01*
X146726Y155658D01*
X146618Y155118D01*
X146726Y154577D01*
X147032Y154119D01*
X147491Y153812D01*
X148031Y153705D01*
X148209Y153230D01*
X148193Y153149D01*
X148301Y152609D01*
X148607Y152150D01*
X148791Y152027D01*
Y151387D01*
X148327Y151095D01*
X148291Y151100D01*
X148154Y151304D01*
X147017Y152442D01*
X146780Y152600D01*
X146500Y152656D01*
X143361D01*
X143068Y153156D01*
X143145Y153543D01*
X143038Y154084D01*
X142731Y154542D01*
X142273Y154849D01*
X141732Y154956D01*
X141349Y154880D01*
X141135Y155191D01*
X141220Y155354D01*
X141411Y155583D01*
X142520D01*
X142907Y155660D01*
X143235Y155879D01*
X143454Y156207D01*
X143531Y156595D01*
Y156850D01*
X143578Y157087D01*
X143531Y157323D01*
Y157560D01*
X143533Y157584D01*
X143697Y158026D01*
X143903Y158076D01*
X144241Y158143D01*
X144700Y158450D01*
X145006Y158908D01*
X145114Y159449D01*
X145006Y159990D01*
X144700Y160448D01*
X144241Y160754D01*
X143701Y160862D01*
X143160Y160754D01*
X142702Y160448D01*
X142395Y159990D01*
X142311Y159567D01*
X141974Y159398D01*
X141801Y159370D01*
X141054Y160118D01*
X140974Y160237D01*
X140763Y160448D01*
X140305Y160754D01*
X139915Y160832D01*
X139727Y161249D01*
X139718Y161342D01*
X140763Y162387D01*
X141069Y162845D01*
X141177Y163386D01*
X141069Y163926D01*
X140763Y164385D01*
X140305Y164691D01*
X139915Y164769D01*
X139727Y165186D01*
X139718Y165279D01*
X140763Y166324D01*
X140763Y166324D01*
X141069Y166782D01*
X141177Y167323D01*
X141169Y167363D01*
X141485Y167746D01*
X141979D01*
X142296Y167363D01*
X142288Y167323D01*
X142395Y166782D01*
X142702Y166324D01*
X143160Y166017D01*
X143701Y165910D01*
X143736Y165917D01*
X144166Y165492D01*
Y164686D01*
X144049Y164543D01*
X143928Y164443D01*
X143704Y164326D01*
X143307Y164405D01*
X142766Y164297D01*
X142308Y163991D01*
X142001Y163532D01*
X141894Y162992D01*
X142001Y162451D01*
X142308Y161993D01*
X142766Y161686D01*
X143307Y161579D01*
X143848Y161686D01*
X144306Y161993D01*
X144612Y162451D01*
X144720Y162992D01*
X144690Y163144D01*
X145115Y163568D01*
X145177Y163555D01*
X146161D01*
X146548Y163632D01*
X146877Y163852D01*
X147096Y164180D01*
X147173Y164567D01*
Y164860D01*
X147603Y165289D01*
X148103Y165082D01*
Y164567D01*
X148180Y164180D01*
X148399Y163852D01*
X148727Y163632D01*
X149114Y163555D01*
X150098D01*
X150486Y163632D01*
X150814Y163852D01*
X151033Y164180D01*
X151110Y164567D01*
Y164860D01*
X152180Y165930D01*
X152180Y165930D01*
X152486Y166388D01*
X152594Y166929D01*
X152486Y167470D01*
X152180Y167928D01*
X151722Y168234D01*
X151695Y168240D01*
X151328Y168412D01*
X151405Y168799D01*
Y169055D01*
X151452Y169291D01*
X151405Y169528D01*
Y169783D01*
X151328Y170171D01*
X151109Y170499D01*
X150781Y170718D01*
X150569Y170760D01*
X150066Y171263D01*
X150258Y171725D01*
X150394D01*
X150781Y171802D01*
X151109Y172021D01*
X151328Y172349D01*
X151364Y172531D01*
X151561Y172825D01*
X151669Y173366D01*
X151561Y173907D01*
X151255Y174365D01*
X150797Y174672D01*
X150544Y174722D01*
X149954Y175312D01*
X150119Y175854D01*
X150147Y175860D01*
X150605Y176166D01*
X150912Y176625D01*
X151019Y177165D01*
X150976Y177383D01*
X151801Y178207D01*
X151977Y178472D01*
X152039Y178784D01*
Y179959D01*
X152539Y180111D01*
X152544Y180103D01*
X153003Y179797D01*
X153543Y179689D01*
X154084Y179797D01*
X154542Y180103D01*
X154849Y180562D01*
X154956Y181102D01*
X154940Y181185D01*
X155278Y181567D01*
X155746D01*
X156084Y181185D01*
D02*
G37*
G36*
X143981Y192966D02*
X144277Y192811D01*
X144364Y192373D01*
X144670Y191914D01*
X145129Y191608D01*
X145669Y191500D01*
X146210Y191608D01*
X146377Y191719D01*
X146877Y191452D01*
Y187400D01*
X145886Y186409D01*
X145669Y186452D01*
X145129Y186345D01*
X144670Y186038D01*
X144364Y185580D01*
X144256Y185039D01*
X144364Y184499D01*
X144670Y184040D01*
X145129Y183734D01*
X145669Y183626D01*
X146210Y183734D01*
X146668Y184040D01*
X146975Y184499D01*
X147082Y185039D01*
X147039Y185256D01*
X147448Y185664D01*
X147909Y185473D01*
Y184495D01*
X145887Y182472D01*
X145669Y182515D01*
X145129Y182408D01*
X144670Y182102D01*
X144364Y181643D01*
X144256Y181102D01*
X144364Y180562D01*
X144670Y180103D01*
X145129Y179797D01*
X145669Y179689D01*
X145832Y179722D01*
X146257Y179297D01*
X146225Y179134D01*
X146332Y178593D01*
X146639Y178135D01*
X147097Y177828D01*
X147638Y177721D01*
X147801Y177753D01*
X148226Y177328D01*
X148193Y177165D01*
X148208Y177092D01*
X148187Y177019D01*
X147794Y176610D01*
X147638D01*
X147097Y176502D01*
X146639Y176196D01*
X146332Y175738D01*
X146225Y175197D01*
X146332Y174656D01*
X146639Y174198D01*
X147097Y173891D01*
X147448Y173822D01*
X148115Y173155D01*
X147960Y172705D01*
X147717Y172673D01*
X147638D01*
X147097Y172565D01*
X146639Y172259D01*
X146332Y171801D01*
X146225Y171260D01*
X146332Y170719D01*
X146639Y170261D01*
X147097Y169954D01*
X147448Y169885D01*
X147943Y169389D01*
X147936Y169128D01*
X147638Y168736D01*
X147097Y168628D01*
X146639Y168322D01*
X145594Y167277D01*
X145501Y167286D01*
X145084Y167474D01*
X145006Y167864D01*
X144700Y168322D01*
X144241Y168628D01*
X144094Y169167D01*
X144450Y169524D01*
X144635Y169560D01*
X145093Y169867D01*
X145400Y170325D01*
X145507Y170866D01*
X145400Y171406D01*
X145093Y171865D01*
X145004Y171924D01*
X144943Y172015D01*
X144485Y172322D01*
X143944Y172429D01*
X143404Y172322D01*
X142945Y172015D01*
X142284Y171354D01*
X141870D01*
X141329Y171246D01*
X141041Y171054D01*
X140763Y171471D01*
X140304Y171777D01*
X139763Y171885D01*
X139223Y171777D01*
X138764Y171471D01*
X138647Y171354D01*
X137933D01*
X137392Y171246D01*
X137098Y171049D01*
X136916Y171013D01*
X136588Y170794D01*
X136369Y170466D01*
X136292Y170079D01*
Y168898D01*
X136369Y168510D01*
X136588Y168182D01*
X136916Y167963D01*
X137303Y167886D01*
X137622D01*
X137829Y167386D01*
X137301Y166858D01*
X137008D01*
X136621Y166781D01*
X136293Y166562D01*
X136073Y166234D01*
X135996Y165847D01*
Y164862D01*
X136073Y164475D01*
X136293Y164147D01*
X136621Y163928D01*
X137008Y163851D01*
X137523D01*
X137730Y163351D01*
X137301Y162921D01*
X137008D01*
X136621Y162844D01*
X136293Y162625D01*
X136073Y162297D01*
X135996Y161909D01*
Y160944D01*
X135994Y160920D01*
X135830Y160478D01*
X135624Y160427D01*
X135286Y160360D01*
X134827Y160054D01*
X134521Y159596D01*
X134414Y159055D01*
X134521Y158514D01*
X134827Y158056D01*
X135286Y157749D01*
X135827Y157642D01*
X136367Y157749D01*
X136826Y158056D01*
X137132Y158514D01*
X137240Y159055D01*
X137168Y159414D01*
X137429Y159838D01*
X137521Y159914D01*
X137934D01*
X138358Y159484D01*
X138351Y159449D01*
X138458Y158908D01*
X138765Y158450D01*
X138765Y158450D01*
X138897Y158318D01*
X138976Y158199D01*
X140031Y157144D01*
X140015Y156880D01*
X139497Y156506D01*
X139370Y156531D01*
X138829Y156423D01*
X138371Y156117D01*
X138064Y155658D01*
X137957Y155118D01*
X138025Y154774D01*
X137729Y154302D01*
X137249Y154309D01*
X137000Y154774D01*
X137132Y154971D01*
X137240Y155512D01*
X137132Y156052D01*
X136826Y156511D01*
X136367Y156817D01*
X135827Y156925D01*
X135286Y156817D01*
X134828Y156511D01*
X134521Y156052D01*
X134414Y155512D01*
X134521Y154971D01*
X134653Y154774D01*
X134386Y154274D01*
X133331D01*
X133063Y154774D01*
X133195Y154971D01*
X133303Y155512D01*
X133195Y156052D01*
X132889Y156511D01*
X132431Y156817D01*
X131890Y156925D01*
X131349Y156817D01*
X130891Y156511D01*
X130711Y156242D01*
X126507D01*
X125882Y156867D01*
X126074Y157328D01*
X126563D01*
X126843Y157384D01*
X127080Y157543D01*
X129604Y160067D01*
X129921Y160004D01*
X130462Y160112D01*
X130920Y160418D01*
X131227Y160877D01*
X131334Y161417D01*
X131227Y161958D01*
X130920Y162416D01*
X130462Y162723D01*
X129921Y162830D01*
X129381Y162723D01*
X128922Y162416D01*
X128616Y161958D01*
X128508Y161417D01*
X128571Y161100D01*
X126260Y158790D01*
X125067D01*
X124735Y159290D01*
X124796Y159595D01*
X124688Y160135D01*
X124382Y160594D01*
X123854Y161122D01*
Y161319D01*
X123846Y161358D01*
Y161871D01*
X123884Y162007D01*
X124015Y162346D01*
X124222Y162388D01*
X124557Y162454D01*
X125015Y162761D01*
X125321Y163219D01*
X125429Y163760D01*
X125918Y163851D01*
X126772D01*
X127159Y163928D01*
X127487Y164147D01*
X127706Y164475D01*
X127783Y164862D01*
Y165847D01*
X127706Y166234D01*
X127487Y166562D01*
X127159Y166781D01*
X126772Y166858D01*
X126676D01*
X126135Y167399D01*
X126300Y167941D01*
X126525Y167986D01*
X126983Y168292D01*
X127290Y168751D01*
X127397Y169291D01*
X127290Y169832D01*
X126983Y170291D01*
X126525Y170597D01*
X125984Y170704D01*
X125443Y170597D01*
X124985Y170291D01*
X124863Y170107D01*
X108606D01*
X100951Y177762D01*
X100686Y177939D01*
X100374Y178001D01*
X100374Y178001D01*
X85827D01*
X85803Y177996D01*
X78288D01*
X78020Y178496D01*
X78223Y178799D01*
X78399Y179685D01*
X78223Y180571D01*
X77720Y181323D01*
X76969Y181825D01*
X76440Y181930D01*
Y182440D01*
X76969Y182545D01*
X77720Y183047D01*
X78223Y183799D01*
X78399Y184685D01*
X78223Y185571D01*
X78020Y185874D01*
X78288Y186374D01*
X79291D01*
X79311Y186370D01*
X79623Y186432D01*
X79887Y186609D01*
X80834Y187556D01*
X81368Y187415D01*
X81383Y187398D01*
X81678Y186956D01*
X82136Y186650D01*
X82677Y186542D01*
X83218Y186650D01*
X83676Y186956D01*
X83983Y187415D01*
X84090Y187955D01*
X83983Y188496D01*
X83676Y188954D01*
X83254Y189236D01*
X83250Y189273D01*
X83554Y189736D01*
X104387D01*
X110996Y183127D01*
Y178740D01*
X111058Y178428D01*
X111235Y178164D01*
X112810Y176589D01*
X113074Y176412D01*
X113386Y176350D01*
X116988D01*
X117111Y176166D01*
X117569Y175860D01*
X118110Y175752D01*
X118651Y175860D01*
X119109Y176166D01*
X119416Y176625D01*
X119523Y177165D01*
X119416Y177706D01*
X119109Y178165D01*
X118651Y178471D01*
X118110Y178578D01*
X117569Y178471D01*
X117111Y178165D01*
X116988Y177980D01*
X113723D01*
X112626Y179078D01*
Y181184D01*
X113126Y181391D01*
X113991Y180526D01*
X114255Y180350D01*
X114567Y180288D01*
X116988D01*
X117111Y180103D01*
X117569Y179797D01*
X118110Y179689D01*
X118596Y179786D01*
X119093Y179847D01*
X119269Y179584D01*
X122094Y176759D01*
X122357Y176584D01*
X122396Y176576D01*
X122642Y176164D01*
X122665Y176073D01*
X122664Y176023D01*
X122573Y175560D01*
Y173274D01*
X122563Y173228D01*
X122610Y172992D01*
Y172736D01*
X122687Y172349D01*
X122907Y172021D01*
X123235Y171802D01*
X123622Y171725D01*
X124803D01*
X125190Y171802D01*
X125518Y172021D01*
X125738Y172349D01*
X125815Y172736D01*
Y173721D01*
X125738Y174108D01*
X125518Y174436D01*
X125398Y174516D01*
Y175328D01*
X125802Y175524D01*
X126146Y175197D01*
X126253Y174656D01*
X126560Y174197D01*
X127018Y173891D01*
X127559Y173784D01*
X128016Y173874D01*
X128516Y173617D01*
Y173524D01*
X128593Y173136D01*
X128812Y172808D01*
X128980Y172696D01*
X129009Y172548D01*
X129316Y172089D01*
X129752Y171653D01*
X129316Y171218D01*
X129010Y170759D01*
X128980Y170611D01*
X128812Y170499D01*
X128593Y170171D01*
X128516Y169783D01*
Y168799D01*
X128593Y168412D01*
X128812Y168084D01*
X129140Y167865D01*
X129528Y167788D01*
X130709D01*
X131096Y167865D01*
X131424Y168084D01*
X131643Y168412D01*
X131720Y168799D01*
Y169351D01*
X131728Y169390D01*
Y169633D01*
X132467Y170373D01*
X132889Y170654D01*
X133195Y171113D01*
X133303Y171653D01*
X133195Y172194D01*
X132889Y172653D01*
X132467Y172934D01*
X131728Y173674D01*
Y173917D01*
X131720Y173956D01*
Y174508D01*
X131643Y174895D01*
X131424Y175223D01*
X131096Y175442D01*
X130709Y175519D01*
X129528D01*
X129140Y175442D01*
X128808Y175822D01*
X128558Y176196D01*
X128628Y176492D01*
X128683Y176772D01*
Y181609D01*
X128628Y181888D01*
X128469Y182125D01*
X127502Y183093D01*
X127522Y183297D01*
X127635Y183668D01*
X127881Y183832D01*
X128100Y184160D01*
X128136Y184342D01*
X128333Y184636D01*
X128440Y185177D01*
Y185891D01*
X128952Y186402D01*
X129258Y186861D01*
X129366Y187402D01*
X129258Y187942D01*
X128952Y188401D01*
X128493Y188707D01*
X127953Y188814D01*
X127412Y188707D01*
X126954Y188401D01*
X126744Y188191D01*
X126282Y188382D01*
Y190997D01*
X128032Y192747D01*
X128235Y192736D01*
X128566Y192624D01*
X128616Y192373D01*
X128922Y191914D01*
X129381Y191608D01*
X129921Y191500D01*
X130462Y191608D01*
X130920Y191914D01*
X130973Y191992D01*
X131473Y191841D01*
Y187402D01*
X131534Y187091D01*
X131710Y186828D01*
X133047Y185491D01*
Y181438D01*
X132112Y180503D01*
X131890Y180547D01*
X131349Y180439D01*
X130891Y180133D01*
X130584Y179675D01*
X130477Y179134D01*
X130584Y178593D01*
X130891Y178135D01*
X131349Y177828D01*
X131890Y177721D01*
X132052Y177753D01*
X132478Y177328D01*
X132445Y177165D01*
X132553Y176625D01*
X132859Y176166D01*
X133318Y175860D01*
X133858Y175752D01*
X134399Y175860D01*
X134857Y176166D01*
X135164Y176625D01*
X135271Y177165D01*
X135228Y177383D01*
X136184Y178339D01*
X136192Y178341D01*
X136721Y178168D01*
X136735Y178074D01*
X136490Y177706D01*
X136382Y177165D01*
X136490Y176625D01*
X136796Y176166D01*
X137255Y175860D01*
X137795Y175752D01*
X138336Y175860D01*
X138794Y176166D01*
X139101Y176625D01*
X139208Y177165D01*
X139101Y177706D01*
X138794Y178165D01*
X138610Y178288D01*
Y185511D01*
X139110Y185778D01*
X139223Y185703D01*
X139764Y185595D01*
X140305Y185703D01*
X140417Y185778D01*
X140917Y185511D01*
Y178288D01*
X140733Y178165D01*
X140427Y177706D01*
X140319Y177165D01*
X140427Y176625D01*
X140733Y176166D01*
X141192Y175860D01*
X141732Y175752D01*
X142273Y175860D01*
X142731Y176166D01*
X143038Y176625D01*
X143145Y177165D01*
X143038Y177706D01*
X142731Y178165D01*
X142547Y178288D01*
Y191788D01*
X143767Y193008D01*
X143981Y192966D01*
D02*
G37*
G36*
X113022Y153936D02*
X113287Y153759D01*
X113598Y153697D01*
X116285D01*
X116705Y153248D01*
Y152795D01*
X116697Y152756D01*
Y152150D01*
X116197Y152101D01*
X116195Y152111D01*
X115994Y152412D01*
X115693Y152613D01*
X115339Y152683D01*
X113008D01*
X112653Y152613D01*
X112352Y152412D01*
X112151Y152111D01*
X112081Y151756D01*
Y149031D01*
X112114Y148862D01*
X111851Y148435D01*
X111760Y148362D01*
X108298D01*
X108268Y148368D01*
X104143D01*
X102355Y150156D01*
X102508Y150711D01*
X102853Y150942D01*
X103159Y151400D01*
X103267Y151941D01*
X103159Y152481D01*
X102853Y152940D01*
X102394Y153246D01*
X101884Y153348D01*
X101828Y153368D01*
X101368Y153767D01*
X101305Y154084D01*
X100999Y154542D01*
X100762Y154701D01*
X100914Y155201D01*
X111757D01*
X113022Y153936D01*
D02*
G37*
G36*
X144804Y150695D02*
X144670Y150605D01*
X144364Y150147D01*
X144256Y149606D01*
X144364Y149065D01*
X144670Y148607D01*
X144853Y148484D01*
Y146851D01*
X144853Y146851D01*
X144915Y146538D01*
X145092Y146274D01*
X146529Y144837D01*
X146529Y144837D01*
X146793Y144661D01*
X147106Y144598D01*
X149389D01*
X150753Y143234D01*
X150435Y142845D01*
X150147Y143038D01*
X149606Y143145D01*
X149066Y143038D01*
X148607Y142731D01*
X148301Y142273D01*
X148193Y141732D01*
X148254Y141429D01*
X147921Y140929D01*
X139481D01*
X139148Y141429D01*
X139208Y141732D01*
X139101Y142273D01*
X138794Y142731D01*
X138336Y143038D01*
X137795Y143145D01*
X137255Y143038D01*
X136796Y142731D01*
X136565Y142385D01*
X136011Y142233D01*
X135935Y142308D01*
X135670Y142485D01*
X135359Y142547D01*
X129450D01*
X129183Y143047D01*
X129258Y143160D01*
X129366Y143701D01*
X129355Y143755D01*
X129783Y144166D01*
X130752D01*
X131139Y144243D01*
X131467Y144462D01*
X131687Y144790D01*
X131764Y145177D01*
Y146161D01*
X131687Y146549D01*
X131467Y146877D01*
X131139Y147096D01*
X130752Y147173D01*
X130459D01*
X129341Y148291D01*
X129548Y148791D01*
X140610D01*
X140733Y148607D01*
X141192Y148301D01*
X141732Y148193D01*
X142273Y148301D01*
X142731Y148607D01*
X143038Y149066D01*
X143145Y149606D01*
X143038Y150147D01*
X142731Y150605D01*
X142598Y150695D01*
X142750Y151195D01*
X144652D01*
X144804Y150695D01*
D02*
G37*
G36*
X128041Y125408D02*
X128305Y125231D01*
X128617Y125169D01*
X146700D01*
X147012Y125231D01*
X147276Y125408D01*
X147295Y125426D01*
X147637Y125358D01*
X148178Y125466D01*
X148637Y125772D01*
X148943Y126231D01*
X149050Y126771D01*
X149224Y126983D01*
X149781Y126964D01*
X149788Y126953D01*
X150246Y126647D01*
X150787Y126540D01*
X151328Y126647D01*
X151786Y126953D01*
X151824Y127010D01*
X152150Y127347D01*
X152609Y127041D01*
X153150Y126934D01*
X153690Y127041D01*
X154149Y127347D01*
X154271Y127531D01*
X161293D01*
X161445Y127031D01*
X161206Y126871D01*
X160899Y126413D01*
X160792Y125872D01*
X160855Y125555D01*
X158932Y123633D01*
X158774Y123396D01*
X158718Y123116D01*
Y55814D01*
X155997Y53093D01*
X98208D01*
X98109Y53593D01*
X99088Y53998D01*
X100015Y54710D01*
X100726Y55636D01*
X101173Y56716D01*
X101326Y57874D01*
X101173Y59032D01*
X100726Y60112D01*
X100015Y61039D01*
X99088Y61750D01*
X98009Y62197D01*
X96850Y62349D01*
X94488D01*
X93330Y62197D01*
X92251Y61750D01*
X91324Y61039D01*
X90613Y60112D01*
X90165Y59032D01*
X90013Y57874D01*
X90165Y56716D01*
X90613Y55636D01*
X91324Y54710D01*
X92251Y53998D01*
X93230Y53593D01*
X93130Y53093D01*
X83767D01*
X76715Y60145D01*
Y72495D01*
X76969Y72545D01*
X77720Y73047D01*
X78223Y73799D01*
X78399Y74685D01*
X78223Y75571D01*
X77720Y76323D01*
X76969Y76825D01*
X76440Y76930D01*
Y77440D01*
X76969Y77545D01*
X77720Y78047D01*
X78223Y78799D01*
X78237Y78874D01*
X79291D01*
X79602Y78936D01*
X79865Y79112D01*
X101715Y100962D01*
X101715Y100962D01*
X101891Y101225D01*
X101952Y101535D01*
X101952Y101535D01*
Y113099D01*
X102452Y113366D01*
X102609Y113261D01*
X103150Y113154D01*
X103690Y113261D01*
X104149Y113568D01*
X104272Y113752D01*
X105118D01*
X105430Y113814D01*
X105694Y113991D01*
X111600Y119896D01*
X111776Y120161D01*
X111838Y120472D01*
Y123678D01*
X114630Y126470D01*
X115130Y126263D01*
Y126099D01*
X115122Y126060D01*
Y123687D01*
X115230Y123146D01*
X115536Y122687D01*
X115704Y122575D01*
X115553Y122075D01*
X115051D01*
Y119107D01*
X115304D01*
X115720Y118898D01*
X115782Y118586D01*
X115959Y118321D01*
X116782Y117497D01*
X116591Y117035D01*
X112295D01*
Y115192D01*
X110782D01*
X110241Y115085D01*
X109783Y114779D01*
X109695Y114691D01*
X109237Y114385D01*
X108931Y113926D01*
X108823Y113386D01*
Y113234D01*
X108931Y112693D01*
X109237Y112235D01*
X109695Y111928D01*
X110236Y111821D01*
X110777Y111928D01*
X111235Y112235D01*
X111367Y112367D01*
X112295D01*
Y110524D01*
X115017D01*
X115169Y110032D01*
X115169Y110024D01*
X114581Y109435D01*
X114404Y109170D01*
X114342Y108858D01*
X114342Y108858D01*
Y108374D01*
X112295D01*
Y101862D01*
X114342D01*
Y99453D01*
X114342Y99453D01*
X114404Y99140D01*
X114581Y98876D01*
X115130Y98326D01*
Y97583D01*
X115207Y97195D01*
X115427Y96867D01*
X115755Y96648D01*
X116142Y96571D01*
X117323D01*
X117710Y96648D01*
X118038Y96867D01*
X118245Y97176D01*
X118372Y97195D01*
X118636D01*
X118763Y97176D01*
X118970Y96867D01*
X119298Y96648D01*
X119685Y96571D01*
X120866D01*
X121214Y96640D01*
X123600D01*
X124141Y96748D01*
X124600Y97054D01*
X124906Y97512D01*
X125013Y98053D01*
X124906Y98594D01*
X124600Y99052D01*
X124141Y99358D01*
X123600Y99466D01*
X121306D01*
X121253Y99501D01*
X120866Y99578D01*
X119685D01*
X119298Y99501D01*
X118970Y99282D01*
X118763Y98973D01*
X118636Y98954D01*
X118372D01*
X118245Y98973D01*
X118038Y99282D01*
X117710Y99501D01*
X117323Y99578D01*
X116185D01*
X115973Y99790D01*
Y101862D01*
X118020D01*
Y107738D01*
X118406Y108055D01*
X118504Y108036D01*
X118602Y108055D01*
X118988Y107738D01*
Y101862D01*
X124713D01*
Y103705D01*
X126378D01*
X126919Y103813D01*
X127377Y104119D01*
X127683Y104577D01*
X127791Y105118D01*
X127683Y105659D01*
X127377Y106117D01*
X126919Y106423D01*
X126378Y106531D01*
X124713D01*
Y108374D01*
X120054D01*
X119787Y108874D01*
X119809Y108908D01*
X119917Y109449D01*
X119809Y109990D01*
X119787Y110024D01*
X120054Y110524D01*
X124713D01*
Y117035D01*
X124438D01*
Y119351D01*
X124621Y119473D01*
X124927Y119932D01*
X125035Y120472D01*
X124927Y121013D01*
X124621Y121472D01*
X124163Y121778D01*
X123622Y121885D01*
X123081Y121778D01*
X122623Y121472D01*
X122500Y121288D01*
X121957D01*
Y122075D01*
X121288D01*
Y124657D01*
X121581Y124853D01*
X121801Y125181D01*
X121878Y125568D01*
Y126553D01*
X121801Y126940D01*
X121581Y127268D01*
X121346Y127425D01*
X121412Y127884D01*
X121429Y127925D01*
X125523D01*
X128041Y125408D01*
D02*
G37*
G36*
X208715Y96736D02*
X208715Y96736D01*
X208978Y96560D01*
X209288Y96499D01*
X209288Y96499D01*
X211772D01*
X234917Y73353D01*
Y66465D01*
X234478Y66212D01*
X234085Y66414D01*
X234044Y66580D01*
Y67559D01*
X233982Y67871D01*
X233805Y68136D01*
X233805Y68136D01*
X229470Y72471D01*
X229205Y72648D01*
X228893Y72710D01*
X228893Y72710D01*
X226227D01*
X223256Y75681D01*
X223370Y76192D01*
X223408Y76236D01*
X223834Y76521D01*
X224140Y76979D01*
X224248Y77520D01*
X224140Y78060D01*
X223834Y78519D01*
X223375Y78825D01*
X222835Y78933D01*
X222294Y78825D01*
X221835Y78519D01*
X221551Y78093D01*
X221507Y78055D01*
X220996Y77942D01*
X202539Y96398D01*
Y102258D01*
X203001Y102450D01*
X208715Y96736D01*
D02*
G37*
%LPC*%
G36*
X148819Y237633D02*
X148278Y237526D01*
X147820Y237220D01*
X147513Y236761D01*
X147406Y236221D01*
X147513Y235680D01*
X147820Y235221D01*
X148278Y234915D01*
X148819Y234807D01*
X149360Y234915D01*
X149818Y235221D01*
X150124Y235680D01*
X150232Y236221D01*
X150124Y236761D01*
X149818Y237220D01*
X149360Y237526D01*
X148819Y237633D01*
D02*
G37*
G36*
X141339D02*
X140798Y237526D01*
X140340Y237220D01*
X140033Y236761D01*
X139926Y236221D01*
X139942Y236139D01*
X139764Y235665D01*
X139223Y235557D01*
X138765Y235251D01*
X138458Y234793D01*
X138351Y234252D01*
X138458Y233711D01*
X138765Y233253D01*
X139223Y232947D01*
X139764Y232839D01*
X140305Y232947D01*
X140763Y233253D01*
X141069Y233711D01*
X141177Y234252D01*
X141161Y234333D01*
X141339Y234807D01*
X141879Y234915D01*
X142338Y235221D01*
X142644Y235680D01*
X142752Y236221D01*
X142644Y236761D01*
X142338Y237220D01*
X141879Y237526D01*
X141339Y237633D01*
D02*
G37*
G36*
X154724Y233199D02*
X153876Y233088D01*
X153085Y232760D01*
X152407Y232239D01*
X151885Y231560D01*
X151558Y230770D01*
X151446Y229921D01*
X151558Y229073D01*
X151885Y228282D01*
X152407Y227603D01*
X153085Y227082D01*
X153876Y226755D01*
X154724Y226643D01*
X155573Y226755D01*
X156363Y227082D01*
X157042Y227603D01*
X157563Y228282D01*
X157891Y229073D01*
X158002Y229921D01*
X157891Y230770D01*
X157563Y231560D01*
X157042Y232239D01*
X156363Y232760D01*
X155573Y233088D01*
X154724Y233199D01*
D02*
G37*
G36*
X135039D02*
X134191Y233088D01*
X133400Y232760D01*
X132721Y232239D01*
X132201Y231560D01*
X131873Y230770D01*
X131761Y229921D01*
X131873Y229073D01*
X132201Y228282D01*
X132721Y227603D01*
X133400Y227082D01*
X134191Y226755D01*
X135039Y226643D01*
X135888Y226755D01*
X136678Y227082D01*
X137357Y227603D01*
X137878Y228282D01*
X138206Y229073D01*
X138317Y229921D01*
X138206Y230770D01*
X137878Y231560D01*
X137357Y232239D01*
X136678Y232760D01*
X135888Y233088D01*
X135039Y233199D01*
D02*
G37*
G36*
X144882Y227004D02*
X144341Y226896D01*
X143883Y226590D01*
X143577Y226131D01*
X143469Y225590D01*
X143577Y225050D01*
X143883Y224591D01*
X144341Y224285D01*
X144882Y224178D01*
X145423Y224285D01*
X145911Y224010D01*
X145939Y223869D01*
X146245Y223410D01*
X146703Y223104D01*
X147244Y222996D01*
X147785Y223104D01*
X148243Y223410D01*
X148549Y223869D01*
X148657Y224410D01*
X148549Y224950D01*
X148243Y225409D01*
X147785Y225715D01*
X147244Y225822D01*
X146703Y225715D01*
X146215Y225990D01*
X146187Y226131D01*
X145881Y226590D01*
X145423Y226896D01*
X144882Y227004D01*
D02*
G37*
G36*
X139764Y225822D02*
X139223Y225715D01*
X138765Y225409D01*
X138458Y224950D01*
X138351Y224410D01*
X138458Y223869D01*
X138765Y223410D01*
X139223Y223104D01*
X139764Y222996D01*
X140305Y223104D01*
X140763Y223410D01*
X141069Y223869D01*
X141177Y224410D01*
X141069Y224950D01*
X140763Y225409D01*
X140305Y225715D01*
X139764Y225822D01*
D02*
G37*
G36*
X131890Y223066D02*
X131349Y222959D01*
X130891Y222653D01*
X130584Y222194D01*
X130477Y221654D01*
X130584Y221113D01*
X130891Y220654D01*
X131349Y220348D01*
X131890Y220241D01*
X132431Y220348D01*
X132889Y220654D01*
X133195Y221113D01*
X133303Y221654D01*
X133195Y222194D01*
X132889Y222653D01*
X132431Y222959D01*
X131890Y223066D01*
D02*
G37*
G36*
X138583Y207712D02*
X138042Y207605D01*
X137584Y207298D01*
X137277Y206840D01*
X137170Y206299D01*
X137277Y205759D01*
X137584Y205300D01*
X138042Y204994D01*
X138583Y204886D01*
X139123Y204994D01*
X139582Y205300D01*
X139888Y205759D01*
X139996Y206299D01*
X139888Y206840D01*
X139582Y207298D01*
X139123Y207605D01*
X138583Y207712D01*
D02*
G37*
G36*
X217736Y182770D02*
X217196Y182662D01*
X216737Y182356D01*
X216431Y181897D01*
X216381Y181646D01*
X215879Y181643D01*
X215871Y181644D01*
X215566Y182101D01*
X215107Y182407D01*
X214566Y182515D01*
X214026Y182407D01*
X213567Y182101D01*
X213261Y181643D01*
X213154Y181102D01*
X213261Y180561D01*
X213567Y180103D01*
X214026Y179797D01*
X214566Y179689D01*
X215107Y179797D01*
X215566Y180103D01*
X215872Y180561D01*
X215922Y180813D01*
X216424Y180816D01*
X216432Y180814D01*
X216737Y180358D01*
X217196Y180051D01*
X217736Y179944D01*
X218277Y180051D01*
X218736Y180358D01*
X219042Y180816D01*
X219149Y181357D01*
X219042Y181897D01*
X218736Y182356D01*
X218277Y182662D01*
X217736Y182770D01*
D02*
G37*
G36*
X205906Y179366D02*
X205365Y179258D01*
X204906Y178952D01*
X204600Y178493D01*
X204492Y177953D01*
X204600Y177412D01*
X204906Y176954D01*
X205365Y176647D01*
X205906Y176540D01*
X206446Y176647D01*
X206905Y176954D01*
X207211Y177412D01*
X207318Y177953D01*
X207211Y178493D01*
X206905Y178952D01*
X206446Y179258D01*
X205906Y179366D01*
D02*
G37*
G36*
X209055Y177791D02*
X208514Y177683D01*
X208056Y177377D01*
X207750Y176919D01*
X207642Y176378D01*
X207750Y175837D01*
X208056Y175379D01*
X208514Y175073D01*
X209055Y174965D01*
X209596Y175073D01*
X210054Y175379D01*
X210361Y175837D01*
X210468Y176378D01*
X210361Y176919D01*
X210054Y177377D01*
X209596Y177683D01*
X209055Y177791D01*
D02*
G37*
G36*
X213844Y177461D02*
X213303Y177354D01*
X212844Y177048D01*
X212538Y176589D01*
X212431Y176048D01*
X212538Y175508D01*
X212844Y175049D01*
X213303Y174743D01*
X213844Y174635D01*
X214384Y174743D01*
X214843Y175049D01*
X215149Y175508D01*
X215257Y176048D01*
X215149Y176589D01*
X214843Y177048D01*
X214384Y177354D01*
X213844Y177461D01*
D02*
G37*
G36*
X207874Y174247D02*
X207333Y174140D01*
X206874Y173833D01*
X206568Y173375D01*
X206461Y172834D01*
X206568Y172294D01*
X206874Y171835D01*
X207333Y171529D01*
X207874Y171421D01*
X208414Y171529D01*
X208873Y171835D01*
X209179Y172294D01*
X209287Y172834D01*
X209179Y173375D01*
X208873Y173833D01*
X208414Y174140D01*
X207874Y174247D01*
D02*
G37*
G36*
X217677Y176650D02*
X217136Y176542D01*
X216678Y176236D01*
X216371Y175777D01*
X216264Y175237D01*
X216371Y174696D01*
X216678Y174238D01*
X217136Y173931D01*
X217677Y173824D01*
X218217Y173931D01*
X218676Y174238D01*
X218982Y174696D01*
X219013Y174849D01*
X219522D01*
X219561Y174656D01*
X219867Y174198D01*
X220325Y173891D01*
X220398Y173877D01*
Y173367D01*
X220325Y173353D01*
X219867Y173046D01*
X219561Y172588D01*
X219453Y172047D01*
X219561Y171507D01*
X219867Y171048D01*
X220325Y170742D01*
X220866Y170634D01*
X221407Y170742D01*
X221865Y171048D01*
X222172Y171507D01*
X222279Y172047D01*
X222172Y172588D01*
X221865Y173046D01*
X221407Y173353D01*
X221334Y173367D01*
Y173877D01*
X221407Y173891D01*
X221865Y174198D01*
X222172Y174656D01*
X222279Y175197D01*
X222172Y175738D01*
X221865Y176196D01*
X221407Y176502D01*
X220866Y176610D01*
X220325Y176502D01*
X219867Y176196D01*
X219561Y175738D01*
X219530Y175585D01*
X219021D01*
X218982Y175777D01*
X218676Y176236D01*
X218217Y176542D01*
X217677Y176650D01*
D02*
G37*
G36*
X212598Y172673D02*
X212058Y172565D01*
X211599Y172259D01*
X211293Y171801D01*
X211186Y171260D01*
X211293Y170719D01*
X211599Y170261D01*
X212058Y169954D01*
X212598Y169847D01*
X213139Y169954D01*
X213598Y170261D01*
X213904Y170719D01*
X214011Y171260D01*
X213904Y171801D01*
X213598Y172259D01*
X213139Y172565D01*
X212598Y172673D01*
D02*
G37*
G36*
X217717Y143539D02*
X217176Y143431D01*
X216717Y143125D01*
X216411Y142667D01*
X216304Y142126D01*
X216411Y141585D01*
X216717Y141127D01*
X217176Y140821D01*
X217717Y140713D01*
X218257Y140821D01*
X218675Y141100D01*
X218774Y141118D01*
X219264Y141047D01*
X219473Y140733D01*
X219932Y140427D01*
X220472Y140319D01*
X221013Y140427D01*
X221472Y140733D01*
X221778Y141192D01*
X221885Y141732D01*
X221778Y142273D01*
X221472Y142731D01*
X221013Y143038D01*
X220472Y143145D01*
X219932Y143038D01*
X219514Y142758D01*
X219415Y142740D01*
X218925Y142811D01*
X218716Y143125D01*
X218257Y143431D01*
X217717Y143539D01*
D02*
G37*
G36*
X245669Y136846D02*
X245129Y136739D01*
X244670Y136432D01*
X244364Y135974D01*
X244256Y135433D01*
X244364Y134892D01*
X244670Y134434D01*
X245129Y134128D01*
X245669Y134020D01*
X246210Y134128D01*
X246668Y134434D01*
X246975Y134892D01*
X247082Y135433D01*
X246975Y135974D01*
X246668Y136432D01*
X246210Y136739D01*
X245669Y136846D01*
D02*
G37*
G36*
X251575Y128084D02*
X251034Y127976D01*
X250575Y127670D01*
X250269Y127212D01*
X250162Y126671D01*
X250269Y126130D01*
X250575Y125672D01*
X251034Y125366D01*
X251575Y125258D01*
X252115Y125366D01*
X252574Y125672D01*
X252880Y126130D01*
X252988Y126671D01*
X252880Y127212D01*
X252574Y127670D01*
X252115Y127976D01*
X251575Y128084D01*
D02*
G37*
G36*
X250000Y117969D02*
X249459Y117861D01*
X249001Y117555D01*
X248695Y117097D01*
X248587Y116556D01*
X248695Y116015D01*
X249001Y115557D01*
X249459Y115251D01*
X250000Y115143D01*
X250541Y115251D01*
X250999Y115557D01*
X251305Y116015D01*
X251413Y116556D01*
X251305Y117097D01*
X250999Y117555D01*
X250541Y117861D01*
X250000Y117969D01*
D02*
G37*
G36*
X163779Y114405D02*
X163239Y114297D01*
X162780Y113991D01*
X162474Y113533D01*
X162367Y112992D01*
X162474Y112451D01*
X162780Y111993D01*
X163239Y111687D01*
X163779Y111579D01*
X164320Y111687D01*
X164779Y111993D01*
X165085Y112451D01*
X165192Y112992D01*
X165085Y113533D01*
X164779Y113991D01*
X164320Y114297D01*
X163779Y114405D01*
D02*
G37*
G36*
X238780Y105242D02*
X238239Y105135D01*
X237780Y104828D01*
X237474Y104370D01*
X237367Y103829D01*
X237474Y103289D01*
X237780Y102830D01*
X238239Y102524D01*
X238780Y102416D01*
X239320Y102524D01*
X239779Y102830D01*
X240085Y103289D01*
X240193Y103829D01*
X240085Y104370D01*
X239779Y104828D01*
X239320Y105135D01*
X238780Y105242D01*
D02*
G37*
G36*
X221260Y104956D02*
X220719Y104849D01*
X220261Y104542D01*
X219954Y104084D01*
X219847Y103543D01*
X219954Y103003D01*
X220261Y102544D01*
X220719Y102238D01*
X221260Y102130D01*
X221801Y102238D01*
X222259Y102544D01*
X222565Y103003D01*
X222673Y103543D01*
X222565Y104084D01*
X222259Y104542D01*
X221801Y104849D01*
X221260Y104956D01*
D02*
G37*
G36*
X250787Y103382D02*
X250247Y103274D01*
X249788Y102968D01*
X249482Y102509D01*
X249374Y101969D01*
X249482Y101428D01*
X249788Y100969D01*
X250247Y100663D01*
X250787Y100556D01*
X251328Y100663D01*
X251786Y100969D01*
X252093Y101428D01*
X252200Y101969D01*
X252093Y102509D01*
X251786Y102968D01*
X251328Y103274D01*
X250787Y103382D01*
D02*
G37*
G36*
X170091Y97168D02*
X169550Y97060D01*
X169091Y96754D01*
X168785Y96295D01*
X168678Y95755D01*
X168785Y95214D01*
X169091Y94756D01*
X169550Y94449D01*
X170091Y94342D01*
X170631Y94449D01*
X171090Y94756D01*
X171396Y95214D01*
X171503Y95755D01*
X171396Y96295D01*
X171090Y96754D01*
X170631Y97060D01*
X170091Y97168D01*
D02*
G37*
G36*
X238780Y90783D02*
X238239Y90675D01*
X237780Y90369D01*
X237474Y89911D01*
X237367Y89370D01*
X237474Y88829D01*
X237780Y88371D01*
X238239Y88065D01*
X238780Y87957D01*
X239320Y88065D01*
X239779Y88371D01*
X240085Y88829D01*
X240193Y89370D01*
X240085Y89911D01*
X239779Y90369D01*
X239320Y90675D01*
X238780Y90783D01*
D02*
G37*
G36*
X244488Y91285D02*
X243756Y91139D01*
X243134Y90724D01*
X242719Y90103D01*
X242573Y89370D01*
X242719Y88637D01*
X243134Y88016D01*
X243756Y87601D01*
X244488Y87455D01*
X245221Y87601D01*
X245842Y88016D01*
X246257Y88637D01*
X246403Y89370D01*
X246257Y90103D01*
X245842Y90724D01*
X245221Y91139D01*
X244488Y91285D01*
D02*
G37*
G36*
X250984Y78185D02*
X250444Y78077D01*
X249985Y77771D01*
X249679Y77312D01*
X249571Y76772D01*
X249679Y76231D01*
X249985Y75773D01*
X250444Y75466D01*
X250984Y75359D01*
X251525Y75466D01*
X251983Y75773D01*
X252290Y76231D01*
X252397Y76772D01*
X252290Y77312D01*
X251983Y77771D01*
X251525Y78077D01*
X250984Y78185D01*
D02*
G37*
G36*
X165354Y186452D02*
X164814Y186345D01*
X164355Y186038D01*
X164049Y185580D01*
X163941Y185039D01*
X164049Y184499D01*
X164355Y184040D01*
X164814Y183734D01*
X165354Y183626D01*
X165895Y183734D01*
X166353Y184040D01*
X166660Y184499D01*
X166767Y185039D01*
X166660Y185580D01*
X166353Y186038D01*
X165895Y186345D01*
X165354Y186452D01*
D02*
G37*
G36*
X97244Y188814D02*
X96703Y188707D01*
X96245Y188401D01*
X95939Y187942D01*
X95831Y187402D01*
X95908Y187016D01*
X95499Y186688D01*
X95423Y186739D01*
X94882Y186846D01*
X94719Y186814D01*
X94294Y187239D01*
X94326Y187402D01*
X94219Y187942D01*
X93913Y188401D01*
X93454Y188707D01*
X92913Y188814D01*
X92373Y188707D01*
X91914Y188401D01*
X91608Y187942D01*
X91500Y187402D01*
X91577Y187016D01*
X91168Y186688D01*
X91092Y186739D01*
X90551Y186846D01*
X90010Y186739D01*
X89552Y186432D01*
X89474Y186315D01*
X88873D01*
X88794Y186432D01*
X88336Y186739D01*
X87795Y186846D01*
X87255Y186739D01*
X86796Y186432D01*
X86718Y186315D01*
X86117D01*
X86039Y186432D01*
X85580Y186739D01*
X85039Y186846D01*
X84499Y186739D01*
X84040Y186432D01*
X83734Y185974D01*
X83626Y185433D01*
X83734Y184892D01*
X84040Y184434D01*
X84499Y184128D01*
X85039Y184020D01*
X85580Y184128D01*
X86039Y184434D01*
X86117Y184551D01*
X86718D01*
X86796Y184434D01*
X87255Y184128D01*
X87795Y184020D01*
X88336Y184128D01*
X88794Y184434D01*
X88873Y184551D01*
X89474D01*
X89552Y184434D01*
X90010Y184128D01*
X90551Y184020D01*
X91092Y184128D01*
X91550Y184434D01*
X91857Y184892D01*
X91964Y185433D01*
X91887Y185819D01*
X92296Y186147D01*
X92373Y186096D01*
X92913Y185989D01*
X93076Y186021D01*
X93501Y185596D01*
X93469Y185433D01*
X93577Y184892D01*
X93883Y184434D01*
X94341Y184128D01*
X94882Y184020D01*
X95423Y184128D01*
X95881Y184434D01*
X96187Y184892D01*
X96295Y185433D01*
X96218Y185819D01*
X96627Y186147D01*
X96703Y186096D01*
X97244Y185989D01*
X97785Y186096D01*
X97861Y186147D01*
X98270Y185819D01*
X98193Y185433D01*
X98301Y184892D01*
X98607Y184434D01*
X99066Y184128D01*
X99606Y184020D01*
X100147Y184128D01*
X100223Y184179D01*
X100632Y183851D01*
X100556Y183465D01*
X100663Y182924D01*
X100969Y182466D01*
X101428Y182159D01*
X101969Y182052D01*
X102509Y182159D01*
X102968Y182466D01*
X103274Y182924D01*
X103288Y182997D01*
X103798D01*
X103813Y182924D01*
X104119Y182466D01*
X104577Y182159D01*
X105118Y182052D01*
X105659Y182159D01*
X106117Y182466D01*
X106423Y182924D01*
X106531Y183465D01*
X106423Y184005D01*
X106117Y184464D01*
X105659Y184770D01*
X105118Y184878D01*
X104577Y184770D01*
X104119Y184464D01*
X103813Y184005D01*
X103798Y183932D01*
X103288D01*
X103274Y184005D01*
X102968Y184464D01*
X102509Y184770D01*
X101969Y184878D01*
X101428Y184770D01*
X101351Y184719D01*
X100943Y185047D01*
X101019Y185433D01*
X100912Y185974D01*
X100605Y186432D01*
X100147Y186739D01*
X99606Y186846D01*
X99066Y186739D01*
X98989Y186688D01*
X98580Y187016D01*
X98657Y187402D01*
X98549Y187942D01*
X98243Y188401D01*
X97785Y188707D01*
X97244Y188814D01*
D02*
G37*
G36*
X142126Y147173D02*
X140945D01*
X140558Y147096D01*
X140230Y146877D01*
X140010Y146548D01*
X139933Y146161D01*
Y145177D01*
X140010Y144790D01*
X140230Y144462D01*
X140558Y144243D01*
X140945Y144166D01*
X141238D01*
X142702Y142702D01*
X142702Y142702D01*
X143160Y142395D01*
X143701Y142288D01*
X144241Y142395D01*
X144700Y142702D01*
X145006Y143160D01*
X145114Y143701D01*
X145006Y144241D01*
X144700Y144700D01*
X143113Y146287D01*
X143061Y146548D01*
X142841Y146877D01*
X142513Y147096D01*
X142126Y147173D01*
D02*
G37*
G36*
X141732Y124641D02*
X141192Y124534D01*
X140733Y124227D01*
X140427Y123769D01*
X140319Y123228D01*
X140396Y122842D01*
X139987Y122514D01*
X139911Y122565D01*
X139370Y122673D01*
X138829Y122565D01*
X138371Y122259D01*
X138065Y121801D01*
X137957Y121260D01*
X138065Y120719D01*
X138371Y120261D01*
X138829Y119954D01*
X139370Y119847D01*
X139911Y119954D01*
X140369Y120261D01*
X140675Y120719D01*
X140783Y121260D01*
X140706Y121646D01*
X141115Y121974D01*
X141192Y121923D01*
X141732Y121815D01*
X142273Y121923D01*
X142731Y122229D01*
X143038Y122688D01*
X143145Y123228D01*
X143038Y123769D01*
X142731Y124227D01*
X142273Y124534D01*
X141732Y124641D01*
D02*
G37*
G36*
X150799D02*
X150258Y124534D01*
X149800Y124227D01*
X149494Y123769D01*
X149386Y123228D01*
X149494Y122688D01*
X149800Y122229D01*
X150258Y121923D01*
X150799Y121815D01*
X151340Y121923D01*
X151798Y122229D01*
X152104Y122688D01*
X152212Y123228D01*
X152104Y123769D01*
X151798Y124227D01*
X151340Y124534D01*
X150799Y124641D01*
D02*
G37*
G36*
X154724Y123854D02*
X154183Y123746D01*
X153725Y123440D01*
X153419Y122981D01*
X153311Y122441D01*
X153419Y121900D01*
X153725Y121442D01*
X154183Y121135D01*
X154724Y121028D01*
X155265Y121135D01*
X155723Y121442D01*
X156029Y121900D01*
X156137Y122441D01*
X156029Y122981D01*
X155723Y123440D01*
X155265Y123746D01*
X154724Y123854D01*
D02*
G37*
G36*
X127165Y125035D02*
X126624Y124927D01*
X126166Y124621D01*
X125860Y124162D01*
X125752Y123622D01*
X125860Y123081D01*
X126166Y122623D01*
X126624Y122316D01*
X127165Y122209D01*
X127706Y122316D01*
X128164Y122623D01*
X128344Y122891D01*
X133617D01*
X134020Y122441D01*
X134127Y121900D01*
X134434Y121442D01*
X134892Y121135D01*
X135433Y121028D01*
X135974Y121135D01*
X136432Y121442D01*
X136738Y121900D01*
X136846Y122441D01*
X136738Y122981D01*
X136432Y123440D01*
X135974Y123746D01*
X135433Y123854D01*
X135116Y123791D01*
X134768Y124138D01*
X134531Y124297D01*
X134252Y124352D01*
X128344D01*
X128164Y124621D01*
X127706Y124927D01*
X127165Y125035D01*
D02*
G37*
G36*
X152362Y120704D02*
X151821Y120597D01*
X151363Y120291D01*
X151057Y119832D01*
X150949Y119291D01*
X151057Y118751D01*
X151363Y118292D01*
X151821Y117986D01*
X152362Y117878D01*
X152903Y117986D01*
X153361Y118292D01*
X153668Y118751D01*
X153775Y119291D01*
X153668Y119832D01*
X153361Y120291D01*
X152903Y120597D01*
X152362Y120704D01*
D02*
G37*
G36*
X137008Y120311D02*
X136467Y120203D01*
X136009Y119897D01*
X135703Y119438D01*
X135595Y118898D01*
X135703Y118357D01*
X136009Y117898D01*
X136467Y117592D01*
X137008Y117485D01*
X137549Y117592D01*
X138007Y117898D01*
X138313Y118357D01*
X138421Y118898D01*
X138313Y119438D01*
X138007Y119897D01*
X137549Y120203D01*
X137008Y120311D01*
D02*
G37*
G36*
X148622Y119917D02*
X148081Y119809D01*
X147623Y119503D01*
X147317Y119045D01*
X147209Y118504D01*
X147317Y117963D01*
X147623Y117505D01*
X148081Y117199D01*
X148622Y117091D01*
X149163Y117199D01*
X149621Y117505D01*
X149927Y117963D01*
X150035Y118504D01*
X149927Y119045D01*
X149621Y119503D01*
X149163Y119809D01*
X148622Y119917D01*
D02*
G37*
G36*
X142717D02*
X142176Y119809D01*
X141717Y119503D01*
X141411Y119045D01*
X141304Y118504D01*
X141411Y117963D01*
X141717Y117505D01*
X142176Y117199D01*
X142717Y117091D01*
X143257Y117199D01*
X143716Y117505D01*
X144022Y117963D01*
X144130Y118504D01*
X144022Y119045D01*
X143716Y119503D01*
X143257Y119809D01*
X142717Y119917D01*
D02*
G37*
G36*
X156074Y118849D02*
X155533Y118741D01*
X155075Y118435D01*
X154768Y117976D01*
X154661Y117436D01*
X154768Y116895D01*
X155075Y116436D01*
X155533Y116130D01*
X156074Y116023D01*
X156615Y116130D01*
X157073Y116436D01*
X157379Y116895D01*
X157487Y117436D01*
X157379Y117976D01*
X157073Y118435D01*
X156615Y118741D01*
X156074Y118849D01*
D02*
G37*
G36*
X130709Y112830D02*
X130168Y112723D01*
X129709Y112416D01*
X129403Y111958D01*
X129296Y111417D01*
X129403Y110877D01*
X129709Y110418D01*
X130168Y110112D01*
X130709Y110004D01*
X131249Y110112D01*
X131708Y110418D01*
X132014Y110877D01*
X132122Y111417D01*
X132014Y111958D01*
X131708Y112416D01*
X131249Y112723D01*
X130709Y112830D01*
D02*
G37*
G36*
X145866Y111553D02*
X145287Y111437D01*
X144796Y111109D01*
X144468Y110618D01*
X144353Y110039D01*
X144468Y109460D01*
X144796Y108969D01*
X145287Y108641D01*
X145866Y108526D01*
X146445Y108641D01*
X146936Y108969D01*
X147264Y109460D01*
X147380Y110039D01*
X147264Y110618D01*
X146936Y111109D01*
X146445Y111437D01*
X145866Y111553D01*
D02*
G37*
G36*
X141535D02*
X140956Y111437D01*
X140465Y111109D01*
X140137Y110618D01*
X140022Y110039D01*
X140137Y109460D01*
X140465Y108969D01*
X140956Y108641D01*
X141535Y108526D01*
X142115Y108641D01*
X142605Y108969D01*
X142934Y109460D01*
X143049Y110039D01*
X142934Y110618D01*
X142605Y111109D01*
X142115Y111437D01*
X141535Y111553D01*
D02*
G37*
G36*
X145866Y107222D02*
X145287Y107107D01*
X144796Y106779D01*
X144468Y106288D01*
X144353Y105709D01*
X144468Y105130D01*
X144796Y104639D01*
X145287Y104311D01*
X145866Y104195D01*
X146445Y104311D01*
X146936Y104639D01*
X147264Y105130D01*
X147380Y105709D01*
X147264Y106288D01*
X146936Y106779D01*
X146445Y107107D01*
X145866Y107222D01*
D02*
G37*
G36*
X141535D02*
X140956Y107107D01*
X140465Y106779D01*
X140137Y106288D01*
X140022Y105709D01*
X140137Y105130D01*
X140465Y104639D01*
X140956Y104311D01*
X141535Y104195D01*
X142115Y104311D01*
X142605Y104639D01*
X142934Y105130D01*
X143049Y105709D01*
X142934Y106288D01*
X142605Y106779D01*
X142115Y107107D01*
X141535Y107222D01*
D02*
G37*
G36*
X130709Y106925D02*
X130168Y106817D01*
X129709Y106511D01*
X129403Y106052D01*
X129296Y105512D01*
X129403Y104971D01*
X129709Y104513D01*
X130168Y104206D01*
X130709Y104099D01*
X131249Y104206D01*
X131708Y104513D01*
X132014Y104971D01*
X132122Y105512D01*
X132014Y106052D01*
X131708Y106511D01*
X131249Y106817D01*
X130709Y106925D01*
D02*
G37*
G36*
X136112Y113018D02*
X134754D01*
X134401Y112948D01*
X134102Y112748D01*
X133903Y112449D01*
X133833Y112097D01*
Y110935D01*
X133841Y110896D01*
X133471Y110468D01*
X133071D01*
X132530Y110361D01*
X132072Y110054D01*
X131765Y109596D01*
X131658Y109055D01*
X131765Y108514D01*
X132072Y108056D01*
X133626Y106501D01*
Y105526D01*
X133613Y105505D01*
X133536Y105118D01*
Y103937D01*
X133613Y103550D01*
X133832Y103222D01*
X134141Y103015D01*
X134160Y102888D01*
Y102624D01*
X134141Y102497D01*
X133832Y102290D01*
X133772Y102200D01*
X131933D01*
X131392Y102093D01*
X130934Y101786D01*
X130628Y101328D01*
X130520Y100787D01*
X130628Y100247D01*
X130934Y99788D01*
X131392Y99482D01*
X131933Y99374D01*
X135039D01*
X135078Y99382D01*
X135531D01*
X135919Y99459D01*
X136247Y99678D01*
X136466Y100007D01*
X136543Y100394D01*
Y101575D01*
X136466Y101962D01*
X136247Y102290D01*
X135938Y102497D01*
X135919Y102624D01*
Y102888D01*
X135938Y103015D01*
X136247Y103222D01*
X136466Y103550D01*
X136543Y103937D01*
Y105118D01*
X136466Y105505D01*
X136452Y105526D01*
Y107087D01*
X136345Y107627D01*
X136038Y108086D01*
X135660Y108465D01*
X136432Y109237D01*
X136739Y109695D01*
X136846Y110236D01*
Y110407D01*
X136963Y110582D01*
X137033Y110935D01*
Y112097D01*
X136963Y112449D01*
X136764Y112748D01*
X136465Y112948D01*
X136112Y113018D01*
D02*
G37*
G36*
X143396Y101994D02*
X142234D01*
X141882Y101924D01*
X141583Y101724D01*
X141383Y101425D01*
X141313Y101073D01*
Y99715D01*
X141383Y99362D01*
X141583Y99063D01*
X141882Y98864D01*
X142234Y98793D01*
X142866D01*
X142913Y98784D01*
X143456D01*
X143469Y98771D01*
Y97244D01*
X143577Y96703D01*
X143883Y96245D01*
X144341Y95939D01*
X144882Y95831D01*
X145423Y95939D01*
X145881Y96245D01*
X146187Y96703D01*
X146295Y97244D01*
Y98431D01*
X146842Y98977D01*
X146857Y98967D01*
X147244Y98890D01*
X148425D01*
X148812Y98967D01*
X149141Y99186D01*
X149347Y99495D01*
X149474Y99514D01*
X149738D01*
X149866Y99495D01*
X150072Y99186D01*
X150400Y98967D01*
X150787Y98890D01*
X151825D01*
X151989Y98399D01*
X151757Y98243D01*
X151451Y97785D01*
X151343Y97244D01*
X151451Y96703D01*
X151757Y96245D01*
X152215Y95939D01*
X152756Y95831D01*
X153297Y95939D01*
X153755Y96245D01*
X154061Y96703D01*
X154169Y97244D01*
X154061Y97785D01*
X153755Y98243D01*
X153400Y98481D01*
X153497Y98981D01*
X153949D01*
X154489Y99088D01*
X154948Y99395D01*
X155254Y99853D01*
X155362Y100394D01*
X155254Y100934D01*
X154948Y101393D01*
X154489Y101699D01*
X153949Y101807D01*
X152376D01*
X152356Y101820D01*
X151969Y101897D01*
X150787D01*
X150400Y101820D01*
X150072Y101601D01*
X149866Y101292D01*
X149738Y101273D01*
X149474D01*
X149347Y101292D01*
X149141Y101601D01*
X148812Y101820D01*
X148425Y101897D01*
X147244D01*
X146857Y101820D01*
X146836Y101807D01*
X146260D01*
X145719Y101699D01*
X145261Y101393D01*
X145052Y101184D01*
X145040Y101196D01*
X144582Y101502D01*
X144136Y101591D01*
X144047Y101724D01*
X143748Y101924D01*
X143396Y101994D01*
D02*
G37*
G36*
X156693Y97464D02*
X156152Y97357D01*
X155694Y97050D01*
X155387Y96592D01*
X155280Y96051D01*
X155387Y95511D01*
X155694Y95052D01*
X156152Y94746D01*
X156693Y94638D01*
X157234Y94746D01*
X157692Y95052D01*
X157998Y95511D01*
X158106Y96051D01*
X157998Y96592D01*
X157692Y97050D01*
X157234Y97357D01*
X156693Y97464D01*
D02*
G37*
G36*
X142520Y95205D02*
X141339D01*
X140952Y95127D01*
X140623Y94908D01*
X140417Y94599D01*
X140289Y94580D01*
X140026D01*
X139898Y94599D01*
X139692Y94908D01*
X139364Y95127D01*
X138976Y95205D01*
X137795D01*
X137408Y95127D01*
X137388Y95114D01*
X135815D01*
X135274Y95006D01*
X134816Y94700D01*
X134510Y94241D01*
X134402Y93701D01*
X134510Y93160D01*
X134816Y92702D01*
X135274Y92395D01*
X135815Y92288D01*
X137388D01*
X137408Y92274D01*
X137795Y92197D01*
X138976D01*
X139364Y92274D01*
X139692Y92493D01*
X139898Y92802D01*
X140026Y92822D01*
X140289D01*
X140417Y92802D01*
X140623Y92493D01*
X140952Y92274D01*
X141339Y92197D01*
X142520D01*
X142907Y92274D01*
X142927Y92288D01*
X144882D01*
X145423Y92395D01*
X145881Y92702D01*
X146187Y93160D01*
X146295Y93701D01*
X146187Y94241D01*
X145881Y94700D01*
X145423Y95006D01*
X144882Y95114D01*
X142927D01*
X142907Y95127D01*
X142520Y95205D01*
D02*
G37*
G36*
X138386Y90924D02*
X137485Y90805D01*
X136645Y90457D01*
X135923Y89903D01*
X135370Y89182D01*
X135022Y88342D01*
X134903Y87441D01*
X135022Y86540D01*
X135273Y85933D01*
X134948Y85469D01*
X132248D01*
X130263Y87454D01*
X129981Y87642D01*
X129650Y87708D01*
X97039D01*
X96707Y87642D01*
X96426Y87454D01*
X93958Y84987D01*
X93771Y84706D01*
X93705Y84374D01*
Y83193D01*
X93205Y82768D01*
X92913Y82806D01*
X92218Y82715D01*
X91569Y82446D01*
X91012Y82019D01*
X90585Y81462D01*
X90565Y81414D01*
X90045Y81465D01*
X89975Y81818D01*
X89625Y82342D01*
X89102Y82692D01*
X88484Y82815D01*
X86319D01*
X85701Y82692D01*
X85178Y82342D01*
X84828Y81818D01*
X84705Y81201D01*
Y78642D01*
X84828Y78024D01*
X85178Y77501D01*
X85701Y77151D01*
X86319Y77028D01*
X88484D01*
X89102Y77151D01*
X89625Y77501D01*
X89975Y78024D01*
X90045Y78377D01*
X90565Y78428D01*
X90585Y78380D01*
X91012Y77824D01*
X91569Y77396D01*
X92218Y77128D01*
X92913Y77036D01*
X93609Y77128D01*
X94258Y77396D01*
X94814Y77824D01*
X95242Y78380D01*
X95399Y78760D01*
X95940D01*
X96097Y78380D01*
X96524Y77824D01*
X97081Y77396D01*
X97729Y77128D01*
X98425Y77036D01*
X99121Y77128D01*
X99769Y77396D01*
X100326Y77824D01*
X100753Y78380D01*
X100910Y78760D01*
X101452D01*
X101609Y78380D01*
X102036Y77824D01*
X102593Y77396D01*
X103241Y77128D01*
X103937Y77036D01*
X104633Y77128D01*
X105281Y77396D01*
X105838Y77824D01*
X106265Y78380D01*
X106534Y79029D01*
X106625Y79724D01*
Y80118D01*
X106534Y80814D01*
X106265Y81462D01*
X105838Y82019D01*
X105281Y82446D01*
X104633Y82715D01*
X103937Y82806D01*
X103241Y82715D01*
X102593Y82446D01*
X102036Y82019D01*
X101609Y81462D01*
X101452Y81083D01*
X100910D01*
X100753Y81462D01*
X100326Y82019D01*
X99769Y82446D01*
X99121Y82715D01*
X98425Y82806D01*
X98134Y82768D01*
X98030Y82838D01*
X97927Y83398D01*
X98307Y83779D01*
X128381D01*
X130367Y81793D01*
X130648Y81605D01*
X130980Y81539D01*
X134948D01*
X135273Y81075D01*
X135022Y80468D01*
X134903Y79567D01*
X135022Y78666D01*
X135370Y77826D01*
X135923Y77104D01*
X136645Y76551D01*
X137485Y76203D01*
X138386Y76084D01*
X139287Y76203D01*
X140127Y76551D01*
X140848Y77104D01*
X141402Y77826D01*
X141750Y78666D01*
X141868Y79567D01*
X141750Y80468D01*
X141402Y81308D01*
X140848Y82029D01*
X140127Y82583D01*
X139287Y82931D01*
X138386Y83049D01*
X137485Y82931D01*
X136645Y82583D01*
X136617Y82562D01*
X136160Y83019D01*
X135879Y83207D01*
X135665Y83249D01*
Y83759D01*
X135879Y83801D01*
X136160Y83989D01*
X136617Y84446D01*
X136645Y84425D01*
X137485Y84077D01*
X138386Y83958D01*
X139287Y84077D01*
X140127Y84425D01*
X140848Y84978D01*
X141402Y85700D01*
X141750Y86540D01*
X141868Y87441D01*
X141750Y88342D01*
X141402Y89182D01*
X140848Y89903D01*
X140127Y90457D01*
X139287Y90805D01*
X138386Y90924D01*
D02*
G37*
G36*
X148228D02*
X147327Y90805D01*
X146487Y90457D01*
X145766Y89903D01*
X145212Y89182D01*
X144864Y88342D01*
X144746Y87441D01*
X144864Y86540D01*
X145212Y85700D01*
X145766Y84978D01*
X146487Y84425D01*
X147327Y84077D01*
X148228Y83958D01*
X149130Y84077D01*
X149970Y84425D01*
X150691Y84978D01*
X151244Y85700D01*
X151592Y86540D01*
X151711Y87441D01*
X151592Y88342D01*
X151244Y89182D01*
X150691Y89903D01*
X149970Y90457D01*
X149130Y90805D01*
X148228Y90924D01*
D02*
G37*
G36*
Y83049D02*
X147327Y82931D01*
X146487Y82583D01*
X145766Y82029D01*
X145212Y81308D01*
X144864Y80468D01*
X144746Y79567D01*
X144864Y78666D01*
X145212Y77826D01*
X145766Y77104D01*
X146487Y76551D01*
X147327Y76203D01*
X148228Y76084D01*
X149130Y76203D01*
X149970Y76551D01*
X150691Y77104D01*
X151244Y77826D01*
X151592Y78666D01*
X151711Y79567D01*
X151592Y80468D01*
X151244Y81308D01*
X150691Y82029D01*
X149970Y82583D01*
X149130Y82931D01*
X148228Y83049D01*
D02*
G37*
G36*
X106299Y75331D02*
X105449Y75219D01*
X104657Y74891D01*
X103977Y74369D01*
X103455Y73689D01*
X103127Y72897D01*
X103015Y72047D01*
Y67323D01*
X103127Y66473D01*
X103455Y65681D01*
X103977Y65001D01*
X104657Y64479D01*
X105449Y64151D01*
X106299Y64039D01*
X107149Y64151D01*
X107941Y64479D01*
X108621Y65001D01*
X109143Y65681D01*
X109471Y66473D01*
X109583Y67323D01*
Y72047D01*
X109471Y72897D01*
X109143Y73689D01*
X108621Y74369D01*
X107941Y74891D01*
X107149Y75219D01*
X106299Y75331D01*
D02*
G37*
G36*
X85039D02*
X84189Y75219D01*
X83397Y74891D01*
X82717Y74369D01*
X82195Y73689D01*
X81867Y72897D01*
X81755Y72047D01*
Y67323D01*
X81867Y66473D01*
X82195Y65681D01*
X82717Y65001D01*
X83397Y64479D01*
X84189Y64151D01*
X85039Y64039D01*
X85889Y64151D01*
X86681Y64479D01*
X87362Y65001D01*
X87883Y65681D01*
X88212Y66473D01*
X88323Y67323D01*
Y72047D01*
X88212Y72897D01*
X87883Y73689D01*
X87362Y74369D01*
X86681Y74891D01*
X85889Y75219D01*
X85039Y75331D01*
D02*
G37*
G36*
X119606Y75334D02*
X118351Y75210D01*
X117143Y74844D01*
X116030Y74249D01*
X115055Y73449D01*
X114254Y72474D01*
X113660Y71361D01*
X113294Y70153D01*
X113170Y68898D01*
X113294Y67642D01*
X113660Y66435D01*
X114254Y65322D01*
X115055Y64346D01*
X116030Y63546D01*
X117143Y62951D01*
X118351Y62585D01*
X119606Y62461D01*
X120862Y62585D01*
X122069Y62951D01*
X123182Y63546D01*
X124158Y64346D01*
X124958Y65322D01*
X125553Y66435D01*
X125919Y67642D01*
X126043Y68898D01*
X125919Y70153D01*
X125553Y71361D01*
X124958Y72474D01*
X124158Y73449D01*
X123182Y74249D01*
X122069Y74844D01*
X120862Y75210D01*
X119606Y75334D01*
D02*
G37*
%LPD*%
D12*
X103937Y150394D02*
X107874D01*
X104331Y140945D02*
X108268D01*
D24*
X202362Y137402D02*
D03*
X115354Y183071D02*
D03*
X127559Y175197D02*
D03*
X123851Y167094D02*
D03*
X147638Y167323D02*
D03*
X135433Y171653D02*
D03*
X135827Y159055D02*
D03*
X155511D02*
D03*
X147637Y162598D02*
D03*
X151968Y162992D02*
D03*
X151181Y166929D02*
D03*
X123986Y187431D02*
D03*
X127953Y187402D02*
D03*
X131890Y183071D02*
D03*
X131890Y171653D02*
D03*
X162899Y163386D02*
D03*
X155905Y167717D02*
D03*
X143307Y162992D02*
D03*
X139763Y170472D02*
D03*
X144094Y170866D02*
D03*
X131496Y166929D02*
D03*
X127513Y162946D02*
D03*
X123383Y159595D02*
D03*
X124016Y163760D02*
D03*
X149606Y153149D02*
D03*
X148031Y155118D02*
D03*
X139370D02*
D03*
X147638Y159449D02*
D03*
X139764D02*
D03*
X131933Y163429D02*
D03*
X131890Y159449D02*
D03*
X135827Y175197D02*
D03*
X87008Y138976D02*
D03*
X202362Y71260D02*
D03*
X203543Y98425D02*
D03*
X222835Y82520D02*
D03*
Y77520D02*
D03*
X165748Y116142D02*
D03*
X166535Y118898D02*
D03*
X166142Y122047D02*
D03*
X168110Y125590D02*
D03*
X170673Y122835D02*
D03*
X170078Y129921D02*
D03*
X173622Y133071D02*
D03*
X166535Y129921D02*
D03*
X164567Y128347D02*
D03*
X162205Y125872D02*
D03*
X162598Y130708D02*
D03*
X166929Y132283D02*
D03*
X150787Y127953D02*
D03*
X153150Y128347D02*
D03*
X147637Y126771D02*
D03*
X211417Y103543D02*
D03*
X154004Y132311D02*
D03*
X200787Y127559D02*
D03*
X135815Y93701D02*
D03*
X144882D02*
D03*
Y97244D02*
D03*
X136221Y97638D02*
D03*
X131933Y100787D02*
D03*
X173622Y120079D02*
D03*
X179921Y137795D02*
D03*
X180709Y141732D02*
D03*
X176771Y145275D02*
D03*
X135827Y143307D02*
D03*
X147637Y135039D02*
D03*
X156074Y117436D02*
D03*
X163779Y112992D02*
D03*
X161823Y107874D02*
D03*
X221260Y103543D02*
D03*
Y107480D02*
D03*
X66142Y174016D02*
D03*
X233071Y126378D02*
D03*
X226772D02*
D03*
X251575Y126671D02*
D03*
X228209Y94095D02*
D03*
Y89370D02*
D03*
X194882Y154724D02*
D03*
X183071Y175197D02*
D03*
Y170472D02*
D03*
X181889Y180315D02*
D03*
X205906Y177953D02*
D03*
X201181Y184252D02*
D03*
X134252Y119685D02*
D03*
X137008Y118898D02*
D03*
X135433Y122441D02*
D03*
X152756Y97244D02*
D03*
X238780Y103829D02*
D03*
X96850Y154330D02*
D03*
X88189Y141732D02*
D03*
X134252Y134252D02*
D03*
X127165Y123622D02*
D03*
X103937Y150394D02*
D03*
X100393Y148819D02*
D03*
X104331Y140945D02*
D03*
X141732Y123228D02*
D03*
X238780Y89370D02*
D03*
X250984Y76772D02*
D03*
X250787Y101969D02*
D03*
X207874Y172834D02*
D03*
X212598Y171260D02*
D03*
X210630Y166929D02*
D03*
X213844Y176048D02*
D03*
X214173Y167716D02*
D03*
X214173Y164173D02*
D03*
X213593Y158039D02*
D03*
X213385Y154677D02*
D03*
X212205Y150000D02*
D03*
X143701Y198819D02*
D03*
X214173Y160630D02*
D03*
X201968Y162598D02*
D03*
X201927Y169110D02*
D03*
X205511Y164567D02*
D03*
X149606Y199213D02*
D03*
X163779Y134645D02*
D03*
X165354Y177165D02*
D03*
X125984D02*
D03*
X205512Y161024D02*
D03*
X205511Y157480D02*
D03*
X205905Y167323D02*
D03*
X205511Y169685D02*
D03*
X209055Y176378D02*
D03*
X87795Y185433D02*
D03*
X82677Y187955D02*
D03*
X203543Y184252D02*
D03*
X198819D02*
D03*
X194882Y183858D02*
D03*
X171260Y159449D02*
D03*
X163386Y167323D02*
D03*
X167323D02*
D03*
X192520Y177559D02*
D03*
X194488Y180709D02*
D03*
X167323Y163386D02*
D03*
X191339Y166535D02*
D03*
X179921Y177952D02*
D03*
X194881Y175590D02*
D03*
X195840Y159449D02*
D03*
X197638Y152362D02*
D03*
X182677Y185433D02*
D03*
X201969Y178347D02*
D03*
X135433Y139370D02*
D03*
X137795Y141732D02*
D03*
X105118Y183465D02*
D03*
X101969D02*
D03*
X99606Y185433D02*
D03*
X97244Y187402D02*
D03*
X94882Y185433D02*
D03*
X92913Y187402D02*
D03*
X90551Y185433D02*
D03*
X85039D02*
D03*
X84332Y202185D02*
D03*
X81496Y197244D02*
D03*
X103149Y120079D02*
D03*
X155512Y183071D02*
D03*
X94095Y172441D02*
D03*
Y164567D02*
D03*
X102362Y138189D02*
D03*
X98523Y137106D02*
D03*
X103150Y129134D02*
D03*
X105905Y126771D02*
D03*
X106299Y130315D02*
D03*
X105905Y122047D02*
D03*
X103140Y125197D02*
D03*
X111294Y139764D02*
D03*
X101854Y151941D02*
D03*
X100000Y153543D02*
D03*
X94882Y140945D02*
D03*
X103150Y117717D02*
D03*
Y114567D02*
D03*
X151575Y147638D02*
D03*
X124409Y148031D02*
D03*
X170091Y95755D02*
D03*
X159449Y159449D02*
D03*
X176378Y151181D02*
D03*
X173228Y157480D02*
D03*
X159449Y163386D02*
D03*
Y167323D02*
D03*
X161417Y169291D02*
D03*
X159449Y171260D02*
D03*
X157480Y173228D02*
D03*
X159449Y175197D02*
D03*
X157480Y177165D02*
D03*
X177559Y192913D02*
D03*
X85039Y160630D02*
D03*
X81890Y157874D02*
D03*
X93701Y159449D02*
D03*
X87795Y152362D02*
D03*
X97638Y142519D02*
D03*
X155118Y155905D02*
D03*
X155511Y151181D02*
D03*
X122047Y149606D02*
D03*
X146850Y130315D02*
D03*
X144095D02*
D03*
X154724Y122441D02*
D03*
X95275Y146456D02*
D03*
X87008Y146850D02*
D03*
X85827Y150787D02*
D03*
X85433Y155118D02*
D03*
X96850Y162598D02*
D03*
X83858Y152362D02*
D03*
X107086Y166535D02*
D03*
X139764Y224410D02*
D03*
X114173Y200394D02*
D03*
X167323Y151575D02*
D03*
X155512Y175197D02*
D03*
X165354Y185039D02*
D03*
X124016Y175591D02*
D03*
X79134Y157480D02*
D03*
X130709Y111417D02*
D03*
X133071Y109055D02*
D03*
X139370Y121260D02*
D03*
X123622Y120472D02*
D03*
X110236Y113386D02*
D03*
X123600Y98053D02*
D03*
X126378Y105118D02*
D03*
X224409Y180709D02*
D03*
X144882Y225590D02*
D03*
X147244Y224410D02*
D03*
X137795Y202362D02*
D03*
X124016Y179134D02*
D03*
X125984Y181102D02*
D03*
X118110Y185039D02*
D03*
X124016Y198819D02*
D03*
X125984Y145669D02*
D03*
X118110Y149606D02*
D03*
X131890Y155512D02*
D03*
X116535Y123687D02*
D03*
X148622Y118504D02*
D03*
X152362Y119291D02*
D03*
X150799Y123228D02*
D03*
X131890Y179134D02*
D03*
X141339Y236221D02*
D03*
X148819D02*
D03*
X139764Y234252D02*
D03*
X131890Y221654D02*
D03*
X217717Y142126D02*
D03*
X220472Y141732D02*
D03*
X157480Y153543D02*
D03*
X159449Y155512D02*
D03*
Y151575D02*
D03*
X149606Y141732D02*
D03*
X161417Y157480D02*
D03*
X165354D02*
D03*
X151575Y159449D02*
D03*
X149606Y157480D02*
D03*
X250000Y116556D02*
D03*
X245669Y135433D02*
D03*
X153543Y185039D02*
D03*
X161417Y188976D02*
D03*
X165354Y192913D02*
D03*
X169291D02*
D03*
X165354Y188976D02*
D03*
X173228Y192913D02*
D03*
X165354Y181102D02*
D03*
X169291Y185039D02*
D03*
X175590Y188582D02*
D03*
X169291Y188976D02*
D03*
X137795Y177165D02*
D03*
X139764Y187008D02*
D03*
X141732Y177165D02*
D03*
X145669Y185039D02*
D03*
Y181102D02*
D03*
X149606D02*
D03*
X149606Y177165D02*
D03*
X153543Y181102D02*
D03*
X138583Y206299D02*
D03*
X165354Y196850D02*
D03*
X114173D02*
D03*
X173228Y145669D02*
D03*
X163386Y151575D02*
D03*
X173228Y181102D02*
D03*
X161417D02*
D03*
X153543Y177165D02*
D03*
X169291Y196850D02*
D03*
X161417Y192913D02*
D03*
X173228Y149606D02*
D03*
X161417Y141732D02*
D03*
X203543Y152756D02*
D03*
X130709Y105512D02*
D03*
X118504Y109449D02*
D03*
X127953Y147638D02*
D03*
X145669Y149606D02*
D03*
X135827Y147638D02*
D03*
X143701Y143701D02*
D03*
X118110Y173228D02*
D03*
Y177165D02*
D03*
Y181102D02*
D03*
X127953Y143701D02*
D03*
X153949Y100394D02*
D03*
X142717Y118504D02*
D03*
X147638Y179134D02*
D03*
X220866Y175197D02*
D03*
X217736Y181357D02*
D03*
X157480Y185039D02*
D03*
X161417D02*
D03*
X157480Y181102D02*
D03*
X156693Y96051D02*
D03*
X214566Y181102D02*
D03*
X139764Y175197D02*
D03*
X133858Y177165D02*
D03*
X145669Y196850D02*
D03*
X141732D02*
D03*
X129921Y192913D02*
D03*
X137795D02*
D03*
X133858Y196850D02*
D03*
X137795D02*
D03*
X129921Y161417D02*
D03*
X141732Y153543D02*
D03*
X118110Y141732D02*
D03*
X157480Y192913D02*
D03*
X145669D02*
D03*
X137795Y137795D02*
D03*
X147638Y147638D02*
D03*
X224803Y177952D02*
D03*
X220866Y172047D02*
D03*
X217677Y175237D02*
D03*
X169291Y177165D02*
D03*
X125984Y169291D02*
D03*
X141732Y149606D02*
D03*
X143701Y159449D02*
D03*
X222441Y152756D02*
D03*
X135827Y155512D02*
D03*
X139764Y163386D02*
D03*
Y167323D02*
D03*
X143701D02*
D03*
Y175197D02*
D03*
X147638Y171260D02*
D03*
Y175197D02*
D03*
X155512Y171260D02*
D03*
D26*
X114173Y150394D02*
D03*
X107874D02*
D03*
X114567Y140945D02*
D03*
X108268D02*
D03*
D34*
X165157Y161417D02*
D03*
X161614D02*
D03*
X130118Y185039D02*
D03*
X126575D02*
D03*
X125787Y161417D02*
D03*
X122244D02*
D03*
X158858Y188583D02*
D03*
X155315D02*
D03*
X137598Y165354D02*
D03*
X134055D02*
D03*
X137598Y161417D02*
D03*
X134055D02*
D03*
X133705Y145669D02*
D03*
X130161D02*
D03*
X141535Y145669D02*
D03*
X137992D02*
D03*
X153346Y173228D02*
D03*
X149803D02*
D03*
X153346Y169291D02*
D03*
X149803D02*
D03*
X145472Y157087D02*
D03*
X141929D02*
D03*
X133661Y169291D02*
D03*
X130118D02*
D03*
X129724Y165354D02*
D03*
X126181D02*
D03*
X157283D02*
D03*
X153740D02*
D03*
X157283Y161417D02*
D03*
X153740D02*
D03*
X133661Y174016D02*
D03*
X130118D02*
D03*
X124213Y173228D02*
D03*
X120669D02*
D03*
X121850Y152756D02*
D03*
X118307D02*
D03*
X209646Y150074D02*
D03*
X206102D02*
D03*
X141929Y93701D02*
D03*
X138386D02*
D03*
X151378Y100394D02*
D03*
X147835D02*
D03*
X120276Y126060D02*
D03*
X116732D02*
D03*
X120276Y98075D02*
D03*
X116732D02*
D03*
D35*
X120472Y120591D02*
D03*
X116535D02*
D03*
D36*
X137795Y173031D02*
D03*
Y169488D02*
D03*
X141732Y173031D02*
D03*
Y169488D02*
D03*
X145669Y165157D02*
D03*
Y161614D02*
D03*
X149606Y165157D02*
D03*
Y161614D02*
D03*
X208268Y167126D02*
D03*
Y163583D02*
D03*
Y159252D02*
D03*
Y155709D02*
D03*
X216535Y167126D02*
D03*
Y163583D02*
D03*
Y159252D02*
D03*
Y155709D02*
D03*
X199213Y158465D02*
D03*
Y154921D02*
D03*
X198819Y179268D02*
D03*
Y175724D02*
D03*
X135039Y104528D02*
D03*
Y100984D02*
D03*
D59*
X158661Y240551D02*
D03*
X131102D02*
D03*
D60*
X154724Y229921D02*
D03*
X135039D02*
D03*
D71*
X126563Y158059D02*
X129921Y161417D01*
X118713Y158059D02*
X126563D01*
X127953Y176772D02*
Y181609D01*
X127559Y175197D02*
Y176378D01*
X127559Y175197D02*
X127559Y175197D01*
Y176378D02*
X127953Y176772D01*
X126491Y183071D02*
X127953Y181609D01*
X126180Y205804D02*
X127559Y204425D01*
Y193307D02*
Y204425D01*
X125551Y191299D02*
X127559Y193307D01*
X125551Y186824D02*
Y191299D01*
X125059Y186332D02*
X125551Y186824D01*
X125059Y186332D02*
Y186332D01*
X124409Y185682D02*
X125059Y186332D01*
X124409Y183858D02*
Y185682D01*
X164022Y165787D02*
X170039D01*
X164381Y164921D02*
X168543D01*
X164381Y164921D02*
X164381Y164921D01*
X164022Y165787D02*
X164022Y165787D01*
X162391Y164921D02*
X164381D01*
X162750Y165787D02*
X164022D01*
X160984Y165787D02*
X162750D01*
X160984Y164921D02*
X162391D01*
X162750Y165787D02*
X162750Y165787D01*
X162391Y164921D02*
X162391Y164921D01*
X124409Y183858D02*
X125197Y183071D01*
X126491D01*
X123805Y155461D02*
X127341Y151925D01*
X114618Y155461D02*
X123805D01*
X124164Y156327D02*
X126948Y153543D01*
X115720Y156327D02*
X124164D01*
X124523Y157193D02*
X126204Y155512D01*
X117217Y157193D02*
X124523D01*
X112756Y157323D02*
X114618Y155461D01*
X113567Y158480D02*
X115720Y156327D01*
X114310Y160099D02*
X117217Y157193D01*
X126204Y155512D02*
X131890D01*
X126948Y153543D02*
X141732D01*
X117712Y159060D02*
X118713Y158059D01*
X159449Y55512D02*
Y123116D01*
X156299Y52362D02*
X159449Y55512D01*
X95000Y137170D02*
X103342Y145512D01*
X95000Y136333D02*
Y137170D01*
X103701Y144646D02*
X122780D01*
X96023Y136968D02*
X103701Y144646D01*
X96023Y135832D02*
Y136968D01*
X123048Y145603D02*
X124867Y143783D01*
X115485Y145603D02*
X123048D01*
X115472Y145591D02*
X115485Y145603D01*
X105588Y145591D02*
X115472D01*
X105509Y145512D02*
X105588Y145591D01*
X103342Y145512D02*
X105509D01*
X124206Y145669D02*
X125984D01*
X123407Y146469D02*
X124206Y145669D01*
X105130Y146469D02*
X123407D01*
X105118Y146457D02*
X105130Y146469D01*
X159449Y123116D02*
X162205Y125872D01*
X83465Y52362D02*
X156299D01*
X75984Y59842D02*
X83465Y52362D01*
X75984Y59842D02*
Y74685D01*
X134252Y123622D02*
X135433Y122441D01*
X111342Y157323D02*
X112756D01*
X98464Y153376D02*
X99473D01*
X92807Y147718D02*
X98464Y153376D01*
X98494Y151941D02*
X101854D01*
X93673Y147120D02*
X98494Y151941D01*
X99473Y153376D02*
X99640Y153543D01*
X92807Y147198D02*
Y147718D01*
X91630Y146022D02*
X92807Y147198D01*
X93673Y146617D02*
Y147120D01*
X93307Y146251D02*
X93673Y146617D01*
X99240Y150421D02*
X101057D01*
X97638Y148819D02*
X99240Y150421D01*
X97638Y147244D02*
Y148819D01*
X127165Y123622D02*
X134252D01*
X168543Y164921D02*
X169291Y164173D01*
X159449Y163386D02*
X160984Y164921D01*
X159449Y167323D02*
X160984Y165787D01*
X101057Y150421D02*
X103840Y147638D01*
X108268D01*
X107349Y143701D02*
X122441D01*
X122780Y144646D02*
X125694Y141732D01*
X124867Y143783D02*
X127953D01*
X149606Y147435D02*
Y148425D01*
X152657Y144384D02*
X155905D01*
X149606Y147435D02*
X152657Y144384D01*
X151669Y143351D02*
X153150D01*
X149606Y145414D02*
X151669Y143351D01*
X108268Y147638D02*
X108274Y147632D01*
X124016D01*
X157480Y177165D02*
X157480Y177165D01*
X122441Y143701D02*
X125496Y140646D01*
X126690D01*
X125694Y141732D02*
X126566D01*
X127341Y151925D02*
X146500D01*
X147638Y150787D01*
Y147638D02*
Y150787D01*
D72*
X173228Y177932D02*
X191415Y159746D01*
X170568Y179134D02*
X190383Y159318D01*
X163386Y179134D02*
X170568D01*
X161417Y181102D02*
X163386Y179134D01*
X157480Y177165D02*
X160236D01*
X162887Y174514D02*
X166176D01*
X160236Y177165D02*
X162887Y174514D01*
X141966Y133421D02*
X151225D01*
X108815Y122201D02*
Y124835D01*
X114110Y131827D02*
X127150D01*
X129438Y129539D02*
X141002D01*
X128583Y127476D02*
X145470D01*
X107664Y127606D02*
X112916Y132858D01*
X149835Y130425D02*
X156928D01*
X123295Y154512D02*
X128201Y149606D01*
X113598Y154512D02*
X123295D01*
X112095Y156015D02*
X113598Y154512D01*
X107335Y125051D02*
X114110Y131827D01*
X131146Y132634D02*
X139720D01*
X128858Y134921D02*
X131146Y132634D01*
X128432Y134921D02*
X128858D01*
X88189Y168110D02*
X102611D01*
X81890Y161811D02*
X88189Y168110D01*
X81890Y157874D02*
Y161811D01*
X173228Y177932D02*
Y181102D01*
X181889Y180315D02*
X189764Y188189D01*
X221145D01*
X220241Y190551D02*
X229528Y181265D01*
X187795Y190551D02*
X220241D01*
X182677Y185433D02*
X187795Y190551D01*
X221354Y194395D02*
X223228Y192520D01*
X184552Y194395D02*
X221354D01*
X175197Y185039D02*
X184552Y194395D01*
X197128Y127051D02*
Y148433D01*
X198160Y127479D02*
Y148860D01*
X189282Y90876D02*
X204047Y76110D01*
Y70562D02*
Y76110D01*
X203228Y69743D02*
X204047Y70562D01*
X203228Y64055D02*
Y69743D01*
X243307Y64134D02*
Y70472D01*
X205848Y105111D02*
X210566Y100394D01*
X213386D01*
X243307Y70472D01*
X204817Y107670D02*
Y117645D01*
X205848Y105111D02*
Y117218D01*
X205852Y117221D02*
Y119786D01*
X205848Y117218D02*
X205852Y117221D01*
X167847Y118884D02*
X177330Y109401D01*
X180020Y95290D02*
Y108168D01*
X148260Y132000D02*
X149835Y130425D01*
X142004Y132000D02*
X148260D01*
X174122Y144105D02*
X176961Y141266D01*
X174122Y144105D02*
Y144458D01*
X173228Y145352D02*
X174122Y144458D01*
X173228Y145352D02*
Y145669D01*
X140575Y130571D02*
X142004Y132000D01*
X108815Y124835D02*
X114775Y130795D01*
X126723D01*
X166142Y122047D02*
X180020Y108168D01*
X184132Y88702D02*
X190728Y82106D01*
X184132Y88702D02*
Y110784D01*
X165748Y116142D02*
X169130D01*
X166550Y118884D02*
X167847D01*
X166535Y118898D02*
X166550Y118884D01*
X173772Y135516D02*
Y139644D01*
X174803Y135943D02*
Y140157D01*
X181645Y120565D02*
Y138454D01*
X180613Y120138D02*
Y136785D01*
X178558Y119276D02*
Y135105D01*
X176961Y136703D02*
X178558Y135105D01*
X176961Y136703D02*
Y141266D01*
X175929Y136276D02*
Y140490D01*
Y136276D02*
X177527Y134678D01*
Y118849D02*
Y134678D01*
X176495Y118421D02*
Y134251D01*
X174803Y135943D02*
X176495Y134251D01*
X175464Y117994D02*
Y133824D01*
X173772Y135516D02*
X175464Y133824D01*
X157211Y130708D02*
X162598D01*
X183709Y121493D02*
Y142875D01*
X184741Y121920D02*
Y143302D01*
X185773Y122347D02*
Y143729D01*
X186804Y122775D02*
Y144156D01*
X187835Y123202D02*
Y144584D01*
X189900Y124057D02*
Y145439D01*
X195064Y126196D02*
Y147578D01*
Y126196D02*
X202756Y118504D01*
X197128Y127051D02*
X204820Y119359D01*
X198160Y127479D02*
X205852Y119786D01*
X148336Y128456D02*
X148839Y127953D01*
X146451Y128456D02*
X147992D01*
X148839Y127953D02*
X150787D01*
X147992Y128456D02*
X148336D01*
X128617Y125984D02*
X146700D01*
X147488Y126771D01*
X147637D01*
X145470Y127476D02*
X146451Y128456D01*
X145043Y128508D02*
X146850Y130315D01*
X129010Y128508D02*
X145043D01*
X127251Y128808D02*
X128583Y127476D01*
X126723Y130795D02*
X129010Y128508D01*
X153933Y132240D02*
X154004Y132311D01*
X128036Y133858D02*
X130292Y131602D01*
X128005Y133890D02*
X128036Y133858D01*
X141002Y129539D02*
X141778Y130315D01*
X144095D01*
X178558Y119276D02*
X186195Y111639D01*
X180613Y120138D02*
X188250Y112501D01*
X181645Y120565D02*
X189282Y112928D01*
X183709Y121493D02*
X191402Y113801D01*
X184741Y121920D02*
X192433Y114228D01*
X185773Y122347D02*
X193465Y114655D01*
X186804Y122775D02*
X194496Y115083D01*
X187835Y123202D02*
X195528Y115510D01*
X189900Y124057D02*
X197592Y116365D01*
X180059Y150902D02*
X186804Y144156D01*
X175464Y117994D02*
X178624Y114834D01*
X177996Y150047D02*
X184741Y143302D01*
X191415Y155605D02*
X198160Y148860D01*
X181090Y151329D02*
X187835Y144584D01*
X190383Y155178D02*
X197128Y148433D01*
X177527Y118849D02*
X185164Y111212D01*
X176495Y118421D02*
X184132Y110784D01*
X183155Y152184D02*
X189900Y145439D01*
X204820Y117649D02*
Y119359D01*
X188319Y154323D02*
X195064Y147578D01*
X176602Y149982D02*
X183709Y142875D01*
X179027Y150474D02*
X185773Y143729D01*
X179921Y137478D02*
X180613Y136785D01*
X179921Y137478D02*
Y137795D01*
X180709Y139390D02*
X181645Y138454D01*
X180709Y139390D02*
Y141732D01*
X188250Y90448D02*
Y112501D01*
X189282Y90876D02*
Y112928D01*
X191402Y91754D02*
Y113801D01*
X192433Y92181D02*
Y114228D01*
X193465Y92608D02*
Y114655D01*
X194496Y93035D02*
Y115083D01*
X195528Y93463D02*
Y115510D01*
X197592Y94318D02*
Y116365D01*
X204817Y117645D02*
X204820Y117649D01*
X177992Y137341D02*
Y141693D01*
X188319Y154323D02*
Y158386D01*
X190383Y155178D02*
Y159318D01*
X191415Y155605D02*
Y159746D01*
X186195Y89597D02*
Y111639D01*
X185164Y89170D02*
Y111212D01*
X193228Y64055D02*
Y81105D01*
X185164Y89170D02*
X193228Y81105D01*
X195728Y65293D02*
Y80064D01*
X186195Y89597D02*
X195728Y80064D01*
X188250Y90448D02*
X200728Y77970D01*
X171297Y145123D02*
X175929Y140490D01*
X170265Y144695D02*
X174803Y140157D01*
X169234Y144182D02*
X173772Y139644D01*
X175153Y144532D02*
X177992Y141693D01*
X192433Y92181D02*
X210728Y73886D01*
X163458Y150322D02*
X164231Y149549D01*
X163458Y150322D02*
Y151503D01*
X163386Y151575D02*
X163458Y151503D01*
X167323Y149799D02*
X171297Y145825D01*
X167323Y149799D02*
Y151575D01*
X175153Y144532D02*
Y146500D01*
X174016Y147638D02*
X175153Y146500D01*
X171653Y147638D02*
X174016D01*
X156928Y130425D02*
X157211Y130708D01*
X136977Y140114D02*
X159799D01*
X161417Y141732D01*
X156693Y138189D02*
X160236Y134646D01*
X141689Y138189D02*
X156693D01*
X139529Y136029D02*
X141689Y138189D01*
X125861Y128740D02*
X128617Y125984D01*
X142126Y135039D02*
X147637D01*
X127150Y131827D02*
X129438Y129539D01*
X129865Y130571D02*
X140575D01*
X127577Y132858D02*
X129865Y130571D01*
X140148Y131602D02*
X141966Y133421D01*
X130292Y131602D02*
X140148D01*
X139720Y132634D02*
X142126Y135039D01*
X152406Y132240D02*
X153933D01*
X176378Y151181D02*
X176602Y150956D01*
X180059Y150902D02*
Y154570D01*
X176602Y149982D02*
Y150956D01*
X177996Y150047D02*
Y152713D01*
X179027Y150474D02*
Y153970D01*
X181090Y151329D02*
Y155085D01*
X183155Y152184D02*
Y156247D01*
X221145Y188189D02*
X228346Y180987D01*
X183615Y195426D02*
X222291D01*
X177166Y196458D02*
X224015D01*
X175284Y198513D02*
X226684D01*
X170253Y200568D02*
X228960D01*
X172190Y174514D02*
X188319Y158386D01*
X170051Y169350D02*
X183155Y156247D01*
X170387Y165787D02*
X181090Y155085D01*
X166176Y174514D02*
X172190D01*
X165413Y169350D02*
X170051D01*
X170039Y165787D02*
X170387D01*
X170933Y163696D02*
X180059Y154570D01*
X169768Y163696D02*
X170933D01*
X173548Y159449D02*
X179027Y153970D01*
X171260Y159449D02*
X173548D01*
X106693Y120079D02*
X108815Y122201D01*
X103149Y120079D02*
X106693D01*
X147910Y194882D02*
X167713Y214685D01*
X144488Y194882D02*
X147910D01*
X141732Y192126D02*
X144488Y194882D01*
X85827Y196850D02*
X114173D01*
X82992Y199685D02*
X85827Y196850D01*
X75984Y199685D02*
X82992D01*
X104724Y190551D02*
X111811Y183465D01*
X82677Y190551D02*
X104724D01*
X79311Y187185D02*
X82677Y190551D01*
X95779Y156015D02*
X112095D01*
X93701Y153937D02*
X95779Y156015D01*
X93701Y152241D02*
Y153937D01*
X89420Y147960D02*
X93701Y152241D01*
X111024Y124016D02*
X115748Y128740D01*
X111024Y120472D02*
Y124016D01*
X105118Y114567D02*
X111024Y120472D01*
X115748Y128740D02*
X125861D01*
X112916Y132858D02*
X127577D01*
X107057Y127606D02*
X107664D01*
X151225Y133421D02*
X152406Y132240D01*
X131804Y136029D02*
X139529D01*
X127187Y140646D02*
X131804Y136029D01*
X167323Y217323D02*
X217559D01*
X152756Y202756D02*
X167323Y217323D01*
X140945Y202756D02*
X152756D01*
X148724Y192655D02*
X161527Y205457D01*
X149756Y192161D02*
X162065Y204470D01*
X150787Y191733D02*
X161417Y202363D01*
X150787Y182398D02*
Y191733D01*
X167713Y214685D02*
X238976D01*
X149756Y182624D02*
Y192161D01*
X148724Y184158D02*
Y192655D01*
X135909Y197721D02*
X140945Y202756D01*
X228960Y200568D02*
X234842Y194685D01*
X167221Y197536D02*
X170253Y200568D01*
X226684Y198513D02*
X235512Y189685D01*
X171260Y194488D02*
X175284Y198513D01*
X224015Y196458D02*
X235787Y184685D01*
X175197Y194488D02*
X177166Y196458D01*
X222291Y195426D02*
X235531Y182185D01*
X176771Y188582D02*
X183615Y195426D01*
X163035Y199011D02*
X164886Y200862D01*
X163035Y190594D02*
Y199011D01*
X173228Y157480D02*
X177996Y152713D01*
X169291Y164173D02*
X169768Y163696D01*
X163386Y167323D02*
X165413Y169350D01*
X166176Y174514D02*
X166176Y174514D01*
X169291Y185039D02*
X175197D01*
X172047Y183071D02*
X175197D01*
X170079Y181102D02*
X172047Y183071D01*
X165354Y181102D02*
X170079D01*
X210728Y67552D02*
Y73886D01*
X106223Y126771D02*
X107057Y127606D01*
X105905Y126771D02*
X106223D01*
X103150Y114567D02*
X105118D01*
X171297Y145123D02*
Y145825D01*
X165293Y150370D02*
X170265Y145397D01*
Y144695D02*
Y145397D01*
X164655Y149549D02*
X169234Y144970D01*
Y144182D02*
Y144970D01*
X160236Y134646D02*
X163779D01*
X243228Y64055D02*
X243307Y64134D01*
X89420Y146880D02*
Y147960D01*
X87383Y144842D02*
X89420Y146880D01*
X87362Y144842D02*
X87383D01*
X102611Y168110D02*
X107087Y163634D01*
X113386Y182283D02*
Y185433D01*
X89311Y192185D02*
X106634D01*
X113386Y185433D01*
Y182283D02*
X114567Y181102D01*
X118110D01*
X111811Y178740D02*
Y183465D01*
Y178740D02*
X113386Y177165D01*
X118110D01*
X104232Y201083D02*
X104921Y200394D01*
X114173D01*
X169291Y150000D02*
X171653Y147638D01*
X165291Y150471D02*
Y153606D01*
Y150471D02*
X165293Y150470D01*
X107087Y163634D02*
X123871D01*
X175590Y188582D02*
X176771D01*
X169291Y188976D02*
X172835D01*
X175197Y191339D02*
Y194488D01*
X172835Y188976D02*
X175197Y191339D01*
X229528Y174803D02*
Y181265D01*
X228346Y168898D02*
Y180987D01*
Y168898D02*
X232559Y164685D01*
X232953D01*
X171260Y192126D02*
Y194488D01*
X170079Y190945D02*
X171260Y192126D01*
X167323Y190945D02*
X170079D01*
X235512Y189685D02*
X238976D01*
X235787Y184685D02*
X238976D01*
X173228Y194488D02*
X174659Y195919D01*
X169304Y194226D02*
X173366Y198287D01*
X169304Y192926D02*
Y194226D01*
X173228Y192913D02*
Y194488D01*
X169291Y192913D02*
X169304Y192926D01*
X167221Y194780D02*
Y197536D01*
X165354Y192913D02*
X167221Y194780D01*
X234567Y199685D02*
X238819D01*
X238898Y199606D01*
X238976Y199685D01*
X141732Y177165D02*
Y192126D01*
X135909Y191922D02*
Y197721D01*
Y191922D02*
X137795Y190036D01*
Y177165D02*
Y190036D01*
X126690Y140646D02*
X127187D01*
X126566Y141732D02*
X135359D01*
X128201Y149606D02*
X141732D01*
X114567Y140945D02*
Y141043D01*
X135359Y141732D02*
X136977Y140114D01*
X165354Y157480D02*
X169291Y153543D01*
Y150000D02*
Y153543D01*
X164231Y149549D02*
X164655D01*
X161417Y157480D02*
X165291Y153606D01*
X165293Y150370D02*
Y150470D01*
X161417Y188976D02*
X163035Y190594D01*
X165354Y188976D02*
X167323Y190945D01*
X145669Y181102D02*
X148724Y184158D01*
X149511Y182379D02*
X149756Y182624D01*
X149511Y181198D02*
X149606Y181102D01*
X149511Y181198D02*
Y182379D01*
X150787Y182398D02*
X151224Y181961D01*
Y178784D02*
Y181961D01*
X149606Y177165D02*
X151224Y178784D01*
X133858Y177165D02*
X135827Y179134D01*
D75*
X131889Y84602D02*
X135547D01*
X138386Y87441D01*
X130980Y82406D02*
X135547D01*
X138386Y79567D01*
X97039Y86842D02*
X129650D01*
X131889Y84602D01*
X97948Y84646D02*
X128740D01*
X130980Y82406D01*
X94571Y82344D02*
Y84374D01*
X97039Y86842D01*
X96767Y83465D02*
X97948Y84646D01*
X96767Y82344D02*
Y83465D01*
X92913Y79921D02*
Y80686D01*
X94571Y82344D01*
X98425Y79921D02*
Y80686D01*
X96767Y82344D02*
X98425Y80686D01*
D76*
X233071Y126378D02*
X233071Y126378D01*
Y130020D01*
X226772Y126378D02*
X226772Y126378D01*
Y130020D01*
D77*
X172695Y175547D02*
X189351Y158891D01*
X163824Y175547D02*
X172695D01*
X160586Y178784D02*
X163824Y175547D01*
X155162Y178784D02*
X160586D01*
X149606Y148425D02*
Y153149D01*
X149606Y153149D02*
X149606Y153149D01*
X151181Y155118D02*
X151575Y154724D01*
X148031Y155118D02*
X151181D01*
X159209Y147484D02*
X163800D01*
X155511Y151181D02*
X159209Y147484D01*
X158668Y146450D02*
X163372D01*
X155556Y149562D02*
X158668Y146450D01*
X154447Y149562D02*
X155556D01*
X168393Y126528D02*
Y130619D01*
X168334Y126469D02*
X168393Y126528D01*
X168334Y125814D02*
Y126469D01*
X168110Y125590D02*
X168334Y125814D01*
X156158Y145417D02*
X162944D01*
X153193Y148381D02*
X156158Y145417D01*
X153193Y148381D02*
Y149355D01*
X165102Y142471D02*
X168615Y138958D01*
X221260Y186614D02*
X227165Y180709D01*
X192520Y186614D02*
X221260D01*
X183071Y177165D02*
X192520Y186614D01*
X183071Y175197D02*
Y177165D01*
X196096Y126624D02*
Y148005D01*
X194032Y125768D02*
X201724Y118076D01*
Y96060D02*
X225889Y71895D01*
X201724Y96060D02*
Y118076D01*
X199657Y95224D02*
Y117220D01*
X198624Y94745D02*
Y116793D01*
X238228Y64055D02*
Y72644D01*
X212534Y98338D02*
X238228Y72644D01*
X233228Y66580D02*
Y67559D01*
X228893Y71895D02*
X233228Y67559D01*
X225889Y71895D02*
X228893D01*
X209714Y98338D02*
X212534D01*
X203784Y104268D02*
X209714Y98338D01*
X203784Y104268D02*
Y115231D01*
X203784Y115231D02*
X203784Y115231D01*
X181053Y87427D02*
X183228Y85251D01*
Y64055D02*
Y85251D01*
X167964Y121712D02*
X181053Y108623D01*
Y87427D02*
Y108623D01*
X167964Y121712D02*
Y122609D01*
X153150Y128347D02*
X162183D01*
X165027Y125546D02*
X167964Y122609D01*
X164983Y125546D02*
X165027D01*
X162183Y128347D02*
X164983Y125546D01*
X170673Y122835D02*
Y123152D01*
X171764Y124243D02*
Y130756D01*
X170673Y123152D02*
X171764Y124243D01*
X171706Y132381D02*
Y138789D01*
X173622Y120079D02*
Y130466D01*
X172739Y133953D02*
X173622Y133071D01*
X182677Y121065D02*
Y142447D01*
X173622Y133071D02*
Y133071D01*
X171706Y132381D02*
X173622Y130466D01*
X170673Y131847D02*
Y138361D01*
Y131847D02*
X171764Y130756D01*
X168393Y130619D02*
X168615Y130841D01*
X166535Y129921D02*
Y130238D01*
X172739Y133953D02*
Y139217D01*
X188868Y123630D02*
Y145011D01*
X190932Y124485D02*
Y145866D01*
X191965Y124913D02*
X199657Y117220D01*
X191965Y124913D02*
Y146294D01*
X192998Y125341D02*
Y146722D01*
Y125341D02*
X200691Y117648D01*
X194032Y125768D02*
Y147150D01*
X196096Y126624D02*
X203788Y118931D01*
Y118076D02*
Y118931D01*
X203784Y118072D02*
X203788Y118076D01*
X166781Y132431D02*
X166929Y132283D01*
X168615Y130841D02*
Y138958D01*
X165076Y137566D02*
X166781Y135861D01*
Y133858D02*
Y135861D01*
X164042Y137139D02*
X165398Y135783D01*
Y133891D02*
Y135783D01*
X166781Y132431D02*
Y133858D01*
X209842Y105118D02*
X211417Y103543D01*
X209842Y105118D02*
Y116142D01*
X211024Y117323D01*
X214173D01*
X214291Y117441D01*
X165095Y131696D02*
Y133588D01*
Y131696D02*
X166040Y130751D01*
Y130734D02*
Y130751D01*
Y130734D02*
X166535Y130238D01*
X165095Y133588D02*
X165398Y133891D01*
X200787Y127559D02*
X205906Y122441D01*
X214291D01*
X166135Y142899D02*
X170673Y138361D01*
X182677Y121065D02*
X190314Y113428D01*
X188868Y123630D02*
X196560Y115937D01*
X190932Y124485D02*
X198624Y116793D01*
X196560Y93890D02*
Y115937D01*
X184187Y152612D02*
X190932Y145866D01*
X200691Y109152D02*
Y117648D01*
X187286Y153895D02*
X194032Y147150D01*
X182123Y151756D02*
X188868Y145011D01*
X186253Y153467D02*
X192998Y146722D01*
X185220Y153040D02*
X191965Y146294D01*
X189351Y154751D02*
X196096Y148005D01*
X190314Y91303D02*
Y113428D01*
X203784Y115231D02*
Y118072D01*
X177836Y147288D02*
X182677Y142447D01*
X185220Y153040D02*
Y157102D01*
X186253Y153467D02*
Y157530D01*
X187286Y153895D02*
Y157958D01*
X189351Y154751D02*
Y158891D01*
X175197Y148540D02*
Y150072D01*
X174759Y150510D02*
X175197Y150072D01*
X174759Y150510D02*
Y151619D01*
X175197Y148540D02*
X176449Y147288D01*
X168202Y143754D02*
X172739Y139217D01*
X167168Y143326D02*
X171706Y138789D01*
X190314Y91303D02*
X205728Y75889D01*
X165076Y137566D02*
Y141036D01*
X164042Y137139D02*
Y140609D01*
X176449Y147288D02*
X177836D01*
X182123Y151756D02*
Y155672D01*
X184187Y152612D02*
Y156675D01*
X164828Y202624D02*
X231628D01*
X164171Y203657D02*
X232958D01*
X153401Y191196D02*
X164828Y202624D01*
X151924Y191411D02*
X164171Y203657D01*
X171763Y173482D02*
X187286Y157958D01*
X171335Y172449D02*
X186253Y157530D01*
X170907Y171416D02*
X185220Y157102D01*
X170479Y170383D02*
X184187Y156675D01*
X170472Y167323D02*
X182123Y155672D01*
X160736Y172449D02*
X171335D01*
X159605Y171416D02*
X170907D01*
X162826Y170383D02*
X170479D01*
X167323Y167323D02*
X170472D01*
X161164Y173482D02*
X171763D01*
X147692Y193198D02*
X160318Y205824D01*
X151924Y182721D02*
Y191411D01*
X147692Y187062D02*
Y193198D01*
X153401Y185182D02*
Y191196D01*
X139764Y198819D02*
X141881Y200936D01*
X139764Y187008D02*
Y198819D01*
X232958Y203657D02*
X234429Y202185D01*
X231628Y202624D02*
X234567Y199685D01*
X159956Y173228D02*
X160736Y172449D01*
X161417Y169291D02*
X161734D01*
X162826Y170383D01*
X159449Y171260D02*
X159605Y171416D01*
X159449Y175197D02*
X161164Y173482D01*
X166929Y159449D02*
X174759Y151619D01*
X159449Y159449D02*
X166929D01*
X205728Y65852D02*
Y75889D01*
X151575Y150973D02*
X153193Y149355D01*
X147106Y145414D02*
X149606D01*
X145669Y146851D02*
X147106Y145414D01*
X157480Y173228D02*
X159956D01*
X164069Y142043D02*
X165076Y141036D01*
X163036Y141615D02*
X164042Y140609D01*
X165102Y142471D02*
Y143259D01*
X164069Y142043D02*
Y142831D01*
X162516Y144384D02*
X164069Y142831D01*
X163036Y141615D02*
Y142403D01*
X162088Y143351D02*
X163036Y142403D01*
X163800Y147484D02*
X167168Y144114D01*
Y143326D02*
Y144114D01*
X166135Y142899D02*
Y143687D01*
X163372Y146450D02*
X166135Y143687D01*
X162944Y145417D02*
X165102Y143259D01*
X155905Y144384D02*
X162516D01*
X153150Y143351D02*
X162088D01*
X227165Y159449D02*
Y180709D01*
X108268Y169291D02*
X125984D01*
X100374Y177185D02*
X108268Y169291D01*
X85827Y177185D02*
X100374D01*
X153499Y150510D02*
Y155163D01*
X151181Y157480D02*
X153499Y155163D01*
Y150510D02*
X154447Y149562D01*
X120591Y120472D02*
X123622D01*
X120472Y120591D02*
X120591Y120472D01*
X123622Y115551D02*
Y120472D01*
X121850Y113779D02*
X123622Y115551D01*
X120472Y120591D02*
Y126060D01*
X164227Y148516D02*
X168202Y144542D01*
X162507Y148516D02*
X164227D01*
X159449Y151575D02*
X162507Y148516D01*
X151575Y150973D02*
Y154724D01*
X149606Y157480D02*
X151181D01*
X153401Y185182D02*
X153543Y185039D01*
X145669D02*
X147692Y187062D01*
X151924Y182721D02*
X153543Y181102D01*
Y177165D02*
X155162Y178784D01*
X168202Y143754D02*
Y144542D01*
X118504Y109449D02*
Y116929D01*
X115748Y109449D02*
X118504D01*
X116535Y118898D02*
X118504Y116929D01*
X145669Y146851D02*
Y149606D01*
X116535Y118898D02*
Y120591D01*
X115157Y99453D02*
X116535Y98075D01*
X115157Y99453D02*
Y105118D01*
Y108858D02*
X115748Y109449D01*
X115157Y105118D02*
Y108858D01*
D78*
X131890Y159449D02*
X132087D01*
X133858Y161221D01*
Y161319D01*
X133957Y161417D01*
X134055D01*
X130315Y173088D02*
X131750Y171653D01*
X130315Y173088D02*
Y173917D01*
X130217Y174016D02*
X130315Y173917D01*
X130118Y174016D02*
X130217D01*
X130315Y170219D02*
X131750Y171653D01*
X130315Y169390D02*
Y170219D01*
X130217Y169291D02*
X130315Y169390D01*
X130118Y169291D02*
X130217D01*
X122441Y160536D02*
X123383Y159595D01*
X122441Y160536D02*
Y161319D01*
X122343Y161417D02*
X122441Y161319D01*
X122244Y161417D02*
X122343D01*
X123851Y167094D02*
X124442D01*
X125984Y165551D01*
Y165453D02*
Y165551D01*
Y165453D02*
X126083Y165354D01*
X126181D01*
X152362Y163385D02*
X153760Y161988D01*
X127087Y186535D02*
X127953Y187402D01*
X127087Y186188D02*
Y186535D01*
X127027Y186129D02*
X127087Y186188D01*
X127027Y185177D02*
Y186129D01*
X126890Y185039D02*
X127027Y185177D01*
X126811Y185039D02*
X126890D01*
X145669Y165354D02*
X147638Y167323D01*
X141870Y173366D02*
X143701Y175197D01*
X141870Y172933D02*
Y173366D01*
X141732Y172795D02*
X141870Y172933D01*
X123985Y175560D02*
X124016Y175591D01*
X123985Y173237D02*
Y175560D01*
X123976Y173228D02*
X123985Y173237D01*
X135433Y171299D02*
Y171653D01*
X133642Y169508D02*
X135433Y171299D01*
X133642Y169429D02*
Y169508D01*
X133504Y169291D02*
X133642Y169429D01*
X133425Y169291D02*
X133504D01*
X147106Y162067D02*
X147637Y162598D01*
X145807Y162067D02*
X147106D01*
X145669Y161929D02*
X145807Y162067D01*
X145669Y161850D02*
Y161929D01*
X153760Y161555D02*
Y161988D01*
Y161555D02*
X153898Y161417D01*
X153976D01*
X151968Y163779D02*
X153445Y165256D01*
X151181Y166929D02*
X151181D01*
X149606Y165354D02*
X151181Y166929D01*
X131890Y183071D02*
Y183110D01*
X129961Y185039D02*
X131890Y183110D01*
X129882Y185039D02*
X129961D01*
X155905Y167717D02*
X156831Y166791D01*
Y165492D02*
Y166791D01*
Y165492D02*
X156968Y165354D01*
X157047D01*
X162067Y162554D02*
X162899Y163386D01*
X162067Y161555D02*
Y162554D01*
X161929Y161417D02*
X162067Y161555D01*
X161850Y161417D02*
X161929D01*
X147638Y175197D02*
X148071D01*
X149823Y173445D01*
Y173366D02*
Y173445D01*
Y173366D02*
X149961Y173228D01*
X147638Y171260D02*
X148071D01*
X149823Y169508D01*
Y169429D02*
Y169508D01*
Y169429D02*
X149961Y169291D01*
X150039D01*
X150118Y173228D02*
X150256Y173366D01*
X149961Y173228D02*
X150118D01*
X142869Y169941D02*
X143944Y171016D01*
X141870Y169941D02*
X142869D01*
X141732Y169803D02*
X141870Y169941D01*
X141732Y169724D02*
Y169803D01*
X139232Y169941D02*
X139763Y170472D01*
X137933Y169941D02*
X139232D01*
X137795Y169803D02*
X137933Y169941D01*
X137795Y169724D02*
Y169803D01*
X130059Y165492D02*
X131496Y166929D01*
X129626Y165492D02*
X130059D01*
X129488Y165354D02*
X129626Y165492D01*
X125984Y161417D02*
X127513Y162946D01*
X196628Y158661D02*
X199213D01*
X122047Y149606D02*
Y152756D01*
X131933Y100787D02*
X135039D01*
X110236Y113234D02*
X110782Y113779D01*
X137933Y173366D02*
X139764Y175197D01*
X137933Y172933D02*
Y173366D01*
X137795Y172795D02*
X137933Y172933D01*
X147638Y159409D02*
Y159449D01*
X145315Y157087D02*
X147638Y159409D01*
X145236Y157087D02*
X145315D01*
X139764Y159449D02*
X139975Y159237D01*
Y159198D02*
Y159237D01*
Y159198D02*
X142087Y157087D01*
X142165D01*
X131933Y163429D02*
X133858Y165354D01*
X135404Y175197D02*
X135827D01*
X135168Y174961D02*
X135404Y175197D01*
X134449Y174961D02*
X135168D01*
X133504Y174016D02*
X134449Y174961D01*
X133425Y174016D02*
X133504D01*
X135815Y93701D02*
X138189D01*
X142126D02*
X144882D01*
Y97244D02*
Y99016D01*
X133902Y145669D02*
X135870Y147638D01*
X135433Y110236D02*
Y111516D01*
X135433Y111516D01*
X134252Y109055D02*
X135433Y110236D01*
X133071Y109055D02*
X134252D01*
X144882Y99016D02*
Y99356D01*
X144041Y100197D02*
X144882Y99356D01*
X142913Y100197D02*
X144041D01*
X142815Y100295D02*
X142913Y100197D01*
X142815Y100295D02*
Y100394D01*
X212131Y150074D02*
X212205Y150000D01*
X195840Y159449D02*
X196628Y158661D01*
X165354Y161417D02*
X167323Y163386D01*
X135039Y104724D02*
Y107087D01*
X133071Y109055D02*
X135039Y107087D01*
X110782Y113779D02*
X115157D01*
X120494Y98053D02*
X123600D01*
X120472Y98075D02*
X120494Y98053D01*
X110236Y113234D02*
Y113386D01*
X121850Y105118D02*
X126378D01*
X118110Y149606D02*
Y152756D01*
X116929Y149606D02*
X118110D01*
X116535Y123687D02*
Y126060D01*
X115256Y141732D02*
X118110D01*
X114567Y141043D02*
X115256Y141732D01*
X153445Y165256D02*
X153445D01*
X153543Y165354D01*
X151575Y159449D02*
Y159449D01*
X149606Y161417D02*
X151575Y159449D01*
X116818Y149717D02*
X116929Y149606D01*
X114850Y149717D02*
X116818D01*
X114173Y150394D02*
X114850Y149717D01*
X127996Y147638D02*
X129965Y145669D01*
X118110Y173228D02*
X120473D01*
X146260Y100394D02*
X147638D01*
X144882Y99016D02*
X146260Y100394D01*
X151575D02*
X153949D01*
X209842Y150074D02*
X212131D01*
X155217Y187303D02*
X157480Y185039D01*
X155217Y187303D02*
Y188484D01*
X155118Y188583D02*
X155217Y188484D01*
X159153Y187303D02*
X161417Y185039D01*
X159153Y187303D02*
Y188484D01*
X159055Y188583D02*
X159153Y188484D01*
X118110Y152756D02*
X118110Y152756D01*
X153543Y169291D02*
X155512Y171260D01*
X153543Y173228D02*
X155512Y175197D01*
X137795Y161417D02*
X139764Y163386D01*
X137795Y165354D02*
X139764Y167323D01*
X141732Y145669D02*
X143701Y143701D01*
X135827D02*
X137795Y145669D01*
D79*
X115580Y184212D02*
X115787Y184419D01*
X115580Y183297D02*
Y184212D01*
X115354Y183071D02*
X115580Y183297D01*
X115787Y184419D02*
Y200827D01*
X116142Y201181D01*
X110984Y220999D02*
X126180Y205804D01*
X122283Y182393D02*
Y204449D01*
X121260Y180709D02*
Y202874D01*
X119843Y180157D02*
Y201850D01*
X124016Y187460D02*
Y192913D01*
X123986Y187431D02*
X124016Y187460D01*
X132283Y187402D02*
X133858Y185827D01*
X132283Y187402D02*
Y193307D01*
X107335Y123477D02*
Y125051D01*
X112220Y133858D02*
X112251Y133890D01*
X106995Y128634D02*
X112220Y133858D01*
X110630Y134646D02*
X110906Y134921D01*
X106299Y130315D02*
X110630Y134646D01*
X220926Y192520D02*
X232677Y180769D01*
X184646Y192520D02*
X220926D01*
X175197Y183071D02*
X184646Y192520D01*
X87008Y170079D02*
X103543D01*
X79134Y162205D02*
X87008Y170079D01*
X79134Y157480D02*
Y162205D01*
X89803Y166575D02*
X102362D01*
X85039Y161811D02*
X89803Y166575D01*
X85039Y160630D02*
Y161811D01*
X232677Y176378D02*
Y180769D01*
X223228Y192520D02*
X235433Y180315D01*
X88858Y119173D02*
Y140024D01*
X89882Y117834D02*
Y139600D01*
X90905Y139176D02*
X91917Y140188D01*
X90905Y116102D02*
Y139176D01*
X91929Y138752D02*
X92941Y139764D01*
X91929Y114764D02*
Y138752D01*
X92953Y138029D02*
X94592Y139668D01*
X92953Y113425D02*
Y138029D01*
X93976Y137605D02*
X96563Y140192D01*
X93976Y111693D02*
Y137605D01*
X95000Y110748D02*
Y136333D01*
X96023Y109016D02*
Y135832D01*
X102362Y146457D02*
X105118D01*
X85327Y118004D02*
Y141247D01*
X90448Y146369D01*
X200728Y72623D02*
Y77970D01*
X200681Y72576D02*
X200728Y72623D01*
X200681Y67228D02*
Y72576D01*
Y67228D02*
X200728Y67181D01*
Y61654D02*
Y67181D01*
Y61654D02*
X203228Y59153D01*
Y59055D02*
Y59153D01*
X200691Y95639D02*
X225463Y70866D01*
X200691Y95639D02*
Y109152D01*
X240728Y61555D02*
Y71598D01*
X235728Y61555D02*
Y73689D01*
X233228Y64055D02*
Y66580D01*
X230728Y61555D02*
Y67454D01*
X227316Y70866D02*
X230728Y67454D01*
X225463Y70866D02*
X227316D01*
X228228Y64055D02*
Y66654D01*
X199657Y95224D02*
X228228Y66654D01*
X209288Y97309D02*
X212108D01*
X202756Y103842D02*
X209288Y97309D01*
X212108D02*
X235728Y73689D01*
X212960Y99366D02*
X240728Y71598D01*
X204820Y104686D02*
X210140Y99366D01*
X212960D01*
X202756Y103842D02*
Y118504D01*
X204820Y104686D02*
Y107666D01*
X204817Y107670D02*
X204820Y107666D01*
X177330Y109401D02*
X178228Y108502D01*
Y64055D02*
Y108502D01*
X169130Y116142D02*
X175197Y110075D01*
Y61417D02*
Y110075D01*
Y61417D02*
X177559Y59055D01*
X178228D01*
X180728Y61555D02*
Y86297D01*
X180020Y95290D02*
X180024Y95286D01*
Y87001D02*
Y95286D01*
Y87001D02*
X180728Y86297D01*
Y61555D02*
X183228Y59055D01*
X182081Y87853D02*
X185728Y84206D01*
Y61555D02*
Y84206D01*
Y61555D02*
X188228Y59055D01*
X183105Y88277D02*
X188228Y83153D01*
Y64055D02*
Y83153D01*
X168992Y122138D02*
X182081Y109049D01*
Y87853D02*
Y109049D01*
X178627Y114837D02*
X183105Y110359D01*
Y88277D02*
Y110359D01*
X190728Y61555D02*
Y82106D01*
X168992Y122138D02*
Y124095D01*
X170078Y125181D01*
Y129921D01*
X179586Y119701D02*
Y135741D01*
Y119701D02*
X187223Y112064D01*
X177992Y137335D02*
X179586Y135741D01*
X187223Y90023D02*
Y112064D01*
X177992Y137335D02*
Y137341D01*
X187223Y90023D02*
X198228Y79017D01*
Y64055D02*
Y79017D01*
X79291Y79685D02*
X101142Y101535D01*
X75984Y79685D02*
X79291D01*
X101142Y101535D02*
Y129802D01*
X176225Y197485D02*
X225350D01*
X174619Y199540D02*
X228019D01*
X165620Y201595D02*
X230294D01*
X163739Y204685D02*
X238976D01*
X164780Y207185D02*
X241476D01*
X165754Y209685D02*
X238976D01*
X161417Y202363D02*
X163739Y204685D01*
X161527Y205457D02*
X165754Y209685D01*
X241476Y207185D02*
X243976Y209685D01*
X162065Y204470D02*
X164780Y207185D01*
X104831Y128634D02*
X106995D01*
X104331Y129134D02*
X104831Y128634D01*
X103150Y129134D02*
X104331D01*
X109843Y121260D02*
Y124409D01*
X106299Y117717D02*
X109843Y121260D01*
X103150Y117717D02*
X106299D01*
X129516Y196075D02*
X132283Y193307D01*
X129516Y196075D02*
Y205067D01*
X133858Y189764D02*
Y193701D01*
X131102Y196457D02*
X133858Y193701D01*
X131102Y196457D02*
Y206260D01*
X122667Y177333D02*
X126152D01*
X119843Y180157D02*
X122667Y177333D01*
X95512Y157323D02*
X111342D01*
X96850Y154011D02*
Y154330D01*
X92520Y154331D02*
X95512Y157323D01*
X92520Y152569D02*
Y154331D01*
X95382Y158767D02*
X95669Y159055D01*
X95382Y158752D02*
Y158767D01*
X94397Y157767D02*
X95382Y158752D01*
X94382Y157767D02*
X94397D01*
X91312Y154698D02*
X94382Y157767D01*
X95669Y159055D02*
X112992D01*
X91312Y153501D02*
Y154698D01*
X87008Y147057D02*
X92520Y152569D01*
X90158Y154724D02*
Y155905D01*
X89870Y144261D02*
X91630Y146022D01*
X91917Y140188D02*
Y143098D01*
X89870Y141036D02*
Y144261D01*
X88858Y140024D02*
X89870Y141036D01*
X91917Y143098D02*
X95275Y146456D01*
X90894Y143837D02*
X93307Y146251D01*
X90894Y140612D02*
Y143837D01*
X89882Y139600D02*
X90894Y140612D01*
X92941Y141680D02*
X94961Y143701D01*
X92941Y139764D02*
Y141680D01*
X90448Y146369D02*
Y147535D01*
X88492Y150681D02*
X91312Y153501D01*
X113673Y160736D02*
X114310Y160099D01*
X96335Y160736D02*
X113673D01*
X112992Y159055D02*
X113567Y158480D01*
X114528Y162244D02*
X117712Y159060D01*
X115201Y129768D02*
X126292D01*
X109843Y124409D02*
X115201Y129768D01*
X112251Y133890D02*
X128005D01*
X112598Y136221D02*
X114567Y138189D01*
X107560Y136221D02*
X112598D01*
X101142Y129802D02*
X107560Y136221D01*
X126292Y129768D02*
X127251Y128808D01*
X110906Y134921D02*
X128432D01*
X106299Y137402D02*
X109203D01*
X100118Y131220D02*
X106299Y137402D01*
X100118Y102874D02*
Y131220D01*
X102362Y135827D02*
Y138189D01*
X99094Y132559D02*
X102362Y135827D01*
X99094Y104606D02*
Y132559D01*
X100394Y135827D02*
Y139708D01*
X98071Y133504D02*
X100394Y135827D01*
X98071Y105945D02*
Y133504D01*
X100394Y139708D02*
X104386Y143701D01*
X114567Y138189D02*
Y140945D01*
X109203Y137402D02*
X111294Y139493D01*
X97638Y145749D02*
Y147244D01*
X95590Y143701D02*
X97638Y145749D01*
X100311Y148508D02*
X100393Y148590D01*
X100311Y148508D02*
X102362Y146457D01*
X100393Y148590D02*
Y148819D01*
X217559Y217323D02*
X226476Y226240D01*
X220866Y216142D02*
X229134Y224410D01*
X167717Y216142D02*
X220866D01*
X152812Y201238D02*
X167717Y216142D01*
X142182Y201238D02*
X152812D01*
X141881Y200936D02*
X142182Y201238D01*
X166680Y212185D02*
X241476D01*
X160318Y205824D02*
X166680Y212185D01*
X241476D02*
X243976Y214685D01*
X230294Y201595D02*
X234705Y197185D01*
X164886Y200862D02*
X165620Y201595D01*
X228019Y199540D02*
X235374Y192185D01*
X173366Y198287D02*
X174619Y199540D01*
X225350Y197485D02*
X235650Y187185D01*
X174659Y195919D02*
X176225Y197485D01*
X94882Y140758D02*
X94882Y140758D01*
X94592Y141048D02*
X94882Y140758D01*
X94592Y139668D02*
Y141048D01*
X125984Y177165D02*
X125984D01*
X126152Y177333D01*
X66142Y174016D02*
X69311Y177185D01*
X198624Y94745D02*
X225728Y67641D01*
X197592Y94318D02*
X223228Y68682D01*
X196560Y93890D02*
X220728Y69722D01*
X195528Y93463D02*
X218228Y70762D01*
X194496Y93035D02*
X215728Y71803D01*
X193465Y92608D02*
X213228Y72844D01*
X191402Y91754D02*
X208228Y74927D01*
X218228Y64055D02*
Y70762D01*
X220728Y61555D02*
Y69722D01*
X215728Y61555D02*
Y71803D01*
X213228Y64055D02*
Y72844D01*
X223228Y64055D02*
Y68682D01*
X208228Y64055D02*
Y74927D01*
X225728Y61555D02*
Y67641D01*
X205728Y61555D02*
Y65852D01*
X215728Y61555D02*
X218228Y59055D01*
X210728Y61555D02*
Y67552D01*
Y61555D02*
X213228Y59055D01*
X220728Y61555D02*
X223228Y59055D01*
X225728Y61555D02*
X228228Y59055D01*
X73484Y187185D02*
X79311D01*
X73484Y197185D02*
X81496D01*
X103543Y170079D02*
X107086Y166535D01*
X87795Y161024D02*
X91339Y164567D01*
X94095D01*
X102362Y166575D02*
X106693Y162244D01*
X91499Y162492D02*
X96744D01*
X96850Y162598D01*
X85441Y156434D02*
X91499Y162492D01*
X97047Y135630D02*
X98523Y137106D01*
X96563Y141125D02*
X97568Y142130D01*
X96563Y140192D02*
Y141125D01*
X94961Y143701D02*
X95590D01*
X97047Y107283D02*
Y135630D01*
X105905Y122047D02*
X107335Y123477D01*
X104386Y143701D02*
X107349D01*
X94882Y140758D02*
Y140945D01*
X79488Y104685D02*
X90905Y116102D01*
X79232Y107185D02*
X89882Y117834D01*
X79370Y109685D02*
X88858Y119173D01*
X97568Y142130D02*
Y142519D01*
X195728Y61555D02*
Y65293D01*
X240728Y61555D02*
X243228Y59055D01*
X205728Y61555D02*
X208228Y59055D01*
X230728Y61555D02*
X233228Y59055D01*
X235728Y61555D02*
X238228Y59055D01*
X90158Y155905D02*
X93701Y159449D01*
X92168Y161130D02*
X95941D01*
X88701Y157662D02*
X92168Y161130D01*
X95941D02*
X96335Y160736D01*
X85933Y150681D02*
X88492D01*
X85827Y150787D02*
X85933Y150681D01*
X87795Y152362D02*
X87795D01*
X90158Y154724D01*
X82147Y144842D02*
X87362D01*
X90448Y147535D02*
X95866Y152953D01*
Y153026D01*
X96850Y154011D01*
X106693Y162244D02*
X114528D01*
X98484Y221004D02*
X118110Y201378D01*
Y185039D02*
Y201378D01*
X95984Y221339D02*
X116142Y201181D01*
X95984Y221339D02*
Y231221D01*
X135827Y179134D02*
Y187795D01*
X133858Y189764D02*
X135827Y187795D01*
X115984Y221378D02*
X131102Y206260D01*
X85441Y155126D02*
Y156434D01*
X85433Y155118D02*
X85441Y155126D01*
X79744Y152185D02*
X87795Y160236D01*
X69752Y152185D02*
X79744D01*
X87795Y160236D02*
Y161024D01*
X88701Y155645D02*
Y157662D01*
X85630Y152574D02*
X88701Y155645D01*
X79469Y97185D02*
X93976Y111693D01*
X79213Y99685D02*
X92953Y113425D01*
X79350Y102185D02*
X91929Y114764D01*
X79360Y95108D02*
X95000Y110748D01*
X79449Y89685D02*
X97047Y107283D01*
X79429Y82185D02*
X100118Y102874D01*
X79173Y84685D02*
X99094Y104606D01*
X79311Y87185D02*
X98071Y105945D01*
X79193Y92185D02*
X96023Y109016D01*
X87008Y146850D02*
Y147057D01*
X79508Y112185D02*
X85327Y118004D01*
X84070Y152574D02*
X85630D01*
X83858Y152362D02*
X84070Y152574D01*
X93130Y212185D02*
X104232Y201083D01*
X122283Y182393D02*
X123574Y181102D01*
X122763Y179206D02*
X123944D01*
X124016Y179134D01*
X121260Y180709D02*
X122763Y179206D01*
X100984Y220709D02*
X119843Y201850D01*
X105984Y220748D02*
X122283Y204449D01*
X103484Y220650D02*
X121260Y202874D01*
X108484Y220901D02*
X125984Y203401D01*
X124016Y192913D02*
X125984Y194882D01*
Y203401D01*
X69311Y177185D02*
X85827D01*
X79804Y147185D02*
X82147Y144842D01*
X76407Y95108D02*
X79360D01*
X73681Y107185D02*
X79232D01*
X71181Y104685D02*
X73681Y107185D01*
X70984Y104685D02*
X71181D01*
X73681Y147185D02*
X79804D01*
X71181Y144685D02*
X73681Y147185D01*
X75984Y94685D02*
X76407Y95108D01*
X75984Y99685D02*
X79213D01*
X73484Y102185D02*
X79350D01*
X75984Y104685D02*
X79488D01*
X75984Y109685D02*
X79370D01*
X73681Y112185D02*
X79508D01*
X73484Y87185D02*
X79311D01*
X73484Y82185D02*
X79429D01*
X73484Y97185D02*
X79469D01*
X73484Y92185D02*
X79193D01*
X75984Y89685D02*
X79449D01*
X75984Y84685D02*
X79173D01*
X68287Y150721D02*
X69752Y152185D01*
X71181Y109685D02*
X73681Y112185D01*
X70984Y109685D02*
X71181D01*
X69390Y132185D02*
X73287D01*
X75787Y129685D01*
X75984D01*
X68287Y133287D02*
X69390Y132185D01*
X68287Y133287D02*
Y150721D01*
X73484Y212185D02*
X93130D01*
X195728Y61555D02*
X198228Y59055D01*
X190728Y61555D02*
X193228Y59055D01*
X68839Y192185D02*
X89311D01*
X115984Y221378D02*
Y231221D01*
X113484Y221098D02*
X129516Y205067D01*
X110984Y220999D02*
Y231221D01*
X108484Y220901D02*
Y233720D01*
X105984Y220748D02*
Y231221D01*
X103484Y220650D02*
Y233720D01*
X100984Y220709D02*
Y231221D01*
X98484Y221004D02*
Y233720D01*
X234429Y202185D02*
X241476D01*
X234705Y197185D02*
X241476D01*
X235433Y177531D02*
Y180315D01*
X229528Y174803D02*
X232146Y172185D01*
X232677Y176378D02*
X234370Y174685D01*
X238976D01*
X235779Y177185D02*
X240209D01*
X235433Y177531D02*
X235779Y177185D01*
X240209D02*
X240229Y177165D01*
X241457D01*
X243976Y179685D01*
X232146Y172185D02*
X241476D01*
X243976Y169685D01*
X227165Y159449D02*
X229429Y157185D01*
X241476D01*
X243976Y159685D01*
X235650Y187185D02*
X241476D01*
X235374Y192185D02*
X241476D01*
X235531Y182185D02*
X241476D01*
X243976Y184685D01*
X241476Y187185D02*
X243976Y189685D01*
X234842Y194685D02*
X238976D01*
X241476Y192185D02*
X243976Y194685D01*
X241476Y202185D02*
X243976Y204685D01*
X229134Y224410D02*
Y231063D01*
X228976Y231221D02*
X229134Y231063D01*
X226476Y226240D02*
Y233720D01*
X228976Y236221D01*
X232953Y164685D02*
X238976D01*
X241476Y197185D02*
X243976Y199685D01*
X70984Y99685D02*
X73484Y102185D01*
X70984Y94685D02*
X73484Y97185D01*
X70984Y89685D02*
X73484Y92185D01*
X70984Y84685D02*
X73484Y87185D01*
X70984Y79685D02*
X73484Y82185D01*
X70984Y144685D02*
X71181D01*
X70984Y189685D02*
X73484Y187185D01*
X98484Y233720D02*
X100984Y236221D01*
X103484Y233720D02*
X105984Y236221D01*
X123574Y181102D02*
X125984D01*
X133858D02*
Y185827D01*
X108484Y233720D02*
X110984Y236221D01*
X113484Y221098D02*
Y233720D01*
X131890Y179134D02*
X133858Y181102D01*
X113484Y233720D02*
X115984Y236221D01*
X67323Y193701D02*
Y201024D01*
X70984Y204685D01*
X67323Y193701D02*
X68839Y192185D01*
X70984Y194685D02*
X73484Y197185D01*
X70984Y209685D02*
X73484Y212185D01*
D81*
X206299Y155512D02*
X208268D01*
X139075Y98474D02*
Y100394D01*
X136221Y97638D02*
X138238D01*
X139075Y98474D01*
X209209Y137008D02*
X225590D01*
X200394Y145823D02*
X209209Y137008D01*
X200394Y145823D02*
Y153543D01*
X194882Y154724D02*
X199213D01*
X193667Y155939D02*
X194882Y154724D01*
X134252Y116437D02*
X135433Y115256D01*
X134252Y116437D02*
Y119685D01*
X213593Y158039D02*
X213630Y158002D01*
Y157676D02*
Y158002D01*
Y157676D02*
X214614Y156693D01*
X215354D01*
X216535Y155512D01*
X205905Y167323D02*
X208268D01*
X193667Y160664D02*
X193982D01*
X194940Y161622D01*
X197513D01*
X203214Y167323D01*
X205905D01*
X203338Y150993D02*
Y152961D01*
Y150993D02*
X204331Y150000D01*
X205832D01*
X205906Y150074D01*
X199016Y179661D02*
X199154D01*
X198819Y179464D02*
X199016Y179661D01*
X214173Y167716D02*
X214226D01*
X214136Y164211D02*
X214173Y164173D01*
X214211Y164136D01*
X209646Y159646D02*
X214173Y164173D01*
X208268Y159449D02*
X212183D01*
X213593Y158039D01*
X212809Y152180D02*
X219473D01*
X212233Y152756D02*
X212809Y152180D01*
X203543Y152756D02*
X212233D01*
X205554Y156257D02*
X206299Y155512D01*
X205554Y156257D02*
Y157442D01*
X203338Y152961D02*
Y160003D01*
Y152961D02*
X203543Y152756D01*
X219473Y152180D02*
X233071Y138583D01*
Y133760D02*
Y138583D01*
X225590Y137008D02*
X226772Y135827D01*
Y133760D02*
Y135827D01*
X203338Y160003D02*
X204321Y160986D01*
X205474D01*
X205512Y161024D01*
X205516Y157480D02*
X205554Y157442D01*
X214173Y160630D02*
X214211Y160592D01*
X214226Y167716D02*
X214423Y167520D01*
X216339D01*
X216535Y167323D01*
X199213Y154724D02*
X200394Y153543D01*
X208465Y159646D02*
X209646D01*
X208268Y159449D02*
X208465Y159646D01*
X188189Y166142D02*
X193667Y160664D01*
Y155939D02*
Y160664D01*
X188189Y166142D02*
Y176302D01*
X192596Y180709D01*
X194488D01*
X205512Y161024D02*
X206890Y159646D01*
X214211Y160592D02*
X215392D01*
X216535Y159449D01*
X194488Y180709D02*
X195732Y179464D01*
X198819D01*
X214211Y164136D02*
X215786D01*
X216535Y163386D01*
X206890Y159646D02*
X208071D01*
X208268Y159449D01*
D82*
X157480Y157480D02*
Y161417D01*
Y157480D02*
X159449Y155512D01*
D85*
X75984Y204685D02*
D03*
Y209685D02*
D03*
Y199685D02*
D03*
Y219685D02*
D03*
Y214685D02*
D03*
Y184685D02*
D03*
Y179685D02*
D03*
Y194685D02*
D03*
Y189685D02*
D03*
Y164685D02*
D03*
Y159685D02*
D03*
Y174685D02*
D03*
Y169685D02*
D03*
Y154685D02*
D03*
Y149685D02*
D03*
X70984Y144685D02*
D03*
X75984D02*
D03*
Y134685D02*
D03*
Y139685D02*
D03*
Y129685D02*
D03*
Y124685D02*
D03*
Y109685D02*
D03*
Y79685D02*
D03*
Y119685D02*
D03*
Y114685D02*
D03*
Y104685D02*
D03*
Y99685D02*
D03*
X70984Y124685D02*
D03*
Y109685D02*
D03*
X75984Y84685D02*
D03*
Y74685D02*
D03*
Y94685D02*
D03*
Y89685D02*
D03*
X70984Y209685D02*
D03*
Y214685D02*
D03*
Y204685D02*
D03*
Y189685D02*
D03*
Y164685D02*
D03*
Y199685D02*
D03*
Y194685D02*
D03*
Y184685D02*
D03*
Y179685D02*
D03*
Y159685D02*
D03*
Y154685D02*
D03*
Y174685D02*
D03*
Y169685D02*
D03*
Y139685D02*
D03*
Y129685D02*
D03*
Y149685D02*
D03*
Y119685D02*
D03*
Y114685D02*
D03*
Y104685D02*
D03*
Y99685D02*
D03*
Y94685D02*
D03*
Y134685D02*
D03*
Y79685D02*
D03*
Y74685D02*
D03*
Y89685D02*
D03*
Y84685D02*
D03*
X243976Y209685D02*
D03*
Y204685D02*
D03*
Y214685D02*
D03*
Y189685D02*
D03*
Y199685D02*
D03*
Y219685D02*
D03*
Y194685D02*
D03*
X238976Y204685D02*
D03*
X243976Y184685D02*
D03*
X238976Y189685D02*
D03*
X243976Y179685D02*
D03*
Y174685D02*
D03*
Y164685D02*
D03*
Y169685D02*
D03*
Y159685D02*
D03*
X238976Y169685D02*
D03*
X243976Y149685D02*
D03*
Y154685D02*
D03*
X238976Y214685D02*
D03*
Y184685D02*
D03*
Y209685D02*
D03*
Y194685D02*
D03*
Y199685D02*
D03*
Y179685D02*
D03*
Y174685D02*
D03*
Y164685D02*
D03*
Y159685D02*
D03*
Y149685D02*
D03*
Y154685D02*
D03*
D86*
X70984Y219685D02*
D03*
X238976D02*
D03*
D87*
X120984Y236221D02*
D03*
X248228Y64055D02*
D03*
X238976Y236221D02*
D03*
D88*
X115984D02*
D03*
X105984D02*
D03*
X100984D02*
D03*
X110984D02*
D03*
X120984Y231221D02*
D03*
X115984D02*
D03*
X110984D02*
D03*
X100984D02*
D03*
X95984D02*
D03*
X105984D02*
D03*
X95984Y236221D02*
D03*
X90984D02*
D03*
X85984D02*
D03*
X80984D02*
D03*
X75984D02*
D03*
X85984Y231221D02*
D03*
X90984D02*
D03*
X75984D02*
D03*
X80984D02*
D03*
X243228Y64055D02*
D03*
X238228D02*
D03*
X218228D02*
D03*
X223228D02*
D03*
X213228D02*
D03*
X233228D02*
D03*
X228228D02*
D03*
X248228Y59055D02*
D03*
X243228D02*
D03*
X238228D02*
D03*
X233228D02*
D03*
X218228D02*
D03*
X213228D02*
D03*
X228228D02*
D03*
X223228D02*
D03*
X203228Y64055D02*
D03*
X208228D02*
D03*
X198228Y59055D02*
D03*
Y64055D02*
D03*
X183228D02*
D03*
X178228D02*
D03*
X193228D02*
D03*
X188228D02*
D03*
X193228Y59055D02*
D03*
X208228D02*
D03*
X203228D02*
D03*
X178228D02*
D03*
X188228D02*
D03*
X183228D02*
D03*
X233976Y236221D02*
D03*
X228976D02*
D03*
X208976D02*
D03*
X213976D02*
D03*
X203976D02*
D03*
X223976D02*
D03*
X218976D02*
D03*
X238976Y231221D02*
D03*
X233976D02*
D03*
X228976D02*
D03*
X223976D02*
D03*
X208976D02*
D03*
X203976D02*
D03*
X218976D02*
D03*
X213976D02*
D03*
X193976Y236221D02*
D03*
X198976D02*
D03*
X188976Y231221D02*
D03*
Y236221D02*
D03*
X173976D02*
D03*
X168976D02*
D03*
X183976D02*
D03*
X178976D02*
D03*
X183976Y231221D02*
D03*
X198976D02*
D03*
X193976D02*
D03*
X168976D02*
D03*
X178976D02*
D03*
X173976D02*
D03*
D89*
X219291Y132441D02*
D03*
Y127441D02*
D03*
Y122441D02*
D03*
Y117441D02*
D03*
X214291Y132441D02*
D03*
Y117441D02*
D03*
Y127441D02*
D03*
Y122441D02*
D03*
Y112441D02*
D03*
D90*
X219291D02*
D03*
D91*
X148228Y87441D02*
D03*
Y79567D02*
D03*
X138386D02*
D03*
Y87441D02*
D03*
D92*
X167008Y68898D02*
D03*
X119606D02*
D03*
D93*
X106299Y69685D02*
D03*
X85039D02*
D03*
D94*
X103937Y79921D02*
D03*
X98425D02*
D03*
X92913D02*
D03*
D95*
X87402D02*
D03*
D96*
X95669Y57874D02*
D03*
D97*
X145866Y110039D02*
D03*
Y105709D02*
D03*
X141535Y110039D02*
D03*
Y105709D02*
D03*
X229921Y126378D02*
D03*
Y123228D02*
D03*
Y120079D02*
D03*
Y116929D02*
D03*
X233071D02*
D03*
Y120079D02*
D03*
Y123228D02*
D03*
Y113779D02*
D03*
X229921D02*
D03*
X226772D02*
D03*
Y116929D02*
D03*
Y120029D02*
D03*
Y123228D02*
D03*
D98*
X121850Y113779D02*
D03*
Y105118D02*
D03*
X115157Y113779D02*
D03*
Y105118D02*
D03*
D99*
X233071Y133760D02*
D03*
Y130020D02*
D03*
X226772Y133760D02*
D03*
Y130020D02*
D03*
X135433Y115256D02*
D03*
Y111516D02*
D03*
D100*
X142815Y100394D02*
D03*
X139075D02*
D03*
D101*
X194944Y175527D02*
X198819D01*
Y175433D02*
X198913D01*
X205511Y164174D02*
Y164567D01*
Y164174D02*
X206205Y163480D01*
X208173D01*
X194881Y175590D02*
X194944Y175527D01*
X208173Y163480D02*
X208268Y163386D01*
M02*
