G04*
G04 #@! TF.GenerationSoftware,Altium Limited,Altium Designer,19.1.6 (110)*
G04*
G04 Layer_Color=65535*
%FSLAX25Y25*%
%MOIN*%
G70*
G01*
G75*
%ADD10C,0.00984*%
%ADD11C,0.00500*%
%ADD12C,0.02362*%
%ADD13C,0.01000*%
%ADD14C,0.00787*%
%ADD15C,0.00400*%
G36*
X110236Y137795D02*
X114173Y133858D01*
X110236D01*
Y137795D01*
D02*
G37*
G36*
X222632Y151575D02*
X225591Y154533D01*
Y151575D01*
X222632D01*
D02*
G37*
D10*
X151146Y224803D02*
G03*
X151146Y224803I-359J0D01*
G01*
X152362Y119193D02*
G03*
X152362Y119193I-492J0D01*
G01*
X111319Y131299D02*
G03*
X111319Y131299I-492J0D01*
G01*
X228642Y152165D02*
G03*
X228642Y152165I-492J0D01*
G01*
X217116Y73776D02*
G03*
X217116Y73776I-492J0D01*
G01*
D11*
X197677Y120079D02*
G03*
X197677Y120079I-3583J0D01*
G01*
X239673Y133758D02*
G03*
X239673Y133758I-500J0D01*
G01*
X197677Y131890D02*
G03*
X197677Y131890I-3583J0D01*
G01*
X162961Y101969D02*
X163779D01*
X162961D02*
Y102787D01*
X222291Y108941D02*
Y114441D01*
X217291Y108941D02*
X222291D01*
X241823Y118356D02*
X242823D01*
X241823Y114756D02*
X242823D01*
X246107Y129421D02*
Y132571D01*
X243351D02*
X246107D01*
Y120760D02*
Y123909D01*
X243351Y120760D02*
X246107D01*
X234576Y133720D02*
Y135294D01*
X233788D02*
X234576D01*
X233788Y133720D02*
Y141200D01*
Y133720D02*
X234576D01*
X227095Y135294D02*
X227883D01*
Y133720D02*
Y141200D01*
X227095Y133720D02*
X227883D01*
X227095D02*
Y135294D01*
X241232Y143926D02*
X242232D01*
X241232Y140326D02*
X242232D01*
X248424Y107555D02*
Y110705D01*
D12*
X210335Y79114D02*
G03*
X210335Y79114I-1181J0D01*
G01*
D13*
X160728Y246457D02*
Y249016D01*
Y226577D02*
Y234646D01*
X157185Y226577D02*
X160728D01*
X129035Y249016D02*
X160728D01*
X129035Y246457D02*
Y249016D01*
X129034Y226644D02*
X129035Y234646D01*
X129034Y226644D02*
X132577D01*
X86699Y92898D02*
X84699D01*
X85699D01*
Y87900D01*
X84699Y86900D01*
X83700D01*
X82700Y87900D01*
X88698Y86900D02*
X90697D01*
X89698D01*
Y92898D01*
X88698Y91898D01*
D14*
X152461Y114921D02*
Y116634D01*
X150748D02*
X152461D01*
X150748Y99114D02*
X152461D01*
Y100827D01*
X134941Y116634D02*
X136653D01*
X134941Y114921D02*
Y116634D01*
Y99114D02*
Y100827D01*
Y99114D02*
X136653D01*
X177165Y133858D02*
Y200787D01*
X110236D02*
X177165D01*
X110236Y133858D02*
X177165D01*
X110236D02*
Y200787D01*
Y137795D02*
X114173Y133858D01*
X225591Y151575D02*
Y183071D01*
X222632Y151575D02*
X225591Y154533D01*
X194095Y183071D02*
X225591D01*
X194095Y151575D02*
X225591D01*
X194095D02*
Y183071D01*
X213091Y75177D02*
Y94862D01*
X200492Y75177D02*
Y94862D01*
X213091D01*
X200492Y75177D02*
X213091D01*
X107480Y77559D02*
Y83465D01*
X101575D02*
X107480D01*
X83858D02*
X87795D01*
X83858Y79528D02*
Y83465D01*
D15*
X232535Y93138D02*
Y95107D01*
X174646Y105910D02*
X176615D01*
X155737Y100398D02*
X157706D01*
X194886Y136783D02*
Y138751D01*
X146452Y122272D02*
Y124241D01*
X203768Y132288D02*
X205737D01*
X199831D02*
X201800D01*
X216146Y106468D02*
Y108436D01*
X216138Y102587D02*
Y104556D01*
X243311Y102817D02*
Y104785D01*
X161807Y93138D02*
Y95107D01*
X198036Y97413D02*
Y99381D01*
Y70247D02*
Y72216D01*
M02*
