G04*
G04 #@! TF.GenerationSoftware,Altium Limited,Altium Designer,19.1.6 (110)*
G04*
G04 Layer_Color=8388736*
%FSLAX25Y25*%
%MOIN*%
G70*
G01*
G75*
G04:AMPARAMS|DCode=18|XSize=59.06mil|YSize=61.02mil|CornerRadius=7.68mil|HoleSize=0mil|Usage=FLASHONLY|Rotation=180.000|XOffset=0mil|YOffset=0mil|HoleType=Round|Shape=RoundedRectangle|*
%AMROUNDEDRECTD18*
21,1,0.05906,0.04567,0,0,180.0*
21,1,0.04370,0.06102,0,0,180.0*
1,1,0.01535,-0.02185,0.02284*
1,1,0.01535,0.02185,0.02284*
1,1,0.01535,0.02185,-0.02284*
1,1,0.01535,-0.02185,-0.02284*
%
%ADD18ROUNDEDRECTD18*%
G04:AMPARAMS|DCode=19|XSize=51.18mil|YSize=62.99mil|CornerRadius=6.65mil|HoleSize=0mil|Usage=FLASHONLY|Rotation=180.000|XOffset=0mil|YOffset=0mil|HoleType=Round|Shape=RoundedRectangle|*
%AMROUNDEDRECTD19*
21,1,0.05118,0.04969,0,0,180.0*
21,1,0.03787,0.06299,0,0,180.0*
1,1,0.01331,-0.01894,0.02484*
1,1,0.01331,0.01894,0.02484*
1,1,0.01331,0.01894,-0.02484*
1,1,0.01331,-0.01894,-0.02484*
%
%ADD19ROUNDEDRECTD19*%
G04:AMPARAMS|DCode=20|XSize=15.75mil|YSize=53.15mil|CornerRadius=2.05mil|HoleSize=0mil|Usage=FLASHONLY|Rotation=180.000|XOffset=0mil|YOffset=0mil|HoleType=Round|Shape=RoundedRectangle|*
%AMROUNDEDRECTD20*
21,1,0.01575,0.04906,0,0,180.0*
21,1,0.01165,0.05315,0,0,180.0*
1,1,0.00409,-0.00583,0.02453*
1,1,0.00409,0.00583,0.02453*
1,1,0.00409,0.00583,-0.02453*
1,1,0.00409,-0.00583,-0.02453*
%
%ADD20ROUNDEDRECTD20*%
%ADD38C,0.11811*%
%ADD39R,0.03661X0.03465*%
G04:AMPARAMS|DCode=40|XSize=15.35mil|YSize=38.58mil|CornerRadius=5.12mil|HoleSize=0mil|Usage=FLASHONLY|Rotation=0.000|XOffset=0mil|YOffset=0mil|HoleType=Round|Shape=RoundedRectangle|*
%AMROUNDEDRECTD40*
21,1,0.01535,0.02835,0,0,0.0*
21,1,0.00512,0.03858,0,0,0.0*
1,1,0.01024,0.00256,-0.01417*
1,1,0.01024,-0.00256,-0.01417*
1,1,0.01024,-0.00256,0.01417*
1,1,0.01024,0.00256,0.01417*
%
%ADD40ROUNDEDRECTD40*%
G04:AMPARAMS|DCode=41|XSize=15.35mil|YSize=38.58mil|CornerRadius=5.12mil|HoleSize=0mil|Usage=FLASHONLY|Rotation=270.000|XOffset=0mil|YOffset=0mil|HoleType=Round|Shape=RoundedRectangle|*
%AMROUNDEDRECTD41*
21,1,0.01535,0.02835,0,0,270.0*
21,1,0.00512,0.03858,0,0,270.0*
1,1,0.01024,-0.01417,-0.00256*
1,1,0.01024,-0.01417,0.00256*
1,1,0.01024,0.01417,0.00256*
1,1,0.01024,0.01417,-0.00256*
%
%ADD41ROUNDEDRECTD41*%
%ADD42R,0.10394X0.10394*%
%ADD43C,0.02362*%
%ADD44C,0.05800*%
G04:AMPARAMS|DCode=45|XSize=35.5mil|YSize=39.43mil|CornerRadius=6.1mil|HoleSize=0mil|Usage=FLASHONLY|Rotation=0.000|XOffset=0mil|YOffset=0mil|HoleType=Round|Shape=RoundedRectangle|*
%AMROUNDEDRECTD45*
21,1,0.03550,0.02724,0,0,0.0*
21,1,0.02331,0.03943,0,0,0.0*
1,1,0.01219,0.01165,-0.01362*
1,1,0.01219,-0.01165,-0.01362*
1,1,0.01219,-0.01165,0.01362*
1,1,0.01219,0.01165,0.01362*
%
%ADD45ROUNDEDRECTD45*%
%ADD46R,0.05918X0.03162*%
%ADD47R,0.05524X0.05524*%
%ADD48C,0.02165*%
%ADD49R,0.04934X0.06312*%
%ADD50R,0.02769X0.05131*%
%ADD51R,0.03950X0.03950*%
G04:AMPARAMS|DCode=52|XSize=39.58mil|YSize=67.25mil|CornerRadius=11.89mil|HoleSize=0mil|Usage=FLASHONLY|Rotation=270.000|XOffset=0mil|YOffset=0mil|HoleType=Round|Shape=RoundedRectangle|*
%AMROUNDEDRECTD52*
21,1,0.03958,0.04347,0,0,270.0*
21,1,0.01579,0.06725,0,0,270.0*
1,1,0.02379,-0.02173,-0.00789*
1,1,0.02379,-0.02173,0.00789*
1,1,0.02379,0.02173,0.00789*
1,1,0.02379,0.02173,-0.00789*
%
%ADD52ROUNDEDRECTD52*%
G04:AMPARAMS|DCode=53|XSize=27.69mil|YSize=29.65mil|CornerRadius=8.92mil|HoleSize=0mil|Usage=FLASHONLY|Rotation=270.000|XOffset=0mil|YOffset=0mil|HoleType=Round|Shape=RoundedRectangle|*
%AMROUNDEDRECTD53*
21,1,0.02769,0.01181,0,0,270.0*
21,1,0.00984,0.02965,0,0,270.0*
1,1,0.01784,-0.00591,-0.00492*
1,1,0.01784,-0.00591,0.00492*
1,1,0.01784,0.00591,0.00492*
1,1,0.01784,0.00591,-0.00492*
%
%ADD53ROUNDEDRECTD53*%
G04:AMPARAMS|DCode=54|XSize=27.69mil|YSize=27.69mil|CornerRadius=8.92mil|HoleSize=0mil|Usage=FLASHONLY|Rotation=270.000|XOffset=0mil|YOffset=0mil|HoleType=Round|Shape=RoundedRectangle|*
%AMROUNDEDRECTD54*
21,1,0.02769,0.00984,0,0,270.0*
21,1,0.00984,0.02769,0,0,270.0*
1,1,0.01784,-0.00492,-0.00492*
1,1,0.01784,-0.00492,0.00492*
1,1,0.01784,0.00492,0.00492*
1,1,0.01784,0.00492,-0.00492*
%
%ADD54ROUNDEDRECTD54*%
G04:AMPARAMS|DCode=55|XSize=27.69mil|YSize=27.69mil|CornerRadius=8.92mil|HoleSize=0mil|Usage=FLASHONLY|Rotation=180.000|XOffset=0mil|YOffset=0mil|HoleType=Round|Shape=RoundedRectangle|*
%AMROUNDEDRECTD55*
21,1,0.02769,0.00984,0,0,180.0*
21,1,0.00984,0.02769,0,0,180.0*
1,1,0.01784,-0.00492,0.00492*
1,1,0.01784,0.00492,0.00492*
1,1,0.01784,0.00492,-0.00492*
1,1,0.01784,-0.00492,-0.00492*
%
%ADD55ROUNDEDRECTD55*%
G04:AMPARAMS|DCode=56|XSize=27.69mil|YSize=29.65mil|CornerRadius=8.92mil|HoleSize=0mil|Usage=FLASHONLY|Rotation=180.000|XOffset=0mil|YOffset=0mil|HoleType=Round|Shape=RoundedRectangle|*
%AMROUNDEDRECTD56*
21,1,0.02769,0.01181,0,0,180.0*
21,1,0.00984,0.02965,0,0,180.0*
1,1,0.01784,-0.00492,0.00591*
1,1,0.01784,0.00492,0.00591*
1,1,0.01784,0.00492,-0.00591*
1,1,0.01784,-0.00492,-0.00591*
%
%ADD56ROUNDEDRECTD56*%
%ADD57C,0.04737*%
%ADD58O,0.04540X0.04343*%
G04:AMPARAMS|DCode=59|XSize=43.43mil|YSize=45.4mil|CornerRadius=12.86mil|HoleSize=0mil|Usage=FLASHONLY|Rotation=270.000|XOffset=0mil|YOffset=0mil|HoleType=Round|Shape=RoundedRectangle|*
%AMROUNDEDRECTD59*
21,1,0.04343,0.01968,0,0,270.0*
21,1,0.01772,0.04540,0,0,270.0*
1,1,0.02572,-0.00984,-0.00886*
1,1,0.02572,-0.00984,0.00886*
1,1,0.02572,0.00984,0.00886*
1,1,0.02572,0.00984,-0.00886*
%
%ADD59ROUNDEDRECTD59*%
G04:AMPARAMS|DCode=60|XSize=43.43mil|YSize=45.4mil|CornerRadius=12.86mil|HoleSize=0mil|Usage=FLASHONLY|Rotation=180.000|XOffset=0mil|YOffset=0mil|HoleType=Round|Shape=RoundedRectangle|*
%AMROUNDEDRECTD60*
21,1,0.04343,0.01968,0,0,180.0*
21,1,0.01772,0.04540,0,0,180.0*
1,1,0.02572,-0.00886,0.00984*
1,1,0.02572,0.00886,0.00984*
1,1,0.02572,0.00886,-0.00984*
1,1,0.02572,-0.00886,-0.00984*
%
%ADD60ROUNDEDRECTD60*%
%ADD61O,0.04343X0.04540*%
%ADD62C,0.07087*%
%ADD63C,0.05500*%
%ADD64O,0.04488X0.04291*%
G04:AMPARAMS|DCode=65|XSize=42.91mil|YSize=44.88mil|CornerRadius=12.11mil|HoleSize=0mil|Usage=FLASHONLY|Rotation=90.000|XOffset=0mil|YOffset=0mil|HoleType=Round|Shape=RoundedRectangle|*
%AMROUNDEDRECTD65*
21,1,0.04291,0.02067,0,0,90.0*
21,1,0.01870,0.04488,0,0,90.0*
1,1,0.02421,0.01034,0.00935*
1,1,0.02421,0.01034,-0.00935*
1,1,0.02421,-0.01034,-0.00935*
1,1,0.02421,-0.01034,0.00935*
%
%ADD65ROUNDEDRECTD65*%
%ADD66C,0.06706*%
%ADD67C,0.12611*%
%ADD68O,0.06312X0.11036*%
%ADD69O,0.05079X0.05472*%
G04:AMPARAMS|DCode=70|XSize=50.79mil|YSize=54.72mil|CornerRadius=14.57mil|HoleSize=0mil|Usage=FLASHONLY|Rotation=0.000|XOffset=0mil|YOffset=0mil|HoleType=Round|Shape=RoundedRectangle|*
%AMROUNDEDRECTD70*
21,1,0.05079,0.02559,0,0,0.0*
21,1,0.02165,0.05472,0,0,0.0*
1,1,0.02913,0.01083,-0.01280*
1,1,0.02913,-0.01083,-0.01280*
1,1,0.02913,-0.01083,0.01280*
1,1,0.02913,0.01083,0.01280*
%
%ADD70ROUNDEDRECTD70*%
%ADD71O,0.11036X0.08674*%
%ADD72C,0.02572*%
%ADD73C,0.02520*%
D18*
X148819Y240551D02*
D03*
X140945D02*
D03*
D19*
X156461D02*
D03*
X133302D02*
D03*
D20*
X150000Y229921D02*
D03*
X147441D02*
D03*
X144882D02*
D03*
X142323D02*
D03*
X139764D02*
D03*
D38*
X187008Y105905D02*
D03*
X105905Y211811D02*
D03*
D39*
X165059Y103937D02*
D03*
Y107874D02*
D03*
X170374Y103937D02*
D03*
Y107874D02*
D03*
D40*
X148622Y115787D02*
D03*
X146653D02*
D03*
X144685D02*
D03*
X148622Y99961D02*
D03*
X146653D02*
D03*
X144685D02*
D03*
X140748Y115787D02*
D03*
X142717D02*
D03*
X138779D02*
D03*
X140748Y99961D02*
D03*
X142717D02*
D03*
X138779D02*
D03*
D41*
X151614Y110827D02*
D03*
Y108858D02*
D03*
Y112795D02*
D03*
Y106890D02*
D03*
Y104921D02*
D03*
Y102953D02*
D03*
X135787Y112795D02*
D03*
Y108858D02*
D03*
Y106890D02*
D03*
Y110827D02*
D03*
Y104921D02*
D03*
Y102953D02*
D03*
D42*
X143701Y107874D02*
D03*
D43*
X173228Y196850D02*
D03*
X169291D02*
D03*
X173228Y192913D02*
D03*
X165354D02*
D03*
X169291D02*
D03*
X173228Y188976D02*
D03*
Y185039D02*
D03*
X169291Y188976D02*
D03*
Y185039D02*
D03*
X165354Y196850D02*
D03*
X161417D02*
D03*
X165354Y188976D02*
D03*
X161417Y192913D02*
D03*
X157480Y188976D02*
D03*
X161417D02*
D03*
X165354Y185039D02*
D03*
X157480D02*
D03*
X161417D02*
D03*
X173228Y177165D02*
D03*
Y181102D02*
D03*
Y173228D02*
D03*
X169291Y181102D02*
D03*
Y177165D02*
D03*
Y173228D02*
D03*
X173228Y169291D02*
D03*
X165354D02*
D03*
X169291D02*
D03*
X165354Y181102D02*
D03*
Y177165D02*
D03*
X161417Y181102D02*
D03*
X157480Y177165D02*
D03*
X161417D02*
D03*
X165354Y173228D02*
D03*
X161417D02*
D03*
Y169291D02*
D03*
X157480Y196850D02*
D03*
X153543D02*
D03*
X157480Y192913D02*
D03*
X149606Y196850D02*
D03*
Y192913D02*
D03*
X153543Y185039D02*
D03*
X157480Y181102D02*
D03*
X153543Y192913D02*
D03*
Y188976D02*
D03*
X145669Y196850D02*
D03*
X149606Y188976D02*
D03*
X145669Y192913D02*
D03*
Y188976D02*
D03*
Y185039D02*
D03*
X149606D02*
D03*
X141732Y181102D02*
D03*
X145669D02*
D03*
X153543Y177165D02*
D03*
Y181102D02*
D03*
X157480Y173228D02*
D03*
X149606Y177165D02*
D03*
X153543Y173228D02*
D03*
X157480Y169291D02*
D03*
X153543Y165354D02*
D03*
X149606Y173228D02*
D03*
X153543Y169291D02*
D03*
X149606Y181102D02*
D03*
Y169291D02*
D03*
X145669Y177165D02*
D03*
Y173228D02*
D03*
Y169291D02*
D03*
X141732D02*
D03*
X173228Y161417D02*
D03*
Y165354D02*
D03*
Y157480D02*
D03*
X169291Y165354D02*
D03*
Y161417D02*
D03*
X173228Y153543D02*
D03*
X165354Y165354D02*
D03*
Y161417D02*
D03*
X161417Y165354D02*
D03*
Y161417D02*
D03*
X165354Y157480D02*
D03*
X169291D02*
D03*
X161417D02*
D03*
Y153543D02*
D03*
X173228Y149606D02*
D03*
X169291Y153543D02*
D03*
X173228Y145669D02*
D03*
X169291Y149606D02*
D03*
Y145669D02*
D03*
X173228Y141732D02*
D03*
Y137795D02*
D03*
X169291Y141732D02*
D03*
Y137795D02*
D03*
X165354Y153543D02*
D03*
Y149606D02*
D03*
X161417D02*
D03*
X165354Y145669D02*
D03*
Y141732D02*
D03*
Y137795D02*
D03*
X161417Y141732D02*
D03*
Y137795D02*
D03*
X157480Y161417D02*
D03*
Y165354D02*
D03*
X153543Y161417D02*
D03*
X149606Y165354D02*
D03*
Y161417D02*
D03*
X157480Y157480D02*
D03*
Y153543D02*
D03*
X153543Y157480D02*
D03*
Y153543D02*
D03*
X145669Y165354D02*
D03*
X149606Y157480D02*
D03*
X141732Y161417D02*
D03*
X145669D02*
D03*
Y157480D02*
D03*
X149606Y153543D02*
D03*
X141732Y157480D02*
D03*
X145669Y153543D02*
D03*
X161417Y145669D02*
D03*
X157480Y149606D02*
D03*
Y145669D02*
D03*
X153543Y149606D02*
D03*
Y145669D02*
D03*
X157480Y141732D02*
D03*
Y137795D02*
D03*
X153543Y141732D02*
D03*
Y137795D02*
D03*
X149606Y149606D02*
D03*
Y145669D02*
D03*
X145669Y149606D02*
D03*
Y145669D02*
D03*
X149606Y141732D02*
D03*
Y137795D02*
D03*
X145669Y141732D02*
D03*
Y137795D02*
D03*
X141732Y196850D02*
D03*
X137795D02*
D03*
X141732Y192913D02*
D03*
X133858Y196850D02*
D03*
X137795Y192913D02*
D03*
X141732Y188976D02*
D03*
Y185039D02*
D03*
X137795Y188976D02*
D03*
Y185039D02*
D03*
X129921Y196850D02*
D03*
X133858Y192913D02*
D03*
X129921D02*
D03*
X133858Y188976D02*
D03*
X129921D02*
D03*
Y185039D02*
D03*
X141732Y177165D02*
D03*
X137795Y181102D02*
D03*
Y177165D02*
D03*
X133858Y181102D02*
D03*
Y177165D02*
D03*
X137795Y173228D02*
D03*
X141732D02*
D03*
X137795Y169291D02*
D03*
Y165354D02*
D03*
X133858Y185039D02*
D03*
Y173228D02*
D03*
X129921Y181102D02*
D03*
Y177165D02*
D03*
Y173228D02*
D03*
X133858Y169291D02*
D03*
X129921D02*
D03*
Y165354D02*
D03*
X125984Y192913D02*
D03*
Y196850D02*
D03*
Y188976D02*
D03*
X122047Y196850D02*
D03*
Y192913D02*
D03*
Y188976D02*
D03*
X125984Y185039D02*
D03*
X122047D02*
D03*
Y181102D02*
D03*
X118110Y196850D02*
D03*
Y192913D02*
D03*
X114173Y196850D02*
D03*
Y192913D02*
D03*
X118110Y188976D02*
D03*
Y185039D02*
D03*
X114173Y188976D02*
D03*
Y185039D02*
D03*
X125984Y177165D02*
D03*
Y181102D02*
D03*
Y173228D02*
D03*
X122047Y177165D02*
D03*
Y173228D02*
D03*
X125984Y169291D02*
D03*
Y165354D02*
D03*
X122047Y169291D02*
D03*
Y165354D02*
D03*
X118110Y181102D02*
D03*
Y177165D02*
D03*
X114173Y181102D02*
D03*
Y177165D02*
D03*
X118110Y173228D02*
D03*
Y169291D02*
D03*
X114173Y173228D02*
D03*
Y169291D02*
D03*
X141732Y165354D02*
D03*
X137795Y161417D02*
D03*
Y157480D02*
D03*
X133858Y165354D02*
D03*
Y161417D02*
D03*
X141732Y153543D02*
D03*
X137795Y149606D02*
D03*
X133858Y157480D02*
D03*
X137795Y153543D02*
D03*
X129921Y157480D02*
D03*
Y153543D02*
D03*
X125984Y161417D02*
D03*
X129921D02*
D03*
X133858Y153543D02*
D03*
X125984D02*
D03*
X129921Y149606D02*
D03*
X141732Y145669D02*
D03*
Y149606D02*
D03*
X137795Y145669D02*
D03*
X133858Y149606D02*
D03*
Y145669D02*
D03*
X141732Y141732D02*
D03*
Y137795D02*
D03*
X137795Y141732D02*
D03*
Y137795D02*
D03*
X129921Y145669D02*
D03*
X133858Y141732D02*
D03*
X129921D02*
D03*
Y137795D02*
D03*
X133858D02*
D03*
X122047Y157480D02*
D03*
Y161417D02*
D03*
X125984Y157480D02*
D03*
X118110Y165354D02*
D03*
Y161417D02*
D03*
X122047Y153543D02*
D03*
X125984Y149606D02*
D03*
X118110Y157480D02*
D03*
Y153543D02*
D03*
X114173Y157480D02*
D03*
Y153543D02*
D03*
Y165354D02*
D03*
Y161417D02*
D03*
Y149606D02*
D03*
X125984Y145669D02*
D03*
X122047Y149606D02*
D03*
Y145669D02*
D03*
X118110Y149606D02*
D03*
Y145669D02*
D03*
X125984Y141732D02*
D03*
Y137795D02*
D03*
X122047Y141732D02*
D03*
Y137795D02*
D03*
X114173Y145669D02*
D03*
X118110Y141732D02*
D03*
X114173D02*
D03*
Y137795D02*
D03*
X118110D02*
D03*
D44*
X194095Y120079D02*
D03*
Y131890D02*
D03*
D45*
X245473Y116556D02*
D03*
X239173D02*
D03*
X244882Y142126D02*
D03*
X238583D02*
D03*
D46*
X247441Y126671D02*
D03*
X239173Y130411D02*
D03*
Y122931D02*
D03*
D47*
X230883Y142126D02*
D03*
Y132874D02*
D03*
D48*
X222441Y176772D02*
D03*
Y179921D02*
D03*
Y173622D02*
D03*
X219291Y179921D02*
D03*
Y176772D02*
D03*
X222441Y170472D02*
D03*
Y167323D02*
D03*
X219291Y173622D02*
D03*
Y170472D02*
D03*
X216142Y176772D02*
D03*
Y179921D02*
D03*
Y173622D02*
D03*
X203543D02*
D03*
X216142Y170472D02*
D03*
Y167323D02*
D03*
X219291D02*
D03*
X222441Y161024D02*
D03*
Y157874D02*
D03*
Y154724D02*
D03*
Y164173D02*
D03*
X219291D02*
D03*
Y161024D02*
D03*
X216142Y164173D02*
D03*
Y161024D02*
D03*
X219291Y157874D02*
D03*
Y154724D02*
D03*
X216142Y157874D02*
D03*
Y154724D02*
D03*
X200394Y179921D02*
D03*
X203543D02*
D03*
Y170472D02*
D03*
Y167323D02*
D03*
X200394Y176772D02*
D03*
X203543D02*
D03*
X200394Y173622D02*
D03*
X197244D02*
D03*
X200394Y170472D02*
D03*
X197244Y179921D02*
D03*
Y176772D02*
D03*
X200394Y167323D02*
D03*
Y164173D02*
D03*
X197244Y170472D02*
D03*
Y167323D02*
D03*
X203543Y161024D02*
D03*
Y164173D02*
D03*
Y157874D02*
D03*
X200394D02*
D03*
X203543Y154724D02*
D03*
X197244Y161024D02*
D03*
Y164173D02*
D03*
X200394Y161024D02*
D03*
Y154724D02*
D03*
X197244Y157874D02*
D03*
Y154724D02*
D03*
D49*
X250886Y96457D02*
D03*
Y82284D02*
D03*
X245177Y96457D02*
D03*
Y82284D02*
D03*
D50*
X241339Y89370D02*
D03*
D51*
X245374Y109055D02*
D03*
X238878D02*
D03*
D52*
X217520Y87520D02*
D03*
Y92520D02*
D03*
Y82520D02*
D03*
Y77520D02*
D03*
X196063Y92520D02*
D03*
Y82520D02*
D03*
Y87520D02*
D03*
Y77520D02*
D03*
D53*
X234311Y89370D02*
D03*
X230768D02*
D03*
X169894Y112992D02*
D03*
X166350D02*
D03*
X169894Y98499D02*
D03*
X166350D02*
D03*
X242913Y135433D02*
D03*
X239370D02*
D03*
D54*
X234508Y94095D02*
D03*
X230571D02*
D03*
X196850Y137795D02*
D03*
X192913D02*
D03*
X148425Y123228D02*
D03*
X144488D02*
D03*
X218110Y107480D02*
D03*
X214173D02*
D03*
X218110Y103543D02*
D03*
X214173D02*
D03*
X245276Y103829D02*
D03*
X241339D02*
D03*
X163779Y94095D02*
D03*
X159843D02*
D03*
X200000Y98425D02*
D03*
X196063D02*
D03*
X200000Y71260D02*
D03*
X196063D02*
D03*
D55*
X175602Y107874D02*
D03*
Y103937D02*
D03*
X156693Y102362D02*
D03*
Y98425D02*
D03*
X204724Y134252D02*
D03*
Y130315D02*
D03*
X200787Y134252D02*
D03*
Y130315D02*
D03*
D56*
X156074Y114764D02*
D03*
Y111221D02*
D03*
D57*
X247244Y234252D02*
D03*
X68898Y59055D02*
D03*
D58*
X75984Y204685D02*
D03*
Y209685D02*
D03*
Y199685D02*
D03*
Y219685D02*
D03*
Y214685D02*
D03*
Y184685D02*
D03*
Y179685D02*
D03*
Y194685D02*
D03*
Y189685D02*
D03*
Y164685D02*
D03*
Y159685D02*
D03*
Y174685D02*
D03*
Y169685D02*
D03*
Y154685D02*
D03*
Y149685D02*
D03*
X70984D02*
D03*
X75984Y144685D02*
D03*
Y134685D02*
D03*
Y139685D02*
D03*
Y129685D02*
D03*
Y124685D02*
D03*
Y109685D02*
D03*
Y84685D02*
D03*
Y119685D02*
D03*
Y114685D02*
D03*
Y104685D02*
D03*
Y99685D02*
D03*
X70984Y124685D02*
D03*
Y114685D02*
D03*
X75984Y79685D02*
D03*
Y74685D02*
D03*
Y94685D02*
D03*
Y89685D02*
D03*
X70984Y209685D02*
D03*
Y214685D02*
D03*
Y204685D02*
D03*
Y189685D02*
D03*
Y164685D02*
D03*
Y199685D02*
D03*
Y194685D02*
D03*
Y184685D02*
D03*
Y179685D02*
D03*
Y159685D02*
D03*
Y154685D02*
D03*
Y174685D02*
D03*
Y169685D02*
D03*
Y139685D02*
D03*
Y129685D02*
D03*
Y144685D02*
D03*
Y119685D02*
D03*
Y109685D02*
D03*
Y104685D02*
D03*
Y99685D02*
D03*
Y94685D02*
D03*
Y134685D02*
D03*
Y79685D02*
D03*
Y74685D02*
D03*
Y89685D02*
D03*
Y84685D02*
D03*
X243976Y214685D02*
D03*
Y209685D02*
D03*
Y219685D02*
D03*
Y199685D02*
D03*
Y204685D02*
D03*
Y194685D02*
D03*
Y189685D02*
D03*
X238976Y204685D02*
D03*
X243976Y184685D02*
D03*
X238976D02*
D03*
X243976Y179685D02*
D03*
Y174685D02*
D03*
Y164685D02*
D03*
Y169685D02*
D03*
Y159685D02*
D03*
X238976Y174685D02*
D03*
X243976Y149685D02*
D03*
Y154685D02*
D03*
X238976Y214685D02*
D03*
Y189685D02*
D03*
Y209685D02*
D03*
Y194685D02*
D03*
Y199685D02*
D03*
Y179685D02*
D03*
Y169685D02*
D03*
Y164685D02*
D03*
Y159685D02*
D03*
Y149685D02*
D03*
Y154685D02*
D03*
D59*
X70984Y219685D02*
D03*
X238976D02*
D03*
D60*
X120984Y236221D02*
D03*
X248228Y64055D02*
D03*
X238976Y236221D02*
D03*
D61*
X115984D02*
D03*
X105984D02*
D03*
X100984D02*
D03*
X110984D02*
D03*
X120984Y231221D02*
D03*
X115984D02*
D03*
X110984D02*
D03*
X100984D02*
D03*
X95984D02*
D03*
X105984D02*
D03*
X95984Y236221D02*
D03*
X90984D02*
D03*
X85984D02*
D03*
X80984D02*
D03*
X75984D02*
D03*
X85984Y231221D02*
D03*
X90984D02*
D03*
X75984D02*
D03*
X80984D02*
D03*
X243228Y64055D02*
D03*
X238228D02*
D03*
X218228D02*
D03*
X223228D02*
D03*
X213228D02*
D03*
X233228D02*
D03*
X228228D02*
D03*
X248228Y59055D02*
D03*
X243228D02*
D03*
X238228D02*
D03*
X233228D02*
D03*
X218228D02*
D03*
X213228D02*
D03*
X228228D02*
D03*
X223228D02*
D03*
X203228Y64055D02*
D03*
X208228D02*
D03*
X198228Y59055D02*
D03*
Y64055D02*
D03*
X183228D02*
D03*
X178228D02*
D03*
X193228D02*
D03*
X188228D02*
D03*
X193228Y59055D02*
D03*
X208228D02*
D03*
X203228D02*
D03*
X178228D02*
D03*
X188228D02*
D03*
X183228D02*
D03*
X233976Y236221D02*
D03*
X228976D02*
D03*
X208976D02*
D03*
X213976D02*
D03*
X203976D02*
D03*
X223976D02*
D03*
X218976D02*
D03*
X238976Y231221D02*
D03*
X233976D02*
D03*
X228976D02*
D03*
X223976D02*
D03*
X208976D02*
D03*
X203976D02*
D03*
X218976D02*
D03*
X213976D02*
D03*
X193976Y236221D02*
D03*
X198976D02*
D03*
X188976Y231221D02*
D03*
Y236221D02*
D03*
X173976D02*
D03*
X168976D02*
D03*
X183976D02*
D03*
X178976D02*
D03*
X183976Y231221D02*
D03*
X198976D02*
D03*
X193976D02*
D03*
X168976D02*
D03*
X178976D02*
D03*
X173976D02*
D03*
D62*
X158661Y240551D02*
D03*
X131102D02*
D03*
D63*
X154724Y229921D02*
D03*
X135039D02*
D03*
D64*
X219291Y132441D02*
D03*
Y127441D02*
D03*
Y122441D02*
D03*
Y117441D02*
D03*
X214291Y132441D02*
D03*
Y117441D02*
D03*
Y127441D02*
D03*
Y122441D02*
D03*
Y112441D02*
D03*
D65*
X219291D02*
D03*
D66*
X148228Y87441D02*
D03*
Y79567D02*
D03*
X138386D02*
D03*
Y87441D02*
D03*
D67*
X167008Y68898D02*
D03*
X119606D02*
D03*
D68*
X106299Y69685D02*
D03*
X85039D02*
D03*
D69*
X103937Y79921D02*
D03*
X98425D02*
D03*
X92913D02*
D03*
D70*
X87402D02*
D03*
D71*
X95669Y57874D02*
D03*
D72*
X149606Y153543D02*
D03*
X165354Y177165D02*
D03*
X125984D02*
D03*
X205511Y157480D02*
D03*
X137795Y141732D02*
D03*
X173228Y157480D02*
D03*
X161417Y169291D02*
D03*
X157480Y173228D02*
D03*
X157480Y177165D02*
D03*
X122047Y149606D02*
D03*
X165354Y185039D02*
D03*
X125984Y181102D02*
D03*
X118110Y185039D02*
D03*
X125984Y145669D02*
D03*
X118110Y149606D02*
D03*
X157480Y153543D02*
D03*
X149606Y141732D02*
D03*
X161417Y157480D02*
D03*
X165354D02*
D03*
X149606Y157480D02*
D03*
X153543Y185039D02*
D03*
X161417Y188976D02*
D03*
X165354Y192913D02*
D03*
X169291D02*
D03*
X165354Y188976D02*
D03*
X173228Y192913D02*
D03*
X165354Y181102D02*
D03*
X169291Y185039D02*
D03*
X169291Y188976D02*
D03*
X137795Y177165D02*
D03*
X141732Y177165D02*
D03*
X145669Y185039D02*
D03*
Y181102D02*
D03*
X149606D02*
D03*
X149606Y177165D02*
D03*
X153543Y181102D02*
D03*
X165354Y196850D02*
D03*
X114173D02*
D03*
X173228Y145669D02*
D03*
X173228Y181102D02*
D03*
X161417D02*
D03*
X153543Y177165D02*
D03*
X169291Y196850D02*
D03*
X161417Y192913D02*
D03*
X173228Y149606D02*
D03*
X161417Y141732D02*
D03*
X145669Y149606D02*
D03*
X118110Y173228D02*
D03*
Y177165D02*
D03*
Y181102D02*
D03*
X157480Y185039D02*
D03*
X161417D02*
D03*
X157480Y181102D02*
D03*
X133858Y177165D02*
D03*
X145669Y196850D02*
D03*
X141732D02*
D03*
X129921Y192913D02*
D03*
X137795D02*
D03*
X133858Y196850D02*
D03*
X137795D02*
D03*
X129921Y161417D02*
D03*
X141732Y153543D02*
D03*
X118110Y141732D02*
D03*
X157480Y192913D02*
D03*
X145669D02*
D03*
X137795Y137795D02*
D03*
X169291Y177165D02*
D03*
X125984Y169291D02*
D03*
X141732Y149606D02*
D03*
D73*
X145866Y110039D02*
D03*
Y105709D02*
D03*
X141535Y110039D02*
D03*
Y105709D02*
D03*
M02*
