G04*
G04 #@! TF.GenerationSoftware,Altium Limited,Altium Designer,19.1.6 (110)*
G04*
G04 Layer_Physical_Order=1*
G04 Layer_Color=255*
%FSLAX25Y25*%
%MOIN*%
G70*
G01*
G75*
%ADD11C,0.00500*%
%ADD12C,0.02362*%
%ADD13C,0.01000*%
%ADD16R,0.01968X0.01968*%
G04:AMPARAMS|DCode=18|XSize=59.06mil|YSize=61.02mil|CornerRadius=7.68mil|HoleSize=0mil|Usage=FLASHONLY|Rotation=180.000|XOffset=0mil|YOffset=0mil|HoleType=Round|Shape=RoundedRectangle|*
%AMROUNDEDRECTD18*
21,1,0.05906,0.04567,0,0,180.0*
21,1,0.04370,0.06102,0,0,180.0*
1,1,0.01535,-0.02185,0.02284*
1,1,0.01535,0.02185,0.02284*
1,1,0.01535,0.02185,-0.02284*
1,1,0.01535,-0.02185,-0.02284*
%
%ADD18ROUNDEDRECTD18*%
G04:AMPARAMS|DCode=19|XSize=51.18mil|YSize=62.99mil|CornerRadius=6.65mil|HoleSize=0mil|Usage=FLASHONLY|Rotation=180.000|XOffset=0mil|YOffset=0mil|HoleType=Round|Shape=RoundedRectangle|*
%AMROUNDEDRECTD19*
21,1,0.05118,0.04969,0,0,180.0*
21,1,0.03787,0.06299,0,0,180.0*
1,1,0.01331,-0.01894,0.02484*
1,1,0.01331,0.01894,0.02484*
1,1,0.01331,0.01894,-0.02484*
1,1,0.01331,-0.01894,-0.02484*
%
%ADD19ROUNDEDRECTD19*%
G04:AMPARAMS|DCode=20|XSize=15.75mil|YSize=53.15mil|CornerRadius=2.05mil|HoleSize=0mil|Usage=FLASHONLY|Rotation=180.000|XOffset=0mil|YOffset=0mil|HoleType=Round|Shape=RoundedRectangle|*
%AMROUNDEDRECTD20*
21,1,0.01575,0.04906,0,0,180.0*
21,1,0.01165,0.05315,0,0,180.0*
1,1,0.00409,-0.00583,0.02453*
1,1,0.00409,0.00583,0.02453*
1,1,0.00409,0.00583,-0.02453*
1,1,0.00409,-0.00583,-0.02453*
%
%ADD20ROUNDEDRECTD20*%
%ADD21R,0.02953X0.02756*%
G04:AMPARAMS|DCode=22|XSize=10.24mil|YSize=33.47mil|CornerRadius=2.56mil|HoleSize=0mil|Usage=FLASHONLY|Rotation=0.000|XOffset=0mil|YOffset=0mil|HoleType=Round|Shape=RoundedRectangle|*
%AMROUNDEDRECTD22*
21,1,0.01024,0.02835,0,0,0.0*
21,1,0.00512,0.03347,0,0,0.0*
1,1,0.00512,0.00256,-0.01417*
1,1,0.00512,-0.00256,-0.01417*
1,1,0.00512,-0.00256,0.01417*
1,1,0.00512,0.00256,0.01417*
%
%ADD22ROUNDEDRECTD22*%
G04:AMPARAMS|DCode=23|XSize=10.24mil|YSize=33.47mil|CornerRadius=2.56mil|HoleSize=0mil|Usage=FLASHONLY|Rotation=270.000|XOffset=0mil|YOffset=0mil|HoleType=Round|Shape=RoundedRectangle|*
%AMROUNDEDRECTD23*
21,1,0.01024,0.02835,0,0,270.0*
21,1,0.00512,0.03347,0,0,270.0*
1,1,0.00512,-0.01417,-0.00256*
1,1,0.00512,-0.01417,0.00256*
1,1,0.00512,0.01417,0.00256*
1,1,0.00512,0.01417,-0.00256*
%
%ADD23ROUNDEDRECTD23*%
%ADD24C,0.01772*%
%ADD25C,0.05000*%
G04:AMPARAMS|DCode=26|XSize=31.5mil|YSize=35.43mil|CornerRadius=4.1mil|HoleSize=0mil|Usage=FLASHONLY|Rotation=0.000|XOffset=0mil|YOffset=0mil|HoleType=Round|Shape=RoundedRectangle|*
%AMROUNDEDRECTD26*
21,1,0.03150,0.02724,0,0,0.0*
21,1,0.02331,0.03543,0,0,0.0*
1,1,0.00819,0.01165,-0.01362*
1,1,0.00819,-0.01165,-0.01362*
1,1,0.00819,-0.01165,0.01362*
1,1,0.00819,0.01165,0.01362*
%
%ADD26ROUNDEDRECTD26*%
%ADD27R,0.05118X0.02362*%
%ADD29C,0.01575*%
%ADD30R,0.04134X0.05512*%
%ADD31R,0.01968X0.04331*%
%ADD32R,0.03150X0.03150*%
G04:AMPARAMS|DCode=33|XSize=31.58mil|YSize=59.25mil|CornerRadius=7.89mil|HoleSize=0mil|Usage=FLASHONLY|Rotation=270.000|XOffset=0mil|YOffset=0mil|HoleType=Round|Shape=RoundedRectangle|*
%AMROUNDEDRECTD33*
21,1,0.03158,0.04347,0,0,270.0*
21,1,0.01579,0.05925,0,0,270.0*
1,1,0.01579,-0.02173,-0.00789*
1,1,0.01579,-0.02173,0.00789*
1,1,0.01579,0.02173,0.00789*
1,1,0.01579,0.02173,-0.00789*
%
%ADD33ROUNDEDRECTD33*%
G04:AMPARAMS|DCode=34|XSize=19.68mil|YSize=21.65mil|CornerRadius=4.92mil|HoleSize=0mil|Usage=FLASHONLY|Rotation=270.000|XOffset=0mil|YOffset=0mil|HoleType=Round|Shape=RoundedRectangle|*
%AMROUNDEDRECTD34*
21,1,0.01968,0.01181,0,0,270.0*
21,1,0.00984,0.02165,0,0,270.0*
1,1,0.00984,-0.00591,-0.00492*
1,1,0.00984,-0.00591,0.00492*
1,1,0.00984,0.00591,0.00492*
1,1,0.00984,0.00591,-0.00492*
%
%ADD34ROUNDEDRECTD34*%
%ADD35R,0.01968X0.01968*%
G04:AMPARAMS|DCode=36|XSize=19.68mil|YSize=21.65mil|CornerRadius=4.92mil|HoleSize=0mil|Usage=FLASHONLY|Rotation=180.000|XOffset=0mil|YOffset=0mil|HoleType=Round|Shape=RoundedRectangle|*
%AMROUNDEDRECTD36*
21,1,0.01968,0.01181,0,0,180.0*
21,1,0.00984,0.02165,0,0,180.0*
1,1,0.00984,-0.00492,0.00591*
1,1,0.00984,0.00492,0.00591*
1,1,0.00984,0.00492,-0.00591*
1,1,0.00984,-0.00492,-0.00591*
%
%ADD36ROUNDEDRECTD36*%
%ADD59C,0.07087*%
%ADD60C,0.05500*%
%ADD71C,0.00433*%
%ADD72C,0.00598*%
%ADD73R,0.09843X0.09843*%
%ADD74R,0.04724X0.04724*%
%ADD75C,0.00700*%
%ADD76C,0.01968*%
%ADD77C,0.00600*%
%ADD78C,0.01772*%
%ADD79C,0.00591*%
%ADD80C,0.03150*%
%ADD81C,0.01575*%
%ADD82C,0.01181*%
%ADD83C,0.02165*%
%ADD84C,0.03937*%
%ADD85O,0.03740X0.03543*%
G04:AMPARAMS|DCode=86|XSize=35.43mil|YSize=37.4mil|CornerRadius=8.86mil|HoleSize=0mil|Usage=FLASHONLY|Rotation=270.000|XOffset=0mil|YOffset=0mil|HoleType=Round|Shape=RoundedRectangle|*
%AMROUNDEDRECTD86*
21,1,0.03543,0.01968,0,0,270.0*
21,1,0.01772,0.03740,0,0,270.0*
1,1,0.01772,-0.00984,-0.00886*
1,1,0.01772,-0.00984,0.00886*
1,1,0.01772,0.00984,0.00886*
1,1,0.01772,0.00984,-0.00886*
%
%ADD86ROUNDEDRECTD86*%
G04:AMPARAMS|DCode=87|XSize=35.43mil|YSize=37.4mil|CornerRadius=8.86mil|HoleSize=0mil|Usage=FLASHONLY|Rotation=180.000|XOffset=0mil|YOffset=0mil|HoleType=Round|Shape=RoundedRectangle|*
%AMROUNDEDRECTD87*
21,1,0.03543,0.01968,0,0,180.0*
21,1,0.01772,0.03740,0,0,180.0*
1,1,0.01772,-0.00886,0.00984*
1,1,0.01772,0.00886,0.00984*
1,1,0.01772,0.00886,-0.00984*
1,1,0.01772,-0.00886,-0.00984*
%
%ADD87ROUNDEDRECTD87*%
%ADD88O,0.03543X0.03740*%
%ADD89O,0.03937X0.03740*%
G04:AMPARAMS|DCode=90|XSize=37.4mil|YSize=39.37mil|CornerRadius=9.35mil|HoleSize=0mil|Usage=FLASHONLY|Rotation=90.000|XOffset=0mil|YOffset=0mil|HoleType=Round|Shape=RoundedRectangle|*
%AMROUNDEDRECTD90*
21,1,0.03740,0.02067,0,0,90.0*
21,1,0.01870,0.03937,0,0,90.0*
1,1,0.01870,0.01034,0.00935*
1,1,0.01870,0.01034,-0.00935*
1,1,0.01870,-0.01034,-0.00935*
1,1,0.01870,-0.01034,0.00935*
%
%ADD90ROUNDEDRECTD90*%
%ADD91C,0.05906*%
%ADD92C,0.11811*%
%ADD93O,0.05512X0.10236*%
%ADD94O,0.04331X0.04724*%
G04:AMPARAMS|DCode=95|XSize=43.31mil|YSize=47.24mil|CornerRadius=10.83mil|HoleSize=0mil|Usage=FLASHONLY|Rotation=0.000|XOffset=0mil|YOffset=0mil|HoleType=Round|Shape=RoundedRectangle|*
%AMROUNDEDRECTD95*
21,1,0.04331,0.02559,0,0,0.0*
21,1,0.02165,0.04724,0,0,0.0*
1,1,0.02165,0.01083,-0.01280*
1,1,0.02165,-0.01083,-0.01280*
1,1,0.02165,-0.01083,0.01280*
1,1,0.02165,0.01083,0.01280*
%
%ADD95ROUNDEDRECTD95*%
%ADD96O,0.10236X0.07874*%
%ADD97C,0.01968*%
G36*
X242520Y126772D02*
X242520Y112992D01*
X242520D01*
X241732Y112205D01*
X225984Y112205D01*
X225197Y112992D01*
Y126772D01*
X225984Y127559D01*
X241732Y127559D01*
X242520Y126772D01*
D02*
G37*
D11*
X147451Y225721D02*
Y230326D01*
X144882Y225590D02*
Y229921D01*
X135189Y139613D02*
X135433Y139370D01*
X135189Y139613D02*
Y140401D01*
X133858Y141732D02*
X135189Y140401D01*
X147441Y230335D02*
X147451Y230326D01*
X147348Y224514D02*
Y225619D01*
X147451Y225721D01*
X147244Y224410D02*
X147348Y224514D01*
D12*
X115620Y88976D02*
X131762Y72835D01*
X87402Y84252D02*
X92126Y88976D01*
X87402Y79921D02*
Y84252D01*
X92126Y88976D02*
X115620D01*
X165197Y82520D02*
X196063D01*
X155512Y72835D02*
X165197Y82520D01*
X148228Y87441D02*
X195984D01*
X131762Y72835D02*
X155512D01*
D13*
X211417Y103543D02*
X214173D01*
Y107480D02*
Y112323D01*
X204724Y130315D02*
X207874D01*
X210748Y127441D01*
X214291D01*
D16*
X175602Y107874D02*
D03*
Y103937D02*
D03*
X156693Y102362D02*
D03*
Y98425D02*
D03*
X204724Y134252D02*
D03*
Y130315D02*
D03*
X200787Y134252D02*
D03*
Y130315D02*
D03*
X147638Y103937D02*
D03*
D18*
X148819Y240551D02*
D03*
X140945D02*
D03*
D19*
X156461D02*
D03*
X133302D02*
D03*
D20*
X150000Y229921D02*
D03*
X147441D02*
D03*
X144882D02*
D03*
X142323D02*
D03*
X139764D02*
D03*
D21*
X170374Y107874D02*
D03*
Y103937D02*
D03*
X165059Y107874D02*
D03*
Y103937D02*
D03*
D22*
X148622Y115787D02*
D03*
X146653D02*
D03*
X144685D02*
D03*
X148622Y99961D02*
D03*
X146653D02*
D03*
X144685D02*
D03*
X140748Y115787D02*
D03*
X142717D02*
D03*
X138779D02*
D03*
X140748Y99961D02*
D03*
X142717D02*
D03*
X138779D02*
D03*
D23*
X151614Y110827D02*
D03*
Y108858D02*
D03*
Y112795D02*
D03*
Y106890D02*
D03*
Y104921D02*
D03*
Y102953D02*
D03*
X135787Y112795D02*
D03*
Y108858D02*
D03*
Y106890D02*
D03*
Y110827D02*
D03*
Y104921D02*
D03*
Y102953D02*
D03*
D24*
X173228Y196850D02*
D03*
X169291D02*
D03*
X173228Y192913D02*
D03*
X165354D02*
D03*
X169291D02*
D03*
X173228Y188976D02*
D03*
Y185039D02*
D03*
X169291Y188976D02*
D03*
Y185039D02*
D03*
X165354Y196850D02*
D03*
X161417D02*
D03*
Y192913D02*
D03*
X157480Y196850D02*
D03*
Y192913D02*
D03*
X165354Y188976D02*
D03*
Y185039D02*
D03*
X161417Y188976D02*
D03*
Y185039D02*
D03*
X173228Y177165D02*
D03*
Y181102D02*
D03*
Y173228D02*
D03*
X169291Y181102D02*
D03*
Y177165D02*
D03*
X173228Y169291D02*
D03*
Y165354D02*
D03*
X169291Y173228D02*
D03*
Y169291D02*
D03*
X165354Y181102D02*
D03*
Y177165D02*
D03*
X161417Y181102D02*
D03*
Y177165D02*
D03*
X165354Y173228D02*
D03*
Y169291D02*
D03*
X161417Y173228D02*
D03*
Y169291D02*
D03*
X153543Y192913D02*
D03*
Y196850D02*
D03*
X157480Y188976D02*
D03*
X149606Y192913D02*
D03*
X153543Y188976D02*
D03*
X157480Y185039D02*
D03*
X153543Y181102D02*
D03*
X149606Y188976D02*
D03*
X153543Y185039D02*
D03*
X145669Y196850D02*
D03*
X149606D02*
D03*
X145669Y192913D02*
D03*
Y188976D02*
D03*
Y185039D02*
D03*
X149606D02*
D03*
X141732Y181102D02*
D03*
X145669D02*
D03*
X157480Y177165D02*
D03*
Y181102D02*
D03*
X153543Y177165D02*
D03*
X149606Y181102D02*
D03*
Y177165D02*
D03*
X157480Y173228D02*
D03*
Y169291D02*
D03*
X153543Y173228D02*
D03*
Y169291D02*
D03*
X145669Y177165D02*
D03*
X149606Y173228D02*
D03*
X141732Y177165D02*
D03*
X145669Y173228D02*
D03*
Y169291D02*
D03*
X149606D02*
D03*
X173228Y161417D02*
D03*
X169291Y165354D02*
D03*
X173228Y157480D02*
D03*
X169291Y161417D02*
D03*
Y157480D02*
D03*
X173228Y153543D02*
D03*
X165354Y165354D02*
D03*
Y161417D02*
D03*
X161417Y165354D02*
D03*
Y161417D02*
D03*
X165354Y157480D02*
D03*
X169291Y153543D02*
D03*
X161417Y157480D02*
D03*
Y153543D02*
D03*
X173228Y145669D02*
D03*
Y149606D02*
D03*
Y141732D02*
D03*
X169291Y149606D02*
D03*
Y145669D02*
D03*
Y141732D02*
D03*
X173228Y137795D02*
D03*
X165354D02*
D03*
X169291D02*
D03*
X165354Y153543D02*
D03*
Y149606D02*
D03*
X161417D02*
D03*
Y145669D02*
D03*
X165354D02*
D03*
Y141732D02*
D03*
X161417D02*
D03*
Y137795D02*
D03*
X157480Y165354D02*
D03*
X153543D02*
D03*
X157480Y161417D02*
D03*
X149606D02*
D03*
X153543D02*
D03*
X157480Y157480D02*
D03*
Y153543D02*
D03*
X153543Y157480D02*
D03*
Y153543D02*
D03*
X145669Y165354D02*
D03*
X149606D02*
D03*
X141732Y161417D02*
D03*
X145669D02*
D03*
X149606Y157480D02*
D03*
Y153543D02*
D03*
X145669Y157480D02*
D03*
Y153543D02*
D03*
X157480Y149606D02*
D03*
X153543D02*
D03*
X157480Y145669D02*
D03*
X149606D02*
D03*
X153543D02*
D03*
X157480Y141732D02*
D03*
Y137795D02*
D03*
X153543Y141732D02*
D03*
Y137795D02*
D03*
X145669Y149606D02*
D03*
X149606D02*
D03*
X141732Y153543D02*
D03*
X145669Y145669D02*
D03*
X149606Y141732D02*
D03*
Y137795D02*
D03*
X145669Y141732D02*
D03*
Y137795D02*
D03*
X141732Y196850D02*
D03*
X137795D02*
D03*
X141732Y192913D02*
D03*
X133858Y196850D02*
D03*
X137795Y192913D02*
D03*
X141732Y188976D02*
D03*
Y185039D02*
D03*
X137795Y188976D02*
D03*
Y185039D02*
D03*
X129921Y196850D02*
D03*
X133858Y192913D02*
D03*
Y188976D02*
D03*
Y185039D02*
D03*
X129921Y192913D02*
D03*
Y188976D02*
D03*
X137795Y177165D02*
D03*
Y181102D02*
D03*
X141732Y173228D02*
D03*
X133858Y177165D02*
D03*
X137795Y173228D02*
D03*
X141732Y169291D02*
D03*
Y165354D02*
D03*
X137795Y169291D02*
D03*
Y165354D02*
D03*
X133858Y181102D02*
D03*
Y173228D02*
D03*
X129921Y185039D02*
D03*
Y173228D02*
D03*
X133858Y169291D02*
D03*
Y165354D02*
D03*
X129921Y169291D02*
D03*
Y165354D02*
D03*
X125984Y192913D02*
D03*
Y196850D02*
D03*
Y188976D02*
D03*
X122047Y196850D02*
D03*
Y192913D02*
D03*
Y188976D02*
D03*
X125984Y185039D02*
D03*
X122047D02*
D03*
Y181102D02*
D03*
X118110Y196850D02*
D03*
Y192913D02*
D03*
X114173Y196850D02*
D03*
Y192913D02*
D03*
X118110Y188976D02*
D03*
Y185039D02*
D03*
X114173Y188976D02*
D03*
Y185039D02*
D03*
X129921Y181102D02*
D03*
X125984D02*
D03*
X129921Y177165D02*
D03*
X122047D02*
D03*
X125984D02*
D03*
Y173228D02*
D03*
Y169291D02*
D03*
X122047Y173228D02*
D03*
Y169291D02*
D03*
X118110Y181102D02*
D03*
Y177165D02*
D03*
X114173Y181102D02*
D03*
Y177165D02*
D03*
X118110Y173228D02*
D03*
Y169291D02*
D03*
X114173Y173228D02*
D03*
Y169291D02*
D03*
X141732Y157480D02*
D03*
X137795Y161417D02*
D03*
Y157480D02*
D03*
X133858Y161417D02*
D03*
Y157480D02*
D03*
X137795Y153543D02*
D03*
Y149606D02*
D03*
X133858Y153543D02*
D03*
Y149606D02*
D03*
X129921Y161417D02*
D03*
Y157480D02*
D03*
X125984Y165354D02*
D03*
Y161417D02*
D03*
X129921Y153543D02*
D03*
X125984Y157480D02*
D03*
Y153543D02*
D03*
X141732Y145669D02*
D03*
Y149606D02*
D03*
Y141732D02*
D03*
X133858Y145669D02*
D03*
X137795D02*
D03*
Y141732D02*
D03*
X141732Y137795D02*
D03*
X133858Y141732D02*
D03*
X137795Y137795D02*
D03*
X129921Y141732D02*
D03*
X133858Y137795D02*
D03*
X129921Y149606D02*
D03*
Y145669D02*
D03*
Y137795D02*
D03*
X122047Y161417D02*
D03*
Y165354D02*
D03*
Y157480D02*
D03*
X118110Y165354D02*
D03*
Y161417D02*
D03*
X122047Y153543D02*
D03*
X125984Y149606D02*
D03*
X118110Y153543D02*
D03*
Y149606D02*
D03*
X114173Y157480D02*
D03*
X118110D02*
D03*
X114173Y165354D02*
D03*
Y161417D02*
D03*
Y153543D02*
D03*
X125984Y145669D02*
D03*
X122047Y149606D02*
D03*
X125984Y141732D02*
D03*
X118110Y145669D02*
D03*
X122047D02*
D03*
Y141732D02*
D03*
X125984Y137795D02*
D03*
X118110D02*
D03*
X122047D02*
D03*
X114173Y141732D02*
D03*
X118110D02*
D03*
X114173Y149606D02*
D03*
Y145669D02*
D03*
Y137795D02*
D03*
X202362Y137402D02*
D03*
X115354Y183071D02*
D03*
X127559Y175197D02*
D03*
X123851Y167094D02*
D03*
X147638Y167323D02*
D03*
X135433Y171653D02*
D03*
X135827Y159055D02*
D03*
X155511D02*
D03*
X147637Y162598D02*
D03*
X151968Y162992D02*
D03*
X151181Y166929D02*
D03*
X123986Y187431D02*
D03*
X127953Y187402D02*
D03*
X131890Y183071D02*
D03*
X131890Y171653D02*
D03*
X162899Y163386D02*
D03*
X155905Y167717D02*
D03*
X143307Y162992D02*
D03*
X139763Y170472D02*
D03*
X144094Y170866D02*
D03*
X131496Y166929D02*
D03*
X127513Y162946D02*
D03*
X123383Y159595D02*
D03*
X124016Y163760D02*
D03*
X149606Y153149D02*
D03*
X148031Y155118D02*
D03*
X139370D02*
D03*
X147638Y159449D02*
D03*
X139764D02*
D03*
X131933Y163429D02*
D03*
X131890Y159449D02*
D03*
X135827Y175197D02*
D03*
X87008Y138976D02*
D03*
X202362Y71260D02*
D03*
X203543Y98425D02*
D03*
X222835Y82520D02*
D03*
Y77520D02*
D03*
X165748Y116142D02*
D03*
X166535Y118898D02*
D03*
X166142Y122047D02*
D03*
X168110Y125590D02*
D03*
X170673Y122835D02*
D03*
X170078Y129921D02*
D03*
X173622Y133071D02*
D03*
X166535Y129921D02*
D03*
X164567Y128347D02*
D03*
X162205Y125872D02*
D03*
X162598Y130708D02*
D03*
X166929Y132283D02*
D03*
X150787Y127953D02*
D03*
X153150Y128347D02*
D03*
X147637Y126771D02*
D03*
X211417Y103543D02*
D03*
X154004Y132311D02*
D03*
X200787Y127559D02*
D03*
X135815Y93701D02*
D03*
X144882D02*
D03*
Y97244D02*
D03*
X136221Y97638D02*
D03*
X131933Y100787D02*
D03*
X173622Y120079D02*
D03*
X179921Y137795D02*
D03*
X180709Y141732D02*
D03*
X176771Y145275D02*
D03*
X135827Y143307D02*
D03*
X147637Y135039D02*
D03*
X156074Y117436D02*
D03*
X163779Y112992D02*
D03*
X161823Y107874D02*
D03*
X221260Y103543D02*
D03*
Y107480D02*
D03*
X66142Y174016D02*
D03*
X233071Y126378D02*
D03*
X226772D02*
D03*
X251575Y126671D02*
D03*
X228209Y94095D02*
D03*
Y89370D02*
D03*
X194882Y154724D02*
D03*
X183071Y175197D02*
D03*
Y170472D02*
D03*
X181889Y180315D02*
D03*
X205906Y177953D02*
D03*
X201181Y184252D02*
D03*
X134252Y119685D02*
D03*
X137008Y118898D02*
D03*
X135433Y122441D02*
D03*
X152756Y97244D02*
D03*
X238780Y103829D02*
D03*
X96850Y154330D02*
D03*
X88189Y141732D02*
D03*
X134252Y134252D02*
D03*
X127165Y123622D02*
D03*
X103937Y150394D02*
D03*
X100393Y148819D02*
D03*
X104331Y140945D02*
D03*
X141732Y123228D02*
D03*
X238780Y89370D02*
D03*
X250984Y76772D02*
D03*
X250787Y101969D02*
D03*
X207874Y172834D02*
D03*
X212598Y171260D02*
D03*
X210630Y166929D02*
D03*
X213844Y176048D02*
D03*
X214173Y167716D02*
D03*
X214173Y164173D02*
D03*
X213593Y158039D02*
D03*
X213385Y154677D02*
D03*
X212205Y150000D02*
D03*
X143701Y198819D02*
D03*
X214173Y160630D02*
D03*
X201968Y162598D02*
D03*
X201927Y169110D02*
D03*
X205511Y164567D02*
D03*
X149606Y199213D02*
D03*
X163779Y134645D02*
D03*
X165354Y177165D02*
D03*
X125984D02*
D03*
X205512Y161024D02*
D03*
X205511Y157480D02*
D03*
X205905Y167323D02*
D03*
X205511Y169685D02*
D03*
X209055Y176378D02*
D03*
X87795Y185433D02*
D03*
X82677Y187955D02*
D03*
X203543Y184252D02*
D03*
X198819D02*
D03*
X194882Y183858D02*
D03*
X171260Y159449D02*
D03*
X163386Y167323D02*
D03*
X167323D02*
D03*
X192520Y177559D02*
D03*
X194488Y180709D02*
D03*
X167323Y163386D02*
D03*
X191339Y166535D02*
D03*
X179921Y177952D02*
D03*
X194881Y175590D02*
D03*
X195840Y159449D02*
D03*
X197638Y152362D02*
D03*
X182677Y185433D02*
D03*
X201969Y178347D02*
D03*
X135433Y139370D02*
D03*
X137795Y141732D02*
D03*
X105118Y183465D02*
D03*
X101969D02*
D03*
X99606Y185433D02*
D03*
X97244Y187402D02*
D03*
X94882Y185433D02*
D03*
X92913Y187402D02*
D03*
X90551Y185433D02*
D03*
X85039D02*
D03*
X84332Y202185D02*
D03*
X81496Y197244D02*
D03*
X103149Y120079D02*
D03*
X155512Y183071D02*
D03*
X94095Y172441D02*
D03*
Y164567D02*
D03*
X102362Y138189D02*
D03*
X98523Y137106D02*
D03*
X103150Y129134D02*
D03*
X105905Y126771D02*
D03*
X106299Y130315D02*
D03*
X105905Y122047D02*
D03*
X103140Y125197D02*
D03*
X111294Y139764D02*
D03*
X101854Y151941D02*
D03*
X100000Y153543D02*
D03*
X94882Y140945D02*
D03*
X103150Y117717D02*
D03*
Y114567D02*
D03*
X151575Y147638D02*
D03*
X124409Y148031D02*
D03*
X170091Y95755D02*
D03*
X159449Y159449D02*
D03*
X176378Y151181D02*
D03*
X173228Y157480D02*
D03*
X159449Y163386D02*
D03*
Y167323D02*
D03*
X161417Y169291D02*
D03*
X159449Y171260D02*
D03*
X157480Y173228D02*
D03*
X159449Y175197D02*
D03*
X157480Y177165D02*
D03*
X177559Y192913D02*
D03*
X85039Y160630D02*
D03*
X81890Y157874D02*
D03*
X93701Y159449D02*
D03*
X87795Y152362D02*
D03*
X97638Y142519D02*
D03*
X155118Y155905D02*
D03*
X155511Y151181D02*
D03*
X122047Y149606D02*
D03*
X146850Y130315D02*
D03*
X144095D02*
D03*
X154724Y122441D02*
D03*
X95275Y146456D02*
D03*
X87008Y146850D02*
D03*
X85827Y150787D02*
D03*
X85433Y155118D02*
D03*
X96850Y162598D02*
D03*
X83858Y152362D02*
D03*
X107086Y166535D02*
D03*
X139764Y224410D02*
D03*
X114173Y200394D02*
D03*
X167323Y151575D02*
D03*
X155512Y175197D02*
D03*
X165354Y185039D02*
D03*
X124016Y175591D02*
D03*
X79134Y157480D02*
D03*
X130709Y111417D02*
D03*
X133071Y109055D02*
D03*
X139370Y121260D02*
D03*
X123622Y120472D02*
D03*
X110236Y113386D02*
D03*
X123600Y98053D02*
D03*
X126378Y105118D02*
D03*
X224409Y180709D02*
D03*
X144882Y225590D02*
D03*
X147244Y224410D02*
D03*
X137795Y202362D02*
D03*
X124016Y179134D02*
D03*
X125984Y181102D02*
D03*
X118110Y185039D02*
D03*
X124016Y198819D02*
D03*
X125984Y145669D02*
D03*
X118110Y149606D02*
D03*
X131890Y155512D02*
D03*
X116535Y123687D02*
D03*
X148622Y118504D02*
D03*
X152362Y119291D02*
D03*
X150799Y123228D02*
D03*
X131890Y179134D02*
D03*
X141339Y236221D02*
D03*
X148819D02*
D03*
X139764Y234252D02*
D03*
X131890Y221654D02*
D03*
X217717Y142126D02*
D03*
X220472Y141732D02*
D03*
X157480Y153543D02*
D03*
X159449Y155512D02*
D03*
Y151575D02*
D03*
X149606Y141732D02*
D03*
X161417Y157480D02*
D03*
X165354D02*
D03*
X151575Y159449D02*
D03*
X149606Y157480D02*
D03*
X250000Y116556D02*
D03*
X245669Y135433D02*
D03*
X153543Y185039D02*
D03*
X161417Y188976D02*
D03*
X165354Y192913D02*
D03*
X169291D02*
D03*
X165354Y188976D02*
D03*
X173228Y192913D02*
D03*
X165354Y181102D02*
D03*
X169291Y185039D02*
D03*
X175590Y188582D02*
D03*
X169291Y188976D02*
D03*
X137795Y177165D02*
D03*
X139764Y187008D02*
D03*
X141732Y177165D02*
D03*
X145669Y185039D02*
D03*
Y181102D02*
D03*
X149606D02*
D03*
X149606Y177165D02*
D03*
X153543Y181102D02*
D03*
X138583Y206299D02*
D03*
X165354Y196850D02*
D03*
X114173D02*
D03*
X173228Y145669D02*
D03*
X163386Y151575D02*
D03*
X173228Y181102D02*
D03*
X161417D02*
D03*
X153543Y177165D02*
D03*
X169291Y196850D02*
D03*
X161417Y192913D02*
D03*
X173228Y149606D02*
D03*
X161417Y141732D02*
D03*
X203543Y152756D02*
D03*
X130709Y105512D02*
D03*
X118504Y109449D02*
D03*
X127953Y147638D02*
D03*
X145669Y149606D02*
D03*
X135827Y147638D02*
D03*
X143701Y143701D02*
D03*
X118110Y173228D02*
D03*
Y177165D02*
D03*
Y181102D02*
D03*
X127953Y143701D02*
D03*
X153949Y100394D02*
D03*
X142717Y118504D02*
D03*
X147638Y179134D02*
D03*
X220866Y175197D02*
D03*
X217736Y181357D02*
D03*
X157480Y185039D02*
D03*
X161417D02*
D03*
X157480Y181102D02*
D03*
X156693Y96051D02*
D03*
X214566Y181102D02*
D03*
X139764Y175197D02*
D03*
X133858Y177165D02*
D03*
X145669Y196850D02*
D03*
X141732D02*
D03*
X129921Y192913D02*
D03*
X137795D02*
D03*
X133858Y196850D02*
D03*
X137795D02*
D03*
X129921Y161417D02*
D03*
X141732Y153543D02*
D03*
X118110Y141732D02*
D03*
X157480Y192913D02*
D03*
X145669D02*
D03*
X137795Y137795D02*
D03*
X147638Y147638D02*
D03*
X224803Y177952D02*
D03*
X220866Y172047D02*
D03*
X217677Y175237D02*
D03*
X169291Y177165D02*
D03*
X125984Y169291D02*
D03*
X141732Y149606D02*
D03*
X143701Y159449D02*
D03*
X222441Y152756D02*
D03*
X135827Y155512D02*
D03*
X139764Y163386D02*
D03*
Y167323D02*
D03*
X143701D02*
D03*
Y175197D02*
D03*
X147638Y171260D02*
D03*
Y175197D02*
D03*
X155512Y171260D02*
D03*
D25*
X194095Y120079D02*
D03*
Y131890D02*
D03*
D26*
X245473Y116556D02*
D03*
X239173D02*
D03*
X244882Y142126D02*
D03*
X238583D02*
D03*
D27*
X247441Y126671D02*
D03*
X239173Y130411D02*
D03*
Y122931D02*
D03*
D29*
X222441Y176772D02*
D03*
Y179921D02*
D03*
Y173622D02*
D03*
X219291Y179921D02*
D03*
Y176772D02*
D03*
X222441Y170472D02*
D03*
Y167323D02*
D03*
X219291Y173622D02*
D03*
Y167323D02*
D03*
X216142Y176772D02*
D03*
Y179921D02*
D03*
Y170472D02*
D03*
X203543Y173622D02*
D03*
X216142D02*
D03*
X219291Y170472D02*
D03*
X216142Y167323D02*
D03*
X222441Y161024D02*
D03*
Y157874D02*
D03*
Y154724D02*
D03*
Y164173D02*
D03*
X219291D02*
D03*
Y161024D02*
D03*
X216142Y164173D02*
D03*
Y161024D02*
D03*
X219291Y157874D02*
D03*
Y154724D02*
D03*
X216142Y157874D02*
D03*
Y154724D02*
D03*
X200394Y179921D02*
D03*
X203543D02*
D03*
Y170472D02*
D03*
Y167323D02*
D03*
X200394Y176772D02*
D03*
X203543D02*
D03*
X200394Y173622D02*
D03*
X197244D02*
D03*
X200394Y170472D02*
D03*
X197244Y179921D02*
D03*
Y176772D02*
D03*
X200394Y167323D02*
D03*
Y164173D02*
D03*
X197244Y170472D02*
D03*
Y167323D02*
D03*
X203543Y161024D02*
D03*
Y164173D02*
D03*
Y157874D02*
D03*
X200394D02*
D03*
X203543Y154724D02*
D03*
X197244Y161024D02*
D03*
Y164173D02*
D03*
X200394Y161024D02*
D03*
Y154724D02*
D03*
X197244Y157874D02*
D03*
Y154724D02*
D03*
D30*
X250886Y96457D02*
D03*
Y82284D02*
D03*
X245177Y96457D02*
D03*
Y82284D02*
D03*
D31*
X241339Y89370D02*
D03*
D32*
X245374Y109055D02*
D03*
X238878D02*
D03*
D33*
X217520Y87520D02*
D03*
Y92520D02*
D03*
Y82520D02*
D03*
Y77520D02*
D03*
X196063Y92520D02*
D03*
Y82520D02*
D03*
Y87520D02*
D03*
Y77520D02*
D03*
D34*
X234311Y89370D02*
D03*
X230768D02*
D03*
X169894Y112992D02*
D03*
X166350D02*
D03*
X169894Y98499D02*
D03*
X166350D02*
D03*
X242913Y135433D02*
D03*
X239370D02*
D03*
D35*
X234508Y94095D02*
D03*
X230571D02*
D03*
X196850Y137795D02*
D03*
X192913D02*
D03*
X148425Y123228D02*
D03*
X144488D02*
D03*
X218110Y107480D02*
D03*
X214173D02*
D03*
X218110Y103543D02*
D03*
X214173D02*
D03*
X245276Y103829D02*
D03*
X241339D02*
D03*
X163779Y94095D02*
D03*
X159843D02*
D03*
X200000Y98425D02*
D03*
X196063D02*
D03*
X200000Y71260D02*
D03*
X196063D02*
D03*
D36*
X156074Y114764D02*
D03*
Y111221D02*
D03*
D59*
X158661Y240551D02*
D03*
X131102D02*
D03*
D60*
X154724Y229921D02*
D03*
X135039D02*
D03*
D71*
X175907Y161417D02*
G03*
X175709Y161219I0J-198D01*
G01*
X175510Y160381D02*
G03*
X175709Y160580I0J198D01*
G01*
X174716D02*
G03*
X174915Y160381I198J0D01*
G01*
X174716Y161219D02*
G03*
X174518Y161417I-198J0D01*
G01*
X127953Y171260D02*
Y173489D01*
X127559Y173883D02*
Y174834D01*
Y173883D02*
X127953Y173489D01*
Y171260D02*
X129921Y169291D01*
X124803Y157480D02*
X125984D01*
X123268Y155945D02*
X124803Y157480D01*
X121053Y155945D02*
X123268D01*
X124989D02*
X128386D01*
X124123Y155079D02*
X124989Y155945D01*
X121411Y155079D02*
X124123D01*
X128386Y155945D02*
X129921Y157480D01*
X86051Y139933D02*
X87008Y138976D01*
X162205Y125872D02*
Y128250D01*
X160996Y129459D02*
Y132352D01*
X161212Y132568D01*
X160996Y129459D02*
X162205Y128250D01*
X152756Y124112D02*
X154752Y126108D01*
X152402Y131361D02*
X154752Y129010D01*
Y126108D02*
Y129010D01*
X152402Y131361D02*
Y132975D01*
X167323Y135951D02*
Y137998D01*
X161212Y132568D02*
Y137590D01*
X152402Y132975D02*
Y136653D01*
X152402Y132975D02*
X152402Y132975D01*
X164784Y139547D02*
X165774D01*
X167323Y137998D01*
X177650Y143740D02*
X179580Y145669D01*
X174617Y143740D02*
X177650D01*
X174842Y147205D02*
X176771Y145275D01*
X161212Y137590D02*
X161417Y137795D01*
X153543Y145669D02*
X155945Y143268D01*
Y136083D02*
Y143268D01*
X152756Y122047D02*
Y124112D01*
X148031Y120866D02*
X151575D01*
X146653Y119488D02*
X148031Y120866D01*
X146653Y115000D02*
Y119488D01*
X151575Y120866D02*
X152756Y122047D01*
X152402Y136653D02*
X153543Y137795D01*
X178181Y147287D02*
X179560D01*
X177398Y148071D02*
X178181Y147287D01*
X166398Y145925D02*
X168543Y148071D01*
X165610Y145925D02*
X166398D01*
X165354Y145669D02*
X165610Y145925D01*
X168543Y148071D02*
X177398D01*
X172008Y147205D02*
X174842D01*
X170473Y145669D02*
X172008Y147205D01*
X169291Y145669D02*
X170473D01*
X179580Y145669D02*
X180200D01*
X179258Y144122D02*
X180167D01*
X178009Y142874D02*
X179258Y144122D01*
X178009Y142874D02*
X178009D01*
X166142Y147638D02*
X168110Y149606D01*
X164567Y147638D02*
X166142D01*
X163565Y146636D02*
X164567Y147638D01*
X168110Y149606D02*
X169291D01*
X174223Y144134D02*
X174617Y143740D01*
X164528Y144134D02*
X174223D01*
X163565Y145096D02*
X164528Y144134D01*
X163565Y145096D02*
Y146636D01*
X174258Y142874D02*
X178009D01*
X161417Y145669D02*
X163819Y143268D01*
X173864D02*
X174258Y142874D01*
X163819Y143268D02*
X173864D01*
X163386Y140945D02*
Y142476D01*
X162161Y143701D02*
X163386Y142476D01*
X161214Y143701D02*
X162161D01*
X176705Y162953D02*
X177020Y162637D01*
X170827Y162953D02*
X176705D01*
X176728Y169291D02*
X177165Y168854D01*
X176436Y171042D02*
X177165Y170313D01*
X177020Y162637D02*
X177165D01*
X173228Y169291D02*
X176728D01*
X171478Y171042D02*
X176436D01*
X176772Y161417D02*
X177165D01*
X176701D02*
X176772D01*
X175907D02*
X176701D01*
X175709Y160580D02*
Y161219D01*
X174915Y160381D02*
X175510D01*
X174716Y160580D02*
Y161219D01*
X173724Y161417D02*
X174518D01*
X173228D02*
X173724D01*
X171693Y166890D02*
X177165D01*
X170827Y163819D02*
X177165D01*
X173228Y153543D02*
X177165D01*
X169291Y173228D02*
X171478Y171042D01*
X169291Y169291D02*
X171693Y166890D01*
X169291Y165354D02*
X170827Y163819D01*
X131457Y133858D02*
Y148071D01*
X135433Y122441D02*
X140197Y127205D01*
X96850Y154330D02*
X98032Y155512D01*
X88189Y141732D02*
X91311Y144854D01*
X95991D01*
X107087Y149606D02*
X114173D01*
X104842Y147362D02*
X107087Y149606D01*
X102524Y147362D02*
X104842D01*
X107047Y151142D02*
X115709D01*
X104134Y148228D02*
X107047Y151142D01*
X102165Y148228D02*
X104134D01*
X101153Y147216D02*
X102165Y148228D01*
X101512Y146350D02*
X102524Y147362D01*
X101921Y152008D02*
X115000D01*
X100000Y153543D02*
X114173D01*
X98032Y155512D02*
X109016D01*
X110630Y162953D02*
X119711D01*
X103583D02*
X110630D01*
Y163819D02*
X116575D01*
X105079D02*
X110630D01*
X113537Y166890D02*
X119711D01*
X113183Y166535D02*
X113537Y166890D01*
X107086Y166535D02*
X113183D01*
X106932Y168138D02*
X112611D01*
X102088Y172981D02*
X106932Y168138D01*
X107687Y169291D02*
X110630D01*
X114173D01*
X110630Y170827D02*
X123537D01*
X108546D02*
X110630D01*
Y171693D02*
X120512D01*
X109016D02*
X110630D01*
X112014Y159882D02*
X116575D01*
X105749Y160236D02*
X111660D01*
X112014Y159882D01*
X97441Y147216D02*
X101153D01*
X95382Y146350D02*
X101512D01*
X102883Y146496D02*
X105945D01*
X101871Y145484D02*
X102883Y146496D01*
X96621Y145484D02*
X101871D01*
X103242Y145630D02*
X106653D01*
X102229Y144618D02*
X103242Y145630D01*
X96980Y144618D02*
X102229D01*
X120079Y153150D02*
Y153746D01*
X118504Y151575D02*
X120079Y153150D01*
X117907Y151575D02*
X118504D01*
X115748Y149416D02*
X117907Y151575D01*
X115748Y148425D02*
Y149416D01*
X115394Y148071D02*
X115748Y148425D01*
X163386Y140945D02*
X164784Y139547D01*
X139331Y135000D02*
Y146305D01*
X133565Y129235D02*
X139331Y135000D01*
X133565Y128447D02*
Y129235D01*
X140197Y127205D02*
Y138431D01*
X141732Y139967D01*
X137795Y147841D02*
X139331Y146305D01*
X141732Y139967D02*
Y141732D01*
X137795Y147841D02*
Y149606D01*
X160906Y202384D02*
X213578D01*
X161682Y201518D02*
X216085D01*
X163370Y200532D02*
X218642D01*
X164496Y199417D02*
X221913D01*
X213578Y202384D02*
X216535Y205341D01*
X216085Y201518D02*
X218976Y204409D01*
X218642Y200532D02*
X221476Y203366D01*
X221913Y199417D02*
X222167Y199671D01*
X152008Y198397D02*
X158917Y205306D01*
X151142Y198756D02*
X158558Y206172D01*
X148071Y199849D02*
X155260Y207038D01*
X148612Y201614D02*
X154901Y207904D01*
X137447Y211368D02*
X189370D01*
X191732Y210502D02*
X193976Y212747D01*
X137806Y210502D02*
X191732D01*
X138165Y209636D02*
X194095D01*
X196457Y208770D02*
X198976Y211290D01*
X138524Y208770D02*
X196457D01*
X199636Y207904D02*
X201476Y209744D01*
X154901Y207904D02*
X199636D01*
X201605Y207038D02*
X203976Y209409D01*
X155260Y207038D02*
X201605D01*
X158558Y206172D02*
X203941D01*
X158917Y205306D02*
X206093D01*
X159449Y199285D02*
X161682Y201518D01*
X157480Y198959D02*
X160906Y202384D01*
X189370Y211368D02*
X191476Y213475D01*
X194095Y209636D02*
X196555Y212097D01*
X203941Y206172D02*
X206476Y208707D01*
X206093Y205306D02*
X208976Y208189D01*
X161417Y198579D02*
X163370Y200532D01*
X163386Y198307D02*
X164496Y199417D01*
X222167Y199726D02*
X223976Y201535D01*
X222167Y199671D02*
Y199726D01*
X181890Y214134D02*
X183976Y216220D01*
X179527Y214134D02*
X181890D01*
X179527Y214134D02*
X179527Y214134D01*
X136302Y214134D02*
X179527D01*
X176378Y216033D02*
X178976Y218632D01*
X135515Y216033D02*
X176378D01*
X174655Y216899D02*
X176476Y218721D01*
X135156Y216899D02*
X174655D01*
X168405Y218798D02*
X171476Y221870D01*
X134664Y218798D02*
X168405D01*
X134664Y218798D02*
X134664Y218798D01*
X201476Y209744D02*
Y233720D01*
X163386Y191732D02*
Y198307D01*
X157480Y196850D02*
Y198959D01*
X159449Y195669D02*
Y199285D01*
X161417Y196850D02*
Y198579D01*
X216535Y205341D02*
Y233858D01*
X158661Y194882D02*
X159449Y195669D01*
X157277Y194882D02*
X158661D01*
X155512Y193116D02*
X157277Y194882D01*
X155512Y190945D02*
Y193116D01*
X153543Y188976D02*
X155512Y190945D01*
X157480Y188976D02*
X159533Y191029D01*
X162682D02*
X163386Y191732D01*
X159533Y191029D02*
X162682D01*
X151142Y190512D02*
Y198756D01*
X152008Y187441D02*
Y198397D01*
X148071Y194449D02*
Y199849D01*
X148612Y201614D02*
X148612D01*
X147205Y200207D02*
X148612Y201614D01*
X147205Y190512D02*
Y200207D01*
X218976Y204409D02*
Y231221D01*
X221476Y203366D02*
Y233720D01*
X107441Y146417D02*
X112750D01*
X106653Y145630D02*
X107441Y146417D01*
X105945Y146496D02*
X107520Y148071D01*
X115394D01*
X116575Y163819D02*
X118110Y165354D01*
X119711Y162953D02*
X120112Y163354D01*
X104392Y164506D02*
X105079Y163819D01*
X102908Y163627D02*
X103583Y162953D01*
X116142Y153746D02*
X117474Y155079D01*
X116142Y153150D02*
Y153746D01*
X115000Y152008D02*
X116142Y153150D01*
X97128Y156693D02*
X109060D01*
X109808Y155945D01*
X110085Y144134D02*
X114809D01*
X221476Y233720D02*
X223976Y236221D01*
X179886Y213268D02*
X184646D01*
X179886Y213268D02*
X179886Y213268D01*
X136661Y213268D02*
X179886D01*
X184646Y213268D02*
X186476Y215098D01*
Y233720D01*
X183976Y236221D02*
X186476Y233720D01*
X191476Y213475D02*
Y233720D01*
X188976Y236221D02*
X191476Y233720D01*
X196555Y212097D02*
Y233642D01*
X193976Y236221D02*
X196555Y233642D01*
X198976Y236221D02*
X201476Y233720D01*
X206476Y208707D02*
Y233720D01*
X203976Y236221D02*
X206476Y233720D01*
X214173Y236221D02*
X216535Y233858D01*
X213976Y236221D02*
X214173D01*
X223976Y201535D02*
Y231221D01*
X176476Y218721D02*
Y233720D01*
X173976Y236221D02*
X176476Y233720D01*
X171476Y221870D02*
Y233720D01*
X168976Y236221D02*
X171476Y233720D01*
X92126Y148819D02*
X95838D01*
X86051Y142744D02*
X92126Y148819D01*
X86051Y139933D02*
Y142744D01*
X124043Y179161D02*
X127926D01*
X124016Y179134D02*
X124043Y179161D01*
X127926D02*
X129921Y177165D01*
X169291Y157480D02*
X171260Y159449D01*
X169291Y157480D02*
X169291D01*
X103973Y173005D02*
X107687Y169291D01*
X102362Y138189D02*
X107548D01*
X112627Y143268D01*
X115315D01*
X117261Y145213D01*
X117292D01*
X117748Y145669D01*
X118110D01*
X114809Y144134D02*
X116142Y145466D01*
X112750Y146417D02*
X113537Y147205D01*
X101854Y151941D02*
X101921Y152008D01*
X100000Y153543D02*
X100000Y153543D01*
X94882Y140945D02*
Y142519D01*
X132323Y205019D02*
X136928Y209624D01*
X131457Y205378D02*
X136569Y210491D01*
X137646Y207892D02*
X138524Y208770D01*
X137646Y207892D02*
X137646D01*
X136193Y206439D02*
X137646Y207892D01*
X136193Y198543D02*
Y206439D01*
X137287Y208758D02*
X138165Y209636D01*
X137287Y208758D02*
X137287D01*
X135327Y206798D02*
X137287Y208758D01*
X136928Y209624D02*
X137806Y210502D01*
X136928Y209624D02*
X136928D01*
X136569Y210491D02*
X137447Y211368D01*
X136569Y210491D02*
X136569D01*
X135327Y197553D02*
Y206798D01*
X132323Y194449D02*
Y205019D01*
X131457Y191378D02*
Y205378D01*
X135783Y212390D02*
X136661Y213268D01*
X135783Y212390D02*
X135783D01*
X128386Y204993D02*
X135783Y212390D01*
X128386Y192087D02*
Y204993D01*
X135424Y213256D02*
X136302Y214134D01*
X135424Y213256D02*
X135424D01*
X127520Y205352D02*
X135424Y213256D01*
X127520Y191378D02*
Y205352D01*
X119646Y195856D02*
Y201389D01*
X134279Y216021D01*
X120512Y201030D02*
X125035Y205553D01*
X135515Y216033D02*
X135515Y216033D01*
X135515Y216033D02*
X135515D01*
X134637Y215155D02*
X135515Y216033D01*
X134637Y215155D02*
X134637D01*
X125035Y205553D02*
X134637Y215155D01*
X125035Y205553D02*
Y205553D01*
X135156Y216899D02*
X135156Y216899D01*
X135156Y216899D02*
X135156D01*
X134279Y216021D02*
X135156Y216899D01*
X134279Y216021D02*
X134279D01*
X135394Y186575D02*
Y197486D01*
X133858Y185039D02*
X135394Y186575D01*
X135327Y197553D02*
X135394Y197486D01*
X136193Y198543D02*
X136260Y198476D01*
Y190512D02*
Y198476D01*
Y190512D02*
X137795Y188976D01*
X116619Y148071D02*
X118746D01*
X115752Y147205D02*
X116619Y148071D01*
X119646Y148970D02*
Y150601D01*
X120945Y151900D01*
Y152441D01*
X116142Y145872D02*
X117474Y147205D01*
X116142Y145466D02*
Y145872D01*
X124409Y148031D02*
X124409D01*
X122047Y145669D02*
X124409Y148031D01*
X122047Y145669D02*
X122047D01*
X121844Y151575D02*
X124016D01*
X120512Y150242D02*
X121844Y151575D01*
X120512Y148612D02*
Y150242D01*
X119105Y147205D02*
X120512Y148612D01*
X117474Y147205D02*
X119105D01*
X118746Y148071D02*
X119646Y148970D01*
X120945Y152441D02*
X122047Y153543D01*
X110268Y175165D02*
X120112D01*
X110039Y175394D02*
X110268Y175165D01*
X112611Y168138D02*
X112992Y167756D01*
X95991Y144854D02*
X96621Y145484D01*
X94882Y142519D02*
X96980Y144618D01*
X95838Y148819D02*
X97441Y147216D01*
X95275Y146456D02*
X95382Y146350D01*
X109449Y155079D02*
X115709D01*
X117854Y157224D02*
X118110Y157480D01*
X115350Y155945D02*
X116629Y157224D01*
X117854D01*
X109808Y155945D02*
X115350D01*
X109016Y155512D02*
X109449Y155079D01*
X114173Y153543D02*
X114173Y153543D01*
X109055Y159016D02*
X119711D01*
X112992Y167756D02*
X116575D01*
X108268Y172441D02*
X109016Y171693D01*
X139764Y224410D02*
X141339D01*
X142323Y225394D01*
Y229921D01*
X115709Y195315D02*
X118110Y192913D01*
X123583Y195315D02*
X125984Y192913D01*
X117474Y195315D02*
X118192D01*
X120512Y192995D01*
X121966D01*
X122047Y192913D01*
X114173Y200394D02*
X115709Y198858D01*
Y195315D02*
Y198858D01*
X116575Y196214D02*
X117474Y195315D01*
X119646Y195856D02*
X121053Y194449D01*
X120512Y196214D02*
Y201030D01*
Y196214D02*
X121411Y195315D01*
X123583D01*
X116575Y196214D02*
Y201004D01*
X117161Y201589D01*
X140197Y196214D02*
Y204684D01*
Y196214D02*
X140197Y196214D01*
Y194449D02*
Y196214D01*
X137795Y202362D02*
X139331Y200827D01*
Y196214D02*
Y200827D01*
X139331Y196214D02*
X139331Y196214D01*
X139331Y191378D02*
Y196214D01*
Y191378D02*
X141732Y188976D01*
X140197Y194449D02*
X141732Y192913D01*
X208976Y208189D02*
Y231221D01*
X203976Y209409D02*
Y231221D01*
X198976Y211290D02*
Y231221D01*
X193976Y212747D02*
Y231221D01*
X183976Y216220D02*
Y231221D01*
X178976Y218632D02*
Y231221D01*
X115709Y155079D02*
X116575Y155945D01*
Y159882D02*
X118110Y161417D01*
X121053Y194449D02*
X122874D01*
X123583Y191378D02*
Y193740D01*
Y191378D02*
X125984Y188976D01*
X122874Y194449D02*
X123583Y193740D01*
X113537Y147205D02*
X115752D01*
X123537Y170827D02*
X125939Y173228D01*
X120512Y171693D02*
X122047Y173228D01*
X115709Y151142D02*
X118110Y153543D01*
X124016Y151575D02*
X125984Y153543D01*
X131890Y155512D02*
X131890D01*
X129921Y153543D02*
X131890Y155512D01*
X125939Y173228D02*
X125984D01*
X116575Y167756D02*
X118110Y169291D01*
X120112Y159417D02*
X122047Y161417D01*
X119711Y159016D02*
X120112Y159417D01*
Y175165D02*
X122047Y177165D01*
X138583Y206299D02*
X140197Y204684D01*
X120079Y153746D02*
X121411Y155079D01*
X155079Y136614D02*
Y140197D01*
X153543Y141732D02*
X155079Y140197D01*
X154311Y135846D02*
X155079Y136614D01*
X153543Y141732D02*
Y141732D01*
X134370Y218798D02*
X134664D01*
X133492Y217920D02*
X134370Y218798D01*
X117161Y201589D02*
X133492Y217920D01*
X117161Y201589D02*
Y201589D01*
X133492Y217920D02*
X133492D01*
X131457Y191378D02*
X133858Y188976D01*
X138583Y206299D02*
Y206299D01*
X149606Y188976D02*
X151142Y190512D01*
X149606Y185039D02*
X152008Y187441D01*
X127520Y191378D02*
X129921Y188976D01*
X131890Y187008D02*
Y189179D01*
X129921Y185039D02*
X131890Y187008D01*
X130124Y190945D02*
X131890Y189179D01*
X129528Y190945D02*
X130124D01*
X128386Y192087D02*
X129528Y190945D01*
X132323Y194449D02*
X133858Y192913D01*
X148071Y194449D02*
X149606Y192913D01*
X159449Y145466D02*
X161214Y143701D01*
X132323Y136181D02*
Y148071D01*
X132534Y135039D02*
Y135970D01*
X132323Y136181D02*
X132534Y135970D01*
X129921Y149606D02*
X131457Y148071D01*
X132323D02*
X133858Y149606D01*
X169291Y161417D02*
X170827Y162953D01*
X145669Y188976D02*
X147205Y190512D01*
X159449Y145466D02*
Y147638D01*
X129921Y149606D02*
Y149606D01*
X159449Y147638D02*
X161417Y149606D01*
X169291Y181102D02*
X169291D01*
X116575Y155945D02*
X118937D01*
X117474Y155079D02*
X120186D01*
X121053Y155945D01*
X118937Y155945D02*
X120473Y157480D01*
X122047D01*
X120112Y163354D02*
X122047Y165354D01*
X119711Y166890D02*
X120112Y167291D01*
X122047Y169291D01*
X133858Y149606D02*
Y149606D01*
D72*
X185680Y162296D02*
G03*
X185680Y161958I169J-169D01*
G01*
X185793Y162410D02*
G03*
X185793Y162748I-169J169D01*
G01*
X185285Y163256D02*
G03*
X184947Y163256I-169J-169D01*
G01*
X184495Y163143D02*
G03*
X184834Y163143I169J169D01*
G01*
X184380Y160557D02*
G03*
X184380Y160895I-169J169D01*
G01*
X184493Y160670D02*
G03*
X184493Y160331I169J-169D01*
G01*
X185001Y159823D02*
G03*
X185340Y159823I169J169D01*
G01*
X185904Y160049D02*
G03*
X185565Y160049I-169J-169D01*
G01*
X186412Y159203D02*
G03*
X186412Y159541I-169J169D01*
G01*
Y159203D02*
G03*
X186412Y158864I169J-169D01*
G01*
X187906Y151335D02*
G03*
X187666Y151575I-239J0D01*
G01*
X187906Y151318D02*
G03*
X188145Y151078I239J0D01*
G01*
X188863D02*
G03*
X189102Y151318I0J239D01*
G01*
X189342Y152636D02*
G03*
X189102Y152397I0J-239D01*
G01*
X190299D02*
G03*
X190060Y152636I-239J0D01*
G01*
X190299Y151318D02*
G03*
X190539Y151078I239J0D01*
G01*
X191257D02*
G03*
X191496Y151318I0J239D01*
G01*
X191735Y152637D02*
G03*
X191496Y152397I0J-239D01*
G01*
X192693D02*
G03*
X192454Y152637I-239J0D01*
G01*
X192693Y151318D02*
G03*
X192932Y151078I239J0D01*
G01*
X193650D02*
G03*
X193890Y151318I0J239D01*
G01*
X194129Y151575D02*
G03*
X193890Y151335I0J-239D01*
G01*
X183089Y154368D02*
G03*
X183089Y154706I-169J169D01*
G01*
X182812Y154091D02*
G03*
X182812Y153752I169J-169D01*
G01*
X183320Y153244D02*
G03*
X183658Y153244I169J169D01*
G01*
X186028Y155275D02*
G03*
X185689Y155275I-169J-169D01*
G01*
X186535Y154429D02*
G03*
X186535Y154767I-169J169D01*
G01*
X185120Y153014D02*
G03*
X185120Y152675I169J-169D01*
G01*
X217736Y181476D02*
X219271Y179941D01*
X218898Y140157D02*
X220472Y141732D01*
X189370Y140157D02*
X218898D01*
X184646Y135433D02*
X189370Y140157D01*
X115354Y183071D02*
X120079D01*
X130709Y132755D02*
X131457Y133503D01*
X130709Y123622D02*
Y132755D01*
X128697Y121610D02*
X130709Y123622D01*
X142717Y118307D02*
X142913Y118504D01*
X181495Y180315D02*
X181889Y180709D01*
X84646Y137008D02*
X86614Y135039D01*
X81102Y136104D02*
X85356Y131850D01*
X79921Y135827D02*
X84929Y130819D01*
X81102Y136104D02*
Y147244D01*
X85356Y131850D02*
X102024D01*
X79921Y135827D02*
Y143701D01*
X84929Y130819D02*
X103903D01*
X86614Y135039D02*
X102297D01*
X171610Y151224D02*
X176378D01*
X159449Y126245D02*
X163646Y122047D01*
X159449Y126245D02*
Y138583D01*
X163646Y122047D02*
X166142D01*
X157480Y128297D02*
Y137795D01*
X164567Y118898D02*
X166535D01*
X157480Y128297D02*
X157480Y128297D01*
X157480Y125984D02*
Y128297D01*
Y125984D02*
X164567Y118898D01*
X155945Y125945D02*
X165748Y116142D01*
X164567Y128347D02*
Y132446D01*
X162598Y130708D02*
Y133538D01*
X164567Y132446D02*
X167323Y135202D01*
X157615Y140416D02*
X159449Y138583D01*
X151453Y128890D02*
Y137047D01*
X150787Y128224D02*
X151453Y128890D01*
X150787Y127953D02*
Y128224D01*
X148734Y128283D02*
X149606Y129155D01*
X148734Y128185D02*
Y128283D01*
X147637Y127089D02*
X148734Y128185D01*
X147637Y126771D02*
Y127089D01*
X149606Y129155D02*
Y137795D01*
X151453Y137047D02*
X151575Y137169D01*
X167323Y135202D02*
Y135951D01*
X155945Y125945D02*
Y136083D01*
X154004Y132311D02*
Y135539D01*
X162161Y133975D02*
X162598Y133538D01*
X162161Y133975D02*
Y135743D01*
X172638Y135433D02*
X184646D01*
X171260Y136811D02*
X172638Y135433D01*
X179921Y137795D02*
X179921Y137795D01*
X172047Y139764D02*
X183155D01*
X180709Y141732D02*
X180709Y141732D01*
X173228Y141732D02*
X180709D01*
X173229Y137795D02*
X179921D01*
X173228Y137795D02*
X173229Y137795D01*
X162161Y135743D02*
X163035Y136618D01*
X147637Y135039D02*
Y143701D01*
X145669Y145669D02*
X147637Y143701D01*
X151575Y137169D02*
Y143701D01*
X157615Y140416D02*
Y141597D01*
X159287Y110468D02*
Y117829D01*
X157677Y108858D02*
X159287Y110468D01*
X196615Y168842D02*
X197874D01*
X196560Y168787D02*
X196615Y168842D01*
X178691Y168787D02*
X196560D01*
X197874Y168842D02*
X198874Y167842D01*
X186540Y167717D02*
X189690Y164567D01*
X178303Y167717D02*
X186540D01*
X177165Y168854D02*
X178303Y167717D01*
X192166Y172007D02*
X196747D01*
X187291Y176882D02*
X192166Y172007D01*
X181606Y176882D02*
X187291D01*
X179560Y147287D02*
X214589D01*
X170303Y141508D02*
X172047Y139764D01*
X183155D02*
X185517Y142126D01*
X216102Y176811D02*
X217677Y175237D01*
X195631Y156358D02*
X196611D01*
X195497Y156492D02*
X195631Y156358D01*
X185363Y156492D02*
X195497D01*
X185517Y142126D02*
X217717D01*
X169291Y153543D02*
X171610Y151224D01*
X185039Y150000D02*
X198819D01*
X181496Y153543D02*
X185039Y150000D01*
X198819D02*
X200394Y151575D01*
X219291Y157874D02*
X220883Y156282D01*
Y153581D02*
Y156282D01*
X214589Y147287D02*
X220883Y153581D01*
X179921Y175197D02*
X181606Y176882D01*
X167323Y175197D02*
X179921D01*
X183071Y170472D02*
X197244D01*
X177165Y170313D02*
X178691Y168787D01*
X178277Y166283D02*
X185845D01*
X184748Y165252D02*
X186825Y163175D01*
X173331Y165252D02*
X184748D01*
X185845Y166283D02*
X188593Y163535D01*
X173228Y165354D02*
X173331Y165252D01*
X186825Y163175D02*
X188583Y161417D01*
X186825Y163175D02*
Y163175D01*
X177671Y166890D02*
X178277Y166283D01*
X177165Y161417D02*
X180438D01*
X188593Y163535D02*
X193723D01*
X177165Y166890D02*
X177671D01*
X183819Y163819D02*
X184241Y163397D01*
X177165Y163819D02*
X183819D01*
X182638Y162637D02*
X184061Y161214D01*
X177165Y162637D02*
X182638D01*
X177165Y153543D02*
X181496D01*
X193723Y163535D02*
X194360Y164173D01*
X194578Y161134D02*
X197134D01*
X193830Y160386D02*
X194578Y161134D01*
X187252Y160386D02*
X193830D01*
X186127Y161511D02*
X187252Y160386D01*
X185680Y161958D02*
X186127Y161511D01*
X185680Y162296D02*
X185793Y162410D01*
X185285Y163256D02*
X185793Y162748D01*
X184834Y163143D02*
X184947Y163256D01*
X184241Y163397D02*
X184495Y163143D01*
X187512Y157764D02*
X197134D01*
X184061Y161214D02*
X184380Y160895D01*
X184493Y160331D02*
X185001Y159823D01*
X185340D02*
X185396Y159880D01*
X185565Y160049D01*
X185904D02*
X186412Y159541D01*
Y158864D02*
X187089Y158187D01*
X187512Y157764D01*
X197878Y156358D02*
X198878D01*
X180438Y161417D02*
X185363Y156492D01*
X198878Y156358D02*
X200394Y157874D01*
X182283Y188189D02*
X208105D01*
X179227Y185132D02*
X182283Y188189D01*
X173321Y185132D02*
X179227D01*
X179134Y180315D02*
X181495D01*
X175984Y177165D02*
X179134Y180315D01*
X189244Y183411D02*
X192990Y187157D01*
X171600Y183411D02*
X189244D01*
X181889Y180315D02*
Y180709D01*
X190541Y182380D02*
X194099Y185937D01*
X174016Y179134D02*
X177262Y182380D01*
X173228Y177165D02*
X175984D01*
X177262Y182380D02*
X190541D01*
X192990Y187157D02*
X206696D01*
X194099Y185937D02*
X205757D01*
X225873Y185938D02*
X228740Y183071D01*
X208105Y188189D02*
X210356Y185938D01*
X225873D01*
X225136Y184707D02*
X227586Y182256D01*
X206696Y187157D02*
X209147Y184707D01*
X225136D01*
X224340Y183534D02*
X226488Y181386D01*
X208160Y183534D02*
X224340D01*
X205757Y185937D02*
X208160Y183534D01*
X196701Y151575D02*
X197488Y152362D01*
X194488Y151575D02*
X196701D01*
X186221D02*
X186709D01*
X187666D01*
X187906Y151318D02*
Y151335D01*
X188145Y151078D02*
X188863D01*
X189102Y151318D02*
Y151575D01*
Y152397D01*
X189342Y152636D02*
X190060D01*
X190299Y151575D02*
Y152397D01*
Y151318D02*
Y151575D01*
X190539Y151078D02*
X191257D01*
X191496Y151318D02*
Y151575D01*
Y152397D01*
X191735Y152637D02*
X192454D01*
X192693Y151575D02*
Y152397D01*
Y151318D02*
Y151575D01*
X192932Y151078D02*
X193650D01*
X193890Y151318D02*
Y151335D01*
X194129Y151575D02*
X194488D01*
X182283Y155512D02*
X182412Y155383D01*
X183089Y154706D01*
X182812Y154091D02*
X183089Y154368D01*
X182812Y153752D02*
X183320Y153244D01*
X183658D02*
X184105Y153691D01*
X185689Y155275D01*
X186028D02*
X186535Y154767D01*
X185120Y153014D02*
X186535Y154429D01*
X185120Y152675D02*
X185797Y151998D01*
X186221Y151575D01*
X163386Y155512D02*
X181890D01*
X182283D01*
X205906Y177953D02*
X207548D01*
X207942Y178347D02*
X220866D01*
X207548Y177953D02*
X207942Y178347D01*
X201181Y184102D02*
Y184252D01*
X130709Y121653D02*
X132534Y123479D01*
X130709Y114173D02*
Y121653D01*
Y114173D02*
X134055Y110827D01*
X128697Y104768D02*
Y121610D01*
X133565Y122257D02*
Y128447D01*
X132567Y121258D02*
X133565Y122257D01*
X132567Y114953D02*
Y121258D01*
Y114953D02*
X134724Y112795D01*
X136575D01*
X131457Y133503D02*
Y133858D01*
X132534Y123479D02*
Y135039D01*
X137008Y118898D02*
X138779Y117126D01*
X139370Y119291D02*
Y121260D01*
Y119291D02*
X140748Y117913D01*
X138779Y115000D02*
Y117126D01*
X169516Y141508D02*
X170303D01*
X169291Y141732D02*
X169516Y141508D01*
X167323Y139764D02*
X170079D01*
X165354Y141732D02*
X167323Y139764D01*
X168898Y190945D02*
X178363D01*
X124016Y135805D02*
Y138583D01*
X117975Y130748D02*
X118959D01*
X124016Y135805D01*
X149606Y145669D02*
X151575Y143701D01*
X141732Y128347D02*
X144488Y125591D01*
Y123228D02*
Y125591D01*
X141732Y128347D02*
Y137795D01*
Y123228D02*
X141804Y123156D01*
Y121975D02*
Y123156D01*
Y121975D02*
X144685Y119095D01*
X143701Y131026D02*
Y139764D01*
X207403Y173622D02*
X207874Y173152D01*
X203543Y173622D02*
X207403D01*
X206317Y172008D02*
X207874Y170451D01*
X207874Y172834D02*
Y173152D01*
X207874Y167323D02*
Y170451D01*
X196748Y172008D02*
X206317D01*
X212598Y171260D02*
X212748D01*
X213536Y170472D01*
X216142D01*
X210630Y176378D02*
X214961Y172047D01*
X209055Y176378D02*
X210630D01*
X213844Y175984D02*
Y176048D01*
Y175984D02*
X216142Y173686D01*
Y173622D02*
Y173686D01*
X214961Y172047D02*
X217717D01*
X143701Y187008D02*
Y198819D01*
X141732Y185039D02*
X143701Y187008D01*
X198874Y166693D02*
Y167842D01*
X194350Y165748D02*
X197819D01*
X198874Y164692D01*
Y163544D02*
Y164692D01*
Y163544D02*
X200207Y162211D01*
X201968Y162598D02*
Y165749D01*
X198874Y166693D02*
X200207Y165360D01*
Y164360D02*
Y165360D01*
Y164360D02*
X200394Y164173D01*
X197874Y162543D02*
X198819Y161598D01*
Y160827D02*
Y161598D01*
X194528Y162543D02*
X197874D01*
X200394Y167323D02*
X201968Y165749D01*
X208687Y204357D02*
X211476Y207146D01*
X159310Y204357D02*
X208687D01*
X153587Y198634D02*
X159310Y204357D01*
X168154Y198468D02*
X175547D01*
X167323Y197638D02*
X168154Y198468D01*
X167323Y192126D02*
Y197638D01*
X160630Y187008D02*
X162205D01*
X159449Y185827D02*
X160630Y187008D01*
X162205D02*
X163386Y188189D01*
X164961Y190945D02*
X166142D01*
X163386Y189370D02*
X164961Y190945D01*
X167323Y189370D02*
X168898Y190945D01*
X167323Y184252D02*
Y189370D01*
X157480Y182283D02*
X159449Y184252D01*
Y185827D01*
X157480Y181102D02*
Y182283D01*
X166142Y183071D02*
X167323Y184252D01*
X166142Y190945D02*
X167323Y192126D01*
X163386Y188189D02*
Y189370D01*
X153587Y196894D02*
Y198634D01*
X153543Y196850D02*
X153587Y196894D01*
X78937Y144685D02*
X79921Y143701D01*
X75984Y144685D02*
X78937D01*
X78740Y149606D02*
X81102Y147244D01*
X82173Y150898D02*
X84646Y148425D01*
Y137008D02*
Y148425D01*
X76063Y149606D02*
X78740D01*
X82173Y150898D02*
Y154769D01*
X105871Y132787D02*
X119008D01*
X103903Y130819D02*
X105871Y132787D01*
X119008D02*
X122047Y135827D01*
X163035Y136618D02*
Y138465D01*
X163779Y134645D02*
X164004Y134870D01*
Y136127D01*
X165354Y173228D02*
X167323Y175197D01*
X205207Y169685D02*
X205511D01*
X203543Y184252D02*
X203543Y184252D01*
Y179921D02*
Y184252D01*
X200394Y179921D02*
Y183315D01*
X201181Y184102D01*
X198819Y179134D02*
Y184252D01*
X198819Y184252D02*
X198819Y184252D01*
X192803Y180011D02*
Y181780D01*
X194882Y183858D01*
X189690Y164567D02*
X193295D01*
X194360Y164173D02*
X197244D01*
X192520Y177559D02*
X192744Y177335D01*
X194467Y178347D02*
X198031D01*
X192803Y180011D02*
X194467Y178347D01*
X194020Y177335D02*
X194040Y177315D01*
X192744Y177335D02*
X194020D01*
X161417Y153543D02*
X163386Y155512D01*
X163386Y155511D02*
X163386Y155512D01*
X163386D02*
X163386Y155511D01*
X191339Y166535D02*
X192913D01*
X193698Y167320D01*
X197242D01*
X197244Y167323D01*
X188583Y161417D02*
X193402D01*
X179921Y177952D02*
X188861D01*
X194040Y177315D02*
X195540D01*
X195896Y176959D01*
X197057D01*
X193402Y161417D02*
X194528Y162543D01*
X188861Y177952D02*
X192607Y174206D01*
X197488Y152362D02*
X197638D01*
X200394Y151575D02*
Y154724D01*
X164567Y179134D02*
X174016D01*
X163386Y177953D02*
X164567Y179134D01*
X228740Y168504D02*
Y183071D01*
X197057Y176959D02*
X197244Y176772D01*
X198819Y175197D02*
Y177559D01*
Y175197D02*
X200394Y173622D01*
X200394D01*
X198031Y178347D02*
X198819Y177559D01*
X198819Y179134D02*
X200207Y177746D01*
X201969Y178347D02*
X201969D01*
X203543Y176772D01*
X200207Y176959D02*
Y177746D01*
X204574Y170317D02*
X205207Y169685D01*
X200207Y161210D02*
Y162211D01*
X154004Y135539D02*
X154311Y135846D01*
X143701Y183071D02*
X155512D01*
X155512Y183071D01*
X200207Y161210D02*
X200394Y161024D01*
X102297Y135039D02*
X104165Y136907D01*
X105444Y133819D02*
X118071D01*
X103476Y131850D02*
X105444Y133819D01*
X102024Y131850D02*
X103476D01*
X104165Y136907D02*
X110996D01*
X102024Y131850D02*
X102024Y131850D01*
X118071Y133819D02*
X120079Y135827D01*
X110996Y136907D02*
X112555Y138465D01*
Y138465D02*
X113853Y139764D01*
X112555Y138465D02*
Y138465D01*
X176377Y194095D02*
X177559Y192913D01*
X83858Y156454D02*
Y158898D01*
X83071Y159685D02*
X83858Y158898D01*
X75984Y159685D02*
X83071D01*
X82173Y154769D02*
X83858Y156454D01*
X154675Y122441D02*
X159287Y117829D01*
X124803Y141732D02*
X125984D01*
X122835Y139764D02*
X124803Y141732D01*
X121260Y139764D02*
X122835D01*
X120079Y138583D02*
X121260Y139764D01*
X125197D02*
X127953D01*
X124016Y138583D02*
X125197Y139764D01*
X145713Y131453D02*
Y137752D01*
Y131453D02*
X146850Y130315D01*
X143701Y131026D02*
X144095Y130632D01*
Y130315D02*
Y130632D01*
X143701Y139764D02*
X145669Y141732D01*
Y137795D02*
X145713Y137752D01*
X154675Y122441D02*
X154724D01*
X167323Y151575D02*
Y151772D01*
X165354Y149606D02*
X167323Y151575D01*
X163386Y171260D02*
Y177953D01*
Y171260D02*
X165354Y169291D01*
X164567Y183071D02*
X166142D01*
X130709Y108661D02*
X132480Y106890D01*
X130709Y108661D02*
Y111417D01*
X128697Y104768D02*
X130512Y102953D01*
X132480Y106890D02*
X136575D01*
X134055Y110827D02*
X136575D01*
X140748Y115000D02*
Y117913D01*
X75984Y149685D02*
X76063Y149606D01*
X227586Y169685D02*
Y182256D01*
X226488Y171370D02*
Y181386D01*
X224410Y164173D02*
X228740Y168504D01*
X223649Y165748D02*
X227586Y169685D01*
X222441Y167323D02*
X226488Y171370D01*
X113853Y139764D02*
X119291D01*
X120079Y135827D02*
Y138583D01*
X161781Y139720D02*
X163035Y138465D01*
X160353Y139720D02*
X161781D01*
X120079Y183071D02*
X122047Y181102D01*
Y196850D02*
X123622Y198425D01*
X121260Y141732D02*
X122047D01*
X119291Y139764D02*
X121260Y141732D01*
X148622Y115000D02*
Y118504D01*
X150827Y112795D02*
Y117756D01*
X152362Y119291D01*
X159405Y140668D02*
X160353Y139720D01*
X157480Y145669D02*
X159405Y143744D01*
Y140668D02*
Y143744D01*
X127953Y139764D02*
X129921Y141732D01*
X122047Y135827D02*
Y137795D01*
X163327Y180256D02*
Y181831D01*
X161417Y178347D02*
X163327Y180256D01*
X174409Y188976D02*
X174804Y188582D01*
X175590D01*
X173228Y188976D02*
X174409D01*
X157480Y141732D02*
X157615Y141597D01*
X169291Y181102D02*
X171600Y183411D01*
X173228Y185039D02*
X173321Y185132D01*
X163327Y181831D02*
X164567Y183071D01*
X164004Y136127D02*
X165354Y137478D01*
Y137795D01*
X197134Y157764D02*
X197244Y157874D01*
X124489Y163859D02*
X125984Y165354D01*
X144685Y115000D02*
Y119095D01*
X130512Y102953D02*
X136575D01*
X131617Y104921D02*
X136575D01*
X130709Y105512D02*
X131026D01*
X131617Y104921D01*
X175984Y194095D02*
X176377D01*
X173228Y196850D02*
X175984Y194095D01*
X214961Y181102D02*
X216142Y179921D01*
X214566Y181102D02*
X214961D01*
X220866Y178347D02*
X222441Y176772D01*
X142717Y115000D02*
Y118307D01*
X149606Y196850D02*
Y199213D01*
X200207Y176959D02*
X200394Y176772D01*
X193295Y164567D02*
X194350Y165748D01*
X161417Y177165D02*
Y178347D01*
X161417Y177165D02*
X161417Y177165D01*
X147638Y147638D02*
X149606Y149606D01*
X150827Y108858D02*
X157677D01*
X197134Y161134D02*
X197244Y161024D01*
X221654Y165748D02*
X223649D01*
X220866Y164961D02*
X221654Y165748D01*
X220866Y163386D02*
Y164961D01*
X222441Y164173D02*
X224410D01*
X224803Y172834D02*
Y177952D01*
X222441Y170472D02*
X224803Y172834D01*
X203698Y170317D02*
X204574D01*
X203543Y170472D02*
X203698Y170317D01*
X171260Y136811D02*
Y138583D01*
X170079Y139764D02*
X171260Y138583D01*
X219478Y161210D02*
Y161998D01*
X220866Y163386D01*
X219291Y161024D02*
X219478Y161210D01*
X217717Y172047D02*
X219291Y173622D01*
X141732Y181102D02*
X143701Y183071D01*
X219291Y176772D02*
X220866Y175197D01*
X220866Y172047D02*
X222441Y173622D01*
X200394Y170472D02*
X201969Y168898D01*
D73*
X143701Y107874D02*
D03*
D74*
X230883Y132874D02*
D03*
Y142126D02*
D03*
D75*
X140748Y94657D02*
X144357Y91048D01*
X140748Y94657D02*
Y100748D01*
X144357Y84968D02*
Y91048D01*
X141909Y82520D02*
X144357Y84968D01*
X140514Y82520D02*
X141909D01*
X138386Y80392D02*
X140514Y82520D01*
X138386Y79567D02*
Y80392D01*
X138779Y93842D02*
Y100748D01*
Y93842D02*
X142389Y90233D01*
X138386Y86616D02*
Y87441D01*
X142389Y85783D02*
Y90233D01*
X141094Y84488D02*
X142389Y85783D01*
X140514Y84488D02*
X141094D01*
X138386Y86616D02*
X140514Y84488D01*
X143701Y93701D02*
X144882D01*
X142717Y94685D02*
X143701Y93701D01*
X142717Y94685D02*
Y100748D01*
X150000Y94095D02*
X159843D01*
X146653Y97441D02*
X150000Y94095D01*
X146653Y97441D02*
Y100748D01*
X144685Y97441D02*
X144882Y97244D01*
X162008Y110630D02*
X170046D01*
X158268Y106890D02*
X162008Y110630D01*
X170046D02*
X170090Y110586D01*
X153937Y111024D02*
X155680D01*
X153740Y110827D02*
X153937Y111024D01*
X150827Y110827D02*
X153740D01*
X150827Y106890D02*
X158268D01*
X158858Y104921D02*
X159843Y103937D01*
X150827Y104921D02*
X158858D01*
X175602Y102374D02*
Y103937D01*
X174004Y100776D02*
X175602Y102374D01*
X166153Y100776D02*
X174004D01*
X133268Y108858D02*
X136575D01*
X133071Y109055D02*
X133268Y108858D01*
X144685Y97441D02*
Y100748D01*
X150827Y102953D02*
X153347D01*
X159843Y103937D02*
X165059D01*
Y101870D02*
X166153Y100776D01*
X165059Y101870D02*
Y103937D01*
X166153Y98499D02*
Y100776D01*
X170090Y110586D02*
X170374Y110302D01*
X170090Y110586D02*
Y112992D01*
X170374Y107874D02*
X175602D01*
X170374D02*
Y110302D01*
X153347Y102953D02*
X153937Y102362D01*
X156693D01*
D76*
X200787Y135827D02*
X202362Y137402D01*
X200787Y134252D02*
Y135827D01*
X196850Y137795D02*
X201969D01*
X202362Y137402D01*
X202756D01*
X204724Y134252D02*
Y135433D01*
X202756Y137402D02*
X204724Y135433D01*
X217520Y82520D02*
X222835D01*
X217520Y77520D02*
X222795D01*
X218110Y103543D02*
X221217D01*
X218110Y107480D02*
X221217D01*
X244882Y142126D02*
X248425D01*
X252756Y146457D01*
X238878Y116261D02*
X239173Y116556D01*
X238878Y109055D02*
Y116261D01*
X226772Y119291D02*
Y123228D01*
X228209Y94095D02*
X230571D01*
X228209Y89370D02*
X230571D01*
X233976Y231221D02*
Y236221D01*
X234080Y240945D02*
X246850D01*
X167323D02*
X234080D01*
Y236324D02*
Y240945D01*
X233976Y236221D02*
X234080Y236324D01*
X252756Y146457D02*
Y235039D01*
X246850Y240945D02*
X252756Y235039D01*
X141339Y236221D02*
Y240158D01*
X140945Y240551D02*
X141339Y240158D01*
X148819Y236221D02*
Y240551D01*
X244882Y142126D02*
X244882Y142126D01*
X162992Y236614D02*
X167323Y240945D01*
X162992Y226378D02*
Y236614D01*
D77*
X192913Y137795D02*
X193598Y137111D01*
Y132387D02*
Y137111D01*
Y132387D02*
X194095Y131890D01*
X155315Y159055D02*
X155511D01*
X153740Y157480D02*
X155315Y159055D01*
X153543Y157480D02*
X153740D01*
X135630Y159055D02*
X135827D01*
X134055Y157480D02*
X135630Y159055D01*
X133858Y157480D02*
X134055D01*
X139370Y155118D02*
X139370D01*
X137795Y153543D02*
X139370Y155118D01*
X137795Y153543D02*
X137795D01*
X150306Y151559D02*
X150803D01*
X150277Y151530D02*
X150306Y151559D01*
X139137Y151530D02*
X150277D01*
X139093Y151575D02*
X139137Y151530D01*
X127953Y151575D02*
X139093D01*
X147807Y154894D02*
X148031Y155118D01*
X147020Y154894D02*
X147807D01*
X145669Y153543D02*
X147020Y154894D01*
X145669Y153543D02*
Y153543D01*
X150803Y151559D02*
X151575Y150788D01*
X169817Y124521D02*
X172954D01*
X174162Y123312D01*
X205271D01*
X211142Y117441D01*
X83465Y136729D02*
X86287Y133906D01*
X83465Y136729D02*
Y148031D01*
X86287Y133906D02*
X102624D01*
X168971Y125366D02*
X169817Y124521D01*
X170673Y119484D02*
Y122835D01*
Y119484D02*
X172542Y117615D01*
X170564Y125591D02*
X203937D01*
X170056Y127559D02*
X200787D01*
X187795Y133071D02*
X188976Y131890D01*
X168393Y129223D02*
X170056Y127559D01*
X168393Y129223D02*
Y130547D01*
X166929Y132011D02*
X168393Y130547D01*
X166929Y132011D02*
Y132283D01*
X166535Y129619D02*
X170564Y125591D01*
X166535Y129619D02*
Y129921D01*
X173622Y133071D02*
X187795D01*
X209613Y112323D02*
X214173D01*
X205794Y116142D02*
X209613Y112323D01*
X191339Y116142D02*
X205794D01*
X189865Y117615D02*
X191339Y116142D01*
X172542Y117615D02*
X189865D01*
X214173Y112323D02*
X214291Y112441D01*
X211142Y117441D02*
X214291D01*
X203937Y125591D02*
X204724Y126378D01*
Y130315D01*
X200787Y127559D02*
Y130315D01*
X173622Y120079D02*
X194095D01*
X188976Y131890D02*
X194095D01*
X235433Y96457D02*
X245177D01*
X234604Y95627D02*
X235433Y96457D01*
X234604Y94190D02*
Y95627D01*
X234508Y94095D02*
X234604Y94190D01*
X234508Y89370D02*
Y94095D01*
X181102Y173228D02*
X183071Y175197D01*
X173228Y173228D02*
X181102D01*
X134252Y134252D02*
Y134569D01*
X133858Y134963D02*
X134252Y134569D01*
X108189Y185039D02*
X114173D01*
X105735Y187494D02*
X108189Y185039D01*
X109864Y181102D02*
X114173D01*
X101203Y189764D02*
X109864Y181102D01*
X187402Y212318D02*
X188976Y213893D01*
X137054Y212318D02*
X187402D01*
X188976Y213893D02*
Y231221D01*
X135908Y215084D02*
X179134D01*
X171653Y217849D02*
X173976Y220172D01*
X134763Y217849D02*
X171653D01*
X164961Y219748D02*
X168976Y223764D01*
X133976Y219748D02*
X164961D01*
X133098Y218870D02*
X133976Y219748D01*
X123622Y124409D02*
X127953Y128740D01*
X123622Y120472D02*
Y124409D01*
X81102Y150394D02*
X83465Y148031D01*
X81102Y150394D02*
Y152323D01*
X98312Y157987D02*
X110123D01*
X95866Y160433D02*
X98312Y157987D01*
X168976Y223764D02*
Y231221D01*
X173976Y220172D02*
Y231221D01*
X161417Y165354D02*
X163386Y167323D01*
X133858Y134963D02*
Y137795D01*
X76063Y189764D02*
X101203D01*
X87008Y199213D02*
X100000D01*
X102624Y133906D02*
X104592Y135874D01*
X112252D01*
X114173Y137795D01*
X136176Y211440D02*
X137054Y212318D01*
X136176Y211440D02*
X136176D01*
X129921Y205185D02*
X136176Y211440D01*
X129921Y196850D02*
Y205185D01*
X135031Y214206D02*
X135908Y215084D01*
X135030Y214206D02*
X135031D01*
X125984Y205159D02*
X135030Y214206D01*
X118110Y196850D02*
Y201196D01*
X133885Y216971D01*
X125984Y196850D02*
Y205159D01*
X133885Y216971D02*
X134763Y217849D01*
X133885Y216971D02*
X133885D01*
X128319Y218870D02*
X133098D01*
X127953Y143783D02*
X127994D01*
X157480Y157480D02*
X159449Y159449D01*
X157480Y161417D02*
X159449Y163386D01*
X157480Y165354D02*
X159449Y167323D01*
X167323Y167519D02*
X167372Y167470D01*
X167323Y167323D02*
Y167519D01*
X167372Y167470D02*
X167372D01*
X165354Y165354D02*
X167323Y167323D01*
X157480Y169291D02*
X159449Y171260D01*
Y175197D02*
X161417Y173228D01*
X161417Y173228D02*
X161417D01*
X161417Y173228D02*
X161417Y173228D01*
X154894Y155681D02*
X155118Y155905D01*
X154894Y154894D02*
Y155681D01*
X153543Y153543D02*
X154894Y154894D01*
X112205Y202756D02*
X128319Y218870D01*
X112205Y194882D02*
Y202756D01*
X78740Y154685D02*
X81102Y152323D01*
X75984Y154685D02*
X78740D01*
X110123Y157987D02*
X110630Y157480D01*
X114173D01*
X75984Y189685D02*
X76063Y189764D01*
X110236Y188976D02*
X114173D01*
X100000Y199213D02*
X110236Y188976D01*
X131890Y175197D02*
Y179134D01*
X129921Y173228D02*
X131890Y175197D01*
X153543Y153543D02*
Y153543D01*
Y149606D02*
X155118Y151181D01*
X157480Y149606D02*
X159449Y151575D01*
X137795Y185039D02*
X139764Y187008D01*
X112205Y194882D02*
X114173Y192913D01*
X163386Y151575D02*
X165354Y153543D01*
X118504Y109449D02*
Y122835D01*
X125984Y149606D02*
X127953Y151575D01*
X127994Y143783D02*
X129880Y145669D01*
X127953Y135827D02*
X129921Y137795D01*
X127953Y128740D02*
Y135827D01*
X118504Y122835D02*
X125984Y130315D01*
Y137795D01*
X129921Y161417D02*
X129921Y161417D01*
X129880Y145669D02*
X129921D01*
X151575Y148425D02*
Y150788D01*
X141732Y157480D02*
X143701Y159449D01*
X133858Y153543D02*
X135827Y155512D01*
D78*
X151968Y162992D02*
Y163779D01*
X153543Y165354D01*
X151968Y162992D02*
X153543Y161417D01*
X153543D01*
X125984Y185433D02*
X127953Y187402D01*
X125984Y185039D02*
Y185433D01*
X135433Y170866D02*
Y171653D01*
X133858Y169291D02*
X135433Y170866D01*
X146850Y162598D02*
X147637D01*
X145669Y161417D02*
X146850Y162598D01*
X151181Y166929D02*
X151181D01*
X149606Y165354D02*
X151181Y166929D01*
X147638Y171260D02*
X149606Y169291D01*
X147638Y175197D02*
X149606Y173228D01*
X161417Y161905D02*
X162899Y163386D01*
X161417Y161417D02*
Y161905D01*
X143307Y162992D02*
X143307D01*
X141732Y161417D02*
X143307Y162992D01*
X138976Y170472D02*
X139763D01*
X137795Y169291D02*
X138976Y170472D01*
X143307Y170866D02*
X144094D01*
X141732Y169291D02*
X143307Y170866D01*
X131496Y166929D02*
X131496D01*
X129921Y165354D02*
X131496Y166929D01*
X127513Y162946D02*
X127513D01*
X125984Y161417D02*
X127513Y162946D01*
X141732Y145713D02*
X141776Y145669D01*
X141732Y169291D02*
X141732Y169291D01*
X131933Y163429D02*
X133858Y165354D01*
X131890Y159449D02*
X133858Y161417D01*
X133858Y145669D02*
X133902D01*
X133858D02*
X133858D01*
X135827Y147638D01*
X133858Y145669D02*
X133858Y145669D01*
X135848Y143701D02*
X137795Y145648D01*
Y145669D01*
X156074Y114961D02*
Y117436D01*
X163779Y112992D02*
X166153D01*
X238780Y103829D02*
X241339D01*
X238780Y89370D02*
X241339D01*
X165354Y161417D02*
X167323Y163386D01*
X161823Y107874D02*
X165059D01*
X170090Y95755D02*
Y98499D01*
X141776Y145669D02*
X143701Y143744D01*
X141776Y145669D02*
X141776D01*
X141732D02*
X141776D01*
X153543Y173228D02*
X155512Y175197D01*
X165354Y185039D02*
X165354Y185039D01*
X148425Y123228D02*
X150799D01*
X153543Y165354D02*
Y165354D01*
X149606Y161417D02*
X151575Y159449D01*
X243110Y135433D02*
X245669D01*
X141732Y145669D02*
X141732D01*
X133858Y173228D02*
X135827Y175197D01*
X131653Y182835D02*
X131653D01*
X129921Y181102D02*
X131653Y182835D01*
X131653D02*
X131890Y183071D01*
X145669Y177165D02*
X147638Y179134D01*
X161417Y185039D02*
X161417D01*
X156693Y96051D02*
Y98425D01*
X137795Y173228D02*
X139764Y175197D01*
X137795Y169291D02*
X137795Y169291D01*
X145669Y157480D02*
X147638Y159449D01*
X141732Y173228D02*
X143701Y175197D01*
X137795Y161417D02*
X139764Y163386D01*
X137795Y157480D02*
X139764Y159449D01*
X137795Y157480D02*
X137795Y157480D01*
X137795Y161417D02*
X137795Y161417D01*
X137795Y165354D02*
X139764Y167323D01*
X137795Y173228D02*
X137795Y173228D01*
X141732Y161417D02*
X141732Y161417D01*
X141732Y165354D02*
X143701Y167323D01*
X141732Y173228D02*
X141732Y173228D01*
X145669Y165354D02*
X147638Y167323D01*
X145669Y169291D02*
X147638Y171260D01*
X145669Y173228D02*
X147638Y175197D01*
X153543Y169291D02*
X155512Y171260D01*
D79*
X123918Y187362D02*
X123986Y187431D01*
X119724Y187362D02*
X123918D01*
X118110Y188976D02*
X119724Y187362D01*
X149213Y97244D02*
X152756D01*
X148622Y97835D02*
X149213Y97244D01*
X148622Y97835D02*
Y100748D01*
X82284Y136377D02*
X85782Y132878D01*
X82284Y136377D02*
Y147638D01*
X85782Y132878D02*
X101599D01*
X213228Y86850D02*
X213779Y87402D01*
X213228Y64055D02*
Y86850D01*
X213779Y87402D02*
X217402D01*
X217520Y87520D01*
X210728Y91437D02*
X211811Y92520D01*
X210728Y61555D02*
Y91437D01*
Y61555D02*
X213228Y59055D01*
X211811Y92520D02*
X217520D01*
X203228Y64055D02*
Y68425D01*
X202362Y69291D02*
X203228Y68425D01*
X196850Y69291D02*
X202362D01*
X196457Y69685D02*
X196850Y69291D01*
X196409Y69685D02*
X196457D01*
X196063Y70031D02*
X196409Y69685D01*
X196063Y70031D02*
Y71260D01*
X198287Y64114D02*
Y67198D01*
X203150Y81700D02*
Y90551D01*
X197375Y68110D02*
X198287Y67198D01*
X194488Y68110D02*
X197375D01*
X190945Y71653D02*
X194488Y68110D01*
X190945Y71653D02*
Y78740D01*
X192126Y79921D01*
X201371D01*
X203150Y81700D01*
X198228Y64055D02*
X198287Y64114D01*
X201181Y92520D02*
X203150Y90551D01*
X196063Y92520D02*
X201181D01*
X196063Y82520D02*
X200259D01*
Y82543D01*
X201575Y83858D01*
Y88976D01*
X200394Y90158D02*
X201575Y88976D01*
X190551Y90158D02*
X200394D01*
X188583Y92126D02*
X190551Y90158D01*
X168898Y92126D02*
X188583D01*
X166929Y94095D02*
X168898Y92126D01*
X163779Y94095D02*
X166929D01*
X214567Y132283D02*
Y134646D01*
X234604Y95627D02*
Y98467D01*
X222835Y110236D02*
X234604Y98467D01*
X222835Y110236D02*
Y134252D01*
X221260Y135827D02*
X222835Y134252D01*
X215748Y135827D02*
X221260D01*
X214567Y134646D02*
X215748Y135827D01*
X214409Y132441D02*
X214567Y132283D01*
X214291Y132441D02*
X214409D01*
X169852Y130147D02*
X170078Y129921D01*
X169852Y130147D02*
Y130541D01*
X169291Y131102D02*
X169852Y130541D01*
X169291Y131102D02*
Y137795D01*
X73335Y52650D02*
X233653D01*
X66142Y59842D02*
X73335Y52650D01*
X66142Y59842D02*
Y174016D01*
X234508Y84114D02*
X235728Y82894D01*
Y54724D02*
Y82894D01*
X233653Y52650D02*
X235728Y54724D01*
X234508Y84114D02*
Y89370D01*
X222441Y157874D02*
X224410Y155905D01*
Y151969D02*
Y155905D01*
X180200Y145669D02*
X218110D01*
X180167Y144122D02*
X218531D01*
X222441Y161024D02*
X225590Y157874D01*
Y151181D02*
Y157874D01*
X218531Y144122D02*
X225590Y151181D01*
X218110Y145669D02*
X224410Y151969D01*
X196611Y156358D02*
X197878D01*
X91732Y181496D02*
X93574D01*
X90551Y182677D02*
X91732Y181496D01*
X90551Y182677D02*
Y185433D01*
X93574Y181496D02*
X102088Y172981D01*
X111294Y139493D02*
X111520Y139719D01*
X178363Y190945D02*
X225197D01*
X233858Y182283D01*
X111850Y190945D02*
X120079D01*
X122047Y188976D01*
X100610Y202185D02*
X111850Y190945D01*
X100315Y192913D02*
X105735Y187494D01*
X108622Y186653D02*
X118858D01*
X98032Y197244D02*
X108622Y186653D01*
X81496Y197244D02*
X98032D01*
X118858Y186653D02*
X120473Y185039D01*
X94095Y179528D02*
X100242Y173380D01*
X110372Y165354D02*
X110630D01*
X114173D01*
X107599Y170827D02*
X108546D01*
X109827Y173228D02*
X110630D01*
X114173D01*
X101969Y160236D02*
X105749D01*
X103150Y161417D02*
X114173D01*
X97167Y167400D02*
X103150Y161417D01*
X97638Y164567D02*
X101969Y160236D01*
X98031Y151181D02*
X100393Y148819D01*
X103633Y144685D02*
X107443D01*
X101467Y142519D02*
X103633Y144685D01*
X104057Y143661D02*
X108976D01*
X98675Y138279D02*
X104057Y143661D01*
X97638Y142519D02*
X101467D01*
X114213Y130748D02*
X117975D01*
X178228Y64055D02*
Y65630D01*
X210078Y165103D02*
X212232D01*
X210630Y166931D02*
X213096Y169397D01*
X207874Y167307D02*
X210078Y165103D01*
X207874Y167307D02*
Y167323D01*
X210630Y166929D02*
Y166931D01*
X212983Y165854D02*
X215121D01*
X214082Y156358D02*
X214200Y156240D01*
X210427Y156358D02*
X214082D01*
X214200Y156240D02*
X216770D01*
X217657Y155352D01*
X204816Y159343D02*
X207443D01*
X210427Y156358D01*
X212232Y165103D02*
X212983Y165854D01*
X215121D02*
X215168Y165807D01*
X217657D01*
X213096Y169397D02*
X215073D01*
X217657Y165807D02*
X219291Y164173D01*
X215514Y168957D02*
X217776D01*
X215073Y169397D02*
X215514Y168957D01*
X160215Y203329D02*
X211597D01*
X213976Y205709D01*
X155512Y198626D02*
X160215Y203329D01*
X175547Y198468D02*
X179331Y194685D01*
X179134Y215084D02*
X181476Y217426D01*
X155512Y194882D02*
Y198626D01*
X153543Y192913D02*
X155512Y194882D01*
X95669Y151181D02*
X98031D01*
X87047Y159803D02*
X95669Y151181D01*
X87047Y159803D02*
Y161692D01*
X94095Y164567D02*
X97638D01*
X96850Y162598D02*
X100433Y159016D01*
X109055D01*
X99214Y169684D02*
X104392Y164506D01*
X98190Y168345D02*
X102908Y163627D01*
X97167Y167400D02*
Y171746D01*
X98190Y168345D02*
Y172170D01*
X99214Y169684D02*
Y172594D01*
X106390Y164854D02*
X109872D01*
X110372Y165354D01*
X100242Y171002D02*
X106390Y164854D01*
X87795Y182032D02*
X90300Y179528D01*
X87795Y182032D02*
Y185433D01*
X90300Y179528D02*
X94095D01*
X92913Y184065D02*
X103973Y173005D01*
X94882Y183544D02*
X107599Y170827D01*
X92913Y184065D02*
Y187402D01*
X94882Y183544D02*
Y185433D01*
X97244Y183465D02*
X108268Y172441D01*
X97244Y183465D02*
Y187402D01*
X99606Y183449D02*
X109827Y173228D01*
X99606Y183449D02*
Y185433D01*
X80074Y149847D02*
X82284Y147638D01*
X80074Y149847D02*
Y151245D01*
X79134Y152185D02*
X80074Y151245D01*
X96457Y156693D02*
X97128D01*
X93701Y159449D02*
X96457Y156693D01*
X109449Y144134D02*
X110085D01*
X108976Y143661D02*
X109449Y144134D01*
X181476Y217426D02*
Y233720D01*
X178976Y236221D02*
X181476Y233720D01*
X211476Y207146D02*
Y233720D01*
X208976Y236221D02*
X211476Y233720D01*
X213976Y205709D02*
Y231221D01*
X204687Y159471D02*
X204816Y159343D01*
X199803Y159471D02*
X204687D01*
X82677Y179134D02*
Y187955D01*
X100242Y171002D02*
Y173380D01*
X93778Y178030D02*
X99214Y172594D01*
X86931Y178030D02*
X93778D01*
X94283Y176078D02*
X98190Y172170D01*
X85733Y176078D02*
X94283D01*
X94228Y174685D02*
X97167Y171746D01*
X75984Y174685D02*
X94228D01*
X85039Y179921D02*
X86931Y178030D01*
X85039Y179921D02*
Y185433D01*
X82677Y179134D02*
X85733Y176078D01*
X193341Y173472D02*
X197095D01*
X192607Y174206D02*
X193341Y173472D01*
X198819Y160455D02*
X199803Y159471D01*
X198819Y160455D02*
Y160827D01*
X105118Y183465D02*
X110236Y178347D01*
X105118Y183465D02*
Y183465D01*
X101969D02*
X110039Y175394D01*
X81496Y192913D02*
X100315D01*
X79528Y194882D02*
X81496Y192913D01*
X79528Y194882D02*
Y203937D01*
X78780Y204685D02*
X79528Y203937D01*
X75984Y204685D02*
X78780D01*
X84332Y202185D02*
X100610D01*
X83465Y199213D02*
X87008D01*
X81102Y201575D02*
X83465Y199213D01*
X81102Y201575D02*
Y207874D01*
X79291Y209685D02*
X81102Y207874D01*
X75984Y209685D02*
X79291D01*
X110236Y178347D02*
X111417Y177165D01*
X110236Y178347D02*
X110236D01*
X197095Y173472D02*
X197244Y173622D01*
X217657Y155332D02*
Y155352D01*
Y155332D02*
X218186Y154804D01*
X219212D01*
X219291Y154724D01*
X217776Y168957D02*
X219291Y170472D01*
X91732Y170079D02*
X94095Y172441D01*
X91732Y164158D02*
Y170079D01*
Y164158D02*
X93595Y162295D01*
X94004D01*
X95866Y160433D01*
X108230Y145472D02*
X113976D01*
X114173Y145669D01*
X107443Y144685D02*
X108230Y145472D01*
X105018Y134846D02*
X115161D01*
X103050Y132878D02*
X105018Y134846D01*
X101599Y132878D02*
X103050D01*
X98675Y137257D02*
Y138279D01*
X98523Y137106D02*
X98675Y137257D01*
X101599Y132878D02*
X101599Y132878D01*
X115161Y134846D02*
X118110Y137795D01*
X108555Y125090D02*
X114213Y130748D01*
X103247Y125090D02*
X108555D01*
X103140Y125197D02*
X103247Y125090D01*
X93701Y159449D02*
X93701D01*
X80597Y163031D02*
X85708D01*
X87047Y161692D01*
X73484Y152185D02*
X79134D01*
X70984Y159685D02*
X73484Y162185D01*
X70984Y154685D02*
X73484Y152185D01*
X79750Y162185D02*
X80597Y163031D01*
X73484Y162185D02*
X79750D01*
X111520Y139719D02*
X112160D01*
X114173Y141732D01*
X233858Y148819D02*
Y182283D01*
X223622Y194685D02*
X235433Y182874D01*
Y150787D02*
Y182874D01*
X233858Y148819D02*
X236221Y146457D01*
X240748D01*
X235433Y150787D02*
X236614Y149606D01*
X238898D01*
X238976Y149685D01*
X240748Y146457D02*
X243976Y149685D01*
X179331Y194685D02*
X223622Y194685D01*
X111417Y177165D02*
X114173D01*
X120473Y185039D02*
X122047D01*
X125984Y181102D02*
X125984Y181102D01*
D80*
X250787Y96457D02*
Y101969D01*
X250984Y76772D02*
Y82284D01*
X230883Y142126D02*
X238583D01*
X250000Y116556D02*
X250000Y116556D01*
X245473Y116556D02*
X250000D01*
D81*
X200000Y71260D02*
X202362D01*
X200000Y98425D02*
X203543D01*
X200000Y98425D02*
X200000Y98425D01*
X239077Y130315D02*
X239173Y130411D01*
X235827Y130315D02*
X239077D01*
X233858Y132283D02*
X235827Y130315D01*
X231473Y132283D02*
X233858D01*
X230883Y132874D02*
X231473Y132283D01*
X194882Y154724D02*
X197244D01*
X214173Y167716D02*
X214226D01*
X214173Y164173D02*
X216142Y164173D01*
X213593Y158039D02*
X213646D01*
X213811Y157874D01*
X213897D01*
X213897Y157874D01*
X216142D01*
X213385Y154677D02*
X213423Y154715D01*
X216132D01*
X216142Y154724D01*
X214173Y160630D02*
X214211Y160667D01*
X203543Y167323D02*
X205511D01*
X203937Y164567D02*
X205511D01*
X203543Y161024D02*
X205512Y161024D01*
X203937Y157480D02*
X205511D01*
X214211Y160667D02*
X215785D01*
X216142Y161024D01*
X194488Y180709D02*
X194542D01*
X195329Y179921D02*
X197244D01*
X194542Y180709D02*
X195329Y179921D01*
X203543Y164173D02*
X203937Y164567D01*
X203543Y157874D02*
X203937Y157480D01*
X214226Y167716D02*
X214564Y167378D01*
X216087D01*
X216142Y167323D01*
X131890Y221654D02*
X148425D01*
X239173Y130411D02*
Y135433D01*
X223228Y180709D02*
X224409D01*
X222441Y179921D02*
X223228Y180709D01*
X203543Y152756D02*
X203543Y154724D01*
X222441Y152756D02*
X222441Y154724D01*
D82*
X196063Y77520D02*
X196063Y77520D01*
Y71260D02*
Y77520D01*
X196063Y98425D02*
X196063Y98425D01*
X196063Y92520D02*
Y98425D01*
X195984Y87441D02*
X196063Y87520D01*
X245276Y108957D02*
X245374Y109055D01*
X245276Y103829D02*
Y108957D01*
X169587Y104724D02*
X170374Y103937D01*
X169252Y104724D02*
X169587D01*
X168504Y105472D02*
X169252Y104724D01*
X167826Y105472D02*
X168504D01*
X166763Y106535D02*
X167826Y105472D01*
X166693Y106535D02*
X166763D01*
X166142Y107087D02*
X166693Y106535D01*
X165847Y107087D02*
X166142D01*
X165059Y107874D02*
X165847Y107087D01*
X162992Y224016D02*
Y226378D01*
X161417Y222441D02*
X162992Y224016D01*
X150000Y222441D02*
X161417D01*
X149213Y221654D02*
X150000Y222441D01*
X139764Y229921D02*
Y234252D01*
X148425Y221654D02*
X149213D01*
X150000Y222441D02*
Y229921D01*
D83*
X247441Y126671D02*
X251575D01*
D84*
X140945Y240551D02*
X148819D01*
D85*
X75984Y204685D02*
D03*
Y209685D02*
D03*
Y199685D02*
D03*
Y219685D02*
D03*
Y214685D02*
D03*
Y184685D02*
D03*
Y179685D02*
D03*
Y194685D02*
D03*
Y189685D02*
D03*
Y164685D02*
D03*
Y159685D02*
D03*
Y174685D02*
D03*
Y169685D02*
D03*
Y154685D02*
D03*
Y149685D02*
D03*
X70984Y144685D02*
D03*
X75984D02*
D03*
Y134685D02*
D03*
Y139685D02*
D03*
Y129685D02*
D03*
Y124685D02*
D03*
Y109685D02*
D03*
Y79685D02*
D03*
Y119685D02*
D03*
Y114685D02*
D03*
Y104685D02*
D03*
Y99685D02*
D03*
X70984Y124685D02*
D03*
Y109685D02*
D03*
X75984Y84685D02*
D03*
Y74685D02*
D03*
Y94685D02*
D03*
Y89685D02*
D03*
X70984Y209685D02*
D03*
Y214685D02*
D03*
Y204685D02*
D03*
Y189685D02*
D03*
Y164685D02*
D03*
Y199685D02*
D03*
Y194685D02*
D03*
Y184685D02*
D03*
Y179685D02*
D03*
Y159685D02*
D03*
Y154685D02*
D03*
Y174685D02*
D03*
Y169685D02*
D03*
Y139685D02*
D03*
Y129685D02*
D03*
Y149685D02*
D03*
Y119685D02*
D03*
Y114685D02*
D03*
Y104685D02*
D03*
Y99685D02*
D03*
Y94685D02*
D03*
Y134685D02*
D03*
Y79685D02*
D03*
Y74685D02*
D03*
Y89685D02*
D03*
Y84685D02*
D03*
X243976Y209685D02*
D03*
Y204685D02*
D03*
Y214685D02*
D03*
Y189685D02*
D03*
Y199685D02*
D03*
Y219685D02*
D03*
Y194685D02*
D03*
X238976Y204685D02*
D03*
X243976Y184685D02*
D03*
X238976Y189685D02*
D03*
X243976Y179685D02*
D03*
Y174685D02*
D03*
Y164685D02*
D03*
Y169685D02*
D03*
Y159685D02*
D03*
X238976Y169685D02*
D03*
X243976Y149685D02*
D03*
Y154685D02*
D03*
X238976Y214685D02*
D03*
Y184685D02*
D03*
Y209685D02*
D03*
Y194685D02*
D03*
Y199685D02*
D03*
Y179685D02*
D03*
Y174685D02*
D03*
Y164685D02*
D03*
Y159685D02*
D03*
Y149685D02*
D03*
Y154685D02*
D03*
D86*
X70984Y219685D02*
D03*
X238976D02*
D03*
D87*
X120984Y236221D02*
D03*
X248228Y64055D02*
D03*
X238976Y236221D02*
D03*
D88*
X115984D02*
D03*
X105984D02*
D03*
X100984D02*
D03*
X110984D02*
D03*
X120984Y231221D02*
D03*
X115984D02*
D03*
X110984D02*
D03*
X100984D02*
D03*
X95984D02*
D03*
X105984D02*
D03*
X95984Y236221D02*
D03*
X90984D02*
D03*
X85984D02*
D03*
X80984D02*
D03*
X75984D02*
D03*
X85984Y231221D02*
D03*
X90984D02*
D03*
X75984D02*
D03*
X80984D02*
D03*
X243228Y64055D02*
D03*
X238228D02*
D03*
X218228D02*
D03*
X223228D02*
D03*
X213228D02*
D03*
X233228D02*
D03*
X228228D02*
D03*
X248228Y59055D02*
D03*
X243228D02*
D03*
X238228D02*
D03*
X233228D02*
D03*
X218228D02*
D03*
X213228D02*
D03*
X228228D02*
D03*
X223228D02*
D03*
X203228Y64055D02*
D03*
X208228D02*
D03*
X198228Y59055D02*
D03*
Y64055D02*
D03*
X183228D02*
D03*
X178228D02*
D03*
X193228D02*
D03*
X188228D02*
D03*
X193228Y59055D02*
D03*
X208228D02*
D03*
X203228D02*
D03*
X178228D02*
D03*
X188228D02*
D03*
X183228D02*
D03*
X233976Y236221D02*
D03*
X228976D02*
D03*
X208976D02*
D03*
X213976D02*
D03*
X203976D02*
D03*
X223976D02*
D03*
X218976D02*
D03*
X238976Y231221D02*
D03*
X233976D02*
D03*
X228976D02*
D03*
X223976D02*
D03*
X208976D02*
D03*
X203976D02*
D03*
X218976D02*
D03*
X213976D02*
D03*
X193976Y236221D02*
D03*
X198976D02*
D03*
X188976Y231221D02*
D03*
Y236221D02*
D03*
X173976D02*
D03*
X168976D02*
D03*
X183976D02*
D03*
X178976D02*
D03*
X183976Y231221D02*
D03*
X198976D02*
D03*
X193976D02*
D03*
X168976D02*
D03*
X178976D02*
D03*
X173976D02*
D03*
D89*
X219291Y132441D02*
D03*
Y127441D02*
D03*
Y122441D02*
D03*
Y117441D02*
D03*
X214291Y132441D02*
D03*
Y117441D02*
D03*
Y127441D02*
D03*
Y122441D02*
D03*
Y112441D02*
D03*
D90*
X219291D02*
D03*
D91*
X148228Y87441D02*
D03*
Y79567D02*
D03*
X138386D02*
D03*
Y87441D02*
D03*
D92*
X167008Y68898D02*
D03*
X119606D02*
D03*
D93*
X106299Y69685D02*
D03*
X85039D02*
D03*
D94*
X103937Y79921D02*
D03*
X98425D02*
D03*
X92913D02*
D03*
D95*
X87402D02*
D03*
D96*
X95669Y57874D02*
D03*
D97*
X145866Y110039D02*
D03*
Y105709D02*
D03*
X141535Y110039D02*
D03*
Y105709D02*
D03*
X229921Y126378D02*
D03*
Y123228D02*
D03*
Y120079D02*
D03*
Y116929D02*
D03*
X233071D02*
D03*
Y120079D02*
D03*
Y123228D02*
D03*
Y113779D02*
D03*
X229921D02*
D03*
X226772D02*
D03*
Y116929D02*
D03*
Y120029D02*
D03*
Y123228D02*
D03*
M02*
