G04*
G04 #@! TF.GenerationSoftware,Altium Limited,Altium Designer,19.1.6 (110)*
G04*
G04 Layer_Color=2752767*
%FSLAX25Y25*%
%MOIN*%
G70*
G01*
G75*
%ADD106C,0.00200*%
%ADD107C,0.00267*%
%ADD108C,0.00133*%
D106*
X75184Y203885D02*
Y205485D01*
X76784D01*
Y203885D01*
X75184D01*
Y208885D02*
Y210485D01*
X76784D01*
Y208885D01*
X75184D01*
Y198885D02*
Y200485D01*
X76784D01*
Y198885D01*
X75184D01*
Y218885D02*
Y220485D01*
X76784D01*
Y218885D01*
X75184D01*
Y213885D02*
Y215485D01*
X76784D01*
Y213885D01*
X75184D01*
Y183885D02*
Y185485D01*
X76784D01*
Y183885D01*
X75184D01*
Y178885D02*
Y180485D01*
X76784D01*
Y178885D01*
X75184D01*
Y193885D02*
Y195485D01*
X76784D01*
Y193885D01*
X75184D01*
Y188885D02*
Y190485D01*
X76784D01*
Y188885D01*
X75184D01*
Y163885D02*
Y165485D01*
X76784D01*
Y163885D01*
X75184D01*
Y158885D02*
Y160485D01*
X76784D01*
Y158885D01*
X75184D01*
Y173885D02*
Y175485D01*
X76784D01*
Y173885D01*
X75184D01*
Y168885D02*
Y170485D01*
X76784D01*
Y168885D01*
X75184D01*
Y153885D02*
Y155485D01*
X76784D01*
Y153885D01*
X75184D01*
Y148885D02*
Y150485D01*
X76784D01*
Y148885D01*
X75184D01*
X70184Y143885D02*
Y145485D01*
X71784D01*
Y143885D01*
X70184D01*
X75184D02*
Y145485D01*
X76784D01*
Y143885D01*
X75184D01*
Y133885D02*
Y135485D01*
X76784D01*
Y133885D01*
X75184D01*
Y138885D02*
Y140485D01*
X76784D01*
Y138885D01*
X75184D01*
Y128885D02*
Y130485D01*
X76784D01*
Y128885D01*
X75184D01*
Y123885D02*
Y125485D01*
X76784D01*
Y123885D01*
X75184D01*
Y108885D02*
Y110485D01*
X76784D01*
Y108885D01*
X75184D01*
Y78885D02*
Y80485D01*
X76784D01*
Y78885D01*
X75184D01*
Y118885D02*
Y120485D01*
X76784D01*
Y118885D01*
X75184D01*
Y113885D02*
Y115485D01*
X76784D01*
Y113885D01*
X75184D01*
Y103885D02*
Y105485D01*
X76784D01*
Y103885D01*
X75184D01*
Y98885D02*
Y100485D01*
X76784D01*
Y98885D01*
X75184D01*
X70184Y123885D02*
Y125485D01*
X71784D01*
Y123885D01*
X70184D01*
Y108885D02*
Y110485D01*
X71784D01*
Y108885D01*
X70184D01*
X75184Y83885D02*
Y85485D01*
X76784D01*
Y83885D01*
X75184D01*
Y73885D02*
Y75485D01*
X76784D01*
Y73885D01*
X75184D01*
Y93885D02*
Y95485D01*
X76784D01*
Y93885D01*
X75184D01*
Y88885D02*
Y90485D01*
X76784D01*
Y88885D01*
X75184D01*
X70184Y208885D02*
Y210485D01*
X71784D01*
Y208885D01*
X70184D01*
Y213885D02*
Y215485D01*
X71784D01*
Y213885D01*
X70184D01*
Y203885D02*
Y205485D01*
X71784D01*
Y203885D01*
X70184D01*
Y218885D02*
Y220485D01*
X71784D01*
Y218885D01*
X70184D01*
Y188885D02*
Y190485D01*
X71784D01*
Y188885D01*
X70184D01*
Y163885D02*
Y165485D01*
X71784D01*
Y163885D01*
X70184D01*
Y198885D02*
Y200485D01*
X71784D01*
Y198885D01*
X70184D01*
Y193885D02*
Y195485D01*
X71784D01*
Y193885D01*
X70184D01*
Y183885D02*
Y185485D01*
X71784D01*
Y183885D01*
X70184D01*
Y178885D02*
Y180485D01*
X71784D01*
Y178885D01*
X70184D01*
Y158885D02*
Y160485D01*
X71784D01*
Y158885D01*
X70184D01*
Y153885D02*
Y155485D01*
X71784D01*
Y153885D01*
X70184D01*
Y173885D02*
Y175485D01*
X71784D01*
Y173885D01*
X70184D01*
Y168885D02*
Y170485D01*
X71784D01*
Y168885D01*
X70184D01*
Y138885D02*
Y140485D01*
X71784D01*
Y138885D01*
X70184D01*
Y128885D02*
Y130485D01*
X71784D01*
Y128885D01*
X70184D01*
Y148885D02*
Y150485D01*
X71784D01*
Y148885D01*
X70184D01*
Y118885D02*
Y120485D01*
X71784D01*
Y118885D01*
X70184D01*
Y113885D02*
Y115485D01*
X71784D01*
Y113885D01*
X70184D01*
Y103885D02*
Y105485D01*
X71784D01*
Y103885D01*
X70184D01*
Y98885D02*
Y100485D01*
X71784D01*
Y98885D01*
X70184D01*
Y93885D02*
Y95485D01*
X71784D01*
Y93885D01*
X70184D01*
Y133885D02*
Y135485D01*
X71784D01*
Y133885D01*
X70184D01*
Y78885D02*
Y80485D01*
X71784D01*
Y78885D01*
X70184D01*
Y73885D02*
Y75485D01*
X71784D01*
Y73885D01*
X70184D01*
Y88885D02*
Y90485D01*
X71784D01*
Y88885D01*
X70184D01*
Y83885D02*
Y85485D01*
X71784D01*
Y83885D01*
X70184D01*
X243176Y208885D02*
Y210485D01*
X244776D01*
Y208885D01*
X243176D01*
Y203885D02*
Y205485D01*
X244776D01*
Y203885D01*
X243176D01*
Y213885D02*
Y215485D01*
X244776D01*
Y213885D01*
X243176D01*
Y188885D02*
Y190485D01*
X244776D01*
Y188885D01*
X243176D01*
Y198885D02*
Y200485D01*
X244776D01*
Y198885D01*
X243176D01*
Y218885D02*
Y220485D01*
X244776D01*
Y218885D01*
X243176D01*
Y193885D02*
Y195485D01*
X244776D01*
Y193885D01*
X243176D01*
X238176Y203885D02*
Y205485D01*
X239776D01*
Y203885D01*
X238176D01*
X243176Y183885D02*
Y185485D01*
X244776D01*
Y183885D01*
X243176D01*
X238176Y188885D02*
Y190485D01*
X239776D01*
Y188885D01*
X238176D01*
X243176Y178885D02*
Y180485D01*
X244776D01*
Y178885D01*
X243176D01*
Y173885D02*
Y175485D01*
X244776D01*
Y173885D01*
X243176D01*
Y163885D02*
Y165485D01*
X244776D01*
Y163885D01*
X243176D01*
Y168885D02*
Y170485D01*
X244776D01*
Y168885D01*
X243176D01*
Y158885D02*
Y160485D01*
X244776D01*
Y158885D01*
X243176D01*
X238176Y168885D02*
Y170485D01*
X239776D01*
Y168885D01*
X238176D01*
X243176Y148885D02*
Y150485D01*
X244776D01*
Y148885D01*
X243176D01*
Y153885D02*
Y155485D01*
X244776D01*
Y153885D01*
X243176D01*
X238176Y218885D02*
Y220485D01*
X239776D01*
Y218885D01*
X238176D01*
Y213885D02*
Y215485D01*
X239776D01*
Y213885D01*
X238176D01*
Y183885D02*
Y185485D01*
X239776D01*
Y183885D01*
X238176D01*
Y208885D02*
Y210485D01*
X239776D01*
Y208885D01*
X238176D01*
Y193885D02*
Y195485D01*
X239776D01*
Y193885D01*
X238176D01*
Y198885D02*
Y200485D01*
X239776D01*
Y198885D01*
X238176D01*
Y178885D02*
Y180485D01*
X239776D01*
Y178885D01*
X238176D01*
Y173885D02*
Y175485D01*
X239776D01*
Y173885D01*
X238176D01*
Y163885D02*
Y165485D01*
X239776D01*
Y163885D01*
X238176D01*
Y158885D02*
Y160485D01*
X239776D01*
Y158885D01*
X238176D01*
Y148885D02*
Y150485D01*
X239776D01*
Y148885D01*
X238176D01*
Y153885D02*
Y155485D01*
X239776D01*
Y153885D01*
X238176D01*
X120184Y235420D02*
Y237020D01*
X121784D01*
Y235420D01*
X120184D01*
X115184D02*
Y237020D01*
X116784D01*
Y235420D01*
X115184D01*
X105184D02*
Y237020D01*
X106784D01*
Y235420D01*
X105184D01*
X100184D02*
Y237020D01*
X101784D01*
Y235420D01*
X100184D01*
X110184D02*
Y237020D01*
X111784D01*
Y235420D01*
X110184D01*
X120184Y230420D02*
Y232020D01*
X121784D01*
Y230420D01*
X120184D01*
X115184D02*
Y232020D01*
X116784D01*
Y230420D01*
X115184D01*
X110184D02*
Y232020D01*
X111784D01*
Y230420D01*
X110184D01*
X100184D02*
Y232020D01*
X101784D01*
Y230420D01*
X100184D01*
X95184D02*
Y232020D01*
X96784D01*
Y230420D01*
X95184D01*
X105184D02*
Y232020D01*
X106784D01*
Y230420D01*
X105184D01*
X95184Y235420D02*
Y237020D01*
X96784D01*
Y235420D01*
X95184D01*
X90184D02*
Y237020D01*
X91784D01*
Y235420D01*
X90184D01*
X85184D02*
Y237020D01*
X86784D01*
Y235420D01*
X85184D01*
X80184D02*
Y237020D01*
X81784D01*
Y235420D01*
X80184D01*
X75184D02*
Y237020D01*
X76784D01*
Y235420D01*
X75184D01*
X85184Y230420D02*
Y232020D01*
X86784D01*
Y230420D01*
X85184D01*
X90184D02*
Y232020D01*
X91784D01*
Y230420D01*
X90184D01*
X75184D02*
Y232020D01*
X76784D01*
Y230420D01*
X75184D01*
X80184D02*
Y232020D01*
X81784D01*
Y230420D01*
X80184D01*
X247428Y63255D02*
Y64855D01*
X249028D01*
Y63255D01*
X247428D01*
X242428D02*
Y64855D01*
X244028D01*
Y63255D01*
X242428D01*
X237428D02*
Y64855D01*
X239028D01*
Y63255D01*
X237428D01*
X217428D02*
Y64855D01*
X219028D01*
Y63255D01*
X217428D01*
X222428D02*
Y64855D01*
X224028D01*
Y63255D01*
X222428D01*
X212428D02*
Y64855D01*
X214028D01*
Y63255D01*
X212428D01*
X232428D02*
Y64855D01*
X234028D01*
Y63255D01*
X232428D01*
X227428D02*
Y64855D01*
X229028D01*
Y63255D01*
X227428D01*
X247428Y58255D02*
Y59855D01*
X249028D01*
Y58255D01*
X247428D01*
X242428D02*
Y59855D01*
X244028D01*
Y58255D01*
X242428D01*
X237428D02*
Y59855D01*
X239028D01*
Y58255D01*
X237428D01*
X232428D02*
Y59855D01*
X234028D01*
Y58255D01*
X232428D01*
X217428D02*
Y59855D01*
X219028D01*
Y58255D01*
X217428D01*
X212428D02*
Y59855D01*
X214028D01*
Y58255D01*
X212428D01*
X227428D02*
Y59855D01*
X229028D01*
Y58255D01*
X227428D01*
X222428D02*
Y59855D01*
X224028D01*
Y58255D01*
X222428D01*
X202428Y63255D02*
Y64855D01*
X204028D01*
Y63255D01*
X202428D01*
X207428D02*
Y64855D01*
X209028D01*
Y63255D01*
X207428D01*
X197428Y58255D02*
Y59855D01*
X199028D01*
Y58255D01*
X197428D01*
Y63255D02*
Y64855D01*
X199028D01*
Y63255D01*
X197428D01*
X182428D02*
Y64855D01*
X184028D01*
Y63255D01*
X182428D01*
X177428D02*
Y64855D01*
X179028D01*
Y63255D01*
X177428D01*
X192428D02*
Y64855D01*
X194028D01*
Y63255D01*
X192428D01*
X187428D02*
Y64855D01*
X189028D01*
Y63255D01*
X187428D01*
X192428Y58255D02*
Y59855D01*
X194028D01*
Y58255D01*
X192428D01*
X207428D02*
Y59855D01*
X209028D01*
Y58255D01*
X207428D01*
X202428D02*
Y59855D01*
X204028D01*
Y58255D01*
X202428D01*
X177428D02*
Y59855D01*
X179028D01*
Y58255D01*
X177428D01*
X187428D02*
Y59855D01*
X189028D01*
Y58255D01*
X187428D01*
X182428D02*
Y59855D01*
X184028D01*
Y58255D01*
X182428D01*
X238176Y235420D02*
Y237020D01*
X239776D01*
Y235420D01*
X238176D01*
X233176D02*
Y237020D01*
X234776D01*
Y235420D01*
X233176D01*
X228176D02*
Y237020D01*
X229776D01*
Y235420D01*
X228176D01*
X208176D02*
Y237020D01*
X209776D01*
Y235420D01*
X208176D01*
X213176D02*
Y237020D01*
X214776D01*
Y235420D01*
X213176D01*
X203176D02*
Y237020D01*
X204776D01*
Y235420D01*
X203176D01*
X223176D02*
Y237020D01*
X224776D01*
Y235420D01*
X223176D01*
X218176D02*
Y237020D01*
X219776D01*
Y235420D01*
X218176D01*
X238176Y230420D02*
Y232020D01*
X239776D01*
Y230420D01*
X238176D01*
X233176D02*
Y232020D01*
X234776D01*
Y230420D01*
X233176D01*
X228176D02*
Y232020D01*
X229776D01*
Y230420D01*
X228176D01*
X223176D02*
Y232020D01*
X224776D01*
Y230420D01*
X223176D01*
X208176D02*
Y232020D01*
X209776D01*
Y230420D01*
X208176D01*
X203176D02*
Y232020D01*
X204776D01*
Y230420D01*
X203176D01*
X218176D02*
Y232020D01*
X219776D01*
Y230420D01*
X218176D01*
X213176D02*
Y232020D01*
X214776D01*
Y230420D01*
X213176D01*
X193176Y235420D02*
Y237020D01*
X194776D01*
Y235420D01*
X193176D01*
X198176D02*
Y237020D01*
X199776D01*
Y235420D01*
X198176D01*
X188176Y230420D02*
Y232020D01*
X189776D01*
Y230420D01*
X188176D01*
Y235420D02*
Y237020D01*
X189776D01*
Y235420D01*
X188176D01*
X173176D02*
Y237020D01*
X174776D01*
Y235420D01*
X173176D01*
X168176D02*
Y237020D01*
X169776D01*
Y235420D01*
X168176D01*
X183176D02*
Y237020D01*
X184776D01*
Y235420D01*
X183176D01*
X178176D02*
Y237020D01*
X179776D01*
Y235420D01*
X178176D01*
X183176Y230420D02*
Y232020D01*
X184776D01*
Y230420D01*
X183176D01*
X198176D02*
Y232020D01*
X199776D01*
Y230420D01*
X198176D01*
X193176D02*
Y232020D01*
X194776D01*
Y230420D01*
X193176D01*
X168176D02*
Y232020D01*
X169776D01*
Y230420D01*
X168176D01*
X178176D02*
Y232020D01*
X179776D01*
Y230420D01*
X178176D01*
X173176D02*
Y232020D01*
X174776D01*
Y230420D01*
X173176D01*
X154724Y229121D02*
X153924Y230721D01*
X155524D01*
X154724Y229121D01*
X135039D02*
X134239Y230721D01*
X135839D01*
X135039Y229121D01*
X219291Y131641D02*
X219691Y132041D01*
X220091D01*
X219691Y132441D01*
X220091Y132841D01*
X219691D01*
X219291Y133241D01*
X218891Y132841D01*
X218491D01*
X218891Y132441D01*
X218491Y132041D01*
X218891D01*
X219291Y131641D01*
Y126641D02*
X219691Y127041D01*
X220091D01*
X219691Y127441D01*
X220091Y127841D01*
X219691D01*
X219291Y128241D01*
X218891Y127841D01*
X218491D01*
X218891Y127441D01*
X218491Y127041D01*
X218891D01*
X219291Y126641D01*
Y121641D02*
X219691Y122041D01*
X220091D01*
X219691Y122441D01*
X220091Y122841D01*
X219691D01*
X219291Y123241D01*
X218891Y122841D01*
X218491D01*
X218891Y122441D01*
X218491Y122041D01*
X218891D01*
X219291Y121641D01*
Y116641D02*
X219691Y117041D01*
X220091D01*
X219691Y117441D01*
X220091Y117841D01*
X219691D01*
X219291Y118241D01*
X218891Y117841D01*
X218491D01*
X218891Y117441D01*
X218491Y117041D01*
X218891D01*
X219291Y116641D01*
Y111641D02*
X219691Y112041D01*
X220091D01*
X219691Y112441D01*
X220091Y112841D01*
X219691D01*
X219291Y113241D01*
X218891Y112841D01*
X218491D01*
X218891Y112441D01*
X218491Y112041D01*
X218891D01*
X219291Y111641D01*
X214291Y131641D02*
X214691Y132041D01*
X215091D01*
X214691Y132441D01*
X215091Y132841D01*
X214691D01*
X214291Y133241D01*
X213891Y132841D01*
X213491D01*
X213891Y132441D01*
X213491Y132041D01*
X213891D01*
X214291Y131641D01*
Y116641D02*
X214691Y117041D01*
X215091D01*
X214691Y117441D01*
X215091Y117841D01*
X214691D01*
X214291Y118241D01*
X213891Y117841D01*
X213491D01*
X213891Y117441D01*
X213491Y117041D01*
X213891D01*
X214291Y116641D01*
Y126641D02*
X214691Y127041D01*
X215091D01*
X214691Y127441D01*
X215091Y127841D01*
X214691D01*
X214291Y128241D01*
X213891Y127841D01*
X213491D01*
X213891Y127441D01*
X213491Y127041D01*
X213891D01*
X214291Y126641D01*
Y121641D02*
X214691Y122041D01*
X215091D01*
X214691Y122441D01*
X215091Y122841D01*
X214691D01*
X214291Y123241D01*
X213891Y122841D01*
X213491D01*
X213891Y122441D01*
X213491Y122041D01*
X213891D01*
X214291Y121641D01*
Y111641D02*
X214691Y112041D01*
X215091D01*
X214691Y112441D01*
X215091Y112841D01*
X214691D01*
X214291Y113241D01*
X213891Y112841D01*
X213491D01*
X213891Y112441D01*
X213491Y112041D01*
X213891D01*
X214291Y111641D01*
X251575Y88570D02*
X251975Y88970D01*
X252375D01*
X251975Y89370D01*
X252375Y89770D01*
X251975D01*
X251575Y90170D01*
X251175Y89770D01*
X250775D01*
X251175Y89370D01*
X250775Y88970D01*
X251175D01*
X251575Y88570D01*
X244488D02*
X244888Y88970D01*
X245288D01*
X244888Y89370D01*
X245288Y89770D01*
X244888D01*
X244488Y90170D01*
X244088Y89770D01*
X243688D01*
X244088Y89370D01*
X243688Y88970D01*
X244088D01*
X244488Y88570D01*
X147428Y86641D02*
X147828Y87441D01*
X147428Y88241D01*
X148228Y87841D01*
X149028Y88241D01*
X148628Y87441D01*
X149028Y86641D01*
X148228Y87041D01*
X147428Y86641D01*
Y78767D02*
X147828Y79567D01*
X147428Y80367D01*
X148228Y79967D01*
X149028Y80367D01*
X148628Y79567D01*
X149028Y78767D01*
X148228Y79167D01*
X147428Y78767D01*
X137586D02*
X137986Y79567D01*
X137586Y80367D01*
X138386Y79967D01*
X139186Y80367D01*
X138786Y79567D01*
X139186Y78767D01*
X138386Y79167D01*
X137586Y78767D01*
X166608Y68498D02*
Y68098D01*
X167408D01*
Y68498D01*
X167808D01*
Y69298D01*
X167408D01*
Y69698D01*
X166608D01*
Y69298D01*
X166208D01*
Y68498D01*
X166608D01*
X137586Y86641D02*
X137986Y87441D01*
X137586Y88241D01*
X138386Y87841D01*
X139186Y88241D01*
X138786Y87441D01*
X139186Y86641D01*
X138386Y87041D01*
X137586Y86641D01*
X119206Y68498D02*
Y68098D01*
X120006D01*
Y68498D01*
X120406D01*
Y69298D01*
X120006D01*
Y69698D01*
X119206D01*
Y69298D01*
X118806D01*
Y68498D01*
X119206D01*
X105499Y68885D02*
X105899D01*
X106299Y69285D01*
X106699Y68885D01*
X107099D01*
Y69285D01*
X106699Y69685D01*
X107099Y70085D01*
Y70485D01*
X106699D01*
X106299Y70085D01*
X105899Y70485D01*
X105499D01*
Y70085D01*
X105899Y69685D01*
X105499Y69285D01*
Y68885D01*
X103137Y79921D02*
X103937Y80721D01*
X104737Y79921D01*
X103937Y79121D01*
X103137Y79921D01*
X97625D02*
X98425Y80721D01*
X99225Y79921D01*
X98425Y79121D01*
X97625Y79921D01*
X92113D02*
X92913Y80721D01*
X93713Y79921D01*
X92913Y79121D01*
X92113Y79921D01*
X86602D02*
X87402Y80721D01*
X88202Y79921D01*
X87402Y79121D01*
X86602Y79921D01*
X84239Y68885D02*
X84639D01*
X85039Y69285D01*
X85439Y68885D01*
X85839D01*
Y69285D01*
X85439Y69685D01*
X85839Y70085D01*
Y70485D01*
X85439D01*
X85039Y70085D01*
X84639Y70485D01*
X84239D01*
Y70085D01*
X84639Y69685D01*
X84239Y69285D01*
Y68885D01*
X94869Y57074D02*
Y58674D01*
X96469D01*
Y57074D01*
X94869D01*
X95269Y57474D02*
Y58274D01*
X96069D01*
Y57474D01*
X95269D01*
X202362Y136602D02*
X201562Y138202D01*
X203162D01*
X202362Y136602D01*
Y137002D02*
X201962Y137802D01*
X202762D01*
X202362Y137002D01*
X115354Y182271D02*
X114554Y183871D01*
X116154D01*
X115354Y182271D01*
Y182671D02*
X114954Y183471D01*
X115754D01*
X115354Y182671D01*
X127559Y174397D02*
X126759Y175996D01*
X128359D01*
X127559Y174397D01*
Y174796D02*
X127159Y175596D01*
X127959D01*
X127559Y174796D01*
X123851Y166294D02*
X123051Y167894D01*
X124651D01*
X123851Y166294D01*
Y166694D02*
X123451Y167494D01*
X124251D01*
X123851Y166694D01*
X147638Y166523D02*
X146838Y168123D01*
X148438D01*
X147638Y166523D01*
Y166923D02*
X147238Y167723D01*
X148038D01*
X147638Y166923D01*
X135433Y170853D02*
X134633Y172453D01*
X136233D01*
X135433Y170853D01*
Y171253D02*
X135033Y172053D01*
X135833D01*
X135433Y171253D01*
X135827Y158255D02*
X135027Y159855D01*
X136627D01*
X135827Y158255D01*
Y158655D02*
X135426Y159455D01*
X136226D01*
X135827Y158655D01*
X155511Y158255D02*
X154711Y159855D01*
X156312D01*
X155511Y158255D01*
Y158655D02*
X155112Y159455D01*
X155912D01*
X155511Y158655D01*
X147637Y161798D02*
X146837Y163398D01*
X148438D01*
X147637Y161798D01*
Y162198D02*
X147238Y162998D01*
X148038D01*
X147637Y162198D01*
X151968Y162192D02*
X151168Y163792D01*
X152768D01*
X151968Y162192D01*
Y162592D02*
X151568Y163392D01*
X152368D01*
X151968Y162592D01*
X151181Y166129D02*
X150381Y167729D01*
X151981D01*
X151181Y166129D01*
Y166529D02*
X150781Y167329D01*
X151581D01*
X151181Y166529D01*
X123986Y186631D02*
X123186Y188231D01*
X124786D01*
X123986Y186631D01*
Y187031D02*
X123586Y187831D01*
X124386D01*
X123986Y187031D01*
X127953Y186602D02*
X127153Y188202D01*
X128753D01*
X127953Y186602D01*
Y187002D02*
X127553Y187802D01*
X128353D01*
X127953Y187002D01*
X131890Y182271D02*
X131090Y183871D01*
X132690D01*
X131890Y182271D01*
Y182671D02*
X131490Y183471D01*
X132290D01*
X131890Y182671D01*
X131890Y170853D02*
X131090Y172453D01*
X132690D01*
X131890Y170853D01*
Y171254D02*
X131490Y172054D01*
X132290D01*
X131890Y171254D01*
X162899Y162586D02*
X162099Y164186D01*
X163699D01*
X162899Y162586D01*
Y162986D02*
X162499Y163786D01*
X163299D01*
X162899Y162986D01*
X155905Y166917D02*
X155105Y168517D01*
X156705D01*
X155905Y166917D01*
Y167316D02*
X155506Y168116D01*
X156306D01*
X155905Y167316D01*
X143307Y162192D02*
X142507Y163792D01*
X144107D01*
X143307Y162192D01*
Y162592D02*
X142907Y163392D01*
X143707D01*
X143307Y162592D01*
X139763Y169672D02*
X138963Y171272D01*
X140563D01*
X139763Y169672D01*
Y170072D02*
X139364Y170872D01*
X140164D01*
X139763Y170072D01*
X144094Y170066D02*
X143294Y171666D01*
X144894D01*
X144094Y170066D01*
Y170466D02*
X143694Y171266D01*
X144494D01*
X144094Y170466D01*
X131496Y166129D02*
X130696Y167729D01*
X132296D01*
X131496Y166129D01*
Y166529D02*
X131096Y167329D01*
X131896D01*
X131496Y166529D01*
X127513Y162146D02*
X126713Y163746D01*
X128313D01*
X127513Y162146D01*
Y162546D02*
X127113Y163346D01*
X127913D01*
X127513Y162546D01*
X123383Y158794D02*
X122583Y160395D01*
X124183D01*
X123383Y158794D01*
Y159195D02*
X122983Y159994D01*
X123783D01*
X123383Y159195D01*
X124016Y162960D02*
X123216Y164560D01*
X124816D01*
X124016Y162960D01*
Y163360D02*
X123616Y164160D01*
X124416D01*
X124016Y163360D01*
X149606Y152349D02*
X148806Y153949D01*
X150406D01*
X149606Y152349D01*
Y152749D02*
X149206Y153549D01*
X150006D01*
X149606Y152749D01*
X148031Y154318D02*
X147231Y155918D01*
X148831D01*
X148031Y154318D01*
Y154718D02*
X147631Y155518D01*
X148431D01*
X148031Y154718D01*
X139370Y154318D02*
X138570Y155918D01*
X140170D01*
X139370Y154318D01*
Y154718D02*
X138970Y155518D01*
X139770D01*
X139370Y154718D01*
X147638Y158649D02*
X146838Y160249D01*
X148438D01*
X147638Y158649D01*
Y159049D02*
X147238Y159849D01*
X148038D01*
X147638Y159049D01*
X139764Y158649D02*
X138964Y160249D01*
X140564D01*
X139764Y158649D01*
Y159049D02*
X139364Y159849D01*
X140164D01*
X139764Y159049D01*
X131933Y162629D02*
X131133Y164229D01*
X132733D01*
X131933Y162629D01*
Y163029D02*
X131533Y163829D01*
X132333D01*
X131933Y163029D01*
X131890Y158649D02*
X131090Y160249D01*
X132690D01*
X131890Y158649D01*
Y159049D02*
X131490Y159849D01*
X132290D01*
X131890Y159049D01*
X135827Y174397D02*
X135027Y175997D01*
X136627D01*
X135827Y174397D01*
Y174797D02*
X135427Y175597D01*
X136227D01*
X135827Y174797D01*
X87008Y138176D02*
X86208Y139776D01*
X87808D01*
X87008Y138176D01*
Y138576D02*
X86608Y139376D01*
X87408D01*
X87008Y138576D01*
X202362Y70460D02*
X201562Y72060D01*
X203162D01*
X202362Y70460D01*
Y70860D02*
X201962Y71660D01*
X202762D01*
X202362Y70860D01*
X203543Y97625D02*
X202743Y99225D01*
X204343D01*
X203543Y97625D01*
Y98025D02*
X203143Y98825D01*
X203943D01*
X203543Y98025D01*
X222835Y81720D02*
X222035Y83320D01*
X223635D01*
X222835Y81720D01*
Y82120D02*
X222435Y82920D01*
X223235D01*
X222835Y82120D01*
Y76720D02*
X222035Y78320D01*
X223635D01*
X222835Y76720D01*
Y77120D02*
X222435Y77920D01*
X223235D01*
X222835Y77120D01*
X165748Y115342D02*
X164948Y116942D01*
X166548D01*
X165748Y115342D01*
Y115742D02*
X165348Y116542D01*
X166148D01*
X165748Y115742D01*
X166535Y118098D02*
X165735Y119698D01*
X167335D01*
X166535Y118098D01*
Y118498D02*
X166135Y119298D01*
X166935D01*
X166535Y118498D01*
X166142Y121247D02*
X165342Y122847D01*
X166942D01*
X166142Y121247D01*
Y121647D02*
X165742Y122447D01*
X166542D01*
X166142Y121647D01*
X168110Y124790D02*
X167310Y126390D01*
X168910D01*
X168110Y124790D01*
Y125190D02*
X167710Y125990D01*
X168510D01*
X168110Y125190D01*
X170673Y122035D02*
X169873Y123635D01*
X171473D01*
X170673Y122035D01*
Y122435D02*
X170273Y123235D01*
X171073D01*
X170673Y122435D01*
X170078Y129121D02*
X169278Y130721D01*
X170878D01*
X170078Y129121D01*
Y129521D02*
X169678Y130321D01*
X170478D01*
X170078Y129521D01*
X173622Y132271D02*
X172822Y133871D01*
X174422D01*
X173622Y132271D01*
Y132671D02*
X173222Y133471D01*
X174022D01*
X173622Y132671D01*
X166535Y129121D02*
X165735Y130721D01*
X167335D01*
X166535Y129121D01*
Y129521D02*
X166135Y130321D01*
X166935D01*
X166535Y129521D01*
X164567Y127547D02*
X163767Y129147D01*
X165367D01*
X164567Y127547D01*
Y127946D02*
X164167Y128746D01*
X164967D01*
X164567Y127946D01*
X162205Y125072D02*
X161405Y126672D01*
X163005D01*
X162205Y125072D01*
Y125472D02*
X161805Y126272D01*
X162605D01*
X162205Y125472D01*
X162598Y129908D02*
X161798Y131508D01*
X163398D01*
X162598Y129908D01*
Y130308D02*
X162198Y131108D01*
X162998D01*
X162598Y130308D01*
X166929Y131483D02*
X166129Y133083D01*
X167729D01*
X166929Y131483D01*
Y131883D02*
X166529Y132683D01*
X167329D01*
X166929Y131883D01*
X150787Y127153D02*
X149987Y128753D01*
X151587D01*
X150787Y127153D01*
Y127552D02*
X150387Y128352D01*
X151187D01*
X150787Y127552D01*
X153150Y127547D02*
X152350Y129147D01*
X153950D01*
X153150Y127547D01*
Y127946D02*
X152750Y128746D01*
X153550D01*
X153150Y127946D01*
X147637Y125971D02*
X146837Y127571D01*
X148438D01*
X147637Y125971D01*
Y126371D02*
X147238Y127171D01*
X148038D01*
X147637Y126371D01*
X211417Y102743D02*
X210617Y104343D01*
X212217D01*
X211417Y102743D01*
Y103143D02*
X211017Y103943D01*
X211817D01*
X211417Y103143D01*
X154004Y131511D02*
X153204Y133111D01*
X154804D01*
X154004Y131511D01*
Y131911D02*
X153604Y132711D01*
X154404D01*
X154004Y131911D01*
X200787Y126759D02*
X199987Y128359D01*
X201587D01*
X200787Y126759D01*
Y127159D02*
X200387Y127959D01*
X201187D01*
X200787Y127159D01*
X135815Y92901D02*
X135015Y94501D01*
X136615D01*
X135815Y92901D01*
Y93301D02*
X135415Y94101D01*
X136215D01*
X135815Y93301D01*
X144882Y92901D02*
X144082Y94501D01*
X145682D01*
X144882Y92901D01*
Y93301D02*
X144482Y94101D01*
X145282D01*
X144882Y93301D01*
Y96444D02*
X144082Y98044D01*
X145682D01*
X144882Y96444D01*
Y96844D02*
X144482Y97644D01*
X145282D01*
X144882Y96844D01*
X136221Y96838D02*
X135421Y98438D01*
X137021D01*
X136221Y96838D01*
Y97238D02*
X135820Y98038D01*
X136620D01*
X136221Y97238D01*
X131933Y99987D02*
X131133Y101587D01*
X132733D01*
X131933Y99987D01*
Y100387D02*
X131533Y101187D01*
X132333D01*
X131933Y100387D01*
X173622Y119279D02*
X172822Y120879D01*
X174422D01*
X173622Y119279D01*
Y119679D02*
X173222Y120479D01*
X174022D01*
X173622Y119679D01*
X179921Y136995D02*
X179121Y138595D01*
X180721D01*
X179921Y136995D01*
Y137395D02*
X179521Y138195D01*
X180321D01*
X179921Y137395D01*
X180709Y140932D02*
X179909Y142532D01*
X181509D01*
X180709Y140932D01*
Y141332D02*
X180309Y142132D01*
X181109D01*
X180709Y141332D01*
X176771Y144475D02*
X175971Y146075D01*
X177571D01*
X176771Y144475D01*
Y144875D02*
X176371Y145675D01*
X177171D01*
X176771Y144875D01*
X135827Y142507D02*
X135027Y144107D01*
X136627D01*
X135827Y142507D01*
Y142907D02*
X135427Y143707D01*
X136227D01*
X135827Y142907D01*
X147637Y134239D02*
X146837Y135839D01*
X148438D01*
X147637Y134239D01*
Y134639D02*
X147238Y135439D01*
X148038D01*
X147637Y134639D01*
X156074Y116636D02*
X155274Y118236D01*
X156874D01*
X156074Y116636D01*
Y117035D02*
X155674Y117835D01*
X156474D01*
X156074Y117035D01*
X163779Y112192D02*
X162979Y113792D01*
X164579D01*
X163779Y112192D01*
Y112592D02*
X163380Y113392D01*
X164180D01*
X163779Y112592D01*
X161823Y107074D02*
X161023Y108674D01*
X162623D01*
X161823Y107074D01*
Y107474D02*
X161423Y108274D01*
X162223D01*
X161823Y107474D01*
X221260Y102743D02*
X220460Y104343D01*
X222060D01*
X221260Y102743D01*
Y103143D02*
X220860Y103943D01*
X221660D01*
X221260Y103143D01*
Y106680D02*
X220460Y108280D01*
X222060D01*
X221260Y106680D01*
Y107080D02*
X220860Y107880D01*
X221660D01*
X221260Y107080D01*
X66142Y173216D02*
X65342Y174816D01*
X66942D01*
X66142Y173216D01*
Y173616D02*
X65742Y174416D01*
X66542D01*
X66142Y173616D01*
X229921Y125578D02*
X230321Y125978D01*
X230721D01*
X230321Y126378D01*
X230721Y126778D01*
X230321D01*
X229921Y127178D01*
X229521Y126778D01*
X229121D01*
X229521Y126378D01*
X229121Y125978D01*
X229521D01*
X229921Y125578D01*
Y125978D02*
X230121Y126178D01*
X230321D01*
X230121Y126378D01*
X230321Y126578D01*
X230121D01*
X229921Y126778D01*
X229721Y126578D01*
X229521D01*
X229721Y126378D01*
X229521Y126178D01*
X229721D01*
X229921Y125978D01*
Y122428D02*
X230321Y122828D01*
X230721D01*
X230321Y123228D01*
X230721Y123628D01*
X230321D01*
X229921Y124028D01*
X229521Y123628D01*
X229121D01*
X229521Y123228D01*
X229121Y122828D01*
X229521D01*
X229921Y122428D01*
Y122828D02*
X230121Y123028D01*
X230321D01*
X230121Y123228D01*
X230321Y123428D01*
X230121D01*
X229921Y123628D01*
X229721Y123428D01*
X229521D01*
X229721Y123228D01*
X229521Y123028D01*
X229721D01*
X229921Y122828D01*
Y119279D02*
X230321Y119679D01*
X230721D01*
X230321Y120079D01*
X230721Y120479D01*
X230321D01*
X229921Y120879D01*
X229521Y120479D01*
X229121D01*
X229521Y120079D01*
X229121Y119679D01*
X229521D01*
X229921Y119279D01*
Y119679D02*
X230121Y119879D01*
X230321D01*
X230121Y120079D01*
X230321Y120279D01*
X230121D01*
X229921Y120479D01*
X229721Y120279D01*
X229521D01*
X229721Y120079D01*
X229521Y119879D01*
X229721D01*
X229921Y119679D01*
Y116129D02*
X230321Y116529D01*
X230721D01*
X230321Y116929D01*
X230721Y117329D01*
X230321D01*
X229921Y117729D01*
X229521Y117329D01*
X229121D01*
X229521Y116929D01*
X229121Y116529D01*
X229521D01*
X229921Y116129D01*
Y116529D02*
X230121Y116729D01*
X230321D01*
X230121Y116929D01*
X230321Y117129D01*
X230121D01*
X229921Y117329D01*
X229721Y117129D01*
X229521D01*
X229721Y116929D01*
X229521Y116729D01*
X229721D01*
X229921Y116529D01*
X233071Y116129D02*
X233471Y116529D01*
X233871D01*
X233471Y116929D01*
X233871Y117329D01*
X233471D01*
X233071Y117729D01*
X232671Y117329D01*
X232271D01*
X232671Y116929D01*
X232271Y116529D01*
X232671D01*
X233071Y116129D01*
Y116529D02*
X233271Y116729D01*
X233471D01*
X233271Y116929D01*
X233471Y117129D01*
X233271D01*
X233071Y117329D01*
X232871Y117129D01*
X232671D01*
X232871Y116929D01*
X232671Y116729D01*
X232871D01*
X233071Y116529D01*
Y119279D02*
X233471Y119679D01*
X233871D01*
X233471Y120079D01*
X233871Y120479D01*
X233471D01*
X233071Y120879D01*
X232671Y120479D01*
X232271D01*
X232671Y120079D01*
X232271Y119679D01*
X232671D01*
X233071Y119279D01*
Y119679D02*
X233271Y119879D01*
X233471D01*
X233271Y120079D01*
X233471Y120279D01*
X233271D01*
X233071Y120479D01*
X232871Y120279D01*
X232671D01*
X232871Y120079D01*
X232671Y119879D01*
X232871D01*
X233071Y119679D01*
Y122428D02*
X233471Y122828D01*
X233871D01*
X233471Y123228D01*
X233871Y123628D01*
X233471D01*
X233071Y124028D01*
X232671Y123628D01*
X232271D01*
X232671Y123228D01*
X232271Y122828D01*
X232671D01*
X233071Y122428D01*
Y122828D02*
X233271Y123028D01*
X233471D01*
X233271Y123228D01*
X233471Y123428D01*
X233271D01*
X233071Y123628D01*
X232871Y123428D01*
X232671D01*
X232871Y123228D01*
X232671Y123028D01*
X232871D01*
X233071Y122828D01*
Y112979D02*
X233471Y113380D01*
X233871D01*
X233471Y113779D01*
X233871Y114180D01*
X233471D01*
X233071Y114579D01*
X232671Y114180D01*
X232271D01*
X232671Y113779D01*
X232271Y113380D01*
X232671D01*
X233071Y112979D01*
Y113380D02*
X233271Y113579D01*
X233471D01*
X233271Y113779D01*
X233471Y113979D01*
X233271D01*
X233071Y114180D01*
X232871Y113979D01*
X232671D01*
X232871Y113779D01*
X232671Y113579D01*
X232871D01*
X233071Y113380D01*
X229921Y112979D02*
X230321Y113380D01*
X230721D01*
X230321Y113779D01*
X230721Y114180D01*
X230321D01*
X229921Y114579D01*
X229521Y114180D01*
X229121D01*
X229521Y113779D01*
X229121Y113380D01*
X229521D01*
X229921Y112979D01*
Y113380D02*
X230121Y113579D01*
X230321D01*
X230121Y113779D01*
X230321Y113979D01*
X230121D01*
X229921Y114180D01*
X229721Y113979D01*
X229521D01*
X229721Y113779D01*
X229521Y113579D01*
X229721D01*
X229921Y113380D01*
X226772Y112979D02*
X227172Y113380D01*
X227572D01*
X227172Y113779D01*
X227572Y114180D01*
X227172D01*
X226772Y114579D01*
X226372Y114180D01*
X225972D01*
X226372Y113779D01*
X225972Y113380D01*
X226372D01*
X226772Y112979D01*
Y113380D02*
X226972Y113579D01*
X227172D01*
X226972Y113779D01*
X227172Y113979D01*
X226972D01*
X226772Y114180D01*
X226572Y113979D01*
X226372D01*
X226572Y113779D01*
X226372Y113579D01*
X226572D01*
X226772Y113380D01*
Y116129D02*
X227172Y116529D01*
X227572D01*
X227172Y116929D01*
X227572Y117329D01*
X227172D01*
X226772Y117729D01*
X226372Y117329D01*
X225972D01*
X226372Y116929D01*
X225972Y116529D01*
X226372D01*
X226772Y116129D01*
Y116529D02*
X226972Y116729D01*
X227172D01*
X226972Y116929D01*
X227172Y117129D01*
X226972D01*
X226772Y117329D01*
X226572Y117129D01*
X226372D01*
X226572Y116929D01*
X226372Y116729D01*
X226572D01*
X226772Y116529D01*
Y119229D02*
X227172Y119629D01*
X227572D01*
X227172Y120029D01*
X227572Y120429D01*
X227172D01*
X226772Y120829D01*
X226372Y120429D01*
X225972D01*
X226372Y120029D01*
X225972Y119629D01*
X226372D01*
X226772Y119229D01*
Y119629D02*
X226972Y119829D01*
X227172D01*
X226972Y120029D01*
X227172Y120229D01*
X226972D01*
X226772Y120429D01*
X226572Y120229D01*
X226372D01*
X226572Y120029D01*
X226372Y119829D01*
X226572D01*
X226772Y119629D01*
Y122428D02*
X227172Y122828D01*
X227572D01*
X227172Y123228D01*
X227572Y123628D01*
X227172D01*
X226772Y124028D01*
X226372Y123628D01*
X225972D01*
X226372Y123228D01*
X225972Y122828D01*
X226372D01*
X226772Y122428D01*
Y122828D02*
X226972Y123028D01*
X227172D01*
X226972Y123228D01*
X227172Y123428D01*
X226972D01*
X226772Y123628D01*
X226572Y123428D01*
X226372D01*
X226572Y123228D01*
X226372Y123028D01*
X226572D01*
X226772Y122828D01*
X233071Y125578D02*
X232271Y127178D01*
X233871D01*
X233071Y125578D01*
Y125978D02*
X232671Y126778D01*
X233471D01*
X233071Y125978D01*
X226772Y125578D02*
X225972Y127178D01*
X227572D01*
X226772Y125578D01*
Y125978D02*
X226372Y126778D01*
X227172D01*
X226772Y125978D01*
X251575Y125871D02*
X250775Y127471D01*
X252375D01*
X251575Y125871D01*
Y126271D02*
X251175Y127071D01*
X251975D01*
X251575Y126271D01*
X228209Y93295D02*
X227409Y94894D01*
X229009D01*
X228209Y93295D01*
Y93695D02*
X227809Y94494D01*
X228609D01*
X228209Y93695D01*
Y88570D02*
X227409Y90170D01*
X229009D01*
X228209Y88570D01*
Y88970D02*
X227809Y89770D01*
X228609D01*
X228209Y88970D01*
X194882Y153924D02*
X194082Y155524D01*
X195682D01*
X194882Y153924D01*
Y154324D02*
X194482Y155124D01*
X195282D01*
X194882Y154324D01*
X183071Y174397D02*
X182271Y175997D01*
X183871D01*
X183071Y174397D01*
Y174797D02*
X182671Y175597D01*
X183471D01*
X183071Y174797D01*
Y169672D02*
X182271Y171272D01*
X183871D01*
X183071Y169672D01*
Y170072D02*
X182671Y170872D01*
X183471D01*
X183071Y170072D01*
X181889Y179515D02*
X181089Y181115D01*
X182689D01*
X181889Y179515D01*
Y179915D02*
X181489Y180715D01*
X182289D01*
X181889Y179915D01*
X205906Y177153D02*
X205105Y178753D01*
X206705D01*
X205906Y177153D01*
Y177553D02*
X205505Y178353D01*
X206306D01*
X205906Y177553D01*
X201181Y183452D02*
X200381Y185052D01*
X201981D01*
X201181Y183452D01*
Y183852D02*
X200781Y184652D01*
X201581D01*
X201181Y183852D01*
X134252Y118885D02*
X133452Y120485D01*
X135052D01*
X134252Y118885D01*
Y119285D02*
X133852Y120085D01*
X134652D01*
X134252Y119285D01*
X137008Y118098D02*
X136208Y119698D01*
X137808D01*
X137008Y118098D01*
Y118498D02*
X136608Y119298D01*
X137408D01*
X137008Y118498D01*
X135433Y121641D02*
X134633Y123241D01*
X136233D01*
X135433Y121641D01*
Y122041D02*
X135033Y122841D01*
X135833D01*
X135433Y122041D01*
X152756Y96444D02*
X151956Y98044D01*
X153556D01*
X152756Y96444D01*
Y96844D02*
X152356Y97644D01*
X153156D01*
X152756Y96844D01*
X238780Y103029D02*
X237980Y104629D01*
X239580D01*
X238780Y103029D01*
Y103429D02*
X238380Y104229D01*
X239180D01*
X238780Y103429D01*
X96850Y153530D02*
X96050Y155130D01*
X97650D01*
X96850Y153530D01*
Y153930D02*
X96450Y154730D01*
X97250D01*
X96850Y153930D01*
X88189Y140932D02*
X87389Y142532D01*
X88989D01*
X88189Y140932D01*
Y141332D02*
X87789Y142132D01*
X88589D01*
X88189Y141332D01*
X134252Y133452D02*
X133452Y135052D01*
X135052D01*
X134252Y133452D01*
Y133852D02*
X133852Y134652D01*
X134652D01*
X134252Y133852D01*
X127165Y122822D02*
X126365Y124422D01*
X127965D01*
X127165Y122822D01*
Y123222D02*
X126765Y124022D01*
X127565D01*
X127165Y123222D01*
X103937Y149594D02*
X103137Y151194D01*
X104737D01*
X103937Y149594D01*
Y149994D02*
X103537Y150794D01*
X104337D01*
X103937Y149994D01*
X100393Y148019D02*
X99594Y149619D01*
X101193D01*
X100393Y148019D01*
Y148419D02*
X99993Y149219D01*
X100794D01*
X100393Y148419D01*
X104331Y140145D02*
X103531Y141745D01*
X105131D01*
X104331Y140145D01*
Y140545D02*
X103931Y141345D01*
X104731D01*
X104331Y140545D01*
X141732Y122428D02*
X140932Y124028D01*
X142532D01*
X141732Y122428D01*
Y122828D02*
X141332Y123628D01*
X142132D01*
X141732Y122828D01*
X238780Y88570D02*
X237980Y90170D01*
X239580D01*
X238780Y88570D01*
Y88970D02*
X238380Y89770D01*
X239180D01*
X238780Y88970D01*
X250984Y75972D02*
X250184Y77572D01*
X251784D01*
X250984Y75972D01*
Y76372D02*
X250584Y77172D01*
X251384D01*
X250984Y76372D01*
X250787Y101169D02*
X249987Y102769D01*
X251587D01*
X250787Y101169D01*
Y101568D02*
X250387Y102368D01*
X251187D01*
X250787Y101568D01*
X207874Y172034D02*
X207074Y173634D01*
X208674D01*
X207874Y172034D01*
Y172434D02*
X207474Y173234D01*
X208274D01*
X207874Y172434D01*
X212598Y170460D02*
X211798Y172060D01*
X213398D01*
X212598Y170460D01*
Y170860D02*
X212198Y171660D01*
X212998D01*
X212598Y170860D01*
X210630Y166129D02*
X209829Y167729D01*
X211430D01*
X210630Y166129D01*
Y166529D02*
X210229Y167329D01*
X211030D01*
X210630Y166529D01*
X213844Y175248D02*
X213044Y176848D01*
X214644D01*
X213844Y175248D01*
Y175648D02*
X213444Y176448D01*
X214244D01*
X213844Y175648D01*
X214173Y166916D02*
X213373Y168516D01*
X214973D01*
X214173Y166916D01*
Y167316D02*
X213773Y168116D01*
X214573D01*
X214173Y167316D01*
X214173Y163373D02*
X213373Y164973D01*
X214973D01*
X214173Y163373D01*
Y163773D02*
X213773Y164573D01*
X214573D01*
X214173Y163773D01*
X213593Y157239D02*
X212793Y158839D01*
X214393D01*
X213593Y157239D01*
Y157639D02*
X213193Y158439D01*
X213993D01*
X213593Y157639D01*
X213385Y153877D02*
X212585Y155477D01*
X214185D01*
X213385Y153877D01*
Y154277D02*
X212985Y155077D01*
X213785D01*
X213385Y154277D01*
X212205Y149200D02*
X211405Y150800D01*
X213005D01*
X212205Y149200D01*
Y149600D02*
X211805Y150400D01*
X212605D01*
X212205Y149600D01*
X143701Y198019D02*
X142901Y199619D01*
X144501D01*
X143701Y198019D01*
Y198419D02*
X143301Y199219D01*
X144101D01*
X143701Y198419D01*
X214173Y159830D02*
X213373Y161430D01*
X214973D01*
X214173Y159830D01*
Y160230D02*
X213773Y161030D01*
X214573D01*
X214173Y160230D01*
X201968Y161798D02*
X201168Y163398D01*
X202768D01*
X201968Y161798D01*
Y162198D02*
X201568Y162998D01*
X202368D01*
X201968Y162198D01*
X201927Y168310D02*
X201127Y169910D01*
X202727D01*
X201927Y168310D01*
Y168710D02*
X201527Y169510D01*
X202327D01*
X201927Y168710D01*
X205511Y163767D02*
X204711Y165367D01*
X206311D01*
X205511Y163767D01*
Y164167D02*
X205111Y164967D01*
X205911D01*
X205511Y164167D01*
X149606Y198413D02*
X148806Y200013D01*
X150406D01*
X149606Y198413D01*
Y198813D02*
X149206Y199613D01*
X150006D01*
X149606Y198813D01*
X163779Y133845D02*
X162979Y135445D01*
X164579D01*
X163779Y133845D01*
Y134245D02*
X163379Y135045D01*
X164179D01*
X163779Y134245D01*
X165354Y176365D02*
X164554Y177965D01*
X166154D01*
X165354Y176365D01*
Y176765D02*
X164954Y177565D01*
X165754D01*
X165354Y176765D01*
X125984Y176365D02*
X125184Y177965D01*
X126784D01*
X125984Y176365D01*
Y176765D02*
X125584Y177565D01*
X126384D01*
X125984Y176765D01*
X205512Y160224D02*
X204712Y161824D01*
X206312D01*
X205512Y160224D01*
Y160624D02*
X205112Y161424D01*
X205912D01*
X205512Y160624D01*
X205511Y156680D02*
X204711Y158280D01*
X206311D01*
X205511Y156680D01*
Y157080D02*
X205111Y157880D01*
X205911D01*
X205511Y157080D01*
X205905Y166523D02*
X205105Y168123D01*
X206705D01*
X205905Y166523D01*
Y166923D02*
X205505Y167723D01*
X206305D01*
X205905Y166923D01*
X205511Y168885D02*
X204711Y170485D01*
X206311D01*
X205511Y168885D01*
Y169285D02*
X205111Y170085D01*
X205911D01*
X205511Y169285D01*
X209055Y175578D02*
X208255Y177178D01*
X209855D01*
X209055Y175578D01*
Y175978D02*
X208655Y176778D01*
X209455D01*
X209055Y175978D01*
X87795Y184633D02*
X86995Y186233D01*
X88595D01*
X87795Y184633D01*
Y185033D02*
X87395Y185833D01*
X88195D01*
X87795Y185033D01*
X82677Y187155D02*
X81877Y188755D01*
X83477D01*
X82677Y187155D01*
Y187555D02*
X82277Y188355D01*
X83077D01*
X82677Y187555D01*
X203543Y183452D02*
X202743Y185052D01*
X204343D01*
X203543Y183452D01*
Y183852D02*
X203143Y184652D01*
X203943D01*
X203543Y183852D01*
X198819Y183452D02*
X198019Y185052D01*
X199619D01*
X198819Y183452D01*
Y183852D02*
X198419Y184652D01*
X199219D01*
X198819Y183852D01*
X194882Y183058D02*
X194082Y184658D01*
X195682D01*
X194882Y183058D01*
Y183458D02*
X194482Y184258D01*
X195282D01*
X194882Y183458D01*
X171260Y158649D02*
X170460Y160249D01*
X172060D01*
X171260Y158649D01*
Y159049D02*
X170860Y159849D01*
X171660D01*
X171260Y159049D01*
X163386Y166523D02*
X162586Y168123D01*
X164186D01*
X163386Y166523D01*
Y166923D02*
X162986Y167723D01*
X163786D01*
X163386Y166923D01*
X167323Y166523D02*
X166523Y168123D01*
X168123D01*
X167323Y166523D01*
Y166923D02*
X166923Y167723D01*
X167723D01*
X167323Y166923D01*
X192520Y176759D02*
X191720Y178359D01*
X193320D01*
X192520Y176759D01*
Y177159D02*
X192120Y177959D01*
X192920D01*
X192520Y177159D01*
X194488Y179909D02*
X193688Y181509D01*
X195288D01*
X194488Y179909D01*
Y180309D02*
X194088Y181109D01*
X194888D01*
X194488Y180309D01*
X167323Y162586D02*
X166523Y164186D01*
X168123D01*
X167323Y162586D01*
Y162986D02*
X166923Y163786D01*
X167723D01*
X167323Y162986D01*
X191339Y165735D02*
X190539Y167335D01*
X192139D01*
X191339Y165735D01*
Y166135D02*
X190939Y166935D01*
X191739D01*
X191339Y166135D01*
X179921Y177152D02*
X179121Y178752D01*
X180721D01*
X179921Y177152D01*
Y177552D02*
X179521Y178352D01*
X180321D01*
X179921Y177552D01*
X194881Y174790D02*
X194081Y176390D01*
X195682D01*
X194881Y174790D01*
Y175190D02*
X194482Y175990D01*
X195282D01*
X194881Y175190D01*
X195840Y158649D02*
X195040Y160249D01*
X196640D01*
X195840Y158649D01*
Y159049D02*
X195440Y159849D01*
X196240D01*
X195840Y159049D01*
X197638Y151562D02*
X196838Y153162D01*
X198438D01*
X197638Y151562D01*
Y151962D02*
X197238Y152762D01*
X198038D01*
X197638Y151962D01*
X182677Y184633D02*
X181877Y186233D01*
X183477D01*
X182677Y184633D01*
Y185033D02*
X182277Y185833D01*
X183077D01*
X182677Y185033D01*
X201969Y177547D02*
X201168Y179147D01*
X202768D01*
X201969Y177547D01*
Y177946D02*
X201569Y178746D01*
X202368D01*
X201969Y177946D01*
X135433Y138570D02*
X134633Y140170D01*
X136233D01*
X135433Y138570D01*
Y138970D02*
X135033Y139770D01*
X135833D01*
X135433Y138970D01*
X137795Y140932D02*
X136995Y142532D01*
X138595D01*
X137795Y140932D01*
Y141332D02*
X137395Y142132D01*
X138195D01*
X137795Y141332D01*
X105118Y182665D02*
X104318Y184265D01*
X105918D01*
X105118Y182665D01*
Y183065D02*
X104718Y183865D01*
X105518D01*
X105118Y183065D01*
X101969Y182665D02*
X101169Y184265D01*
X102769D01*
X101969Y182665D01*
Y183065D02*
X101568Y183865D01*
X102368D01*
X101969Y183065D01*
X99606Y184633D02*
X98806Y186233D01*
X100406D01*
X99606Y184633D01*
Y185033D02*
X99206Y185833D01*
X100006D01*
X99606Y185033D01*
X97244Y186602D02*
X96444Y188202D01*
X98044D01*
X97244Y186602D01*
Y187002D02*
X96844Y187802D01*
X97644D01*
X97244Y187002D01*
X94882Y184633D02*
X94082Y186233D01*
X95682D01*
X94882Y184633D01*
Y185033D02*
X94482Y185833D01*
X95282D01*
X94882Y185033D01*
X92913Y186602D02*
X92113Y188202D01*
X93713D01*
X92913Y186602D01*
Y187002D02*
X92513Y187802D01*
X93313D01*
X92913Y187002D01*
X90551Y184633D02*
X89751Y186233D01*
X91351D01*
X90551Y184633D01*
Y185033D02*
X90151Y185833D01*
X90951D01*
X90551Y185033D01*
X85039Y184633D02*
X84239Y186233D01*
X85839D01*
X85039Y184633D01*
Y185033D02*
X84639Y185833D01*
X85439D01*
X85039Y185033D01*
X84332Y201385D02*
X83532Y202985D01*
X85132D01*
X84332Y201385D01*
Y201785D02*
X83932Y202585D01*
X84732D01*
X84332Y201785D01*
X81496Y196444D02*
X80696Y198044D01*
X82296D01*
X81496Y196444D01*
Y196844D02*
X81096Y197644D01*
X81896D01*
X81496Y196844D01*
X103149Y119279D02*
X102349Y120879D01*
X103949D01*
X103149Y119279D01*
Y119678D02*
X102749Y120478D01*
X103549D01*
X103149Y119678D01*
X155512Y182271D02*
X154712Y183871D01*
X156312D01*
X155512Y182271D01*
Y182671D02*
X155112Y183471D01*
X155912D01*
X155512Y182671D01*
X94095Y171641D02*
X93295Y173241D01*
X94894D01*
X94095Y171641D01*
Y172041D02*
X93695Y172841D01*
X94494D01*
X94095Y172041D01*
Y163767D02*
X93295Y165367D01*
X94894D01*
X94095Y163767D01*
Y164167D02*
X93695Y164967D01*
X94494D01*
X94095Y164167D01*
X102362Y137389D02*
X101562Y138989D01*
X103162D01*
X102362Y137389D01*
Y137789D02*
X101962Y138589D01*
X102762D01*
X102362Y137789D01*
X98523Y136306D02*
X97723Y137906D01*
X99323D01*
X98523Y136306D01*
Y136706D02*
X98123Y137506D01*
X98923D01*
X98523Y136706D01*
X103150Y128334D02*
X102350Y129934D01*
X103950D01*
X103150Y128334D01*
Y128734D02*
X102750Y129534D01*
X103550D01*
X103150Y128734D01*
X105905Y125971D02*
X105105Y127571D01*
X106705D01*
X105905Y125971D01*
Y126371D02*
X105505Y127171D01*
X106305D01*
X105905Y126371D01*
X106299Y129515D02*
X105499Y131115D01*
X107099D01*
X106299Y129515D01*
Y129915D02*
X105899Y130715D01*
X106699D01*
X106299Y129915D01*
X105905Y121247D02*
X105105Y122847D01*
X106705D01*
X105905Y121247D01*
Y121647D02*
X105506Y122447D01*
X106306D01*
X105905Y121647D01*
X103140Y124397D02*
X102340Y125997D01*
X103940D01*
X103140Y124397D01*
Y124797D02*
X102740Y125597D01*
X103540D01*
X103140Y124797D01*
X111294Y138964D02*
X110494Y140564D01*
X112094D01*
X111294Y138964D01*
Y139364D02*
X110894Y140164D01*
X111694D01*
X111294Y139364D01*
X101854Y151141D02*
X101054Y152741D01*
X102654D01*
X101854Y151141D01*
Y151541D02*
X101454Y152341D01*
X102254D01*
X101854Y151541D01*
X100000Y152743D02*
X99200Y154343D01*
X100800D01*
X100000Y152743D01*
Y153143D02*
X99600Y153943D01*
X100400D01*
X100000Y153143D01*
X94882Y140145D02*
X94082Y141745D01*
X95682D01*
X94882Y140145D01*
Y140545D02*
X94482Y141345D01*
X95282D01*
X94882Y140545D01*
X103150Y116917D02*
X102350Y118517D01*
X103950D01*
X103150Y116917D01*
Y117316D02*
X102750Y118116D01*
X103550D01*
X103150Y117316D01*
Y113767D02*
X102350Y115367D01*
X103950D01*
X103150Y113767D01*
Y114167D02*
X102750Y114967D01*
X103550D01*
X103150Y114167D01*
X151575Y146838D02*
X150775Y148438D01*
X152374D01*
X151575Y146838D01*
Y147238D02*
X151174Y148038D01*
X151974D01*
X151575Y147238D01*
X124409Y147231D02*
X123609Y148831D01*
X125209D01*
X124409Y147231D01*
Y147631D02*
X124009Y148431D01*
X124809D01*
X124409Y147631D01*
X170091Y94955D02*
X169291Y96555D01*
X170891D01*
X170091Y94955D01*
Y95355D02*
X169691Y96155D01*
X170491D01*
X170091Y95355D01*
X159449Y158649D02*
X158649Y160249D01*
X160249D01*
X159449Y158649D01*
Y159049D02*
X159049Y159849D01*
X159849D01*
X159449Y159049D01*
X176378Y150381D02*
X175578Y151981D01*
X177178D01*
X176378Y150381D01*
Y150781D02*
X175978Y151581D01*
X176778D01*
X176378Y150781D01*
X173228Y156680D02*
X172428Y158280D01*
X174028D01*
X173228Y156680D01*
Y157080D02*
X172828Y157880D01*
X173628D01*
X173228Y157080D01*
X159449Y162586D02*
X158649Y164186D01*
X160249D01*
X159449Y162586D01*
Y162986D02*
X159049Y163786D01*
X159849D01*
X159449Y162986D01*
Y166523D02*
X158649Y168123D01*
X160249D01*
X159449Y166523D01*
Y166923D02*
X159049Y167723D01*
X159849D01*
X159449Y166923D01*
X161417Y168491D02*
X160617Y170091D01*
X162217D01*
X161417Y168491D01*
Y168891D02*
X161017Y169691D01*
X161817D01*
X161417Y168891D01*
X159449Y170460D02*
X158649Y172060D01*
X160249D01*
X159449Y170460D01*
Y170860D02*
X159049Y171660D01*
X159849D01*
X159449Y170860D01*
X157480Y172428D02*
X156680Y174028D01*
X158280D01*
X157480Y172428D01*
Y172828D02*
X157080Y173628D01*
X157880D01*
X157480Y172828D01*
X159449Y174397D02*
X158649Y175997D01*
X160249D01*
X159449Y174397D01*
Y174797D02*
X159049Y175597D01*
X159849D01*
X159449Y174797D01*
X157480Y176365D02*
X156680Y177965D01*
X158280D01*
X157480Y176365D01*
Y176765D02*
X157080Y177565D01*
X157880D01*
X157480Y176765D01*
X177559Y192113D02*
X176759Y193713D01*
X178359D01*
X177559Y192113D01*
Y192513D02*
X177159Y193313D01*
X177959D01*
X177559Y192513D01*
X85039Y159830D02*
X84239Y161430D01*
X85839D01*
X85039Y159830D01*
Y160230D02*
X84639Y161030D01*
X85439D01*
X85039Y160230D01*
X81890Y157074D02*
X81090Y158674D01*
X82690D01*
X81890Y157074D01*
Y157474D02*
X81490Y158274D01*
X82290D01*
X81890Y157474D01*
X93701Y158649D02*
X92901Y160248D01*
X94501D01*
X93701Y158649D01*
Y159048D02*
X93301Y159848D01*
X94101D01*
X93701Y159048D01*
X87795Y151562D02*
X86995Y153162D01*
X88595D01*
X87795Y151562D01*
Y151962D02*
X87395Y152762D01*
X88195D01*
X87795Y151962D01*
X97638Y141719D02*
X96838Y143319D01*
X98438D01*
X97638Y141719D01*
Y142119D02*
X97238Y142919D01*
X98038D01*
X97638Y142119D01*
X155118Y155105D02*
X154318Y156705D01*
X155918D01*
X155118Y155105D01*
Y155505D02*
X154718Y156305D01*
X155518D01*
X155118Y155505D01*
X155511Y150381D02*
X154711Y151981D01*
X156312D01*
X155511Y150381D01*
Y150781D02*
X155112Y151581D01*
X155912D01*
X155511Y150781D01*
X122047Y148806D02*
X121247Y150406D01*
X122847D01*
X122047Y148806D01*
Y149206D02*
X121647Y150006D01*
X122447D01*
X122047Y149206D01*
X146850Y129515D02*
X146050Y131115D01*
X147650D01*
X146850Y129515D01*
Y129915D02*
X146450Y130715D01*
X147250D01*
X146850Y129915D01*
X144095Y129515D02*
X143295Y131115D01*
X144895D01*
X144095Y129515D01*
Y129915D02*
X143694Y130715D01*
X144494D01*
X144095Y129915D01*
X154724Y121641D02*
X153924Y123241D01*
X155524D01*
X154724Y121641D01*
Y122041D02*
X154324Y122841D01*
X155124D01*
X154724Y122041D01*
X95275Y145656D02*
X94475Y147256D01*
X96075D01*
X95275Y145656D01*
Y146056D02*
X94875Y146856D01*
X95675D01*
X95275Y146056D01*
X87008Y146050D02*
X86208Y147650D01*
X87808D01*
X87008Y146050D01*
Y146450D02*
X86608Y147250D01*
X87408D01*
X87008Y146450D01*
X85827Y149987D02*
X85027Y151587D01*
X86627D01*
X85827Y149987D01*
Y150387D02*
X85427Y151187D01*
X86227D01*
X85827Y150387D01*
X85433Y154318D02*
X84633Y155918D01*
X86233D01*
X85433Y154318D01*
Y154718D02*
X85033Y155518D01*
X85833D01*
X85433Y154718D01*
X96850Y161798D02*
X96050Y163398D01*
X97650D01*
X96850Y161798D01*
Y162198D02*
X96450Y162998D01*
X97250D01*
X96850Y162198D01*
X83858Y151562D02*
X83058Y153162D01*
X84658D01*
X83858Y151562D01*
Y151962D02*
X83458Y152762D01*
X84258D01*
X83858Y151962D01*
X107086Y165735D02*
X106286Y167335D01*
X107886D01*
X107086Y165735D01*
Y166135D02*
X106686Y166935D01*
X107486D01*
X107086Y166135D01*
X139764Y223609D02*
X138964Y225209D01*
X140564D01*
X139764Y223609D01*
Y224009D02*
X139364Y224810D01*
X140164D01*
X139764Y224009D01*
X114173Y199594D02*
X113373Y201194D01*
X114973D01*
X114173Y199594D01*
Y199994D02*
X113773Y200794D01*
X114573D01*
X114173Y199994D01*
X167323Y150775D02*
X166523Y152375D01*
X168123D01*
X167323Y150775D01*
Y151175D02*
X166923Y151975D01*
X167723D01*
X167323Y151175D01*
X155512Y174397D02*
X154712Y175997D01*
X156312D01*
X155512Y174397D01*
Y174797D02*
X155112Y175597D01*
X155912D01*
X155512Y174797D01*
X165354Y184239D02*
X164554Y185839D01*
X166154D01*
X165354Y184239D01*
Y184639D02*
X164954Y185439D01*
X165754D01*
X165354Y184639D01*
X124016Y174791D02*
X123216Y176391D01*
X124816D01*
X124016Y174791D01*
Y175191D02*
X123616Y175991D01*
X124416D01*
X124016Y175191D01*
X79134Y156680D02*
X78334Y158280D01*
X79934D01*
X79134Y156680D01*
Y157080D02*
X78734Y157880D01*
X79534D01*
X79134Y157080D01*
X130709Y110617D02*
X129909Y112217D01*
X131509D01*
X130709Y110617D01*
Y111017D02*
X130309Y111817D01*
X131109D01*
X130709Y111017D01*
X133071Y108255D02*
X132271Y109855D01*
X133871D01*
X133071Y108255D01*
Y108655D02*
X132671Y109455D01*
X133471D01*
X133071Y108655D01*
X139370Y120460D02*
X138570Y122060D01*
X140170D01*
X139370Y120460D01*
Y120860D02*
X138970Y121660D01*
X139770D01*
X139370Y120860D01*
X123622Y119672D02*
X122822Y121272D01*
X124422D01*
X123622Y119672D01*
Y120072D02*
X123222Y120872D01*
X124022D01*
X123622Y120072D01*
X110236Y112586D02*
X109436Y114186D01*
X111036D01*
X110236Y112586D01*
Y112986D02*
X109836Y113786D01*
X110636D01*
X110236Y112986D01*
X123600Y97253D02*
X122801Y98853D01*
X124400D01*
X123600Y97253D01*
Y97653D02*
X123201Y98453D01*
X124001D01*
X123600Y97653D01*
X126378Y104318D02*
X125578Y105918D01*
X127178D01*
X126378Y104318D01*
Y104718D02*
X125978Y105518D01*
X126778D01*
X126378Y104718D01*
X224409Y179909D02*
X223609Y181509D01*
X225209D01*
X224409Y179909D01*
Y180309D02*
X224009Y181109D01*
X224809D01*
X224409Y180309D01*
X144882Y224791D02*
X144082Y226391D01*
X145682D01*
X144882Y224791D01*
Y225190D02*
X144482Y225991D01*
X145282D01*
X144882Y225190D01*
X147244Y223609D02*
X146444Y225209D01*
X148044D01*
X147244Y223609D01*
Y224009D02*
X146844Y224810D01*
X147644D01*
X147244Y224009D01*
X137795Y201562D02*
X136995Y203162D01*
X138595D01*
X137795Y201562D01*
Y201962D02*
X137395Y202762D01*
X138195D01*
X137795Y201962D01*
X124016Y178334D02*
X123216Y179934D01*
X124816D01*
X124016Y178334D01*
Y178734D02*
X123616Y179534D01*
X124416D01*
X124016Y178734D01*
X125984Y180302D02*
X125184Y181902D01*
X126784D01*
X125984Y180302D01*
Y180702D02*
X125584Y181502D01*
X126384D01*
X125984Y180702D01*
X118110Y184239D02*
X117310Y185839D01*
X118910D01*
X118110Y184239D01*
Y184639D02*
X117710Y185439D01*
X118510D01*
X118110Y184639D01*
X124016Y198019D02*
X123216Y199619D01*
X124816D01*
X124016Y198019D01*
Y198419D02*
X123616Y199219D01*
X124416D01*
X124016Y198419D01*
X125984Y144869D02*
X125184Y146469D01*
X126784D01*
X125984Y144869D01*
Y145269D02*
X125584Y146069D01*
X126384D01*
X125984Y145269D01*
X118110Y148806D02*
X117310Y150406D01*
X118910D01*
X118110Y148806D01*
Y149206D02*
X117710Y150006D01*
X118510D01*
X118110Y149206D01*
X131890Y154712D02*
X131090Y156312D01*
X132690D01*
X131890Y154712D01*
Y155112D02*
X131490Y155912D01*
X132290D01*
X131890Y155112D01*
X116535Y122887D02*
X115735Y124487D01*
X117335D01*
X116535Y122887D01*
Y123287D02*
X116135Y124087D01*
X116935D01*
X116535Y123287D01*
X148622Y117704D02*
X147822Y119304D01*
X149422D01*
X148622Y117704D01*
Y118104D02*
X148222Y118904D01*
X149022D01*
X148622Y118104D01*
X152362Y118491D02*
X151562Y120091D01*
X153162D01*
X152362Y118491D01*
Y118891D02*
X151962Y119691D01*
X152762D01*
X152362Y118891D01*
X150799Y122428D02*
X149999Y124028D01*
X151599D01*
X150799Y122428D01*
Y122828D02*
X150399Y123628D01*
X151199D01*
X150799Y122828D01*
X131890Y178334D02*
X131090Y179934D01*
X132690D01*
X131890Y178334D01*
Y178734D02*
X131490Y179534D01*
X132290D01*
X131890Y178734D01*
X141339Y235420D02*
X140539Y237020D01*
X142139D01*
X141339Y235420D01*
Y235821D02*
X140939Y236620D01*
X141739D01*
X141339Y235821D01*
X148819Y235420D02*
X148019Y237020D01*
X149619D01*
X148819Y235420D01*
Y235821D02*
X148419Y236620D01*
X149219D01*
X148819Y235821D01*
X139764Y233452D02*
X138964Y235052D01*
X140564D01*
X139764Y233452D01*
Y233852D02*
X139364Y234652D01*
X140164D01*
X139764Y233852D01*
X131890Y220853D02*
X131090Y222453D01*
X132690D01*
X131890Y220853D01*
Y221253D02*
X131490Y222054D01*
X132290D01*
X131890Y221253D01*
X217717Y141326D02*
X216916Y142926D01*
X218516D01*
X217717Y141326D01*
Y141726D02*
X217317Y142526D01*
X218116D01*
X217717Y141726D01*
X220472Y140932D02*
X219672Y142532D01*
X221272D01*
X220472Y140932D01*
Y141332D02*
X220072Y142132D01*
X220872D01*
X220472Y141332D01*
X157480Y152743D02*
X156680Y154343D01*
X158280D01*
X157480Y152743D01*
Y153143D02*
X157080Y153943D01*
X157880D01*
X157480Y153143D01*
X159449Y154712D02*
X158649Y156312D01*
X160249D01*
X159449Y154712D01*
Y155112D02*
X159049Y155912D01*
X159849D01*
X159449Y155112D01*
Y150775D02*
X158649Y152375D01*
X160249D01*
X159449Y150775D01*
Y151175D02*
X159049Y151975D01*
X159849D01*
X159449Y151175D01*
X149606Y140932D02*
X148806Y142532D01*
X150406D01*
X149606Y140932D01*
Y141332D02*
X149206Y142132D01*
X150006D01*
X149606Y141332D01*
X161417Y156680D02*
X160617Y158280D01*
X162217D01*
X161417Y156680D01*
Y157080D02*
X161017Y157880D01*
X161817D01*
X161417Y157080D01*
X165354Y156680D02*
X164554Y158280D01*
X166154D01*
X165354Y156680D01*
Y157080D02*
X164954Y157880D01*
X165754D01*
X165354Y157080D01*
X151575Y158649D02*
X150775Y160249D01*
X152375D01*
X151575Y158649D01*
Y159049D02*
X151175Y159849D01*
X151975D01*
X151575Y159049D01*
X149606Y156680D02*
X148806Y158280D01*
X150406D01*
X149606Y156680D01*
Y157080D02*
X149206Y157880D01*
X150006D01*
X149606Y157080D01*
X250000Y115756D02*
X249200Y117356D01*
X250800D01*
X250000Y115756D01*
Y116156D02*
X249600Y116956D01*
X250400D01*
X250000Y116156D01*
X245669Y134633D02*
X244869Y136233D01*
X246469D01*
X245669Y134633D01*
Y135033D02*
X245269Y135833D01*
X246069D01*
X245669Y135033D01*
X153543Y184239D02*
X152743Y185839D01*
X154343D01*
X153543Y184239D01*
Y184639D02*
X153143Y185439D01*
X153943D01*
X153543Y184639D01*
X161417Y188176D02*
X160617Y189776D01*
X162217D01*
X161417Y188176D01*
Y188576D02*
X161017Y189376D01*
X161817D01*
X161417Y188576D01*
X165354Y192113D02*
X164554Y193713D01*
X166154D01*
X165354Y192113D01*
Y192513D02*
X164954Y193313D01*
X165754D01*
X165354Y192513D01*
X169291Y192113D02*
X168491Y193713D01*
X170091D01*
X169291Y192113D01*
Y192513D02*
X168891Y193313D01*
X169691D01*
X169291Y192513D01*
X165354Y188176D02*
X164554Y189776D01*
X166154D01*
X165354Y188176D01*
Y188576D02*
X164954Y189376D01*
X165754D01*
X165354Y188576D01*
X173228Y192113D02*
X172428Y193713D01*
X174028D01*
X173228Y192113D01*
Y192513D02*
X172828Y193313D01*
X173628D01*
X173228Y192513D01*
X165354Y180302D02*
X164554Y181902D01*
X166154D01*
X165354Y180302D01*
Y180702D02*
X164954Y181502D01*
X165754D01*
X165354Y180702D01*
X169291Y184239D02*
X168491Y185839D01*
X170091D01*
X169291Y184239D01*
Y184639D02*
X168891Y185439D01*
X169691D01*
X169291Y184639D01*
X175590Y187782D02*
X174790Y189382D01*
X176390D01*
X175590Y187782D01*
Y188182D02*
X175190Y188982D01*
X175990D01*
X175590Y188182D01*
X169291Y188176D02*
X168491Y189776D01*
X170091D01*
X169291Y188176D01*
Y188576D02*
X168891Y189376D01*
X169691D01*
X169291Y188576D01*
X137795Y176365D02*
X136995Y177965D01*
X138595D01*
X137795Y176365D01*
Y176765D02*
X137395Y177565D01*
X138195D01*
X137795Y176765D01*
X139764Y186208D02*
X138964Y187808D01*
X140564D01*
X139764Y186208D01*
Y186608D02*
X139364Y187408D01*
X140164D01*
X139764Y186608D01*
X141732Y176365D02*
X140932Y177965D01*
X142532D01*
X141732Y176365D01*
Y176765D02*
X141332Y177565D01*
X142132D01*
X141732Y176765D01*
X145669Y184239D02*
X144869Y185839D01*
X146469D01*
X145669Y184239D01*
Y184639D02*
X145269Y185439D01*
X146069D01*
X145669Y184639D01*
Y180302D02*
X144869Y181902D01*
X146469D01*
X145669Y180302D01*
Y180702D02*
X145269Y181502D01*
X146069D01*
X145669Y180702D01*
X149606Y180302D02*
X148806Y181902D01*
X150406D01*
X149606Y180302D01*
Y180702D02*
X149206Y181502D01*
X150006D01*
X149606Y180702D01*
X149606Y176365D02*
X148806Y177965D01*
X150406D01*
X149606Y176365D01*
Y176765D02*
X149206Y177565D01*
X150006D01*
X149606Y176765D01*
X153543Y180302D02*
X152743Y181902D01*
X154343D01*
X153543Y180302D01*
Y180702D02*
X153143Y181502D01*
X153943D01*
X153543Y180702D01*
X138583Y205499D02*
X137783Y207099D01*
X139383D01*
X138583Y205499D01*
Y205899D02*
X138183Y206699D01*
X138983D01*
X138583Y205899D01*
X165354Y196050D02*
X164554Y197650D01*
X166154D01*
X165354Y196050D01*
Y196450D02*
X164954Y197250D01*
X165754D01*
X165354Y196450D01*
X114173Y196050D02*
X113373Y197650D01*
X114973D01*
X114173Y196050D01*
Y196450D02*
X113773Y197250D01*
X114573D01*
X114173Y196450D01*
X173228Y144869D02*
X172428Y146469D01*
X174028D01*
X173228Y144869D01*
Y145269D02*
X172828Y146069D01*
X173628D01*
X173228Y145269D01*
X163386Y150775D02*
X162586Y152375D01*
X164186D01*
X163386Y150775D01*
Y151175D02*
X162986Y151975D01*
X163786D01*
X163386Y151175D01*
X173228Y180302D02*
X172428Y181902D01*
X174028D01*
X173228Y180302D01*
Y180702D02*
X172828Y181502D01*
X173628D01*
X173228Y180702D01*
X161417Y180302D02*
X160617Y181902D01*
X162217D01*
X161417Y180302D01*
Y180702D02*
X161017Y181502D01*
X161817D01*
X161417Y180702D01*
X153543Y176365D02*
X152743Y177965D01*
X154343D01*
X153543Y176365D01*
Y176765D02*
X153143Y177565D01*
X153943D01*
X153543Y176765D01*
X169291Y196050D02*
X168491Y197650D01*
X170091D01*
X169291Y196050D01*
Y196450D02*
X168891Y197250D01*
X169691D01*
X169291Y196450D01*
X161417Y192113D02*
X160617Y193713D01*
X162217D01*
X161417Y192113D01*
Y192513D02*
X161017Y193313D01*
X161817D01*
X161417Y192513D01*
X173228Y148806D02*
X172428Y150406D01*
X174028D01*
X173228Y148806D01*
Y149206D02*
X172828Y150006D01*
X173628D01*
X173228Y149206D01*
X161417Y140932D02*
X160617Y142532D01*
X162217D01*
X161417Y140932D01*
Y141332D02*
X161017Y142132D01*
X161817D01*
X161417Y141332D01*
X203543Y151956D02*
X202743Y153556D01*
X204343D01*
X203543Y151956D01*
Y152356D02*
X203143Y153156D01*
X203943D01*
X203543Y152356D01*
X130709Y104712D02*
X129909Y106312D01*
X131509D01*
X130709Y104712D01*
Y105112D02*
X130309Y105912D01*
X131109D01*
X130709Y105112D01*
X118504Y108649D02*
X117704Y110249D01*
X119304D01*
X118504Y108649D01*
Y109049D02*
X118104Y109849D01*
X118904D01*
X118504Y109049D01*
X127953Y146838D02*
X127153Y148438D01*
X128753D01*
X127953Y146838D01*
Y147238D02*
X127553Y148038D01*
X128353D01*
X127953Y147238D01*
X145669Y148806D02*
X144869Y150406D01*
X146469D01*
X145669Y148806D01*
Y149206D02*
X145269Y150006D01*
X146069D01*
X145669Y149206D01*
X135827Y146838D02*
X135027Y148438D01*
X136627D01*
X135827Y146838D01*
Y147238D02*
X135427Y148038D01*
X136227D01*
X135827Y147238D01*
X143701Y142901D02*
X142901Y144501D01*
X144501D01*
X143701Y142901D01*
Y143301D02*
X143301Y144101D01*
X144101D01*
X143701Y143301D01*
X118110Y172428D02*
X117310Y174028D01*
X118910D01*
X118110Y172428D01*
Y172828D02*
X117710Y173628D01*
X118510D01*
X118110Y172828D01*
Y176365D02*
X117310Y177965D01*
X118910D01*
X118110Y176365D01*
Y176765D02*
X117710Y177565D01*
X118510D01*
X118110Y176765D01*
Y180302D02*
X117310Y181902D01*
X118910D01*
X118110Y180302D01*
Y180702D02*
X117710Y181502D01*
X118510D01*
X118110Y180702D01*
X127953Y142901D02*
X127153Y144501D01*
X128753D01*
X127953Y142901D01*
Y143301D02*
X127553Y144101D01*
X128353D01*
X127953Y143301D01*
X153949Y99594D02*
X153149Y101194D01*
X154749D01*
X153949Y99594D01*
Y99994D02*
X153549Y100794D01*
X154349D01*
X153949Y99994D01*
X142717Y117704D02*
X141917Y119304D01*
X143517D01*
X142717Y117704D01*
Y118104D02*
X142316Y118904D01*
X143116D01*
X142717Y118104D01*
X147638Y178334D02*
X146838Y179934D01*
X148438D01*
X147638Y178334D01*
Y178734D02*
X147238Y179534D01*
X148038D01*
X147638Y178734D01*
X220866Y174397D02*
X220066Y175997D01*
X221666D01*
X220866Y174397D01*
Y174797D02*
X220466Y175597D01*
X221266D01*
X220866Y174797D01*
X217736Y180557D02*
X216936Y182157D01*
X218536D01*
X217736Y180557D01*
Y180957D02*
X217336Y181757D01*
X218136D01*
X217736Y180957D01*
X157480Y184239D02*
X156680Y185839D01*
X158280D01*
X157480Y184239D01*
Y184639D02*
X157080Y185439D01*
X157880D01*
X157480Y184639D01*
X161417Y184239D02*
X160617Y185839D01*
X162217D01*
X161417Y184239D01*
Y184639D02*
X161017Y185439D01*
X161817D01*
X161417Y184639D01*
X157480Y180302D02*
X156680Y181902D01*
X158280D01*
X157480Y180302D01*
Y180702D02*
X157080Y181502D01*
X157880D01*
X157480Y180702D01*
X156693Y95251D02*
X155893Y96851D01*
X157493D01*
X156693Y95251D01*
Y95651D02*
X156293Y96451D01*
X157093D01*
X156693Y95651D01*
X214566Y180302D02*
X213767Y181902D01*
X215367D01*
X214566Y180302D01*
Y180702D02*
X214166Y181502D01*
X214967D01*
X214566Y180702D01*
X139764Y174397D02*
X138964Y175997D01*
X140564D01*
X139764Y174397D01*
Y174797D02*
X139364Y175597D01*
X140164D01*
X139764Y174797D01*
X133858Y176365D02*
X133058Y177965D01*
X134658D01*
X133858Y176365D01*
Y176765D02*
X133458Y177565D01*
X134258D01*
X133858Y176765D01*
X145669Y196050D02*
X144869Y197650D01*
X146469D01*
X145669Y196050D01*
Y196450D02*
X145269Y197250D01*
X146069D01*
X145669Y196450D01*
X141732Y196050D02*
X140932Y197650D01*
X142532D01*
X141732Y196050D01*
Y196450D02*
X141332Y197250D01*
X142132D01*
X141732Y196450D01*
X129921Y192113D02*
X129121Y193713D01*
X130721D01*
X129921Y192113D01*
Y192513D02*
X129521Y193313D01*
X130321D01*
X129921Y192513D01*
X137795Y192113D02*
X136995Y193713D01*
X138595D01*
X137795Y192113D01*
Y192513D02*
X137395Y193313D01*
X138195D01*
X137795Y192513D01*
X133858Y196050D02*
X133058Y197650D01*
X134658D01*
X133858Y196050D01*
Y196450D02*
X133458Y197250D01*
X134258D01*
X133858Y196450D01*
X137795Y196050D02*
X136995Y197650D01*
X138595D01*
X137795Y196050D01*
Y196450D02*
X137395Y197250D01*
X138195D01*
X137795Y196450D01*
X129921Y160617D02*
X129121Y162217D01*
X130721D01*
X129921Y160617D01*
Y161017D02*
X129521Y161817D01*
X130321D01*
X129921Y161017D01*
X141732Y152743D02*
X140932Y154343D01*
X142532D01*
X141732Y152743D01*
Y153143D02*
X141332Y153943D01*
X142132D01*
X141732Y153143D01*
X118110Y140932D02*
X117310Y142532D01*
X118910D01*
X118110Y140932D01*
Y141332D02*
X117710Y142132D01*
X118510D01*
X118110Y141332D01*
X157480Y192113D02*
X156680Y193713D01*
X158280D01*
X157480Y192113D01*
Y192513D02*
X157080Y193313D01*
X157880D01*
X157480Y192513D01*
X145669Y192113D02*
X144869Y193713D01*
X146469D01*
X145669Y192113D01*
Y192513D02*
X145269Y193313D01*
X146069D01*
X145669Y192513D01*
X137795Y136995D02*
X136995Y138595D01*
X138595D01*
X137795Y136995D01*
Y137395D02*
X137395Y138195D01*
X138195D01*
X137795Y137395D01*
X147638Y146838D02*
X146838Y148438D01*
X148438D01*
X147638Y146838D01*
Y147238D02*
X147238Y148038D01*
X148038D01*
X147638Y147238D01*
X224803Y177152D02*
X224003Y178752D01*
X225603D01*
X224803Y177152D01*
Y177552D02*
X224403Y178352D01*
X225203D01*
X224803Y177552D01*
X220866Y171247D02*
X220066Y172847D01*
X221666D01*
X220866Y171247D01*
Y171647D02*
X220466Y172447D01*
X221266D01*
X220866Y171647D01*
X217677Y174437D02*
X216877Y176037D01*
X218477D01*
X217677Y174437D01*
Y174837D02*
X217277Y175637D01*
X218077D01*
X217677Y174837D01*
X169291Y176365D02*
X168491Y177965D01*
X170091D01*
X169291Y176365D01*
Y176765D02*
X168891Y177565D01*
X169691D01*
X169291Y176765D01*
X125984Y168491D02*
X125184Y170091D01*
X126784D01*
X125984Y168491D01*
Y168891D02*
X125584Y169691D01*
X126384D01*
X125984Y168891D01*
X141732Y148806D02*
X140932Y150406D01*
X142532D01*
X141732Y148806D01*
Y149206D02*
X141332Y150006D01*
X142132D01*
X141732Y149206D01*
X143701Y158649D02*
X142901Y160249D01*
X144501D01*
X143701Y158649D01*
Y159049D02*
X143301Y159849D01*
X144101D01*
X143701Y159049D01*
X222441Y151956D02*
X221641Y153556D01*
X223241D01*
X222441Y151956D01*
Y152356D02*
X222041Y153156D01*
X222841D01*
X222441Y152356D01*
X135827Y154712D02*
X135027Y156312D01*
X136627D01*
X135827Y154712D01*
Y155112D02*
X135427Y155912D01*
X136227D01*
X135827Y155112D01*
X139764Y162586D02*
X138964Y164186D01*
X140564D01*
X139764Y162586D01*
Y162986D02*
X139364Y163786D01*
X140164D01*
X139764Y162986D01*
Y166523D02*
X138964Y168123D01*
X140564D01*
X139764Y166523D01*
Y166923D02*
X139364Y167723D01*
X140164D01*
X139764Y166923D01*
X143701Y166523D02*
X142901Y168123D01*
X144501D01*
X143701Y166523D01*
Y166923D02*
X143301Y167723D01*
X144101D01*
X143701Y166923D01*
Y174397D02*
X142901Y175997D01*
X144501D01*
X143701Y174397D01*
Y174797D02*
X143301Y175597D01*
X144101D01*
X143701Y174797D01*
X147638Y170460D02*
X146838Y172060D01*
X148438D01*
X147638Y170460D01*
Y170860D02*
X147238Y171660D01*
X148038D01*
X147638Y170860D01*
Y174397D02*
X146838Y175997D01*
X148438D01*
X147638Y174397D01*
Y174797D02*
X147238Y175597D01*
X148038D01*
X147638Y174797D01*
X155512Y170460D02*
X154712Y172060D01*
X156312D01*
X155512Y170460D01*
Y170860D02*
X155112Y171660D01*
X155912D01*
X155512Y170860D01*
D107*
X159461Y240551D02*
G03*
X159461Y240551I-800J0D01*
G01*
X131902D02*
G03*
X131902Y240551I-800J0D01*
G01*
X146666Y110039D02*
G03*
X146666Y110039I-800J0D01*
G01*
Y105709D02*
G03*
X146666Y105709I-800J0D01*
G01*
X142335Y110039D02*
G03*
X142335Y110039I-800J0D01*
G01*
Y105709D02*
G03*
X142335Y105709I-800J0D01*
G01*
D108*
X146266Y110039D02*
G03*
X146266Y110039I-400J0D01*
G01*
Y105709D02*
G03*
X146266Y105709I-400J0D01*
G01*
X141935Y110039D02*
G03*
X141935Y110039I-400J0D01*
G01*
Y105709D02*
G03*
X141935Y105709I-400J0D01*
G01*
M02*
