G04*
G04 #@! TF.GenerationSoftware,Altium Limited,Altium Designer,19.1.6 (110)*
G04*
G04 Layer_Physical_Order=3*
G04 Layer_Color=16711833*
%FSLAX25Y25*%
%MOIN*%
G70*
G01*
G75*
%ADD11C,0.00500*%
%ADD24C,0.01772*%
%ADD71C,0.00433*%
%ADD72C,0.00598*%
%ADD77C,0.00600*%
%ADD79C,0.00591*%
%ADD85O,0.03740X0.03543*%
%ADD88O,0.03543X0.03740*%
G04:AMPARAMS|DCode=90|XSize=37.4mil|YSize=39.37mil|CornerRadius=9.35mil|HoleSize=0mil|Usage=FLASHONLY|Rotation=90.000|XOffset=0mil|YOffset=0mil|HoleType=Round|Shape=RoundedRectangle|*
%AMROUNDEDRECTD90*
21,1,0.03740,0.02067,0,0,90.0*
21,1,0.01870,0.03937,0,0,90.0*
1,1,0.01870,0.01034,0.00935*
1,1,0.01870,0.01034,-0.00935*
1,1,0.01870,-0.01034,-0.00935*
1,1,0.01870,-0.01034,0.00935*
%
%ADD90ROUNDEDRECTD90*%
%ADD97C,0.01968*%
G36*
X68898Y244024D02*
X128208D01*
X128369Y243550D01*
X128219Y243435D01*
X127570Y242590D01*
X127163Y241607D01*
X127024Y240551D01*
X127163Y239496D01*
X127570Y238512D01*
X128219Y237667D01*
X129063Y237019D01*
X130047Y236612D01*
X131102Y236473D01*
X132158Y236612D01*
X133142Y237019D01*
X133986Y237667D01*
X134634Y238512D01*
X135042Y239496D01*
X135180Y240551D01*
X135042Y241607D01*
X134634Y242590D01*
X133986Y243435D01*
X133836Y243550D01*
X133996Y244024D01*
X155767D01*
X155928Y243550D01*
X155778Y243435D01*
X155130Y242590D01*
X154722Y241607D01*
X154583Y240551D01*
X154722Y239496D01*
X155130Y238512D01*
X155778Y237667D01*
X156622Y237019D01*
X157606Y236612D01*
X158661Y236473D01*
X159717Y236612D01*
X160701Y237019D01*
X161545Y237667D01*
X162193Y238512D01*
X162601Y239496D01*
X162740Y240551D01*
X162601Y241607D01*
X162193Y242590D01*
X161545Y243435D01*
X161395Y243550D01*
X161555Y244024D01*
X246063D01*
X246153Y244042D01*
X247591Y243900D01*
X249060Y243455D01*
X250413Y242731D01*
X251600Y241757D01*
X252574Y240571D01*
X253297Y239217D01*
X253743Y237748D01*
X253884Y236311D01*
X253866Y236221D01*
Y90039D01*
X253366Y89990D01*
X253344Y90103D01*
X252929Y90724D01*
X252308Y91139D01*
X251575Y91285D01*
X250842Y91139D01*
X250221Y90724D01*
X249806Y90103D01*
X249660Y89370D01*
X249806Y88637D01*
X250221Y88016D01*
X250842Y87601D01*
X251575Y87455D01*
X252308Y87601D01*
X252929Y88016D01*
X253344Y88637D01*
X253366Y88750D01*
X253866Y88701D01*
Y59055D01*
X253884Y58965D01*
X253743Y57528D01*
X253297Y56059D01*
X252574Y54705D01*
X251600Y53518D01*
X250413Y52544D01*
X249060Y51821D01*
X247591Y51375D01*
X246153Y51234D01*
X246063Y51252D01*
X68898Y51252D01*
X68807Y51234D01*
X67370Y51375D01*
X65901Y51821D01*
X64547Y52545D01*
X63361Y53518D01*
X62387Y54705D01*
X61663Y56059D01*
X61218Y57528D01*
X61076Y58965D01*
X61094Y59055D01*
X61094Y236221D01*
X61076Y236311D01*
X61218Y237748D01*
X61664Y239217D01*
X62387Y240571D01*
X63361Y241757D01*
X64547Y242731D01*
X65901Y243455D01*
X67370Y243900D01*
X68807Y244042D01*
X68898Y244024D01*
D02*
G37*
%LPC*%
G36*
X233976Y238635D02*
X233090Y238459D01*
X232339Y237957D01*
X231837Y237205D01*
X231731Y236676D01*
X231222D01*
X231116Y237205D01*
X230614Y237957D01*
X229863Y238459D01*
X228976Y238635D01*
X228090Y238459D01*
X227339Y237957D01*
X226836Y237205D01*
X226731Y236676D01*
X226221D01*
X226116Y237205D01*
X225614Y237957D01*
X224863Y238459D01*
X223976Y238635D01*
X223090Y238459D01*
X222339Y237957D01*
X221836Y237205D01*
X221731Y236676D01*
X221221D01*
X221116Y237205D01*
X220614Y237957D01*
X219863Y238459D01*
X218976Y238635D01*
X218090Y238459D01*
X217339Y237957D01*
X216837Y237205D01*
X216731Y236676D01*
X216221D01*
X216116Y237205D01*
X215614Y237957D01*
X214863Y238459D01*
X213976Y238635D01*
X213090Y238459D01*
X212339Y237957D01*
X211837Y237205D01*
X211731Y236676D01*
X211222D01*
X211116Y237205D01*
X210614Y237957D01*
X209863Y238459D01*
X208976Y238635D01*
X208090Y238459D01*
X207339Y237957D01*
X206837Y237205D01*
X206731Y236676D01*
X206222D01*
X206116Y237205D01*
X205614Y237957D01*
X204863Y238459D01*
X203976Y238635D01*
X203090Y238459D01*
X202339Y237957D01*
X201836Y237205D01*
X201731Y236676D01*
X201221D01*
X201116Y237205D01*
X200614Y237957D01*
X199863Y238459D01*
X198976Y238635D01*
X198090Y238459D01*
X197339Y237957D01*
X196836Y237205D01*
X196731Y236676D01*
X196221D01*
X196116Y237205D01*
X195614Y237957D01*
X194863Y238459D01*
X193976Y238635D01*
X193090Y238459D01*
X192339Y237957D01*
X191837Y237205D01*
X191731Y236676D01*
X191221D01*
X191116Y237205D01*
X190614Y237957D01*
X189863Y238459D01*
X188976Y238635D01*
X188090Y238459D01*
X187339Y237957D01*
X186837Y237205D01*
X186731Y236676D01*
X186222D01*
X186116Y237205D01*
X185614Y237957D01*
X184863Y238459D01*
X183976Y238635D01*
X183090Y238459D01*
X182339Y237957D01*
X181836Y237205D01*
X181731Y236676D01*
X181221D01*
X181116Y237205D01*
X180614Y237957D01*
X179863Y238459D01*
X178976Y238635D01*
X178090Y238459D01*
X177339Y237957D01*
X176837Y237205D01*
X176731Y236676D01*
X176222D01*
X176116Y237205D01*
X175614Y237957D01*
X174863Y238459D01*
X173976Y238635D01*
X173090Y238459D01*
X172339Y237957D01*
X171836Y237205D01*
X171731Y236676D01*
X171221D01*
X171116Y237205D01*
X170614Y237957D01*
X169863Y238459D01*
X168976Y238635D01*
X168090Y238459D01*
X167339Y237957D01*
X166837Y237205D01*
X166660Y236319D01*
Y236122D01*
X166837Y235236D01*
X167339Y234484D01*
X168090Y233982D01*
X168124Y233975D01*
Y233466D01*
X168090Y233459D01*
X167339Y232957D01*
X166837Y232205D01*
X166660Y231319D01*
Y231122D01*
X166837Y230236D01*
X167339Y229484D01*
X168090Y228982D01*
X168976Y228806D01*
X169863Y228982D01*
X170614Y229484D01*
X171116Y230236D01*
X171221Y230765D01*
X171731D01*
X171836Y230236D01*
X172339Y229484D01*
X173090Y228982D01*
X173976Y228806D01*
X174863Y228982D01*
X175614Y229484D01*
X176116Y230236D01*
X176222Y230765D01*
X176731D01*
X176837Y230236D01*
X177339Y229484D01*
X178090Y228982D01*
X178976Y228806D01*
X179863Y228982D01*
X180614Y229484D01*
X181116Y230236D01*
X181221Y230765D01*
X181731D01*
X181836Y230236D01*
X182339Y229484D01*
X183090Y228982D01*
X183976Y228806D01*
X184863Y228982D01*
X185614Y229484D01*
X186116Y230236D01*
X186222Y230765D01*
X186731D01*
X186837Y230236D01*
X187339Y229484D01*
X188090Y228982D01*
X188976Y228806D01*
X189863Y228982D01*
X190614Y229484D01*
X191116Y230236D01*
X191221Y230765D01*
X191731D01*
X191837Y230236D01*
X192339Y229484D01*
X193090Y228982D01*
X193976Y228806D01*
X194863Y228982D01*
X195614Y229484D01*
X196116Y230236D01*
X196221Y230765D01*
X196731D01*
X196836Y230236D01*
X197339Y229484D01*
X198090Y228982D01*
X198976Y228806D01*
X199863Y228982D01*
X200614Y229484D01*
X201116Y230236D01*
X201221Y230765D01*
X201731D01*
X201836Y230236D01*
X202339Y229484D01*
X203090Y228982D01*
X203976Y228806D01*
X204863Y228982D01*
X205614Y229484D01*
X206116Y230236D01*
X206222Y230765D01*
X206731D01*
X206837Y230236D01*
X207339Y229484D01*
X208090Y228982D01*
X208976Y228806D01*
X209863Y228982D01*
X210614Y229484D01*
X211116Y230236D01*
X211222Y230765D01*
X211731D01*
X211837Y230236D01*
X212339Y229484D01*
X213090Y228982D01*
X213976Y228806D01*
X214863Y228982D01*
X215614Y229484D01*
X216116Y230236D01*
X216221Y230765D01*
X216731D01*
X216837Y230236D01*
X217339Y229484D01*
X218090Y228982D01*
X218976Y228806D01*
X219863Y228982D01*
X220614Y229484D01*
X221116Y230236D01*
X221221Y230765D01*
X221731D01*
X221836Y230236D01*
X222339Y229484D01*
X223090Y228982D01*
X223976Y228806D01*
X224863Y228982D01*
X225614Y229484D01*
X226116Y230236D01*
X226221Y230765D01*
X226731D01*
X226836Y230236D01*
X227339Y229484D01*
X228090Y228982D01*
X228976Y228806D01*
X229863Y228982D01*
X230614Y229484D01*
X231116Y230236D01*
X231222Y230765D01*
X231731D01*
X231837Y230236D01*
X232339Y229484D01*
X233090Y228982D01*
X233976Y228806D01*
X234863Y228982D01*
X235614Y229484D01*
X236116Y230236D01*
X236293Y231122D01*
Y231319D01*
X236116Y232205D01*
X235614Y232957D01*
X234863Y233459D01*
X234828Y233466D01*
Y233975D01*
X234863Y233982D01*
X235614Y234484D01*
X236116Y235236D01*
X236178Y235544D01*
X236678Y235495D01*
Y235236D01*
X236785Y234696D01*
X237091Y234237D01*
X237550Y233931D01*
X238090Y233823D01*
X239862D01*
X240403Y233931D01*
X240861Y234237D01*
X241168Y234696D01*
X241275Y235236D01*
Y237205D01*
X241168Y237745D01*
X240861Y238204D01*
X240403Y238510D01*
X239862Y238618D01*
X238090D01*
X237550Y238510D01*
X237091Y238204D01*
X236785Y237745D01*
X236678Y237205D01*
Y236946D01*
X236178Y236897D01*
X236116Y237205D01*
X235614Y237957D01*
X234863Y238459D01*
X233976Y238635D01*
D02*
G37*
G36*
X115984D02*
X115098Y238459D01*
X114347Y237957D01*
X113844Y237205D01*
X113739Y236676D01*
X113229D01*
X113124Y237205D01*
X112622Y237957D01*
X111871Y238459D01*
X110984Y238635D01*
X110098Y238459D01*
X109346Y237957D01*
X108844Y237205D01*
X108739Y236676D01*
X108229D01*
X108124Y237205D01*
X107622Y237957D01*
X106871Y238459D01*
X105984Y238635D01*
X105098Y238459D01*
X104347Y237957D01*
X103844Y237205D01*
X103739Y236676D01*
X103229D01*
X103124Y237205D01*
X102622Y237957D01*
X101871Y238459D01*
X100984Y238635D01*
X100098Y238459D01*
X99347Y237957D01*
X98844Y237205D01*
X98739Y236676D01*
X98229D01*
X98124Y237205D01*
X97622Y237957D01*
X96871Y238459D01*
X95984Y238635D01*
X95098Y238459D01*
X94346Y237957D01*
X93844Y237205D01*
X93739Y236676D01*
X93229D01*
X93124Y237205D01*
X92622Y237957D01*
X91871Y238459D01*
X90984Y238635D01*
X90098Y238459D01*
X89346Y237957D01*
X88844Y237205D01*
X88739Y236676D01*
X88229D01*
X88124Y237205D01*
X87622Y237957D01*
X86871Y238459D01*
X85984Y238635D01*
X85098Y238459D01*
X84346Y237957D01*
X83844Y237205D01*
X83739Y236676D01*
X83229D01*
X83124Y237205D01*
X82622Y237957D01*
X81871Y238459D01*
X80984Y238635D01*
X80098Y238459D01*
X79347Y237957D01*
X78844Y237205D01*
X78739Y236676D01*
X78229D01*
X78124Y237205D01*
X77622Y237957D01*
X76871Y238459D01*
X75984Y238635D01*
X75098Y238459D01*
X74347Y237957D01*
X73844Y237205D01*
X73668Y236319D01*
Y236122D01*
X73844Y235236D01*
X74347Y234484D01*
X75098Y233982D01*
X75132Y233975D01*
Y233466D01*
X75098Y233459D01*
X74347Y232957D01*
X73844Y232205D01*
X73668Y231319D01*
Y231122D01*
X73844Y230236D01*
X74347Y229484D01*
X75098Y228982D01*
X75173Y228967D01*
Y227953D01*
X75235Y227642D01*
X75411Y227379D01*
X86591Y216200D01*
Y187753D01*
X85577Y186739D01*
X85039Y186846D01*
X84499Y186739D01*
X84040Y186432D01*
X83734Y185974D01*
X83626Y185433D01*
X83734Y184892D01*
X84040Y184434D01*
X84499Y184128D01*
X85039Y184020D01*
X85580Y184128D01*
X86039Y184434D01*
X86117Y184551D01*
X86718D01*
X86796Y184434D01*
X87255Y184128D01*
X87795Y184020D01*
X88336Y184128D01*
X88794Y184434D01*
X88873Y184551D01*
X89474D01*
X89552Y184434D01*
X90010Y184128D01*
X90551Y184020D01*
X91092Y184128D01*
X91550Y184434D01*
X91857Y184892D01*
X91964Y185433D01*
X91887Y185819D01*
X92296Y186147D01*
X92373Y186096D01*
X92913Y185989D01*
X93076Y186021D01*
X93501Y185596D01*
X93469Y185433D01*
X93577Y184892D01*
X93883Y184434D01*
X94341Y184128D01*
X94882Y184020D01*
X95423Y184128D01*
X95881Y184434D01*
X96187Y184892D01*
X96295Y185433D01*
X96218Y185819D01*
X96627Y186147D01*
X96703Y186096D01*
X97244Y185989D01*
X97785Y186096D01*
X97861Y186147D01*
X98270Y185819D01*
X98193Y185433D01*
X98301Y184892D01*
X98607Y184434D01*
X99066Y184128D01*
X99606Y184020D01*
X100147Y184128D01*
X100223Y184179D01*
X100632Y183851D01*
X100556Y183465D01*
X100663Y182924D01*
X100969Y182466D01*
X101428Y182159D01*
X101969Y182052D01*
X102509Y182159D01*
X102968Y182466D01*
X103274Y182924D01*
X103288Y182997D01*
X103798D01*
X103813Y182924D01*
X104119Y182466D01*
X104577Y182159D01*
X105118Y182052D01*
X105659Y182159D01*
X106117Y182466D01*
X106423Y182924D01*
X106531Y183465D01*
X106423Y184005D01*
X106117Y184464D01*
X105929Y184590D01*
Y188976D01*
X105867Y189287D01*
X105692Y189550D01*
X100023Y195218D01*
Y223495D01*
X99962Y223805D01*
X99786Y224068D01*
X99295Y224559D01*
Y228917D01*
X99795Y229185D01*
X100098Y228982D01*
X100984Y228806D01*
X101871Y228982D01*
X102622Y229484D01*
X103124Y230236D01*
X103229Y230765D01*
X103739D01*
X103844Y230236D01*
X104347Y229484D01*
X105098Y228982D01*
X105984Y228806D01*
X106871Y228982D01*
X107622Y229484D01*
X108124Y230236D01*
X108229Y230765D01*
X108739D01*
X108844Y230236D01*
X109346Y229484D01*
X110098Y228982D01*
X110984Y228806D01*
X111871Y228982D01*
X112622Y229484D01*
X113124Y230236D01*
X113229Y230765D01*
X113739D01*
X113844Y230236D01*
X114347Y229484D01*
X115098Y228982D01*
X115984Y228806D01*
X116871Y228982D01*
X117622Y229484D01*
X118124Y230236D01*
X118300Y231122D01*
Y231319D01*
X118124Y232205D01*
X117622Y232957D01*
X116871Y233459D01*
X116836Y233466D01*
Y233975D01*
X116871Y233982D01*
X117622Y234484D01*
X118124Y235236D01*
X118185Y235544D01*
X118685Y235495D01*
Y235236D01*
X118793Y234696D01*
X119099Y234237D01*
X119558Y233931D01*
X120098Y233823D01*
X121870D01*
X122411Y233931D01*
X122869Y234237D01*
X123176Y234696D01*
X123283Y235236D01*
Y237205D01*
X123176Y237745D01*
X122869Y238204D01*
X122411Y238510D01*
X121870Y238618D01*
X120098D01*
X119558Y238510D01*
X119099Y238204D01*
X118793Y237745D01*
X118685Y237205D01*
Y236946D01*
X118185Y236897D01*
X118124Y237205D01*
X117622Y237957D01*
X116871Y238459D01*
X115984Y238635D01*
D02*
G37*
G36*
X148819Y237633D02*
X148278Y237526D01*
X147820Y237220D01*
X147513Y236761D01*
X147406Y236221D01*
X147513Y235680D01*
X147820Y235221D01*
X148278Y234915D01*
X148819Y234807D01*
X149360Y234915D01*
X149818Y235221D01*
X150124Y235680D01*
X150232Y236221D01*
X150124Y236761D01*
X149818Y237220D01*
X149360Y237526D01*
X148819Y237633D01*
D02*
G37*
G36*
X141339D02*
X140798Y237526D01*
X140340Y237220D01*
X140033Y236761D01*
X139926Y236221D01*
X139942Y236139D01*
X139764Y235665D01*
X139223Y235557D01*
X138765Y235251D01*
X138458Y234793D01*
X138351Y234252D01*
X138458Y233711D01*
X138765Y233253D01*
X139223Y232947D01*
X139764Y232839D01*
X140305Y232947D01*
X140763Y233253D01*
X141069Y233711D01*
X141177Y234252D01*
X141161Y234333D01*
X141339Y234807D01*
X141879Y234915D01*
X142338Y235221D01*
X142644Y235680D01*
X142752Y236221D01*
X142644Y236761D01*
X142338Y237220D01*
X141879Y237526D01*
X141339Y237633D01*
D02*
G37*
G36*
X154724Y233199D02*
X153876Y233088D01*
X153085Y232760D01*
X152407Y232239D01*
X151885Y231560D01*
X151558Y230770D01*
X151446Y229921D01*
X151558Y229073D01*
X151885Y228282D01*
X152407Y227603D01*
X153085Y227082D01*
X153876Y226755D01*
X154724Y226643D01*
X155573Y226755D01*
X156363Y227082D01*
X157042Y227603D01*
X157563Y228282D01*
X157891Y229073D01*
X158002Y229921D01*
X157891Y230770D01*
X157563Y231560D01*
X157042Y232239D01*
X156363Y232760D01*
X155573Y233088D01*
X154724Y233199D01*
D02*
G37*
G36*
X135039D02*
X134191Y233088D01*
X133400Y232760D01*
X132721Y232239D01*
X132201Y231560D01*
X131873Y230770D01*
X131761Y229921D01*
X131873Y229073D01*
X132201Y228282D01*
X132721Y227603D01*
X133400Y227082D01*
X134191Y226755D01*
X135039Y226643D01*
X135888Y226755D01*
X136678Y227082D01*
X137357Y227603D01*
X137878Y228282D01*
X138206Y229073D01*
X138317Y229921D01*
X138206Y230770D01*
X137878Y231560D01*
X137357Y232239D01*
X136678Y232760D01*
X135888Y233088D01*
X135039Y233199D01*
D02*
G37*
G36*
X144882Y227004D02*
X144341Y226896D01*
X143883Y226590D01*
X143577Y226131D01*
X143469Y225590D01*
X143573Y225065D01*
X143340Y224831D01*
X143174Y224583D01*
X143116Y224290D01*
Y219394D01*
X142203Y218481D01*
X131469D01*
X131176Y218423D01*
X130928Y218257D01*
X119511Y206840D01*
X119510Y206840D01*
X119345Y206592D01*
X119287Y206299D01*
Y186521D01*
X118787Y186254D01*
X118651Y186345D01*
X118110Y186452D01*
X117569Y186345D01*
X117111Y186038D01*
X116805Y185580D01*
X116697Y185039D01*
X116805Y184499D01*
X117111Y184040D01*
X117569Y183734D01*
X118110Y183626D01*
X118651Y183734D01*
X118787Y183825D01*
X119287Y183557D01*
Y182584D01*
X118787Y182317D01*
X118651Y182408D01*
X118110Y182515D01*
X117569Y182408D01*
X117111Y182102D01*
X116805Y181643D01*
X116697Y181102D01*
X116805Y180562D01*
X117111Y180103D01*
X117569Y179797D01*
X118110Y179689D01*
X118651Y179797D01*
X118787Y179888D01*
X119287Y179620D01*
Y178647D01*
X118787Y178380D01*
X118651Y178471D01*
X118110Y178578D01*
X117569Y178471D01*
X117111Y178165D01*
X116805Y177706D01*
X116697Y177165D01*
X116805Y176625D01*
X117111Y176166D01*
X117569Y175860D01*
X118110Y175752D01*
X118651Y175860D01*
X118787Y175951D01*
X119287Y175683D01*
Y171222D01*
X118852Y170788D01*
X118686Y170540D01*
X118628Y170247D01*
Y157379D01*
X118686Y157086D01*
X118852Y156838D01*
X122294Y153396D01*
X122542Y153231D01*
X122835Y153172D01*
X124093D01*
X127746Y149519D01*
X127581Y148977D01*
X127412Y148943D01*
X126954Y148637D01*
X126647Y148179D01*
X126540Y147638D01*
X126128Y147326D01*
X125750Y147667D01*
X125822Y148031D01*
X125715Y148572D01*
X125408Y149030D01*
X124950Y149337D01*
X124409Y149444D01*
X123918Y149346D01*
X123679Y149482D01*
X123450Y149658D01*
X123353Y150147D01*
X123046Y150605D01*
X122588Y150912D01*
X122047Y151019D01*
X121507Y150912D01*
X121048Y150605D01*
X120742Y150147D01*
X120634Y149606D01*
X120742Y149066D01*
X121048Y148607D01*
X121507Y148301D01*
X122047Y148193D01*
X122538Y148291D01*
X122778Y148155D01*
X123007Y147979D01*
X123104Y147491D01*
X123410Y147032D01*
X123869Y146726D01*
X124357Y146629D01*
X124533Y146400D01*
X124669Y146160D01*
X124571Y145669D01*
X124679Y145129D01*
X124985Y144670D01*
X125443Y144364D01*
X125984Y144256D01*
X126147Y144289D01*
X126572Y143863D01*
X126540Y143701D01*
X126647Y143160D01*
X126954Y142702D01*
X127412Y142395D01*
X127953Y142288D01*
X128493Y142395D01*
X128952Y142702D01*
X129258Y143160D01*
X129366Y143701D01*
X129258Y144241D01*
X128952Y144700D01*
X128493Y145006D01*
X127953Y145114D01*
X127790Y145081D01*
X127365Y145507D01*
X127397Y145669D01*
X127365Y145832D01*
X127790Y146257D01*
X127953Y146225D01*
X128493Y146332D01*
X128952Y146639D01*
X129102Y146863D01*
X129675Y147019D01*
X129750Y147005D01*
X129867Y146918D01*
Y142203D01*
X129925Y141911D01*
X130090Y141663D01*
X132924Y138829D01*
X133172Y138663D01*
X133465Y138605D01*
X134277D01*
X134434Y138371D01*
X134892Y138064D01*
X135433Y137957D01*
X135924Y138055D01*
X136162Y137920D01*
X136393Y137743D01*
X136490Y137255D01*
X136796Y136796D01*
X137255Y136490D01*
X137693Y136403D01*
X137848Y136107D01*
X137890Y135892D01*
X136155Y134158D01*
X135940Y134199D01*
X135645Y134354D01*
X135557Y134793D01*
X135251Y135251D01*
X134793Y135557D01*
X134252Y135665D01*
X133711Y135557D01*
X133253Y135251D01*
X133130Y135068D01*
X126322D01*
X120791Y140599D01*
Y143411D01*
X120791Y143411D01*
X120729Y143723D01*
X120552Y143988D01*
X120552Y143988D01*
X114364Y150176D01*
Y181536D01*
X114725Y181729D01*
X114864Y181755D01*
X115354Y181658D01*
X115895Y181765D01*
X116353Y182072D01*
X116660Y182530D01*
X116767Y183071D01*
X116660Y183612D01*
X116353Y184070D01*
X115895Y184376D01*
X115354Y184484D01*
X114864Y184386D01*
X114725Y184413D01*
X114364Y184606D01*
Y195186D01*
X114308Y195464D01*
X114714Y195545D01*
X115172Y195851D01*
X115479Y196310D01*
X115586Y196850D01*
X115479Y197391D01*
X115172Y197850D01*
X114714Y198156D01*
X114173Y198263D01*
X114167Y198262D01*
X113714Y198622D01*
X114167Y198982D01*
X114173Y198981D01*
X114714Y199088D01*
X115172Y199395D01*
X115479Y199853D01*
X115586Y200394D01*
X115479Y200934D01*
X115172Y201393D01*
X114714Y201699D01*
X114308Y201780D01*
X114364Y202058D01*
Y212817D01*
X122385Y220838D01*
X130768D01*
X130891Y220654D01*
X131349Y220348D01*
X131890Y220241D01*
X132431Y220348D01*
X132889Y220654D01*
X133195Y221113D01*
X133303Y221654D01*
X133195Y222194D01*
X132889Y222653D01*
X132431Y222959D01*
X131890Y223066D01*
X131349Y222959D01*
X130891Y222653D01*
X130768Y222469D01*
X122047D01*
X122047Y222469D01*
X121711Y222912D01*
X121697Y223026D01*
X122350Y223679D01*
X138585D01*
X138765Y223410D01*
X139223Y223104D01*
X139764Y222996D01*
X140305Y223104D01*
X140763Y223410D01*
X141069Y223869D01*
X141177Y224410D01*
X141069Y224950D01*
X140763Y225409D01*
X140305Y225715D01*
X139764Y225822D01*
X139223Y225715D01*
X138765Y225409D01*
X138585Y225140D01*
X122047D01*
X121768Y225084D01*
X121531Y224926D01*
X112082Y215477D01*
X111924Y215240D01*
X111868Y214961D01*
Y202754D01*
X111088Y201974D01*
X110930Y201737D01*
X110874Y201458D01*
Y195786D01*
X110930Y195507D01*
X111088Y195270D01*
X111868Y194490D01*
Y149213D01*
X111924Y148933D01*
X112082Y148696D01*
X115411Y145367D01*
Y135039D01*
X115467Y134760D01*
X115625Y134523D01*
X125910Y124238D01*
X125860Y124162D01*
X125752Y123622D01*
X125860Y123081D01*
X126166Y122623D01*
X126624Y122316D01*
X127165Y122209D01*
X127706Y122316D01*
X128164Y122623D01*
X128471Y123081D01*
X128578Y123622D01*
X128471Y124162D01*
X128164Y124621D01*
X127706Y124927D01*
X127183Y125031D01*
X116872Y135342D01*
Y140291D01*
X117372Y140559D01*
X117569Y140427D01*
X118110Y140319D01*
X118651Y140427D01*
X118659Y140433D01*
X118946Y140334D01*
X119176Y140176D01*
X119221Y139949D01*
X119398Y139684D01*
X125408Y133675D01*
X125408Y133675D01*
X125672Y133498D01*
X125984Y133436D01*
X133130D01*
X133253Y133253D01*
X133711Y132947D01*
X134150Y132859D01*
X134305Y132564D01*
X134346Y132349D01*
X130132Y128135D01*
X129956Y127871D01*
X129894Y127559D01*
Y116198D01*
X128447Y114752D01*
X128271Y114487D01*
X128209Y114176D01*
Y107197D01*
X128271Y106885D01*
X128447Y106621D01*
X129339Y105729D01*
X129296Y105512D01*
X129403Y104971D01*
X129709Y104513D01*
X130168Y104206D01*
X130709Y104099D01*
X131249Y104206D01*
X131708Y104513D01*
X132014Y104971D01*
X132122Y105512D01*
X132014Y106052D01*
X131708Y106511D01*
X131249Y106817D01*
X130709Y106925D01*
X130491Y106881D01*
X129839Y107534D01*
Y109776D01*
X130339Y110078D01*
X130709Y110004D01*
X131249Y110112D01*
X131708Y110418D01*
X132014Y110877D01*
X132122Y111417D01*
X132014Y111958D01*
X131708Y112416D01*
X131524Y112540D01*
Y113442D01*
X132466Y114384D01*
X132643Y114649D01*
X132705Y114961D01*
Y126434D01*
X136125Y129854D01*
X136587Y129663D01*
Y123938D01*
X136087Y123670D01*
X135974Y123746D01*
X135433Y123854D01*
X134892Y123746D01*
X134434Y123440D01*
X134127Y122981D01*
X134020Y122441D01*
X134127Y121900D01*
X134434Y121442D01*
X134892Y121135D01*
X135433Y121028D01*
X135760Y121093D01*
X136171Y120751D01*
X136193Y120708D01*
X136193Y120707D01*
Y120020D01*
X136009Y119897D01*
X135703Y119438D01*
X135595Y118898D01*
X135703Y118357D01*
X136009Y117898D01*
X136467Y117592D01*
X137008Y117485D01*
X137549Y117592D01*
X138007Y117898D01*
X138313Y118357D01*
X138421Y118898D01*
X138313Y119438D01*
X138149Y119685D01*
X138216Y119893D01*
X138646Y120077D01*
X138829Y119954D01*
X139370Y119847D01*
X139911Y119954D01*
X140369Y120261D01*
X140675Y120719D01*
X140783Y121260D01*
X140706Y121646D01*
X141115Y121974D01*
X141192Y121923D01*
X141732Y121815D01*
X142273Y121923D01*
X142731Y122229D01*
X143038Y122688D01*
X143145Y123228D01*
X143038Y123769D01*
X142731Y124227D01*
X142273Y124534D01*
X141760Y124636D01*
Y130765D01*
X145768Y134773D01*
X146310Y134608D01*
X146332Y134498D01*
X146638Y134040D01*
X147097Y133734D01*
X147637Y133626D01*
X148178Y133734D01*
X148637Y134040D01*
X148943Y134498D01*
X149050Y135039D01*
X148943Y135580D01*
X148637Y136038D01*
X148178Y136345D01*
X148068Y136366D01*
X147904Y136909D01*
X150110Y139116D01*
X150287Y139380D01*
X150349Y139692D01*
Y140562D01*
X150605Y140733D01*
X150912Y141192D01*
X151019Y141732D01*
X150912Y142273D01*
X150605Y142731D01*
X150147Y143038D01*
X149606Y143145D01*
X149066Y143038D01*
X148607Y142731D01*
X148301Y142273D01*
X148193Y141732D01*
X148301Y141192D01*
X148607Y140733D01*
X148719Y140658D01*
Y140029D01*
X146596Y137906D01*
X146134Y138097D01*
Y145232D01*
X146072Y145544D01*
X145895Y145808D01*
X144516Y147188D01*
Y148109D01*
X145016Y148376D01*
X145128Y148301D01*
X145669Y148193D01*
X145832Y148225D01*
X146257Y147800D01*
X146225Y147638D01*
X146332Y147097D01*
X146639Y146639D01*
X147097Y146332D01*
X147638Y146225D01*
X148179Y146332D01*
X148637Y146639D01*
X148943Y147097D01*
X149051Y147638D01*
X148943Y148179D01*
X148637Y148637D01*
X148179Y148943D01*
X147638Y149051D01*
X147475Y149018D01*
X147050Y149444D01*
X147082Y149606D01*
X146974Y150147D01*
X146668Y150605D01*
X146210Y150911D01*
X145669Y151019D01*
X145128Y150911D01*
X144959Y150798D01*
X144503Y150776D01*
X144342Y150941D01*
X144277Y151038D01*
X143164Y152151D01*
X143068Y152216D01*
X142902Y152377D01*
X142924Y152833D01*
X143038Y153003D01*
X143145Y153543D01*
X143038Y154084D01*
X142731Y154542D01*
X142273Y154849D01*
X141732Y154956D01*
X141241Y154859D01*
X141003Y154993D01*
X140772Y155170D01*
X140675Y155658D01*
X140369Y156117D01*
X140296Y156165D01*
X140448Y156665D01*
X141732D01*
X142044Y156728D01*
X142308Y156904D01*
X143483Y158079D01*
X143701Y158036D01*
X144241Y158143D01*
X144700Y158450D01*
X145006Y158908D01*
X145114Y159449D01*
X145006Y159990D01*
X144700Y160448D01*
X144241Y160754D01*
X143701Y160862D01*
X143160Y160754D01*
X142702Y160448D01*
X142395Y159990D01*
X142288Y159449D01*
X142331Y159231D01*
X141677Y158578D01*
X141470Y158608D01*
X141404Y158658D01*
X141119Y159160D01*
X141177Y159449D01*
X141069Y159990D01*
X140763Y160448D01*
X140305Y160754D01*
X139764Y160862D01*
X139223Y160754D01*
X138765Y160448D01*
X138458Y159990D01*
X138351Y159449D01*
X138458Y158908D01*
X138765Y158450D01*
X138702Y157890D01*
X137385Y156574D01*
X136826Y156511D01*
X136367Y156817D01*
X135827Y156925D01*
X135503Y156860D01*
X135060Y157150D01*
X135005Y157231D01*
X135003Y157400D01*
X135014Y157408D01*
X135344Y157738D01*
X135827Y157642D01*
X136367Y157749D01*
X136826Y158056D01*
X137132Y158514D01*
X137240Y159055D01*
X137132Y159596D01*
X136826Y160054D01*
X136367Y160360D01*
X135827Y160468D01*
X135286Y160360D01*
X134827Y160054D01*
X134521Y159596D01*
X134428Y159126D01*
X134016Y158714D01*
X133786Y158560D01*
X133282Y158056D01*
X133105Y157792D01*
X133043Y157480D01*
Y157009D01*
X132543Y156742D01*
X132431Y156817D01*
X131890Y156925D01*
X131349Y156817D01*
X130891Y156511D01*
X130584Y156052D01*
X130477Y155512D01*
X130584Y154971D01*
X130891Y154513D01*
X131349Y154206D01*
X131890Y154099D01*
X132431Y154206D01*
X132559Y154292D01*
X132573Y154294D01*
X133099Y154052D01*
X133105Y154019D01*
X133282Y153754D01*
X136980Y150056D01*
Y145362D01*
X137042Y145050D01*
X137219Y144786D01*
X138536Y143469D01*
X138473Y143333D01*
X138241Y143057D01*
X137795Y143145D01*
X137255Y143038D01*
X136796Y142731D01*
X136490Y142273D01*
X136456Y142103D01*
X134636D01*
X133048Y143691D01*
Y148886D01*
X132990Y149178D01*
X132824Y149426D01*
X125777Y156474D01*
X125529Y156640D01*
X125236Y156698D01*
X123978D01*
X122910Y157766D01*
X123156Y158227D01*
X123383Y158182D01*
X123924Y158289D01*
X124382Y158595D01*
X124688Y159054D01*
X124796Y159595D01*
X124688Y160135D01*
X124382Y160594D01*
X123924Y160900D01*
X123383Y161007D01*
X122842Y160900D01*
X122653Y160774D01*
X122153Y161041D01*
Y163456D01*
X122653Y163505D01*
X122710Y163219D01*
X123017Y162761D01*
X123475Y162454D01*
X124016Y162347D01*
X124557Y162454D01*
X125015Y162761D01*
X125321Y163219D01*
X125429Y163760D01*
X125321Y164301D01*
X125015Y164759D01*
X124557Y165065D01*
X124016Y165173D01*
X123475Y165065D01*
X123017Y164759D01*
X122710Y164301D01*
X122653Y164014D01*
X122153Y164064D01*
Y166240D01*
X122653Y166392D01*
X122852Y166095D01*
X123310Y165789D01*
X123851Y165681D01*
X124392Y165789D01*
X124850Y166095D01*
X125156Y166553D01*
X125264Y167094D01*
X125169Y167569D01*
X125289Y167751D01*
X125535Y167968D01*
X125984Y167878D01*
X126525Y167986D01*
X126983Y168292D01*
X127290Y168751D01*
X127397Y169291D01*
X127290Y169832D01*
X126983Y170291D01*
X126525Y170597D01*
X125984Y170704D01*
X125443Y170597D01*
X124985Y170291D01*
X124679Y169832D01*
X124571Y169291D01*
X124666Y168816D01*
X124546Y168634D01*
X124300Y168418D01*
X123851Y168507D01*
X123310Y168399D01*
X122852Y168093D01*
X122653Y167796D01*
X122153Y167948D01*
Y169497D01*
X122588Y169932D01*
X122588Y169932D01*
X122754Y170180D01*
X122812Y170472D01*
Y174127D01*
X123312Y174394D01*
X123475Y174285D01*
X124016Y174178D01*
X124557Y174285D01*
X125015Y174591D01*
X125321Y175050D01*
X125342Y175155D01*
X125911Y175451D01*
X126134Y175352D01*
X126162Y175278D01*
X126146Y175197D01*
X126253Y174656D01*
X126560Y174197D01*
X127018Y173891D01*
X127559Y173784D01*
X128100Y173891D01*
X128558Y174197D01*
X128864Y174656D01*
X128972Y175197D01*
X128864Y175737D01*
X128558Y176196D01*
X128100Y176502D01*
X127559Y176610D01*
X127381Y177084D01*
X127397Y177165D01*
X127290Y177706D01*
X126983Y178165D01*
X126525Y178471D01*
X125984Y178578D01*
X125901Y178562D01*
X125520Y178900D01*
Y179368D01*
X125901Y179706D01*
X125984Y179689D01*
X126525Y179797D01*
X126983Y180103D01*
X127290Y180562D01*
X127397Y181102D01*
X127290Y181643D01*
X126983Y182102D01*
X126525Y182408D01*
X125984Y182515D01*
X125443Y182408D01*
X124985Y182102D01*
X124679Y181643D01*
X124571Y181102D01*
X124604Y180940D01*
X124178Y180515D01*
X124016Y180547D01*
X123475Y180439D01*
X123312Y180330D01*
X122812Y180598D01*
Y185948D01*
X123312Y186215D01*
X123446Y186126D01*
X123986Y186018D01*
X124527Y186126D01*
X124986Y186432D01*
X125292Y186890D01*
X125399Y187431D01*
X125292Y187972D01*
X124986Y188430D01*
X124527Y188736D01*
X123986Y188844D01*
X123446Y188736D01*
X123312Y188647D01*
X122812Y188914D01*
Y197355D01*
X123312Y197623D01*
X123475Y197513D01*
X124016Y197406D01*
X124557Y197513D01*
X125015Y197820D01*
X125321Y198278D01*
X125429Y198819D01*
X125385Y199036D01*
X129865Y203516D01*
X136298D01*
X136565Y203016D01*
X136490Y202903D01*
X136382Y202362D01*
X136490Y201821D01*
X136565Y201709D01*
X136298Y201209D01*
X134369D01*
X134057Y201147D01*
X133793Y200970D01*
X129345Y196522D01*
X129168Y196258D01*
X129106Y195946D01*
Y194036D01*
X128922Y193912D01*
X128616Y193454D01*
X128508Y192913D01*
X128616Y192373D01*
X128922Y191914D01*
X129381Y191608D01*
X129921Y191500D01*
X130462Y191608D01*
X130920Y191914D01*
X131227Y192373D01*
X131334Y192913D01*
X131227Y193454D01*
X130920Y193912D01*
X130736Y194036D01*
Y195608D01*
X131973Y196846D01*
X132485Y196650D01*
X132553Y196310D01*
X132859Y195851D01*
X133318Y195545D01*
X133858Y195437D01*
X134399Y195545D01*
X134857Y195851D01*
X135164Y196310D01*
X135271Y196850D01*
X135228Y197068D01*
X136485Y198325D01*
X136575Y198303D01*
X136653Y198143D01*
X136729Y197749D01*
X136490Y197391D01*
X136382Y196850D01*
X136490Y196310D01*
X136796Y195851D01*
X137255Y195545D01*
X137795Y195437D01*
X138336Y195545D01*
X138794Y195851D01*
X139101Y196310D01*
X139208Y196850D01*
X139181Y196988D01*
X140313Y198120D01*
X140701Y197801D01*
X140427Y197391D01*
X140319Y196850D01*
X140427Y196310D01*
X140733Y195851D01*
X141192Y195545D01*
X141732Y195437D01*
X142273Y195545D01*
X142731Y195851D01*
X143038Y196310D01*
X143145Y196850D01*
X143113Y197013D01*
X143538Y197438D01*
X143701Y197406D01*
X143863Y197438D01*
X144289Y197013D01*
X144256Y196850D01*
X144364Y196310D01*
X144439Y196197D01*
X144172Y195697D01*
X143701D01*
X143389Y195635D01*
X143125Y195458D01*
X141395Y193728D01*
X138918D01*
X138794Y193912D01*
X138336Y194219D01*
X137795Y194326D01*
X137255Y194219D01*
X136796Y193912D01*
X136490Y193454D01*
X136382Y192913D01*
X136490Y192373D01*
X136796Y191914D01*
X137255Y191608D01*
X137795Y191500D01*
X138336Y191608D01*
X138794Y191914D01*
X138918Y192098D01*
X141732D01*
X142044Y192160D01*
X142308Y192337D01*
X143756Y193785D01*
X143963Y193754D01*
X144029Y193704D01*
X144314Y193203D01*
X144256Y192913D01*
X144364Y192373D01*
X144670Y191914D01*
X145129Y191608D01*
X145669Y191500D01*
X146150Y191596D01*
X146331Y191543D01*
X146650Y191373D01*
Y189728D01*
X146645D01*
X146726Y189323D01*
X146759Y189273D01*
X146955Y188979D01*
X147249Y188783D01*
X147299Y188750D01*
X147704Y188669D01*
Y188674D01*
X148422D01*
Y188669D01*
X148827Y188750D01*
X148877Y188783D01*
X148948Y188831D01*
X149398Y188530D01*
X149367Y188376D01*
X149436Y188029D01*
X149448Y187971D01*
X149678Y187627D01*
X149681Y187631D01*
X150189Y187123D01*
X150185Y187119D01*
X150529Y186890D01*
X150587Y186878D01*
X150934Y186809D01*
X151281Y186878D01*
X151339Y186890D01*
X151683Y187119D01*
X151680Y187123D01*
X153356Y188799D01*
X153754Y188400D01*
X154019Y188224D01*
X154331Y188162D01*
X155887D01*
Y188157D01*
X156292Y188237D01*
X156342Y188271D01*
X156635Y188467D01*
X156814D01*
X157107Y188271D01*
X157157Y188237D01*
X157562Y188157D01*
Y188162D01*
X158718D01*
X160447Y186432D01*
X160712Y186255D01*
X161024Y186193D01*
X161522D01*
X161999Y186138D01*
X162080Y185732D01*
X162113Y185683D01*
X162310Y185389D01*
X162603Y185193D01*
X162653Y185159D01*
X163058Y185079D01*
X163557Y185075D01*
X163790Y185053D01*
X164025Y184618D01*
X164049Y184499D01*
X164355Y184040D01*
X164814Y183734D01*
X165354Y183626D01*
X165895Y183734D01*
X166353Y184040D01*
X166660Y184499D01*
X166767Y185039D01*
X166660Y185580D01*
X166717Y185739D01*
X167327Y185962D01*
X167352Y185948D01*
X167440Y185889D01*
X167573Y185862D01*
X167873Y185658D01*
X167933Y185313D01*
X167878Y185039D01*
X167986Y184499D01*
X168292Y184040D01*
X168751Y183734D01*
X169291Y183626D01*
X169832Y183734D01*
X170291Y184040D01*
X170597Y184499D01*
X170704Y185039D01*
X170672Y185201D01*
X170949Y185685D01*
X171041Y185713D01*
X171363Y185777D01*
X171412Y185810D01*
X171706Y186006D01*
X171831Y186193D01*
X172891D01*
X173752Y185331D01*
X173749Y185328D01*
X173852Y185259D01*
X173955Y184655D01*
X173203Y183903D01*
X173199Y183906D01*
X172970Y183563D01*
X172958Y183504D01*
X172889Y183158D01*
X172927Y182965D01*
X172688Y182408D01*
X172229Y182102D01*
X171923Y181643D01*
X171815Y181102D01*
X171923Y180562D01*
X171998Y180449D01*
X171731Y179949D01*
X168504D01*
X168192Y179887D01*
X167928Y179710D01*
X166380Y178162D01*
X166353Y178165D01*
X165895Y178471D01*
X165354Y178578D01*
X164814Y178471D01*
X164355Y178165D01*
X164049Y177706D01*
X163941Y177165D01*
X164049Y176625D01*
X164355Y176166D01*
X164814Y175860D01*
X165354Y175752D01*
X165895Y175860D01*
X166353Y176166D01*
X166525Y176423D01*
X166607D01*
X166919Y176485D01*
X167184Y176661D01*
X167421Y176899D01*
X167964Y176734D01*
X167986Y176625D01*
X168292Y176166D01*
X168751Y175860D01*
X169291Y175752D01*
X169509Y175796D01*
X171870Y173434D01*
X171679Y172972D01*
X163219D01*
X162006Y174186D01*
Y176211D01*
X161944Y176523D01*
X161767Y176787D01*
X158844Y179710D01*
X158794Y179743D01*
X158594Y179972D01*
X158664Y180380D01*
X158786Y180562D01*
X158893Y181102D01*
X158786Y181643D01*
X158479Y182102D01*
X158021Y182408D01*
X157480Y182515D01*
X157318Y182483D01*
X156892Y182908D01*
X156925Y183071D01*
X156892Y183233D01*
X157318Y183659D01*
X157480Y183626D01*
X158021Y183734D01*
X158479Y184040D01*
X158786Y184499D01*
X158893Y185039D01*
X158786Y185580D01*
X158479Y186038D01*
X158021Y186345D01*
X157480Y186452D01*
X156940Y186345D01*
X156481Y186038D01*
X156175Y185580D01*
X156067Y185039D01*
X156100Y184877D01*
X155675Y184451D01*
X155512Y184484D01*
X155349Y184451D01*
X154924Y184877D01*
X154956Y185039D01*
X154849Y185580D01*
X154542Y186038D01*
X154084Y186345D01*
X153543Y186452D01*
X153003Y186345D01*
X152544Y186038D01*
X152238Y185580D01*
X152130Y185039D01*
X152238Y184499D01*
X152544Y184040D01*
X153003Y183734D01*
X153543Y183626D01*
X153626Y183643D01*
X154008Y183305D01*
Y182837D01*
X153626Y182499D01*
X153543Y182515D01*
X153003Y182408D01*
X152544Y182102D01*
X152238Y181643D01*
X152130Y181102D01*
X152238Y180562D01*
X152544Y180103D01*
X153003Y179797D01*
X153543Y179689D01*
X154084Y179797D01*
X154266Y179919D01*
X154674Y179989D01*
X154903Y179788D01*
X154936Y179739D01*
X156117Y178558D01*
X156166Y178525D01*
X156366Y178296D01*
X156297Y177888D01*
X156175Y177706D01*
X156067Y177165D01*
X156175Y176625D01*
X156481Y176166D01*
X156940Y175860D01*
X157480Y175752D01*
X157563Y175769D01*
X157945Y175431D01*
Y174963D01*
X157563Y174625D01*
X157480Y174641D01*
X156940Y174534D01*
X156481Y174227D01*
X156175Y173769D01*
X156067Y173228D01*
X156175Y172688D01*
X156481Y172229D01*
X156940Y171923D01*
X157480Y171815D01*
X157643Y171848D01*
X158068Y171423D01*
X158036Y171260D01*
X158143Y170719D01*
X158450Y170261D01*
X158908Y169954D01*
X159449Y169847D01*
X159611Y169879D01*
X160037Y169454D01*
X160004Y169291D01*
X160037Y169129D01*
X159611Y168703D01*
X159449Y168736D01*
X158908Y168628D01*
X158450Y168322D01*
X158143Y167864D01*
X158036Y167323D01*
X158143Y166782D01*
X158450Y166324D01*
X158908Y166017D01*
X159449Y165910D01*
X159990Y166017D01*
X160448Y166324D01*
X160754Y166782D01*
X160862Y167323D01*
X160845Y167406D01*
X161183Y167787D01*
X161651Y167787D01*
X161989Y167406D01*
X161973Y167323D01*
X162080Y166782D01*
X162387Y166324D01*
X162845Y166017D01*
X163386Y165910D01*
X163926Y166017D01*
X164385Y166324D01*
X164691Y166782D01*
X164799Y167323D01*
X164691Y167864D01*
X164385Y168322D01*
X163926Y168628D01*
X163386Y168736D01*
X163223Y168703D01*
X162798Y169129D01*
X162830Y169291D01*
X162723Y169832D01*
X162417Y170291D01*
X161958Y170597D01*
X161417Y170704D01*
X161255Y170672D01*
X160829Y171097D01*
X160862Y171260D01*
X160754Y171801D01*
X160448Y172259D01*
X159990Y172565D01*
X159449Y172673D01*
X159286Y172641D01*
X158861Y173066D01*
X158893Y173228D01*
X158861Y173391D01*
X159286Y173816D01*
X159449Y173784D01*
X159876Y173869D01*
X159931Y173867D01*
X160177Y173760D01*
X160429Y173583D01*
X160438Y173537D01*
X160615Y173272D01*
X162306Y171581D01*
X162570Y171405D01*
X162882Y171343D01*
X181430D01*
X181731Y170843D01*
X181658Y170472D01*
X181754Y169992D01*
X181701Y169811D01*
X181530Y169492D01*
X180534D01*
Y169497D01*
X180129Y169416D01*
X180079Y169383D01*
X179786Y169187D01*
X179589Y168893D01*
X179556Y168843D01*
X179475Y168438D01*
X179480D01*
Y167720D01*
X179475D01*
X179556Y167314D01*
X179589Y167265D01*
X179786Y166971D01*
Y166793D01*
X179589Y166499D01*
X179556Y166449D01*
X179475Y166044D01*
X179480D01*
Y165326D01*
X179475D01*
X179556Y164921D01*
X179589Y164871D01*
X179786Y164577D01*
X180079Y164381D01*
X180129Y164348D01*
X180534Y164267D01*
Y164272D01*
X181921D01*
X182275Y163772D01*
X182251Y163650D01*
X182256D01*
Y162542D01*
X181801Y162088D01*
X180584Y163305D01*
X180587Y163308D01*
X180244Y163538D01*
X180185Y163550D01*
X179839Y163619D01*
X179492Y163550D01*
X179433Y163538D01*
X179090Y163308D01*
X179093Y163305D01*
X178585Y162797D01*
X178582Y162801D01*
X178352Y162457D01*
X178340Y162397D01*
X178146Y161926D01*
X177799Y161857D01*
X177741Y161845D01*
X177397Y161616D01*
X177397Y161616D01*
Y161609D01*
X176893Y161105D01*
X176889Y161108D01*
X176660Y160765D01*
X176648Y160704D01*
X176490Y160322D01*
X176108Y160165D01*
X176048Y160153D01*
X175705Y159923D01*
X175708Y159920D01*
X175200Y159412D01*
X175197Y159415D01*
X174967Y159072D01*
X174955Y159013D01*
X174887Y158667D01*
X174955Y158320D01*
X174967Y158261D01*
X175197Y157918D01*
X175200Y157921D01*
X176180Y156941D01*
X176078Y156336D01*
X175975Y156268D01*
X175978Y156264D01*
X172652Y152938D01*
X172476Y152674D01*
X172414Y152362D01*
Y150728D01*
X172229Y150605D01*
X171923Y150147D01*
X171815Y149606D01*
X171923Y149066D01*
X172229Y148607D01*
X172688Y148301D01*
X173228Y148193D01*
X173769Y148301D01*
X174227Y148607D01*
X174534Y149066D01*
X174641Y149606D01*
X174534Y150147D01*
X174227Y150605D01*
X174043Y150728D01*
Y152025D01*
X176724Y154705D01*
X177941Y153488D01*
X177938Y153484D01*
X178281Y153255D01*
X178340Y153243D01*
X178686Y153174D01*
X179033Y153243D01*
X179092Y153255D01*
X179435Y153484D01*
X179432Y153488D01*
X179940Y153995D01*
X179943Y153992D01*
X180173Y154336D01*
X180184Y154396D01*
X180379Y154867D01*
X180726Y154936D01*
X180784Y154947D01*
X181128Y155177D01*
X181128Y155177D01*
Y155183D01*
X181632Y155688D01*
X181636Y155685D01*
X181865Y156028D01*
X181877Y156088D01*
X182035Y156470D01*
X182417Y156628D01*
X182477Y156640D01*
X182820Y156869D01*
X182817Y156873D01*
X183325Y157381D01*
X183328Y157377D01*
X183558Y157721D01*
X183569Y157779D01*
X183638Y158126D01*
X183569Y158473D01*
X183558Y158531D01*
X183328Y158875D01*
X183325Y158872D01*
X182345Y159852D01*
X182447Y160456D01*
X182550Y160525D01*
X182547Y160528D01*
X183647Y161628D01*
X183824Y161893D01*
X183886Y162205D01*
Y163075D01*
X185607D01*
Y163070D01*
X186013Y163151D01*
X186062Y163184D01*
X186356Y163380D01*
X186553Y163674D01*
X186586Y163724D01*
X186666Y164129D01*
X186662D01*
Y164847D01*
X186666D01*
X186586Y165252D01*
X186553Y165302D01*
X186356Y165596D01*
Y165774D01*
X186553Y166068D01*
X186586Y166118D01*
X186666Y166523D01*
X186728Y166997D01*
X187162Y167177D01*
X190064Y164274D01*
X190329Y164098D01*
X190641Y164035D01*
X192484D01*
X195295Y161224D01*
X195155Y160658D01*
X194841Y160448D01*
X194535Y159990D01*
X194427Y159449D01*
X194535Y158908D01*
X194841Y158450D01*
X195299Y158143D01*
X195840Y158036D01*
X196381Y158143D01*
X196839Y158450D01*
X197049Y158764D01*
X197616Y158904D01*
X197757Y158762D01*
X198022Y158586D01*
X198333Y158524D01*
X203941D01*
X204208Y158024D01*
X204206Y158021D01*
X204098Y157480D01*
X204206Y156939D01*
X204512Y156481D01*
X204826Y156271D01*
X204966Y155704D01*
X204518Y155256D01*
X199717D01*
X199405Y155194D01*
X199140Y155017D01*
X197855Y153732D01*
X197638Y153775D01*
X197097Y153668D01*
X196639Y153361D01*
X196332Y152903D01*
X196225Y152362D01*
X196332Y151821D01*
X196337Y151814D01*
X196428Y151430D01*
X196164Y151253D01*
X191001Y146090D01*
X189555D01*
Y148769D01*
X189560D01*
X189477Y149189D01*
X189452Y149227D01*
X189239Y149545D01*
X188920Y149758D01*
X188883Y149783D01*
X188463Y149867D01*
Y149861D01*
X187631D01*
Y149867D01*
X187211Y149783D01*
X187174Y149758D01*
X186855Y149545D01*
X186320Y149644D01*
X186149Y149758D01*
X186111Y149783D01*
X185691Y149867D01*
Y149861D01*
X184860D01*
Y149867D01*
X184440Y149783D01*
X184402Y149758D01*
X184084Y149545D01*
X183871Y149227D01*
X183846Y149189D01*
X183762Y148769D01*
X183768D01*
Y146090D01*
X177893D01*
X177770Y146274D01*
X177312Y146581D01*
X176771Y146688D01*
X176231Y146581D01*
X175772Y146274D01*
X175466Y145816D01*
X175358Y145275D01*
X175466Y144735D01*
X175772Y144276D01*
X176231Y143970D01*
X176771Y143862D01*
X177312Y143970D01*
X177770Y144276D01*
X177893Y144460D01*
X184305D01*
Y144455D01*
X184653Y144524D01*
X184855Y144443D01*
X185153Y144223D01*
Y141781D01*
X185148D01*
X185232Y141361D01*
X185257Y141324D01*
X185469Y141005D01*
X185788Y140792D01*
X185826Y140767D01*
X186246Y140684D01*
Y140689D01*
X187077D01*
Y140684D01*
X187497Y140767D01*
X187534Y140792D01*
X187853Y141005D01*
X188066Y141324D01*
X188091Y141361D01*
X188174Y141781D01*
X188169D01*
Y144223D01*
X188468Y144443D01*
X188669Y144524D01*
X189017Y144455D01*
Y144460D01*
X191338D01*
X191650Y144523D01*
X191914Y144699D01*
X197078Y149862D01*
X203848D01*
X204159Y149924D01*
X204424Y150101D01*
X211817Y157494D01*
X212384Y157354D01*
X212594Y157040D01*
X213052Y156734D01*
X213593Y156626D01*
X214134Y156734D01*
X214592Y157040D01*
X214898Y157499D01*
X215006Y158039D01*
X214898Y158580D01*
X214738Y158819D01*
X214719Y159213D01*
X214881Y159436D01*
X215172Y159631D01*
X215478Y160089D01*
X215586Y160630D01*
X215478Y161170D01*
X215172Y161629D01*
X214714Y161935D01*
X214173Y162043D01*
X214030Y162014D01*
X213569Y162369D01*
X213569Y162434D01*
X214030Y162789D01*
X214173Y162760D01*
X214714Y162868D01*
X215172Y163174D01*
X215479Y163633D01*
X215586Y164173D01*
X215479Y164714D01*
X215172Y165172D01*
X214714Y165479D01*
X214173Y165586D01*
X214031Y165558D01*
X213570Y165913D01*
X213570Y165977D01*
X214031Y166332D01*
X214173Y166303D01*
X214714Y166411D01*
X215172Y166717D01*
X215478Y167175D01*
X215586Y167716D01*
X215478Y168257D01*
X215172Y168715D01*
X215068Y169354D01*
X215219Y169547D01*
X221231D01*
X221438Y169047D01*
X218715Y166324D01*
X218538Y166060D01*
X218477Y165748D01*
Y157219D01*
Y148285D01*
X217382D01*
Y148291D01*
X216962Y148207D01*
X216925Y148182D01*
X216606Y147969D01*
X216393Y147651D01*
X216368Y147613D01*
X216285Y147193D01*
X216290D01*
Y146362D01*
X216285D01*
X216368Y145942D01*
X216393Y145904D01*
X216606Y145586D01*
X216925Y145373D01*
X216962Y145348D01*
X217382Y145264D01*
Y145270D01*
X218477D01*
Y144432D01*
X217550Y143506D01*
X217176Y143431D01*
X216717Y143125D01*
X216411Y142667D01*
X216304Y142126D01*
X216411Y141585D01*
X216717Y141127D01*
X217176Y140821D01*
X217717Y140713D01*
X218257Y140821D01*
X218675Y141100D01*
X218774Y141118D01*
X219264Y141047D01*
X219473Y140733D01*
X219932Y140427D01*
X220472Y140319D01*
X221013Y140427D01*
X221472Y140733D01*
X221778Y141192D01*
X221885Y141732D01*
X221778Y142273D01*
X221472Y142731D01*
X221287Y142854D01*
Y151259D01*
X221787Y151526D01*
X221900Y151451D01*
X222441Y151343D01*
X222982Y151451D01*
X223440Y151757D01*
X223746Y152215D01*
X223854Y152756D01*
X223746Y153297D01*
X223440Y153755D01*
X222982Y154061D01*
X222441Y154169D01*
X221900Y154061D01*
X221787Y153986D01*
X221287Y154253D01*
Y165017D01*
X225324Y169054D01*
X225501Y169318D01*
X225563Y169630D01*
Y175624D01*
X225501Y175936D01*
X225364Y176141D01*
X225357Y176307D01*
X225358Y176311D01*
X225488Y176744D01*
X225802Y176953D01*
X226108Y177412D01*
X226216Y177952D01*
X226108Y178493D01*
X225802Y178952D01*
X225488Y179161D01*
X225417Y179651D01*
X225435Y179749D01*
X225714Y180168D01*
X225822Y180709D01*
X225714Y181249D01*
X225408Y181708D01*
X224950Y182014D01*
X224409Y182122D01*
X223868Y182014D01*
X223410Y181708D01*
X223104Y181249D01*
X223078Y181122D01*
X222536Y180957D01*
X191401Y212092D01*
X191137Y212269D01*
X190825Y212331D01*
X144882D01*
X144570Y212269D01*
X144306Y212092D01*
X139540Y207326D01*
X139123Y207605D01*
X138583Y207712D01*
X138042Y207605D01*
X137584Y207298D01*
X137277Y206840D01*
X137170Y206299D01*
X137277Y205759D01*
X137353Y205646D01*
X137085Y205146D01*
X129528D01*
X129216Y205084D01*
X128951Y204907D01*
X124233Y200189D01*
X124016Y200232D01*
X123475Y200124D01*
X123312Y200015D01*
X122812Y200283D01*
Y205156D01*
X132612Y214956D01*
X143347D01*
X143639Y215014D01*
X143887Y215180D01*
X146417Y217710D01*
X146583Y217958D01*
X146641Y218250D01*
Y222607D01*
X147141Y223017D01*
X147244Y222996D01*
X147785Y223104D01*
X148243Y223410D01*
X148549Y223869D01*
X148657Y224410D01*
X148549Y224950D01*
X148243Y225409D01*
X147785Y225715D01*
X147244Y225822D01*
X146703Y225715D01*
X146215Y225990D01*
X146187Y226131D01*
X145881Y226590D01*
X145423Y226896D01*
X144882Y227004D01*
D02*
G37*
G36*
X71969Y221984D02*
X70000D01*
X69459Y221876D01*
X69001Y221570D01*
X68695Y221112D01*
X68587Y220571D01*
Y218799D01*
X68695Y218259D01*
X69001Y217800D01*
X69459Y217494D01*
X70000Y217386D01*
X70259D01*
X70308Y216886D01*
X69999Y216825D01*
X69248Y216323D01*
X68746Y215571D01*
X68570Y214685D01*
X68746Y213799D01*
X69248Y213047D01*
X69999Y212545D01*
X70529Y212440D01*
Y211930D01*
X69999Y211825D01*
X69248Y211323D01*
X68746Y210571D01*
X68570Y209685D01*
X68746Y208799D01*
X69248Y208047D01*
X69999Y207545D01*
X70529Y207440D01*
Y206930D01*
X69999Y206825D01*
X69248Y206323D01*
X68746Y205571D01*
X68570Y204685D01*
X68746Y203799D01*
X69248Y203047D01*
X69999Y202545D01*
X70529Y202440D01*
Y201930D01*
X69999Y201825D01*
X69248Y201323D01*
X68746Y200571D01*
X68570Y199685D01*
X68746Y198799D01*
X69248Y198047D01*
X69999Y197545D01*
X70529Y197440D01*
Y196930D01*
X69999Y196825D01*
X69248Y196323D01*
X68746Y195571D01*
X68570Y194685D01*
X68746Y193799D01*
X69248Y193047D01*
X69999Y192545D01*
X70529Y192440D01*
Y191930D01*
X69999Y191825D01*
X69248Y191323D01*
X68746Y190571D01*
X68570Y189685D01*
X68746Y188799D01*
X69248Y188047D01*
X69999Y187545D01*
X70529Y187440D01*
Y186930D01*
X69999Y186825D01*
X69248Y186323D01*
X68746Y185571D01*
X68570Y184685D01*
X68746Y183799D01*
X69248Y183047D01*
X69999Y182545D01*
X70529Y182440D01*
Y181930D01*
X69999Y181825D01*
X69248Y181323D01*
X68746Y180571D01*
X68570Y179685D01*
X68746Y178799D01*
X69248Y178047D01*
X69999Y177545D01*
X70529Y177440D01*
Y176930D01*
X69999Y176825D01*
X69248Y176323D01*
X68746Y175571D01*
X68570Y174685D01*
X68746Y173799D01*
X69248Y173047D01*
X69999Y172545D01*
X70529Y172440D01*
Y171930D01*
X69999Y171825D01*
X69248Y171323D01*
X68746Y170571D01*
X68570Y169685D01*
X68746Y168799D01*
X69248Y168047D01*
X69999Y167545D01*
X70529Y167440D01*
Y166930D01*
X69999Y166825D01*
X69248Y166323D01*
X68746Y165571D01*
X68570Y164685D01*
X68746Y163799D01*
X69248Y163047D01*
X69999Y162545D01*
X70529Y162440D01*
Y161930D01*
X69999Y161825D01*
X69248Y161323D01*
X68746Y160571D01*
X68570Y159685D01*
X68746Y158799D01*
X69248Y158047D01*
X69999Y157545D01*
X70529Y157440D01*
Y156930D01*
X69999Y156825D01*
X69248Y156323D01*
X68746Y155571D01*
X68570Y154685D01*
X68746Y153799D01*
X69248Y153047D01*
X69999Y152545D01*
X70529Y152440D01*
Y151930D01*
X69999Y151825D01*
X69248Y151323D01*
X68746Y150571D01*
X68570Y149685D01*
X68746Y148799D01*
X69248Y148047D01*
X69999Y147545D01*
X70529Y147440D01*
Y146930D01*
X69999Y146825D01*
X69248Y146323D01*
X68746Y145571D01*
X68570Y144685D01*
X68746Y143799D01*
X69248Y143047D01*
X69999Y142545D01*
X70529Y142440D01*
Y141930D01*
X69999Y141825D01*
X69248Y141323D01*
X68746Y140571D01*
X68570Y139685D01*
X68746Y138799D01*
X69248Y138047D01*
X69999Y137545D01*
X70529Y137440D01*
Y136930D01*
X69999Y136825D01*
X69248Y136323D01*
X68746Y135571D01*
X68570Y134685D01*
X68746Y133799D01*
X69248Y133047D01*
X69999Y132545D01*
X70529Y132440D01*
Y131930D01*
X69999Y131825D01*
X69248Y131323D01*
X68746Y130571D01*
X68570Y129685D01*
X68746Y128799D01*
X69248Y128047D01*
X69999Y127545D01*
X70529Y127440D01*
Y126930D01*
X69999Y126825D01*
X69248Y126323D01*
X68746Y125571D01*
X68570Y124685D01*
X68746Y123799D01*
X69248Y123047D01*
X69999Y122545D01*
X70529Y122440D01*
Y121930D01*
X69999Y121825D01*
X69248Y121323D01*
X68746Y120571D01*
X68570Y119685D01*
X68746Y118799D01*
X69248Y118047D01*
X69999Y117545D01*
X70529Y117440D01*
Y116930D01*
X69999Y116825D01*
X69248Y116323D01*
X68746Y115571D01*
X68570Y114685D01*
X68746Y113799D01*
X69248Y113047D01*
X69999Y112545D01*
X70529Y112440D01*
Y111930D01*
X69999Y111825D01*
X69248Y111323D01*
X68746Y110571D01*
X68570Y109685D01*
X68746Y108799D01*
X69248Y108047D01*
X69999Y107545D01*
X70529Y107440D01*
Y106930D01*
X69999Y106825D01*
X69248Y106323D01*
X68746Y105571D01*
X68570Y104685D01*
X68746Y103799D01*
X69248Y103047D01*
X69999Y102545D01*
X70529Y102440D01*
Y101930D01*
X69999Y101825D01*
X69248Y101323D01*
X68746Y100571D01*
X68570Y99685D01*
X68746Y98799D01*
X69248Y98047D01*
X69999Y97545D01*
X70529Y97440D01*
Y96930D01*
X69999Y96825D01*
X69248Y96323D01*
X68746Y95571D01*
X68570Y94685D01*
X68746Y93799D01*
X69248Y93047D01*
X69999Y92545D01*
X70529Y92440D01*
Y91930D01*
X69999Y91825D01*
X69248Y91323D01*
X68746Y90571D01*
X68570Y89685D01*
X68746Y88799D01*
X69248Y88047D01*
X69999Y87545D01*
X70529Y87440D01*
Y86930D01*
X69999Y86825D01*
X69248Y86323D01*
X68746Y85571D01*
X68570Y84685D01*
X68746Y83799D01*
X69248Y83047D01*
X69999Y82545D01*
X70529Y82440D01*
Y81930D01*
X69999Y81825D01*
X69248Y81323D01*
X68746Y80571D01*
X68570Y79685D01*
X68746Y78799D01*
X69248Y78047D01*
X69999Y77545D01*
X70529Y77440D01*
Y76930D01*
X69999Y76825D01*
X69248Y76323D01*
X68746Y75571D01*
X68570Y74685D01*
X68746Y73799D01*
X69248Y73047D01*
X69999Y72545D01*
X70886Y72369D01*
X71083D01*
X71969Y72545D01*
X72720Y73047D01*
X73223Y73799D01*
X73229Y73833D01*
X73739D01*
X73746Y73799D01*
X74248Y73047D01*
X74999Y72545D01*
X75886Y72369D01*
X76083D01*
X76969Y72545D01*
X77720Y73047D01*
X78223Y73799D01*
X78399Y74685D01*
X78223Y75571D01*
X77720Y76323D01*
X76969Y76825D01*
X76440Y76930D01*
Y77440D01*
X76969Y77545D01*
X77720Y78047D01*
X78223Y78799D01*
X78399Y79685D01*
X78223Y80571D01*
X77720Y81323D01*
X76969Y81825D01*
X76440Y81930D01*
Y82440D01*
X76969Y82545D01*
X77720Y83047D01*
X78223Y83799D01*
X78399Y84685D01*
X78223Y85571D01*
X77720Y86323D01*
X76969Y86825D01*
X76440Y86930D01*
Y87440D01*
X76969Y87545D01*
X77720Y88047D01*
X78223Y88799D01*
X78399Y89685D01*
X78223Y90571D01*
X77720Y91323D01*
X76969Y91825D01*
X76440Y91930D01*
Y92440D01*
X76969Y92545D01*
X77720Y93047D01*
X78223Y93799D01*
X78399Y94685D01*
X78223Y95571D01*
X77720Y96323D01*
X76969Y96825D01*
X76440Y96930D01*
Y97440D01*
X76969Y97545D01*
X77720Y98047D01*
X78223Y98799D01*
X78399Y99685D01*
X78223Y100571D01*
X77720Y101323D01*
X76969Y101825D01*
X76440Y101930D01*
Y102440D01*
X76969Y102545D01*
X77720Y103047D01*
X78223Y103799D01*
X78399Y104685D01*
X78223Y105571D01*
X77720Y106323D01*
X76969Y106825D01*
X76440Y106930D01*
Y107440D01*
X76969Y107545D01*
X77720Y108047D01*
X78223Y108799D01*
X78399Y109685D01*
X78223Y110571D01*
X77720Y111323D01*
X76969Y111825D01*
X76440Y111930D01*
Y112440D01*
X76969Y112545D01*
X77720Y113047D01*
X78223Y113799D01*
X78237Y113874D01*
X86732D01*
X87043Y113936D01*
X87306Y114112D01*
X89262Y116068D01*
X89858Y116076D01*
X91944Y113991D01*
X92208Y113814D01*
X92520Y113752D01*
X102027D01*
X102150Y113568D01*
X102609Y113261D01*
X103150Y113154D01*
X103690Y113261D01*
X104149Y113568D01*
X104455Y114026D01*
X104563Y114567D01*
X104455Y115108D01*
X104149Y115566D01*
X103690Y115872D01*
X103618Y115887D01*
Y116397D01*
X103690Y116411D01*
X104149Y116717D01*
X104455Y117176D01*
X104563Y117717D01*
X104455Y118257D01*
X104258Y118552D01*
X104186Y118897D01*
X104258Y119244D01*
X104455Y119538D01*
X104562Y120079D01*
X104492Y120432D01*
X104770Y120865D01*
X104850Y120927D01*
X105057Y120948D01*
X105365Y120742D01*
X105905Y120634D01*
X106446Y120742D01*
X106905Y121048D01*
X107211Y121507D01*
X107318Y122047D01*
X107211Y122588D01*
X106905Y123046D01*
X106446Y123353D01*
X105905Y123460D01*
X105365Y123353D01*
X104906Y123046D01*
X104781Y122858D01*
X94430D01*
X94012Y123277D01*
Y139304D01*
X94512Y139605D01*
X94882Y139532D01*
X95422Y139639D01*
X95881Y139945D01*
X96187Y140404D01*
X96295Y140945D01*
X96237Y141233D01*
X96473Y141401D01*
X96698Y141481D01*
X97097Y141214D01*
X97638Y141106D01*
X98178Y141214D01*
X98637Y141520D01*
X98943Y141979D01*
X99051Y142519D01*
X98943Y143060D01*
X98637Y143518D01*
X98178Y143825D01*
X97638Y143932D01*
X97097Y143825D01*
X96639Y143518D01*
X96332Y143060D01*
X96225Y142519D01*
X96282Y142231D01*
X96047Y142063D01*
X95821Y141983D01*
X95422Y142250D01*
X94882Y142358D01*
X94511Y142284D01*
X94011Y142585D01*
Y145033D01*
X94511Y145300D01*
X94735Y145151D01*
X95275Y145043D01*
X95816Y145151D01*
X96275Y145457D01*
X96581Y145916D01*
X96688Y146456D01*
X96581Y146997D01*
X96275Y147456D01*
X95816Y147762D01*
X95275Y147869D01*
X94735Y147762D01*
X94511Y147613D01*
X94011Y147880D01*
Y157193D01*
X94011Y157193D01*
X93950Y157503D01*
X93907Y157567D01*
X94072Y158065D01*
X94127Y158120D01*
X94241Y158143D01*
X94700Y158449D01*
X95006Y158908D01*
X95114Y159449D01*
X95006Y159989D01*
X94700Y160448D01*
X94241Y160754D01*
X93701Y160862D01*
X93160Y160754D01*
X92702Y160448D01*
X92395Y159989D01*
X92373Y159875D01*
X91830Y159711D01*
X90968Y160572D01*
Y162736D01*
X90907Y163047D01*
X90731Y163310D01*
X81282Y172758D01*
X81019Y172934D01*
X80709Y172996D01*
X78288D01*
X78020Y173496D01*
X78223Y173799D01*
X78399Y174685D01*
X78223Y175571D01*
X78020Y175874D01*
X78288Y176374D01*
X79211D01*
X89584Y166001D01*
X89584Y166001D01*
X89847Y165826D01*
X90158Y165764D01*
X90158Y165764D01*
X92626D01*
X92893Y165264D01*
X92789Y165108D01*
X92681Y164567D01*
X92789Y164026D01*
X93095Y163568D01*
X93554Y163261D01*
X94095Y163154D01*
X94635Y163261D01*
X95094Y163568D01*
X95400Y164026D01*
X95508Y164567D01*
X95400Y165108D01*
X95296Y165264D01*
X95563Y165764D01*
X96869D01*
X105527Y157105D01*
Y142413D01*
X105027Y142146D01*
X104871Y142250D01*
X104331Y142358D01*
X103790Y142250D01*
X103332Y141944D01*
X103025Y141486D01*
X102918Y140945D01*
X103025Y140404D01*
X103332Y139946D01*
X103790Y139639D01*
X104331Y139532D01*
X104871Y139639D01*
X105027Y139744D01*
X105527Y139477D01*
Y137856D01*
X98639Y130968D01*
X98463Y130705D01*
X98402Y130394D01*
Y126772D01*
X98463Y126461D01*
X98639Y126198D01*
X100214Y124624D01*
X100477Y124448D01*
X100787Y124386D01*
X102015D01*
X102141Y124197D01*
X102600Y123891D01*
X103140Y123784D01*
X103681Y123891D01*
X104139Y124197D01*
X104446Y124656D01*
X104553Y125197D01*
X104495Y125492D01*
X104770Y125680D01*
X104955Y125740D01*
X105365Y125466D01*
X105905Y125358D01*
X106446Y125466D01*
X106904Y125772D01*
X107211Y126231D01*
X107318Y126771D01*
X107211Y127312D01*
X106904Y127770D01*
X106446Y128077D01*
X105905Y128184D01*
X105365Y128077D01*
X104906Y127770D01*
X104858Y127698D01*
X104388Y127706D01*
X104261Y127934D01*
X104190Y128197D01*
X104455Y128593D01*
X104563Y129134D01*
X104455Y129675D01*
X104211Y130040D01*
X104324Y130571D01*
X104441Y130642D01*
X104889Y130329D01*
X104886Y130315D01*
X104994Y129774D01*
X105300Y129316D01*
X105758Y129009D01*
X106299Y128902D01*
X106840Y129009D01*
X107298Y129316D01*
X107604Y129774D01*
X107712Y130315D01*
X107668Y130537D01*
X109991Y132859D01*
X110166Y133123D01*
X110228Y133433D01*
Y138208D01*
X110728Y138476D01*
X110754Y138458D01*
X111294Y138351D01*
X111835Y138458D01*
X112294Y138765D01*
X112600Y139223D01*
X112707Y139764D01*
X112600Y140305D01*
X112294Y140763D01*
X111835Y141069D01*
X111294Y141177D01*
X110754Y141069D01*
X110728Y141052D01*
X110228Y141319D01*
Y159232D01*
X110166Y159542D01*
X109991Y159805D01*
X109990Y159805D01*
X98997Y170798D01*
X98734Y170974D01*
X98424Y171036D01*
X95378D01*
X95266Y171196D01*
X95156Y171536D01*
X95400Y171900D01*
X95508Y172441D01*
X95400Y172982D01*
X95094Y173440D01*
X94635Y173746D01*
X94095Y173854D01*
X93872Y173810D01*
X79924Y187758D01*
X79661Y187934D01*
X79350Y187996D01*
X78288D01*
X78020Y188496D01*
X78223Y188799D01*
X78399Y189685D01*
X78223Y190571D01*
X77720Y191323D01*
X76969Y191825D01*
X76440Y191930D01*
Y192440D01*
X76969Y192545D01*
X77720Y193047D01*
X78223Y193799D01*
X78237Y193874D01*
X80570D01*
X81866Y192578D01*
Y189080D01*
X81678Y188954D01*
X81372Y188496D01*
X81264Y187955D01*
X81372Y187415D01*
X81678Y186956D01*
X82136Y186650D01*
X82677Y186542D01*
X83218Y186650D01*
X83676Y186956D01*
X83983Y187415D01*
X84090Y187955D01*
X83983Y188496D01*
X83676Y188954D01*
X83488Y189080D01*
Y192913D01*
X83488Y192913D01*
X83426Y193224D01*
X83250Y193487D01*
X83250Y193487D01*
X81479Y195258D01*
X81337Y195353D01*
X81476Y195769D01*
X81516Y195835D01*
X82037Y195939D01*
X82495Y196245D01*
X82802Y196703D01*
X82909Y197244D01*
X82802Y197785D01*
X82495Y198243D01*
X82037Y198549D01*
X81496Y198657D01*
X80955Y198549D01*
X80497Y198243D01*
X80191Y197785D01*
X80083Y197244D01*
X80191Y196703D01*
X80497Y196245D01*
X80870Y195996D01*
X80825Y195596D01*
X80787Y195496D01*
X78237D01*
X78223Y195571D01*
X77720Y196323D01*
X76969Y196825D01*
X76440Y196930D01*
Y197440D01*
X76969Y197545D01*
X77720Y198047D01*
X78223Y198799D01*
X78399Y199685D01*
X78223Y200571D01*
X78020Y200874D01*
X78288Y201374D01*
X83207D01*
X83333Y201186D01*
X83792Y200880D01*
X84332Y200772D01*
X84873Y200880D01*
X85331Y201186D01*
X85638Y201644D01*
X85745Y202185D01*
X85638Y202726D01*
X85331Y203184D01*
X84873Y203490D01*
X84332Y203598D01*
X83792Y203490D01*
X83333Y203184D01*
X83207Y202996D01*
X78288D01*
X78020Y203496D01*
X78223Y203799D01*
X78399Y204685D01*
X78223Y205571D01*
X77720Y206323D01*
X76969Y206825D01*
X76440Y206930D01*
Y207440D01*
X76969Y207545D01*
X77720Y208047D01*
X78223Y208799D01*
X78399Y209685D01*
X78223Y210571D01*
X77720Y211323D01*
X76969Y211825D01*
X76440Y211930D01*
Y212440D01*
X76969Y212545D01*
X77720Y213047D01*
X78223Y213799D01*
X78399Y214685D01*
X78223Y215571D01*
X77720Y216323D01*
X76969Y216825D01*
X76083Y217001D01*
X75886D01*
X74999Y216825D01*
X74248Y216323D01*
X73746Y215571D01*
X73739Y215537D01*
X73229D01*
X73223Y215571D01*
X72720Y216323D01*
X71969Y216825D01*
X71661Y216886D01*
X71710Y217386D01*
X71969D01*
X72509Y217494D01*
X72968Y217800D01*
X73274Y218259D01*
X73382Y218799D01*
Y220571D01*
X73274Y221112D01*
X72968Y221570D01*
X72509Y221876D01*
X71969Y221984D01*
D02*
G37*
G36*
X127953Y188814D02*
X127412Y188707D01*
X126954Y188401D01*
X126647Y187942D01*
X126540Y187402D01*
X126647Y186861D01*
X126954Y186402D01*
X127412Y186096D01*
X127953Y185989D01*
X128493Y186096D01*
X128952Y186402D01*
X129258Y186861D01*
X129366Y187402D01*
X129258Y187942D01*
X128952Y188401D01*
X128493Y188707D01*
X127953Y188814D01*
D02*
G37*
G36*
X139764Y188421D02*
X139223Y188313D01*
X138765Y188007D01*
X138458Y187549D01*
X138351Y187008D01*
X138458Y186467D01*
X138765Y186009D01*
X139223Y185703D01*
X139764Y185595D01*
X140305Y185703D01*
X140763Y186009D01*
X141069Y186467D01*
X141177Y187008D01*
X141069Y187549D01*
X140763Y188007D01*
X140305Y188313D01*
X139764Y188421D01*
D02*
G37*
G36*
X145669Y186452D02*
X145129Y186345D01*
X144670Y186038D01*
X144364Y185580D01*
X144256Y185039D01*
X144364Y184499D01*
X144670Y184040D01*
X145129Y183734D01*
X145669Y183626D01*
X146210Y183734D01*
X146668Y184040D01*
X146975Y184499D01*
X147082Y185039D01*
X146975Y185580D01*
X146668Y186038D01*
X146210Y186345D01*
X145669Y186452D01*
D02*
G37*
G36*
X149606Y182515D02*
X149066Y182408D01*
X148607Y182102D01*
X148301Y181643D01*
X148193Y181102D01*
X148210Y181020D01*
X147872Y180638D01*
X147404D01*
X147066Y181020D01*
X147082Y181102D01*
X146975Y181643D01*
X146668Y182102D01*
X146210Y182408D01*
X145669Y182515D01*
X145129Y182408D01*
X144670Y182102D01*
X144364Y181643D01*
X144256Y181102D01*
X144364Y180562D01*
X144670Y180103D01*
X145129Y179797D01*
X145669Y179689D01*
X145832Y179722D01*
X146257Y179297D01*
X146225Y179134D01*
X146332Y178593D01*
X146639Y178135D01*
X147097Y177828D01*
X147638Y177721D01*
X147801Y177753D01*
X148226Y177328D01*
X148193Y177165D01*
X148226Y177003D01*
X147801Y176577D01*
X147638Y176610D01*
X147097Y176502D01*
X146639Y176196D01*
X146332Y175738D01*
X146225Y175197D01*
X146332Y174656D01*
X146639Y174198D01*
X147097Y173891D01*
X147638Y173784D01*
X148179Y173891D01*
X148637Y174198D01*
X148943Y174656D01*
X149051Y175197D01*
X149018Y175359D01*
X149444Y175785D01*
X149606Y175752D01*
X150147Y175860D01*
X150605Y176166D01*
X150912Y176625D01*
X151019Y177165D01*
X150912Y177706D01*
X150605Y178165D01*
X150147Y178471D01*
X149606Y178578D01*
X149523Y178562D01*
X149142Y178900D01*
Y179368D01*
X149523Y179706D01*
X149606Y179689D01*
X150147Y179797D01*
X150605Y180103D01*
X150912Y180562D01*
X151019Y181102D01*
X150912Y181643D01*
X150605Y182102D01*
X150147Y182408D01*
X149606Y182515D01*
D02*
G37*
G36*
X165354D02*
X164814Y182408D01*
X164355Y182102D01*
X164049Y181643D01*
X163941Y181102D01*
X164049Y180562D01*
X164355Y180103D01*
X164814Y179797D01*
X165354Y179689D01*
X165895Y179797D01*
X166353Y180103D01*
X166660Y180562D01*
X166767Y181102D01*
X166660Y181643D01*
X166353Y182102D01*
X165895Y182408D01*
X165354Y182515D01*
D02*
G37*
G36*
X161417D02*
X160877Y182408D01*
X160418Y182102D01*
X160112Y181643D01*
X160004Y181102D01*
X160112Y180562D01*
X160418Y180103D01*
X160877Y179797D01*
X161417Y179689D01*
X161958Y179797D01*
X162417Y180103D01*
X162723Y180562D01*
X162830Y181102D01*
X162723Y181643D01*
X162417Y182102D01*
X161958Y182408D01*
X161417Y182515D01*
D02*
G37*
G36*
X153543Y178578D02*
X153003Y178471D01*
X152544Y178165D01*
X152238Y177706D01*
X152130Y177165D01*
X152238Y176625D01*
X152544Y176166D01*
X153003Y175860D01*
X153543Y175752D01*
X154084Y175860D01*
X154542Y176166D01*
X154849Y176625D01*
X154956Y177165D01*
X154849Y177706D01*
X154542Y178165D01*
X154084Y178471D01*
X153543Y178578D01*
D02*
G37*
G36*
X141732D02*
X141192Y178471D01*
X140733Y178165D01*
X140427Y177706D01*
X140319Y177165D01*
X140427Y176625D01*
X140733Y176166D01*
X141192Y175860D01*
X141732Y175752D01*
X142273Y175860D01*
X142731Y176166D01*
X143038Y176625D01*
X143145Y177165D01*
X143038Y177706D01*
X142731Y178165D01*
X142273Y178471D01*
X141732Y178578D01*
D02*
G37*
G36*
X131890Y180547D02*
X131349Y180439D01*
X130891Y180133D01*
X130584Y179675D01*
X130477Y179134D01*
X130584Y178593D01*
X130891Y178135D01*
X131349Y177828D01*
X131890Y177721D01*
X132052Y177753D01*
X132478Y177328D01*
X132445Y177165D01*
X132553Y176625D01*
X132859Y176166D01*
X133318Y175860D01*
X133858Y175752D01*
X134399Y175860D01*
X134857Y176166D01*
X135164Y176625D01*
X135271Y177165D01*
X135164Y177706D01*
X134857Y178165D01*
X134399Y178471D01*
X133858Y178578D01*
X133696Y178546D01*
X133270Y178971D01*
X133303Y179134D01*
X133195Y179675D01*
X132889Y180133D01*
X132431Y180439D01*
X131890Y180547D01*
D02*
G37*
G36*
X137795Y178578D02*
X137255Y178471D01*
X136796Y178165D01*
X136490Y177706D01*
X136382Y177165D01*
X136490Y176625D01*
X136796Y176166D01*
X137255Y175860D01*
X137795Y175752D01*
X138336Y175860D01*
X138794Y176166D01*
X139101Y176625D01*
X139208Y177165D01*
X139101Y177706D01*
X138794Y178165D01*
X138336Y178471D01*
X137795Y178578D01*
D02*
G37*
G36*
X66142Y175429D02*
X65601Y175321D01*
X65143Y175015D01*
X64836Y174557D01*
X64729Y174016D01*
X64836Y173475D01*
X65143Y173017D01*
X65601Y172710D01*
X66142Y172603D01*
X66682Y172710D01*
X67141Y173017D01*
X67447Y173475D01*
X67555Y174016D01*
X67447Y174557D01*
X67141Y175015D01*
X66682Y175321D01*
X66142Y175429D01*
D02*
G37*
G36*
X131890Y173066D02*
X131349Y172959D01*
X130891Y172653D01*
X130584Y172194D01*
X130477Y171653D01*
X130584Y171113D01*
X130891Y170654D01*
X131349Y170348D01*
X131890Y170241D01*
X132431Y170348D01*
X132889Y170654D01*
X133195Y171113D01*
X133303Y171653D01*
X133195Y172194D01*
X132889Y172653D01*
X132431Y172959D01*
X131890Y173066D01*
D02*
G37*
G36*
X147638Y172673D02*
X147097Y172565D01*
X146639Y172259D01*
X146332Y171801D01*
X146225Y171260D01*
X146332Y170719D01*
X146639Y170261D01*
X147097Y169954D01*
X147638Y169847D01*
X148179Y169954D01*
X148637Y170261D01*
X148943Y170719D01*
X149051Y171260D01*
X148943Y171801D01*
X148637Y172259D01*
X148179Y172565D01*
X147638Y172673D01*
D02*
G37*
G36*
X144094Y172279D02*
X143553Y172171D01*
X143095Y171865D01*
X142789Y171406D01*
X142681Y170866D01*
X142789Y170325D01*
X143095Y169867D01*
X143553Y169560D01*
X144094Y169453D01*
X144635Y169560D01*
X145093Y169867D01*
X145400Y170325D01*
X145507Y170866D01*
X145400Y171406D01*
X145093Y171865D01*
X144635Y172171D01*
X144094Y172279D01*
D02*
G37*
G36*
X155905Y169130D02*
X155365Y169022D01*
X154906Y168716D01*
X154600Y168257D01*
X154492Y167717D01*
X154600Y167176D01*
X154906Y166717D01*
X155365Y166411D01*
X155905Y166304D01*
X156446Y166411D01*
X156905Y166717D01*
X157211Y167176D01*
X157318Y167717D01*
X157211Y168257D01*
X156905Y168716D01*
X156446Y169022D01*
X155905Y169130D01*
D02*
G37*
G36*
X167323Y168736D02*
X166782Y168628D01*
X166324Y168322D01*
X166017Y167864D01*
X165910Y167323D01*
X166017Y166782D01*
X166324Y166324D01*
X166782Y166017D01*
X167323Y165910D01*
X167864Y166017D01*
X168322Y166324D01*
X168628Y166782D01*
X168736Y167323D01*
X168628Y167864D01*
X168322Y168322D01*
X167864Y168628D01*
X167323Y168736D01*
D02*
G37*
G36*
X147638D02*
X147097Y168628D01*
X146639Y168322D01*
X146332Y167864D01*
X146225Y167323D01*
X146332Y166782D01*
X146639Y166324D01*
X147097Y166017D01*
X147638Y165910D01*
X148179Y166017D01*
X148637Y166324D01*
X148943Y166782D01*
X149051Y167323D01*
X148943Y167864D01*
X148637Y168322D01*
X148179Y168628D01*
X147638Y168736D01*
D02*
G37*
G36*
X143701D02*
X143160Y168628D01*
X142702Y168322D01*
X142395Y167864D01*
X142288Y167323D01*
X142395Y166782D01*
X142702Y166324D01*
X143160Y166017D01*
X143701Y165910D01*
X144241Y166017D01*
X144700Y166324D01*
X145006Y166782D01*
X145114Y167323D01*
X145006Y167864D01*
X144700Y168322D01*
X144241Y168628D01*
X143701Y168736D01*
D02*
G37*
G36*
X139763Y171885D02*
X139223Y171777D01*
X138764Y171471D01*
X138458Y171013D01*
X138350Y170472D01*
X138458Y169931D01*
X138764Y169473D01*
X139223Y169167D01*
X139295Y169152D01*
Y168642D01*
X139223Y168628D01*
X138765Y168322D01*
X138458Y167864D01*
X138351Y167323D01*
X138458Y166782D01*
X138765Y166324D01*
X139223Y166017D01*
X139764Y165910D01*
X140305Y166017D01*
X140763Y166324D01*
X141069Y166782D01*
X141177Y167323D01*
X141069Y167864D01*
X140763Y168322D01*
X140305Y168628D01*
X140232Y168643D01*
Y169152D01*
X140304Y169167D01*
X140763Y169473D01*
X141069Y169931D01*
X141176Y170472D01*
X141069Y171013D01*
X140763Y171471D01*
X140304Y171777D01*
X139763Y171885D01*
D02*
G37*
G36*
X151181Y168342D02*
X150640Y168234D01*
X150182Y167928D01*
X149875Y167470D01*
X149768Y166929D01*
X149875Y166388D01*
X150182Y165930D01*
X150640Y165623D01*
X151181Y165516D01*
X151722Y165623D01*
X152180Y165930D01*
X152486Y166388D01*
X152594Y166929D01*
X152486Y167470D01*
X152180Y167928D01*
X151722Y168234D01*
X151181Y168342D01*
D02*
G37*
G36*
X107086Y167948D02*
X106546Y167841D01*
X106087Y167534D01*
X105781Y167076D01*
X105673Y166535D01*
X105781Y165994D01*
X106087Y165536D01*
X106546Y165230D01*
X107086Y165122D01*
X107627Y165230D01*
X108086Y165536D01*
X108392Y165994D01*
X108499Y166535D01*
X108392Y167076D01*
X108086Y167534D01*
X107627Y167841D01*
X107086Y167948D01*
D02*
G37*
G36*
X167323Y164799D02*
X166782Y164691D01*
X166324Y164385D01*
X166017Y163926D01*
X165910Y163386D01*
X166017Y162845D01*
X166324Y162387D01*
X166782Y162080D01*
X167323Y161973D01*
X167864Y162080D01*
X168322Y162387D01*
X168628Y162845D01*
X168736Y163386D01*
X168628Y163926D01*
X168322Y164385D01*
X167864Y164691D01*
X167323Y164799D01*
D02*
G37*
G36*
X159449D02*
X158908Y164691D01*
X158450Y164385D01*
X158143Y163926D01*
X158036Y163386D01*
X158143Y162845D01*
X158450Y162387D01*
X158908Y162080D01*
X159449Y161973D01*
X159990Y162080D01*
X160448Y162387D01*
X160754Y162845D01*
X160862Y163386D01*
X160754Y163926D01*
X160448Y164385D01*
X159990Y164691D01*
X159449Y164799D01*
D02*
G37*
G36*
X139764D02*
X139223Y164691D01*
X138765Y164385D01*
X138458Y163926D01*
X138351Y163386D01*
X138458Y162845D01*
X138765Y162387D01*
X139223Y162080D01*
X139764Y161973D01*
X140305Y162080D01*
X140763Y162387D01*
X141069Y162845D01*
X141177Y163386D01*
X141069Y163926D01*
X140763Y164385D01*
X140305Y164691D01*
X139764Y164799D01*
D02*
G37*
G36*
X143307Y164405D02*
X142766Y164297D01*
X142308Y163991D01*
X142001Y163532D01*
X141894Y162992D01*
X142001Y162451D01*
X142308Y161993D01*
X142766Y161686D01*
X143307Y161579D01*
X143848Y161686D01*
X144306Y161993D01*
X144612Y162451D01*
X144720Y162992D01*
X144612Y163532D01*
X144306Y163991D01*
X143848Y164297D01*
X143307Y164405D01*
D02*
G37*
G36*
X96850Y164011D02*
X96310Y163903D01*
X95851Y163597D01*
X95545Y163139D01*
X95437Y162598D01*
X95545Y162057D01*
X95851Y161599D01*
X96310Y161293D01*
X96850Y161185D01*
X97391Y161293D01*
X97849Y161599D01*
X98156Y162057D01*
X98263Y162598D01*
X98156Y163139D01*
X97849Y163597D01*
X97391Y163903D01*
X96850Y164011D01*
D02*
G37*
G36*
X129921Y162830D02*
X129381Y162723D01*
X128922Y162416D01*
X128616Y161958D01*
X128508Y161417D01*
X128616Y160877D01*
X128922Y160418D01*
X129381Y160112D01*
X129921Y160004D01*
X130462Y160112D01*
X130920Y160418D01*
X131227Y160877D01*
X131334Y161417D01*
X131227Y161958D01*
X130920Y162416D01*
X130462Y162723D01*
X129921Y162830D01*
D02*
G37*
G36*
X159449Y160862D02*
X158908Y160754D01*
X158450Y160448D01*
X158143Y159990D01*
X158036Y159449D01*
X158143Y158908D01*
X158450Y158450D01*
X158908Y158143D01*
X159449Y158036D01*
X159611Y158068D01*
X160037Y157643D01*
X160004Y157480D01*
X160037Y157318D01*
X159611Y156892D01*
X159449Y156925D01*
X158908Y156817D01*
X158711Y156685D01*
X158522Y156786D01*
X158234Y157168D01*
X158296Y157480D01*
X158234Y157792D01*
X158057Y158057D01*
X156891Y159223D01*
X156817Y159596D01*
X156511Y160054D01*
X156052Y160360D01*
X155511Y160468D01*
X154971Y160360D01*
X154512Y160054D01*
X154206Y159596D01*
X154098Y159055D01*
X154206Y158514D01*
X154512Y158056D01*
X154914Y157787D01*
X154928Y157560D01*
X154861Y157267D01*
X154577Y157211D01*
X154119Y156904D01*
X153812Y156446D01*
X153705Y155905D01*
X153748Y155688D01*
X152451Y154391D01*
X152274Y154127D01*
X152212Y153815D01*
Y149729D01*
X152274Y149417D01*
X152301Y149377D01*
X152294Y149360D01*
X151970Y148972D01*
X151575Y149051D01*
X151034Y148943D01*
X150575Y148637D01*
X150269Y148179D01*
X150162Y147638D01*
X150269Y147097D01*
X150575Y146639D01*
X151034Y146332D01*
X151575Y146225D01*
X151791Y146268D01*
X153515Y144544D01*
Y135771D01*
X151392Y133648D01*
X151215Y133383D01*
X151153Y133071D01*
X151153Y133071D01*
Y129803D01*
X150812Y129395D01*
X150680Y129344D01*
X150246Y129258D01*
X149788Y128952D01*
X149482Y128493D01*
X149374Y127953D01*
X149482Y127412D01*
X149788Y126953D01*
X150246Y126647D01*
X150787Y126540D01*
X151328Y126647D01*
X151786Y126953D01*
X151824Y127010D01*
X152150Y127347D01*
X152609Y127041D01*
X153150Y126934D01*
X153690Y127041D01*
X154149Y127347D01*
X154374Y127685D01*
X154874Y127545D01*
Y126847D01*
X152463Y124435D01*
X152362Y124284D01*
X151927Y124213D01*
X151798Y124227D01*
X151340Y124534D01*
X150799Y124641D01*
X150258Y124534D01*
X149800Y124227D01*
X149494Y123769D01*
X149386Y123228D01*
X149494Y122688D01*
X149800Y122229D01*
X150212Y121954D01*
X150294Y121822D01*
X150409Y121443D01*
X148839Y119874D01*
X148622Y119917D01*
X148081Y119809D01*
X147623Y119503D01*
X147317Y119045D01*
X147209Y118504D01*
X147317Y117963D01*
X147623Y117505D01*
X148081Y117199D01*
X148622Y117091D01*
X149163Y117199D01*
X149621Y117505D01*
X149927Y117963D01*
X150035Y118504D01*
X149992Y118721D01*
X150460Y119189D01*
X151002Y119025D01*
X151057Y118751D01*
X151363Y118292D01*
X151821Y117986D01*
X152362Y117878D01*
X152903Y117986D01*
X153361Y118292D01*
X153533Y118549D01*
X154403D01*
X154572Y118582D01*
X154892Y118201D01*
X154903Y118177D01*
X154768Y117976D01*
X154661Y117436D01*
X154768Y116895D01*
X155075Y116436D01*
X155533Y116130D01*
X156074Y116023D01*
X156615Y116130D01*
X157073Y116436D01*
X157379Y116895D01*
X157487Y117436D01*
X157379Y117976D01*
X157073Y118435D01*
X156615Y118741D01*
X156074Y118849D01*
X155666Y118767D01*
X155398Y119206D01*
X158339Y122147D01*
X158516Y122412D01*
X158578Y122724D01*
Y123641D01*
X158579Y123645D01*
X158568Y123696D01*
Y149727D01*
X158568Y149728D01*
X158530Y149921D01*
X158863Y150228D01*
X158933Y150265D01*
X159449Y150162D01*
X159990Y150269D01*
X160448Y150576D01*
X160754Y151034D01*
X160862Y151575D01*
X160754Y152115D01*
X160448Y152574D01*
X159990Y152880D01*
X159449Y152988D01*
X159286Y152955D01*
X158861Y153381D01*
X158893Y153543D01*
X158861Y153706D01*
X159286Y154131D01*
X159449Y154099D01*
X159990Y154206D01*
X160448Y154513D01*
X160754Y154971D01*
X160862Y155512D01*
X160829Y155675D01*
X161255Y156100D01*
X161417Y156067D01*
X161958Y156175D01*
X162417Y156481D01*
X162723Y156940D01*
X162830Y157480D01*
X162723Y158021D01*
X162417Y158479D01*
X161958Y158786D01*
X161417Y158893D01*
X161255Y158861D01*
X160829Y159286D01*
X160862Y159449D01*
X160754Y159990D01*
X160448Y160448D01*
X159990Y160754D01*
X159449Y160862D01*
D02*
G37*
G36*
X171260D02*
X170719Y160754D01*
X170261Y160448D01*
X169954Y159990D01*
X169847Y159449D01*
X169954Y158908D01*
X170261Y158450D01*
X170719Y158143D01*
X171260Y158036D01*
X171423Y158068D01*
X171848Y157643D01*
X171815Y157480D01*
X171923Y156940D01*
X172229Y156481D01*
X172688Y156175D01*
X173228Y156067D01*
X173769Y156175D01*
X174227Y156481D01*
X174534Y156940D01*
X174641Y157480D01*
X174534Y158021D01*
X174227Y158479D01*
X173769Y158786D01*
X173228Y158893D01*
X173066Y158861D01*
X172641Y159286D01*
X172673Y159449D01*
X172565Y159990D01*
X172259Y160448D01*
X171801Y160754D01*
X171260Y160862D01*
D02*
G37*
G36*
X165354Y158893D02*
X164814Y158786D01*
X164355Y158479D01*
X164049Y158021D01*
X163941Y157480D01*
X164049Y156940D01*
X164355Y156481D01*
X164814Y156175D01*
X165354Y156067D01*
X165895Y156175D01*
X166353Y156481D01*
X166660Y156940D01*
X166767Y157480D01*
X166660Y158021D01*
X166353Y158479D01*
X165895Y158786D01*
X165354Y158893D01*
D02*
G37*
G36*
X194882Y156137D02*
X194341Y156030D01*
X193883Y155724D01*
X193577Y155265D01*
X193469Y154724D01*
X193577Y154184D01*
X193883Y153725D01*
X194341Y153419D01*
X194882Y153311D01*
X195423Y153419D01*
X195881Y153725D01*
X196187Y154184D01*
X196295Y154724D01*
X196187Y155265D01*
X195881Y155724D01*
X195423Y156030D01*
X194882Y156137D01*
D02*
G37*
G36*
X213385Y156090D02*
X212845Y155983D01*
X212386Y155676D01*
X212080Y155218D01*
X211972Y154677D01*
X212080Y154137D01*
X212386Y153678D01*
X212845Y153372D01*
X213385Y153264D01*
X213926Y153372D01*
X214385Y153678D01*
X214691Y154137D01*
X214798Y154677D01*
X214691Y155218D01*
X214385Y155676D01*
X213926Y155983D01*
X213385Y156090D01*
D02*
G37*
G36*
X149606Y158893D02*
X149066Y158786D01*
X148607Y158479D01*
X148301Y158021D01*
X148193Y157480D01*
X148291Y156989D01*
X148156Y156750D01*
X147980Y156520D01*
X147491Y156423D01*
X147032Y156117D01*
X146726Y155658D01*
X146618Y155118D01*
X146726Y154577D01*
X147032Y154119D01*
X147491Y153812D01*
X148031Y153705D01*
X148209Y153230D01*
X148193Y153149D01*
X148301Y152609D01*
X148607Y152150D01*
X149065Y151844D01*
X149606Y151736D01*
X150147Y151844D01*
X150605Y152150D01*
X150911Y152609D01*
X151019Y153149D01*
X150911Y153690D01*
X150605Y154148D01*
X150147Y154455D01*
X149606Y154562D01*
X149428Y155037D01*
X149444Y155118D01*
X149346Y155609D01*
X149482Y155848D01*
X149658Y156078D01*
X150147Y156175D01*
X150605Y156481D01*
X150912Y156940D01*
X151019Y157480D01*
X150912Y158021D01*
X150605Y158479D01*
X150147Y158786D01*
X149606Y158893D01*
D02*
G37*
G36*
X96850Y155743D02*
X96310Y155636D01*
X95851Y155330D01*
X95545Y154871D01*
X95437Y154330D01*
X95545Y153790D01*
X95851Y153331D01*
X96310Y153025D01*
X96850Y152917D01*
X97391Y153025D01*
X97849Y153331D01*
X98132Y153754D01*
X98156Y153790D01*
X98604Y153629D01*
X98602Y153617D01*
X98587Y153543D01*
X98694Y153002D01*
X99001Y152544D01*
X99459Y152238D01*
X99970Y152136D01*
X100398Y151983D01*
X100441Y151941D01*
X100548Y151400D01*
X100855Y150942D01*
X101313Y150635D01*
X101854Y150528D01*
X102394Y150635D01*
X102853Y150942D01*
X103159Y151400D01*
X103267Y151941D01*
X103159Y152481D01*
X102853Y152940D01*
X102394Y153246D01*
X101884Y153348D01*
X101455Y153500D01*
X101413Y153543D01*
X101305Y154084D01*
X100999Y154542D01*
X100540Y154848D01*
X100000Y154956D01*
X99459Y154848D01*
X99001Y154542D01*
X98718Y154119D01*
X98694Y154084D01*
X98246Y154244D01*
X98248Y154257D01*
X98263Y154330D01*
X98156Y154871D01*
X97849Y155330D01*
X97391Y155636D01*
X96850Y155743D01*
D02*
G37*
G36*
X167323Y152988D02*
X166782Y152880D01*
X166324Y152574D01*
X166017Y152115D01*
X165910Y151575D01*
X166017Y151034D01*
X166324Y150576D01*
X166782Y150269D01*
X167323Y150162D01*
X167864Y150269D01*
X168322Y150576D01*
X168628Y151034D01*
X168736Y151575D01*
X168628Y152115D01*
X168322Y152574D01*
X167864Y152880D01*
X167323Y152988D01*
D02*
G37*
G36*
X163386D02*
X162845Y152880D01*
X162387Y152574D01*
X162080Y152115D01*
X161973Y151575D01*
X162080Y151034D01*
X162387Y150576D01*
X162845Y150269D01*
X163386Y150162D01*
X163926Y150269D01*
X164385Y150576D01*
X164691Y151034D01*
X164799Y151575D01*
X164691Y152115D01*
X164385Y152574D01*
X163926Y152880D01*
X163386Y152988D01*
D02*
G37*
G36*
X176378Y152594D02*
X175837Y152486D01*
X175379Y152180D01*
X175072Y151722D01*
X174965Y151181D01*
X175072Y150640D01*
X175379Y150182D01*
X175837Y149875D01*
X176378Y149768D01*
X176918Y149875D01*
X177377Y150182D01*
X177683Y150640D01*
X177791Y151181D01*
X177683Y151722D01*
X177377Y152180D01*
X176918Y152486D01*
X176378Y152594D01*
D02*
G37*
G36*
X212205Y151413D02*
X211664Y151305D01*
X211206Y150999D01*
X210899Y150541D01*
X210792Y150000D01*
X210899Y149459D01*
X211206Y149001D01*
X211664Y148695D01*
X212205Y148587D01*
X212745Y148695D01*
X213204Y149001D01*
X213510Y149459D01*
X213618Y150000D01*
X213510Y150541D01*
X213204Y150999D01*
X212745Y151305D01*
X212205Y151413D01*
D02*
G37*
G36*
X118110Y151019D02*
X117569Y150912D01*
X117111Y150605D01*
X116805Y150147D01*
X116697Y149606D01*
X116805Y149066D01*
X117111Y148607D01*
X117569Y148301D01*
X118110Y148193D01*
X118651Y148301D01*
X119109Y148607D01*
X119416Y149066D01*
X119523Y149606D01*
X119416Y150147D01*
X119109Y150605D01*
X118651Y150912D01*
X118110Y151019D01*
D02*
G37*
G36*
X100393Y150232D02*
X99853Y150124D01*
X99394Y149818D01*
X99088Y149359D01*
X98980Y148819D01*
X99088Y148278D01*
X99394Y147819D01*
X99853Y147513D01*
X100393Y147406D01*
X100934Y147513D01*
X101393Y147819D01*
X101699Y148278D01*
X101806Y148819D01*
X101699Y149359D01*
X101393Y149818D01*
X100934Y150124D01*
X100393Y150232D01*
D02*
G37*
G36*
X239961Y221984D02*
X237992D01*
X237451Y221876D01*
X236993Y221570D01*
X236687Y221112D01*
X236579Y220571D01*
Y218799D01*
X236687Y218259D01*
X236993Y217800D01*
X237451Y217494D01*
X237992Y217386D01*
X238251D01*
X238300Y216886D01*
X237992Y216825D01*
X237240Y216323D01*
X236738Y215571D01*
X236562Y214685D01*
X236738Y213799D01*
X237240Y213047D01*
X237992Y212545D01*
X238521Y212440D01*
Y211930D01*
X237992Y211825D01*
X237240Y211323D01*
X236738Y210571D01*
X236562Y209685D01*
X236738Y208799D01*
X237240Y208047D01*
X237992Y207545D01*
X238521Y207440D01*
Y206930D01*
X237992Y206825D01*
X237240Y206323D01*
X236738Y205571D01*
X236562Y204685D01*
X236738Y203799D01*
X237240Y203047D01*
X237992Y202545D01*
X238521Y202440D01*
Y201930D01*
X237992Y201825D01*
X237240Y201323D01*
X236738Y200571D01*
X236562Y199685D01*
X236738Y198799D01*
X237240Y198047D01*
X237992Y197545D01*
X238521Y197440D01*
Y196930D01*
X237992Y196825D01*
X237240Y196323D01*
X236738Y195571D01*
X236562Y194685D01*
X236738Y193799D01*
X237240Y193047D01*
X237992Y192545D01*
X238521Y192440D01*
Y191930D01*
X237992Y191825D01*
X237240Y191323D01*
X236738Y190571D01*
X236562Y189685D01*
X236738Y188799D01*
X237240Y188047D01*
X237992Y187545D01*
X238521Y187440D01*
Y186930D01*
X237992Y186825D01*
X237240Y186323D01*
X236738Y185571D01*
X236562Y184685D01*
X236738Y183799D01*
X237240Y183047D01*
X237992Y182545D01*
X238521Y182440D01*
Y181930D01*
X237992Y181825D01*
X237240Y181323D01*
X236738Y180571D01*
X236562Y179685D01*
X236738Y178799D01*
X237240Y178047D01*
X237992Y177545D01*
X238521Y177440D01*
Y176930D01*
X237992Y176825D01*
X237240Y176323D01*
X236738Y175571D01*
X236562Y174685D01*
X236738Y173799D01*
X237240Y173047D01*
X237992Y172545D01*
X238521Y172440D01*
Y171930D01*
X237992Y171825D01*
X237240Y171323D01*
X236738Y170571D01*
X236562Y169685D01*
X236738Y168799D01*
X237240Y168047D01*
X237992Y167545D01*
X238521Y167440D01*
Y166930D01*
X237992Y166825D01*
X237240Y166323D01*
X236738Y165571D01*
X236562Y164685D01*
X236738Y163799D01*
X237240Y163047D01*
X237992Y162545D01*
X238521Y162440D01*
Y161930D01*
X237992Y161825D01*
X237240Y161323D01*
X236738Y160571D01*
X236562Y159685D01*
X236738Y158799D01*
X237240Y158047D01*
X237992Y157545D01*
X238521Y157440D01*
Y156930D01*
X237992Y156825D01*
X237240Y156323D01*
X236738Y155571D01*
X236562Y154685D01*
X236738Y153799D01*
X237240Y153047D01*
X237992Y152545D01*
X238521Y152440D01*
Y151930D01*
X237992Y151825D01*
X237240Y151323D01*
X236738Y150571D01*
X236562Y149685D01*
X236738Y148799D01*
X237240Y148047D01*
X237992Y147545D01*
X238878Y147369D01*
X239075D01*
X239961Y147545D01*
X240713Y148047D01*
X241215Y148799D01*
X241221Y148833D01*
X241731D01*
X241738Y148799D01*
X242240Y148047D01*
X242992Y147545D01*
X243878Y147369D01*
X244075D01*
X244961Y147545D01*
X245713Y148047D01*
X246215Y148799D01*
X246391Y149685D01*
X246215Y150571D01*
X245713Y151323D01*
X244961Y151825D01*
X244432Y151930D01*
Y152440D01*
X244961Y152545D01*
X245713Y153047D01*
X246215Y153799D01*
X246391Y154685D01*
X246215Y155571D01*
X245713Y156323D01*
X244961Y156825D01*
X244432Y156930D01*
Y157440D01*
X244961Y157545D01*
X245713Y158047D01*
X246215Y158799D01*
X246391Y159685D01*
X246215Y160571D01*
X245713Y161323D01*
X244961Y161825D01*
X244432Y161930D01*
Y162440D01*
X244961Y162545D01*
X245713Y163047D01*
X246215Y163799D01*
X246391Y164685D01*
X246215Y165571D01*
X245713Y166323D01*
X244961Y166825D01*
X244432Y166930D01*
Y167440D01*
X244961Y167545D01*
X245713Y168047D01*
X246215Y168799D01*
X246391Y169685D01*
X246215Y170571D01*
X245713Y171323D01*
X244961Y171825D01*
X244432Y171930D01*
Y172440D01*
X244961Y172545D01*
X245713Y173047D01*
X246215Y173799D01*
X246391Y174685D01*
X246215Y175571D01*
X245713Y176323D01*
X244961Y176825D01*
X244432Y176930D01*
Y177440D01*
X244961Y177545D01*
X245713Y178047D01*
X246215Y178799D01*
X246391Y179685D01*
X246215Y180571D01*
X245713Y181323D01*
X244961Y181825D01*
X244432Y181930D01*
Y182440D01*
X244961Y182545D01*
X245713Y183047D01*
X246215Y183799D01*
X246391Y184685D01*
X246215Y185571D01*
X245713Y186323D01*
X244961Y186825D01*
X244432Y186930D01*
Y187440D01*
X244961Y187545D01*
X245713Y188047D01*
X246215Y188799D01*
X246391Y189685D01*
X246215Y190571D01*
X245713Y191323D01*
X244961Y191825D01*
X244432Y191930D01*
Y192440D01*
X244961Y192545D01*
X245713Y193047D01*
X246215Y193799D01*
X246391Y194685D01*
X246215Y195571D01*
X245713Y196323D01*
X244961Y196825D01*
X244432Y196930D01*
Y197440D01*
X244961Y197545D01*
X245713Y198047D01*
X246215Y198799D01*
X246391Y199685D01*
X246215Y200571D01*
X245713Y201323D01*
X244961Y201825D01*
X244432Y201930D01*
Y202440D01*
X244961Y202545D01*
X245713Y203047D01*
X246215Y203799D01*
X246391Y204685D01*
X246215Y205571D01*
X245713Y206323D01*
X244961Y206825D01*
X244432Y206930D01*
Y207440D01*
X244961Y207545D01*
X245713Y208047D01*
X246215Y208799D01*
X246391Y209685D01*
X246215Y210571D01*
X245713Y211323D01*
X244961Y211825D01*
X244432Y211930D01*
Y212440D01*
X244961Y212545D01*
X245713Y213047D01*
X246215Y213799D01*
X246391Y214685D01*
X246215Y215571D01*
X245713Y216323D01*
X244961Y216825D01*
X244075Y217001D01*
X243878D01*
X242992Y216825D01*
X242240Y216323D01*
X241738Y215571D01*
X241731Y215537D01*
X241221D01*
X241215Y215571D01*
X240713Y216323D01*
X239961Y216825D01*
X239653Y216886D01*
X239702Y217386D01*
X239961D01*
X240501Y217494D01*
X240960Y217800D01*
X241266Y218259D01*
X241374Y218799D01*
Y220571D01*
X241266Y221112D01*
X240960Y221570D01*
X240501Y221876D01*
X239961Y221984D01*
D02*
G37*
G36*
X173228Y147082D02*
X172688Y146975D01*
X172229Y146668D01*
X171923Y146210D01*
X171815Y145669D01*
X171923Y145129D01*
X172229Y144670D01*
X172688Y144364D01*
X173228Y144256D01*
X173769Y144364D01*
X174227Y144670D01*
X174534Y145129D01*
X174641Y145669D01*
X174534Y146210D01*
X174227Y146668D01*
X173769Y146975D01*
X173228Y147082D01*
D02*
G37*
G36*
X180709Y143145D02*
X180168Y143038D01*
X179709Y142731D01*
X179403Y142273D01*
X179296Y141732D01*
X179403Y141192D01*
X179709Y140733D01*
X180168Y140427D01*
X180709Y140319D01*
X181249Y140427D01*
X181708Y140733D01*
X182014Y141192D01*
X182122Y141732D01*
X182014Y142273D01*
X181708Y142731D01*
X181249Y143038D01*
X180709Y143145D01*
D02*
G37*
G36*
X161417D02*
X160877Y143038D01*
X160418Y142731D01*
X160112Y142273D01*
X160004Y141732D01*
X160112Y141192D01*
X160418Y140733D01*
X160877Y140427D01*
X161417Y140319D01*
X161958Y140427D01*
X162417Y140733D01*
X162723Y141192D01*
X162830Y141732D01*
X162723Y142273D01*
X162417Y142731D01*
X161958Y143038D01*
X161417Y143145D01*
D02*
G37*
G36*
X102362Y139602D02*
X101821Y139494D01*
X101363Y139188D01*
X101057Y138730D01*
X100949Y138189D01*
X101057Y137648D01*
X101363Y137190D01*
X101821Y136884D01*
X102362Y136776D01*
X102903Y136884D01*
X103361Y137190D01*
X103668Y137648D01*
X103775Y138189D01*
X103668Y138730D01*
X103361Y139188D01*
X102903Y139494D01*
X102362Y139602D01*
D02*
G37*
G36*
X179921Y139208D02*
X179380Y139100D01*
X178922Y138794D01*
X178615Y138336D01*
X178508Y137795D01*
X178615Y137254D01*
X178922Y136796D01*
X179380Y136490D01*
X179921Y136382D01*
X180462Y136490D01*
X180920Y136796D01*
X181226Y137254D01*
X181334Y137795D01*
X181226Y138336D01*
X180920Y138794D01*
X180462Y139100D01*
X179921Y139208D01*
D02*
G37*
G36*
X98523Y138519D02*
X97983Y138411D01*
X97524Y138105D01*
X97218Y137647D01*
X97110Y137106D01*
X97218Y136565D01*
X97524Y136107D01*
X97983Y135801D01*
X98523Y135693D01*
X99064Y135801D01*
X99523Y136107D01*
X99829Y136565D01*
X99936Y137106D01*
X99829Y137647D01*
X99523Y138105D01*
X99064Y138411D01*
X98523Y138519D01*
D02*
G37*
G36*
X245669Y136846D02*
X245129Y136739D01*
X244670Y136432D01*
X244364Y135974D01*
X244256Y135433D01*
X244364Y134892D01*
X244670Y134434D01*
X245129Y134128D01*
X245669Y134020D01*
X246210Y134128D01*
X246668Y134434D01*
X246975Y134892D01*
X247082Y135433D01*
X246975Y135974D01*
X246668Y136432D01*
X246210Y136739D01*
X245669Y136846D01*
D02*
G37*
G36*
X219390Y134857D02*
X219193D01*
X218268Y134674D01*
X217484Y134150D01*
X217069Y133528D01*
X217043Y133519D01*
X216540D01*
X216513Y133528D01*
X216098Y134150D01*
X215315Y134674D01*
X214390Y134857D01*
X214193D01*
X213268Y134674D01*
X212484Y134150D01*
X211960Y133366D01*
X211776Y132441D01*
X211960Y131516D01*
X212484Y130732D01*
X213268Y130208D01*
X213331Y130196D01*
Y129686D01*
X213268Y129674D01*
X212484Y129150D01*
X211960Y128366D01*
X211776Y127441D01*
X211960Y126516D01*
X212484Y125732D01*
X213268Y125208D01*
X213331Y125196D01*
Y124686D01*
X213268Y124673D01*
X212484Y124150D01*
X211960Y123366D01*
X211776Y122441D01*
X211960Y121516D01*
X212484Y120732D01*
X213268Y120208D01*
X213331Y120196D01*
Y119686D01*
X213268Y119674D01*
X212484Y119150D01*
X211960Y118366D01*
X211776Y117441D01*
X211960Y116516D01*
X212484Y115732D01*
X213268Y115208D01*
X213331Y115196D01*
Y114686D01*
X213268Y114673D01*
X212484Y114150D01*
X211960Y113366D01*
X211776Y112441D01*
X211960Y111516D01*
X212484Y110732D01*
X213268Y110208D01*
X214193Y110024D01*
X214390D01*
X215315Y110208D01*
X216098Y110732D01*
X216622Y111516D01*
X216806Y112441D01*
X216622Y113366D01*
X216098Y114150D01*
X215315Y114673D01*
X215251Y114686D01*
Y115196D01*
X215315Y115208D01*
X216098Y115732D01*
X216513Y116353D01*
X216540Y116363D01*
X217043D01*
X217069Y116353D01*
X217484Y115732D01*
X218268Y115208D01*
X219193Y115024D01*
X219390D01*
X220315Y115208D01*
X221098Y115732D01*
X221622Y116516D01*
X221806Y117441D01*
X221622Y118366D01*
X221098Y119150D01*
X220315Y119674D01*
X220251Y119686D01*
Y120196D01*
X220315Y120208D01*
X221098Y120732D01*
X221622Y121516D01*
X221806Y122441D01*
X221622Y123366D01*
X221098Y124150D01*
X220315Y124673D01*
X220251Y124686D01*
Y125196D01*
X220315Y125208D01*
X221098Y125732D01*
X221622Y126516D01*
X221806Y127441D01*
X221622Y128366D01*
X221098Y129150D01*
X220315Y129674D01*
X220251Y129686D01*
Y130196D01*
X220315Y130208D01*
X221098Y130732D01*
X221622Y131516D01*
X221806Y132441D01*
X221622Y133366D01*
X221098Y134150D01*
X220315Y134674D01*
X219390Y134857D01*
D02*
G37*
G36*
X163779Y136058D02*
X163239Y135951D01*
X162780Y135644D01*
X162474Y135186D01*
X162366Y134645D01*
X162474Y134105D01*
X162780Y133646D01*
X163239Y133340D01*
X163779Y133232D01*
X164320Y133340D01*
X164778Y133646D01*
X165085Y134105D01*
X165192Y134645D01*
X165085Y135186D01*
X164778Y135644D01*
X164320Y135951D01*
X163779Y136058D01*
D02*
G37*
G36*
X173622Y134484D02*
X173081Y134376D01*
X172623Y134070D01*
X172316Y133611D01*
X172209Y133071D01*
X172316Y132530D01*
X172623Y132071D01*
X173081Y131765D01*
X173622Y131658D01*
X174162Y131765D01*
X174621Y132071D01*
X174927Y132530D01*
X175035Y133071D01*
X174927Y133611D01*
X174621Y134070D01*
X174162Y134376D01*
X173622Y134484D01*
D02*
G37*
G36*
X146850Y131728D02*
X146310Y131620D01*
X145851Y131314D01*
X145773Y131197D01*
X145172D01*
X145094Y131314D01*
X144635Y131620D01*
X144095Y131728D01*
X143554Y131620D01*
X143095Y131314D01*
X142789Y130856D01*
X142682Y130315D01*
X142789Y129774D01*
X143095Y129316D01*
X143554Y129009D01*
X144095Y128902D01*
X144635Y129009D01*
X145094Y129316D01*
X145172Y129433D01*
X145773D01*
X145851Y129316D01*
X146310Y129009D01*
X146850Y128902D01*
X147391Y129009D01*
X147850Y129316D01*
X148156Y129774D01*
X148263Y130315D01*
X148156Y130856D01*
X147850Y131314D01*
X147391Y131620D01*
X146850Y131728D01*
D02*
G37*
G36*
X166929Y133696D02*
X166388Y133589D01*
X165930Y133282D01*
X165623Y132824D01*
X165516Y132283D01*
X165623Y131743D01*
X165930Y131284D01*
X165592Y130958D01*
X165536Y130920D01*
X165230Y130462D01*
X165122Y129921D01*
X164648Y129743D01*
X164567Y129759D01*
X164181Y129683D01*
X163853Y130091D01*
X163903Y130168D01*
X164011Y130708D01*
X163903Y131249D01*
X163597Y131708D01*
X163139Y132014D01*
X162598Y132121D01*
X162057Y132014D01*
X161599Y131708D01*
X161293Y131249D01*
X161185Y130708D01*
X161293Y130168D01*
X161599Y129709D01*
X162057Y129403D01*
X162598Y129295D01*
X162984Y129372D01*
X163312Y128963D01*
X163261Y128887D01*
X163154Y128347D01*
X163261Y127806D01*
X163429Y127556D01*
X163419Y127328D01*
X163165Y127142D01*
X162893Y127078D01*
X162745Y127177D01*
X162205Y127285D01*
X161664Y127177D01*
X161206Y126871D01*
X160899Y126413D01*
X160792Y125872D01*
X160899Y125331D01*
X161206Y124873D01*
X161664Y124566D01*
X162205Y124459D01*
X162745Y124566D01*
X163142Y124831D01*
X163405Y124760D01*
X163642Y124628D01*
Y121881D01*
X157143Y115382D01*
X146991D01*
X144086Y118287D01*
X144130Y118504D01*
X144022Y119045D01*
X143716Y119503D01*
X143257Y119809D01*
X142717Y119917D01*
X142176Y119809D01*
X141717Y119503D01*
X141411Y119045D01*
X141304Y118504D01*
X141411Y117963D01*
X141717Y117505D01*
X142176Y117199D01*
X142717Y117091D01*
X142934Y117134D01*
X146077Y113991D01*
X146342Y113814D01*
X146653Y113752D01*
X157480D01*
X157792Y113814D01*
X158056Y113991D01*
X164792Y120727D01*
X165143Y121048D01*
X165601Y120742D01*
X165885Y120685D01*
X165952Y120393D01*
X165938Y120165D01*
X165536Y119897D01*
X165230Y119438D01*
X165122Y118898D01*
X165230Y118357D01*
X165463Y118008D01*
X165372Y117611D01*
X165288Y117463D01*
X165207Y117447D01*
X164749Y117141D01*
X164443Y116682D01*
X164335Y116142D01*
X164443Y115601D01*
X164749Y115143D01*
X165207Y114836D01*
X165748Y114729D01*
X166289Y114836D01*
X166747Y115143D01*
X167053Y115601D01*
X167161Y116142D01*
X167053Y116682D01*
X166820Y117032D01*
X166911Y117429D01*
X166996Y117576D01*
X167076Y117592D01*
X167534Y117898D01*
X167841Y118357D01*
X167948Y118898D01*
X167841Y119438D01*
X167534Y119897D01*
X167076Y120203D01*
X166792Y120259D01*
X166726Y120552D01*
X166739Y120780D01*
X167141Y121048D01*
X167447Y121507D01*
X167555Y122047D01*
X167447Y122588D01*
X167141Y123046D01*
X166683Y123353D01*
X166142Y123460D01*
X165772Y123387D01*
X165272Y123688D01*
Y127151D01*
X165566Y127347D01*
X165872Y127806D01*
X165980Y128347D01*
X166454Y128524D01*
X166535Y128508D01*
X167076Y128616D01*
X167534Y128922D01*
X167841Y129381D01*
X167948Y129921D01*
X167841Y130462D01*
X167535Y130920D01*
X167872Y131247D01*
X167928Y131284D01*
X168234Y131743D01*
X168342Y132283D01*
X168234Y132824D01*
X167928Y133282D01*
X167470Y133589D01*
X166929Y133696D01*
D02*
G37*
G36*
X170078Y131334D02*
X169538Y131226D01*
X169079Y130920D01*
X168773Y130462D01*
X168665Y129921D01*
X168773Y129380D01*
X169079Y128922D01*
X169538Y128616D01*
X170078Y128508D01*
X170619Y128616D01*
X171078Y128922D01*
X171384Y129380D01*
X171491Y129921D01*
X171384Y130462D01*
X171078Y130920D01*
X170619Y131226D01*
X170078Y131334D01*
D02*
G37*
G36*
X200787Y128972D02*
X200247Y128865D01*
X199788Y128558D01*
X199482Y128100D01*
X199374Y127559D01*
X199482Y127018D01*
X199788Y126560D01*
X200247Y126254D01*
X200787Y126146D01*
X201328Y126254D01*
X201786Y126560D01*
X202093Y127018D01*
X202200Y127559D01*
X202093Y128100D01*
X201786Y128558D01*
X201328Y128865D01*
X200787Y128972D01*
D02*
G37*
G36*
X147637Y128184D02*
X147097Y128077D01*
X146638Y127770D01*
X146332Y127312D01*
X146224Y126771D01*
X146332Y126231D01*
X146638Y125772D01*
X147097Y125466D01*
X147637Y125358D01*
X148178Y125466D01*
X148637Y125772D01*
X148943Y126231D01*
X149050Y126771D01*
X148943Y127312D01*
X148637Y127770D01*
X148178Y128077D01*
X147637Y128184D01*
D02*
G37*
G36*
X251575Y128084D02*
X251034Y127976D01*
X250575Y127670D01*
X250269Y127212D01*
X250162Y126671D01*
X250269Y126130D01*
X250575Y125672D01*
X251034Y125366D01*
X251575Y125258D01*
X252115Y125366D01*
X252574Y125672D01*
X252880Y126130D01*
X252988Y126671D01*
X252880Y127212D01*
X252574Y127670D01*
X252115Y127976D01*
X251575Y128084D01*
D02*
G37*
G36*
X168110Y127003D02*
X167569Y126896D01*
X167111Y126589D01*
X166805Y126131D01*
X166697Y125590D01*
X166805Y125050D01*
X167111Y124591D01*
X167569Y124285D01*
X168110Y124177D01*
X168651Y124285D01*
X169109Y124591D01*
X169415Y125050D01*
X169523Y125590D01*
X169415Y126131D01*
X169109Y126589D01*
X168651Y126896D01*
X168110Y127003D01*
D02*
G37*
G36*
X116535Y125100D02*
X115995Y124992D01*
X115536Y124686D01*
X115230Y124227D01*
X115122Y123687D01*
X115230Y123146D01*
X115536Y122687D01*
X115995Y122381D01*
X116535Y122274D01*
X117076Y122381D01*
X117535Y122687D01*
X117841Y123146D01*
X117948Y123687D01*
X117841Y124227D01*
X117535Y124686D01*
X117076Y124992D01*
X116535Y125100D01*
D02*
G37*
G36*
X170673Y124248D02*
X170133Y124140D01*
X169674Y123834D01*
X169368Y123375D01*
X169260Y122835D01*
X169368Y122294D01*
X169674Y121835D01*
X170133Y121529D01*
X170673Y121422D01*
X171214Y121529D01*
X171672Y121835D01*
X171979Y122294D01*
X172086Y122835D01*
X171979Y123375D01*
X171672Y123834D01*
X171214Y124140D01*
X170673Y124248D01*
D02*
G37*
G36*
X123622Y121885D02*
X123081Y121778D01*
X122623Y121472D01*
X122317Y121013D01*
X122209Y120472D01*
X122317Y119932D01*
X122623Y119473D01*
X123081Y119167D01*
X123622Y119060D01*
X124163Y119167D01*
X124621Y119473D01*
X124927Y119932D01*
X125035Y120472D01*
X124927Y121013D01*
X124621Y121472D01*
X124163Y121778D01*
X123622Y121885D01*
D02*
G37*
G36*
X173622Y121492D02*
X173081Y121384D01*
X172623Y121078D01*
X172317Y120619D01*
X172209Y120079D01*
X172317Y119538D01*
X172623Y119080D01*
X173081Y118773D01*
X173622Y118666D01*
X174163Y118773D01*
X174621Y119080D01*
X174927Y119538D01*
X175035Y120079D01*
X174927Y120619D01*
X174621Y121078D01*
X174163Y121384D01*
X173622Y121492D01*
D02*
G37*
G36*
X250000Y117969D02*
X249459Y117861D01*
X249001Y117555D01*
X248695Y117097D01*
X248587Y116556D01*
X248695Y116015D01*
X249001Y115557D01*
X249459Y115251D01*
X250000Y115143D01*
X250541Y115251D01*
X250999Y115557D01*
X251305Y116015D01*
X251413Y116556D01*
X251305Y117097D01*
X250999Y117555D01*
X250541Y117861D01*
X250000Y117969D01*
D02*
G37*
G36*
X110236Y114799D02*
X109695Y114691D01*
X109237Y114385D01*
X108931Y113926D01*
X108823Y113386D01*
X108931Y112845D01*
X109237Y112387D01*
X109695Y112080D01*
X110236Y111973D01*
X110777Y112080D01*
X111235Y112387D01*
X111542Y112845D01*
X111649Y113386D01*
X111542Y113926D01*
X111235Y114385D01*
X110777Y114691D01*
X110236Y114799D01*
D02*
G37*
G36*
X163779Y114405D02*
X163239Y114297D01*
X162780Y113991D01*
X162474Y113533D01*
X162367Y112992D01*
X162474Y112451D01*
X162780Y111993D01*
X163239Y111687D01*
X163779Y111579D01*
X164320Y111687D01*
X164779Y111993D01*
X165085Y112451D01*
X165192Y112992D01*
X165085Y113533D01*
X164779Y113991D01*
X164320Y114297D01*
X163779Y114405D01*
D02*
G37*
G36*
X145866Y111553D02*
X145287Y111437D01*
X144796Y111109D01*
X144468Y110618D01*
X144353Y110039D01*
X144468Y109460D01*
X144796Y108969D01*
X145287Y108641D01*
X145866Y108526D01*
X146445Y108641D01*
X146936Y108969D01*
X147264Y109460D01*
X147380Y110039D01*
X147264Y110618D01*
X146936Y111109D01*
X146445Y111437D01*
X145866Y111553D01*
D02*
G37*
G36*
X141535D02*
X140956Y111437D01*
X140465Y111109D01*
X140137Y110618D01*
X140022Y110039D01*
X140137Y109460D01*
X140465Y108969D01*
X140956Y108641D01*
X141535Y108526D01*
X142115Y108641D01*
X142605Y108969D01*
X142934Y109460D01*
X143049Y110039D01*
X142934Y110618D01*
X142605Y111109D01*
X142115Y111437D01*
X141535Y111553D01*
D02*
G37*
G36*
X118504Y110862D02*
X117963Y110754D01*
X117505Y110448D01*
X117199Y109990D01*
X117091Y109449D01*
X117199Y108908D01*
X117505Y108450D01*
X117963Y108143D01*
X118504Y108036D01*
X119045Y108143D01*
X119503Y108450D01*
X119809Y108908D01*
X119917Y109449D01*
X119809Y109990D01*
X119503Y110448D01*
X119045Y110754D01*
X118504Y110862D01*
D02*
G37*
G36*
X133071Y110468D02*
X132530Y110361D01*
X132072Y110054D01*
X131765Y109596D01*
X131658Y109055D01*
X131765Y108514D01*
X132072Y108056D01*
X132530Y107750D01*
X133071Y107642D01*
X133612Y107750D01*
X134070Y108056D01*
X134376Y108514D01*
X134484Y109055D01*
X134376Y109596D01*
X134070Y110054D01*
X133612Y110361D01*
X133071Y110468D01*
D02*
G37*
G36*
X161823Y109287D02*
X161282Y109179D01*
X160824Y108873D01*
X160517Y108414D01*
X160410Y107874D01*
X160517Y107333D01*
X160824Y106875D01*
X161282Y106568D01*
X161823Y106461D01*
X162363Y106568D01*
X162822Y106875D01*
X163128Y107333D01*
X163236Y107874D01*
X163128Y108414D01*
X162822Y108873D01*
X162363Y109179D01*
X161823Y109287D01*
D02*
G37*
G36*
X145866Y107222D02*
X145287Y107107D01*
X144796Y106779D01*
X144468Y106288D01*
X144353Y105709D01*
X144468Y105130D01*
X144796Y104639D01*
X145287Y104311D01*
X145866Y104195D01*
X146445Y104311D01*
X146936Y104639D01*
X147264Y105130D01*
X147380Y105709D01*
X147264Y106288D01*
X146936Y106779D01*
X146445Y107107D01*
X145866Y107222D01*
D02*
G37*
G36*
X141535D02*
X140956Y107107D01*
X140465Y106779D01*
X140137Y106288D01*
X140022Y105709D01*
X140137Y105130D01*
X140465Y104639D01*
X140956Y104311D01*
X141535Y104195D01*
X142115Y104311D01*
X142605Y104639D01*
X142934Y105130D01*
X143049Y105709D01*
X142934Y106288D01*
X142605Y106779D01*
X142115Y107107D01*
X141535Y107222D01*
D02*
G37*
G36*
X126378Y106531D02*
X125837Y106423D01*
X125379Y106117D01*
X125073Y105659D01*
X124965Y105118D01*
X125073Y104577D01*
X125379Y104119D01*
X125837Y103813D01*
X126378Y103705D01*
X126919Y103813D01*
X127377Y104119D01*
X127683Y104577D01*
X127791Y105118D01*
X127683Y105659D01*
X127377Y106117D01*
X126919Y106423D01*
X126378Y106531D01*
D02*
G37*
G36*
X238780Y105242D02*
X238239Y105135D01*
X237780Y104828D01*
X237474Y104370D01*
X237367Y103829D01*
X237474Y103289D01*
X237780Y102830D01*
X238239Y102524D01*
X238780Y102416D01*
X239320Y102524D01*
X239779Y102830D01*
X240085Y103289D01*
X240193Y103829D01*
X240085Y104370D01*
X239779Y104828D01*
X239320Y105135D01*
X238780Y105242D01*
D02*
G37*
G36*
X221260Y104956D02*
X220719Y104849D01*
X220261Y104542D01*
X219954Y104084D01*
X219847Y103543D01*
X219954Y103003D01*
X220261Y102544D01*
X220719Y102238D01*
X221260Y102130D01*
X221801Y102238D01*
X222259Y102544D01*
X222565Y103003D01*
X222673Y103543D01*
X222565Y104084D01*
X222259Y104542D01*
X221801Y104849D01*
X221260Y104956D01*
D02*
G37*
G36*
X211417D02*
X210877Y104849D01*
X210418Y104542D01*
X210112Y104084D01*
X210004Y103543D01*
X210112Y103003D01*
X210418Y102544D01*
X210877Y102238D01*
X211417Y102130D01*
X211958Y102238D01*
X212416Y102544D01*
X212723Y103003D01*
X212830Y103543D01*
X212723Y104084D01*
X212416Y104542D01*
X211958Y104849D01*
X211417Y104956D01*
D02*
G37*
G36*
X250787Y103382D02*
X250247Y103274D01*
X249788Y102968D01*
X249482Y102509D01*
X249374Y101969D01*
X249482Y101428D01*
X249788Y100969D01*
X250247Y100663D01*
X250787Y100556D01*
X251328Y100663D01*
X251786Y100969D01*
X252093Y101428D01*
X252200Y101969D01*
X252093Y102509D01*
X251786Y102968D01*
X251328Y103274D01*
X250787Y103382D01*
D02*
G37*
G36*
X131933Y102200D02*
X131392Y102093D01*
X130934Y101786D01*
X130628Y101328D01*
X130520Y100787D01*
X130628Y100247D01*
X130934Y99788D01*
X131392Y99482D01*
X131933Y99374D01*
X132474Y99482D01*
X132932Y99788D01*
X133238Y100247D01*
X133346Y100787D01*
X133238Y101328D01*
X132932Y101786D01*
X132474Y102093D01*
X131933Y102200D01*
D02*
G37*
G36*
X153949Y101807D02*
X153408Y101699D01*
X152950Y101393D01*
X152643Y100934D01*
X152536Y100394D01*
X152643Y99853D01*
X152950Y99395D01*
X153408Y99088D01*
X153949Y98981D01*
X154489Y99088D01*
X154948Y99395D01*
X155254Y99853D01*
X155362Y100394D01*
X155254Y100934D01*
X154948Y101393D01*
X154489Y101699D01*
X153949Y101807D01*
D02*
G37*
G36*
X123600Y99466D02*
X123060Y99358D01*
X122601Y99052D01*
X122295Y98594D01*
X122187Y98053D01*
X122295Y97512D01*
X122601Y97054D01*
X123060Y96748D01*
X123600Y96640D01*
X124141Y96748D01*
X124600Y97054D01*
X124906Y97512D01*
X125013Y98053D01*
X124906Y98594D01*
X124600Y99052D01*
X124141Y99358D01*
X123600Y99466D01*
D02*
G37*
G36*
X152756Y98657D02*
X152215Y98549D01*
X151757Y98243D01*
X151451Y97785D01*
X151343Y97244D01*
X151451Y96703D01*
X151757Y96245D01*
X152215Y95939D01*
X152756Y95831D01*
X153297Y95939D01*
X153755Y96245D01*
X154061Y96703D01*
X154169Y97244D01*
X154061Y97785D01*
X153755Y98243D01*
X153297Y98549D01*
X152756Y98657D01*
D02*
G37*
G36*
X144882D02*
X144341Y98549D01*
X143883Y98243D01*
X143577Y97785D01*
X143469Y97244D01*
X143577Y96703D01*
X143883Y96245D01*
X144341Y95939D01*
X144882Y95831D01*
X145423Y95939D01*
X145881Y96245D01*
X146187Y96703D01*
X146295Y97244D01*
X146187Y97785D01*
X145881Y98243D01*
X145423Y98549D01*
X144882Y98657D01*
D02*
G37*
G36*
X156693Y97464D02*
X156152Y97357D01*
X155694Y97050D01*
X155387Y96592D01*
X155280Y96051D01*
X155387Y95511D01*
X155694Y95052D01*
X156152Y94746D01*
X156693Y94638D01*
X157234Y94746D01*
X157692Y95052D01*
X157998Y95511D01*
X158106Y96051D01*
X157998Y96592D01*
X157692Y97050D01*
X157234Y97357D01*
X156693Y97464D01*
D02*
G37*
G36*
X170091Y97168D02*
X169550Y97060D01*
X169091Y96754D01*
X168785Y96295D01*
X168678Y95755D01*
X168785Y95214D01*
X169091Y94756D01*
X169550Y94449D01*
X170091Y94342D01*
X170631Y94449D01*
X171090Y94756D01*
X171396Y95214D01*
X171503Y95755D01*
X171396Y96295D01*
X171090Y96754D01*
X170631Y97060D01*
X170091Y97168D01*
D02*
G37*
G36*
X144882Y95114D02*
X144341Y95006D01*
X143883Y94700D01*
X143577Y94241D01*
X143469Y93701D01*
X143577Y93160D01*
X143883Y92702D01*
X144341Y92395D01*
X144882Y92288D01*
X145423Y92395D01*
X145881Y92702D01*
X146187Y93160D01*
X146295Y93701D01*
X146187Y94241D01*
X145881Y94700D01*
X145423Y95006D01*
X144882Y95114D01*
D02*
G37*
G36*
X135815D02*
X135274Y95006D01*
X134816Y94700D01*
X134510Y94241D01*
X134402Y93701D01*
X134510Y93160D01*
X134816Y92702D01*
X135274Y92395D01*
X135815Y92288D01*
X136356Y92395D01*
X136814Y92702D01*
X137121Y93160D01*
X137228Y93701D01*
X137121Y94241D01*
X136814Y94700D01*
X136356Y95006D01*
X135815Y95114D01*
D02*
G37*
G36*
X228209Y90783D02*
X227668Y90675D01*
X227209Y90369D01*
X226903Y89911D01*
X226796Y89370D01*
X226903Y88829D01*
X227209Y88371D01*
X227668Y88065D01*
X228209Y87957D01*
X228749Y88065D01*
X229208Y88371D01*
X229514Y88829D01*
X229622Y89370D01*
X229514Y89911D01*
X229208Y90369D01*
X228749Y90675D01*
X228209Y90783D01*
D02*
G37*
G36*
X238780Y90783D02*
X238239Y90675D01*
X237780Y90369D01*
X237474Y89911D01*
X237367Y89370D01*
X237474Y88829D01*
X237780Y88371D01*
X238239Y88065D01*
X238780Y87957D01*
X239320Y88065D01*
X239779Y88371D01*
X240085Y88829D01*
X240193Y89370D01*
X240085Y89911D01*
X239779Y90369D01*
X239320Y90675D01*
X238780Y90783D01*
D02*
G37*
G36*
X244488Y91285D02*
X243756Y91139D01*
X243134Y90724D01*
X242719Y90103D01*
X242573Y89370D01*
X242719Y88637D01*
X243134Y88016D01*
X243756Y87601D01*
X244488Y87455D01*
X245221Y87601D01*
X245842Y88016D01*
X246257Y88637D01*
X246403Y89370D01*
X246257Y90103D01*
X245842Y90724D01*
X245221Y91139D01*
X244488Y91285D01*
D02*
G37*
G36*
X148228Y90924D02*
X147327Y90805D01*
X146487Y90457D01*
X145766Y89903D01*
X145212Y89182D01*
X144864Y88342D01*
X144746Y87441D01*
X144864Y86540D01*
X145212Y85700D01*
X145766Y84978D01*
X146487Y84425D01*
X147327Y84077D01*
X148228Y83958D01*
X149130Y84077D01*
X149970Y84425D01*
X150691Y84978D01*
X151244Y85700D01*
X151592Y86540D01*
X151711Y87441D01*
X151592Y88342D01*
X151244Y89182D01*
X150691Y89903D01*
X149970Y90457D01*
X149130Y90805D01*
X148228Y90924D01*
D02*
G37*
G36*
X138386D02*
X137485Y90805D01*
X136645Y90457D01*
X135923Y89903D01*
X135370Y89182D01*
X135022Y88342D01*
X134903Y87441D01*
X135022Y86540D01*
X135370Y85700D01*
X135923Y84978D01*
X136645Y84425D01*
X137485Y84077D01*
X138386Y83958D01*
X139287Y84077D01*
X140127Y84425D01*
X140848Y84978D01*
X141402Y85700D01*
X141750Y86540D01*
X141868Y87441D01*
X141750Y88342D01*
X141402Y89182D01*
X140848Y89903D01*
X140127Y90457D01*
X139287Y90805D01*
X138386Y90924D01*
D02*
G37*
G36*
X88484Y82815D02*
X86319D01*
X85701Y82692D01*
X85178Y82342D01*
X84828Y81818D01*
X84705Y81201D01*
Y78642D01*
X84828Y78024D01*
X85178Y77501D01*
X85701Y77151D01*
X86319Y77028D01*
X88484D01*
X89102Y77151D01*
X89625Y77501D01*
X89975Y78024D01*
X90045Y78377D01*
X90565Y78428D01*
X90585Y78380D01*
X91012Y77824D01*
X91569Y77396D01*
X92218Y77128D01*
X92913Y77036D01*
X93609Y77128D01*
X94258Y77396D01*
X94814Y77824D01*
X95242Y78380D01*
X95399Y78760D01*
X95940D01*
X96097Y78380D01*
X96524Y77824D01*
X97081Y77396D01*
X97729Y77128D01*
X98425Y77036D01*
X99121Y77128D01*
X99769Y77396D01*
X100326Y77824D01*
X100753Y78380D01*
X100910Y78760D01*
X101452D01*
X101609Y78380D01*
X102036Y77824D01*
X102593Y77396D01*
X103241Y77128D01*
X103937Y77036D01*
X104633Y77128D01*
X105281Y77396D01*
X105838Y77824D01*
X106265Y78380D01*
X106534Y79029D01*
X106625Y79724D01*
Y80118D01*
X106534Y80814D01*
X106265Y81462D01*
X105838Y82019D01*
X105281Y82446D01*
X104633Y82715D01*
X103937Y82806D01*
X103241Y82715D01*
X102593Y82446D01*
X102036Y82019D01*
X101609Y81462D01*
X101452Y81083D01*
X100910D01*
X100753Y81462D01*
X100326Y82019D01*
X99769Y82446D01*
X99121Y82715D01*
X98425Y82806D01*
X97729Y82715D01*
X97081Y82446D01*
X96524Y82019D01*
X96097Y81462D01*
X95940Y81083D01*
X95399D01*
X95242Y81462D01*
X94814Y82019D01*
X94258Y82446D01*
X93609Y82715D01*
X92913Y82806D01*
X92218Y82715D01*
X91569Y82446D01*
X91012Y82019D01*
X90585Y81462D01*
X90565Y81414D01*
X90045Y81465D01*
X89975Y81818D01*
X89625Y82342D01*
X89102Y82692D01*
X88484Y82815D01*
D02*
G37*
G36*
X222835Y78933D02*
X222294Y78825D01*
X221835Y78519D01*
X221529Y78060D01*
X221422Y77520D01*
X221529Y76979D01*
X221835Y76521D01*
X222294Y76214D01*
X222835Y76107D01*
X223375Y76214D01*
X223834Y76521D01*
X224140Y76979D01*
X224248Y77520D01*
X224140Y78060D01*
X223834Y78519D01*
X223375Y78825D01*
X222835Y78933D01*
D02*
G37*
G36*
X148228Y83049D02*
X147327Y82931D01*
X146487Y82583D01*
X145766Y82029D01*
X145212Y81308D01*
X144864Y80468D01*
X144746Y79567D01*
X144864Y78666D01*
X145212Y77826D01*
X145766Y77104D01*
X146487Y76551D01*
X147327Y76203D01*
X148228Y76084D01*
X149130Y76203D01*
X149970Y76551D01*
X150691Y77104D01*
X151244Y77826D01*
X151592Y78666D01*
X151711Y79567D01*
X151592Y80468D01*
X151244Y81308D01*
X150691Y82029D01*
X149970Y82583D01*
X149130Y82931D01*
X148228Y83049D01*
D02*
G37*
G36*
X138386D02*
X137485Y82931D01*
X136645Y82583D01*
X135923Y82029D01*
X135370Y81308D01*
X135022Y80468D01*
X134903Y79567D01*
X135022Y78666D01*
X135370Y77826D01*
X135923Y77104D01*
X136645Y76551D01*
X137485Y76203D01*
X138386Y76084D01*
X139287Y76203D01*
X140127Y76551D01*
X140848Y77104D01*
X141402Y77826D01*
X141750Y78666D01*
X141868Y79567D01*
X141750Y80468D01*
X141402Y81308D01*
X140848Y82029D01*
X140127Y82583D01*
X139287Y82931D01*
X138386Y83049D01*
D02*
G37*
G36*
X250984Y78185D02*
X250444Y78077D01*
X249985Y77771D01*
X249679Y77312D01*
X249571Y76772D01*
X249679Y76231D01*
X249985Y75773D01*
X250444Y75466D01*
X250984Y75359D01*
X251525Y75466D01*
X251983Y75773D01*
X252290Y76231D01*
X252397Y76772D01*
X252290Y77312D01*
X251983Y77771D01*
X251525Y78077D01*
X250984Y78185D01*
D02*
G37*
G36*
X243228Y66470D02*
X242342Y66293D01*
X241591Y65791D01*
X241089Y65040D01*
X240983Y64511D01*
X240474D01*
X240368Y65040D01*
X239866Y65791D01*
X239115Y66293D01*
X238228Y66470D01*
X237342Y66293D01*
X236591Y65791D01*
X236088Y65040D01*
X235983Y64511D01*
X235473D01*
X235368Y65040D01*
X234866Y65791D01*
X234115Y66293D01*
X233228Y66470D01*
X232342Y66293D01*
X231591Y65791D01*
X231088Y65040D01*
X230983Y64511D01*
X230473D01*
X230368Y65040D01*
X229866Y65791D01*
X229115Y66293D01*
X228228Y66470D01*
X227342Y66293D01*
X226591Y65791D01*
X226089Y65040D01*
X225983Y64511D01*
X225473D01*
X225368Y65040D01*
X224866Y65791D01*
X224115Y66293D01*
X223228Y66470D01*
X222342Y66293D01*
X221591Y65791D01*
X221089Y65040D01*
X220983Y64511D01*
X220474D01*
X220368Y65040D01*
X219866Y65791D01*
X219115Y66293D01*
X218228Y66470D01*
X217342Y66293D01*
X216591Y65791D01*
X216089Y65040D01*
X215983Y64511D01*
X215474D01*
X215368Y65040D01*
X214866Y65791D01*
X214115Y66293D01*
X213228Y66470D01*
X212342Y66293D01*
X211591Y65791D01*
X211088Y65040D01*
X210983Y64511D01*
X210473D01*
X210368Y65040D01*
X209866Y65791D01*
X209115Y66293D01*
X208228Y66470D01*
X207342Y66293D01*
X206591Y65791D01*
X206088Y65040D01*
X205983Y64511D01*
X205473D01*
X205368Y65040D01*
X204866Y65791D01*
X204115Y66293D01*
X203228Y66470D01*
X202342Y66293D01*
X201591Y65791D01*
X201089Y65040D01*
X200983Y64511D01*
X200473D01*
X200368Y65040D01*
X199866Y65791D01*
X199115Y66293D01*
X198228Y66470D01*
X197342Y66293D01*
X196591Y65791D01*
X196089Y65040D01*
X195983Y64511D01*
X195474D01*
X195368Y65040D01*
X194866Y65791D01*
X194115Y66293D01*
X193228Y66470D01*
X192342Y66293D01*
X191591Y65791D01*
X191088Y65040D01*
X190983Y64511D01*
X190473D01*
X190368Y65040D01*
X189866Y65791D01*
X189115Y66293D01*
X188228Y66470D01*
X187342Y66293D01*
X186591Y65791D01*
X186089Y65040D01*
X185983Y64511D01*
X185474D01*
X185368Y65040D01*
X184866Y65791D01*
X184115Y66293D01*
X183228Y66470D01*
X182342Y66293D01*
X181591Y65791D01*
X181088Y65040D01*
X180983Y64511D01*
X180473D01*
X180368Y65040D01*
X179866Y65791D01*
X179115Y66293D01*
X178228Y66470D01*
X177342Y66293D01*
X176591Y65791D01*
X176089Y65040D01*
X175912Y64153D01*
Y63957D01*
X176089Y63070D01*
X176591Y62319D01*
X177342Y61817D01*
X177376Y61810D01*
Y61300D01*
X177342Y61293D01*
X176591Y60791D01*
X176089Y60040D01*
X175912Y59153D01*
Y58957D01*
X176089Y58070D01*
X176591Y57319D01*
X177342Y56817D01*
X178228Y56640D01*
X179115Y56817D01*
X179866Y57319D01*
X180368Y58070D01*
X180473Y58600D01*
X180983D01*
X181088Y58070D01*
X181591Y57319D01*
X182342Y56817D01*
X183228Y56640D01*
X184115Y56817D01*
X184866Y57319D01*
X185368Y58070D01*
X185474Y58600D01*
X185983D01*
X186089Y58070D01*
X186591Y57319D01*
X187342Y56817D01*
X188228Y56640D01*
X189115Y56817D01*
X189866Y57319D01*
X190368Y58070D01*
X190473Y58600D01*
X190983D01*
X191088Y58070D01*
X191591Y57319D01*
X192342Y56817D01*
X193228Y56640D01*
X194115Y56817D01*
X194866Y57319D01*
X195368Y58070D01*
X195474Y58600D01*
X195983D01*
X196089Y58070D01*
X196591Y57319D01*
X197342Y56817D01*
X198228Y56640D01*
X199115Y56817D01*
X199866Y57319D01*
X200368Y58070D01*
X200473Y58600D01*
X200983D01*
X201089Y58070D01*
X201591Y57319D01*
X202342Y56817D01*
X203228Y56640D01*
X204115Y56817D01*
X204866Y57319D01*
X205368Y58070D01*
X205473Y58600D01*
X205983D01*
X206088Y58070D01*
X206591Y57319D01*
X207342Y56817D01*
X208228Y56640D01*
X209115Y56817D01*
X209866Y57319D01*
X210368Y58070D01*
X210473Y58600D01*
X210983D01*
X211088Y58070D01*
X211591Y57319D01*
X212342Y56817D01*
X213228Y56640D01*
X214115Y56817D01*
X214866Y57319D01*
X215368Y58070D01*
X215474Y58600D01*
X215983D01*
X216089Y58070D01*
X216591Y57319D01*
X217342Y56817D01*
X218228Y56640D01*
X219115Y56817D01*
X219866Y57319D01*
X220368Y58070D01*
X220474Y58600D01*
X220983D01*
X221089Y58070D01*
X221591Y57319D01*
X222342Y56817D01*
X223228Y56640D01*
X224115Y56817D01*
X224866Y57319D01*
X225368Y58070D01*
X225473Y58600D01*
X225983D01*
X226089Y58070D01*
X226591Y57319D01*
X227342Y56817D01*
X228228Y56640D01*
X229115Y56817D01*
X229866Y57319D01*
X230368Y58070D01*
X230473Y58600D01*
X230983D01*
X231088Y58070D01*
X231591Y57319D01*
X232342Y56817D01*
X233228Y56640D01*
X234115Y56817D01*
X234866Y57319D01*
X235368Y58070D01*
X235473Y58600D01*
X235983D01*
X236088Y58070D01*
X236591Y57319D01*
X237342Y56817D01*
X238228Y56640D01*
X239115Y56817D01*
X239866Y57319D01*
X240368Y58070D01*
X240474Y58600D01*
X240983D01*
X241089Y58070D01*
X241591Y57319D01*
X242342Y56817D01*
X243228Y56640D01*
X244115Y56817D01*
X244866Y57319D01*
X245368Y58070D01*
X245545Y58957D01*
Y59153D01*
X245368Y60040D01*
X244866Y60791D01*
X244115Y61293D01*
X244080Y61300D01*
Y61810D01*
X244115Y61817D01*
X244866Y62319D01*
X245368Y63070D01*
X245430Y63379D01*
X245930Y63330D01*
Y63071D01*
X246037Y62530D01*
X246343Y62072D01*
X246802Y61765D01*
X247342Y61658D01*
X249114D01*
X249655Y61765D01*
X250113Y62072D01*
X250420Y62530D01*
X250527Y63071D01*
Y65039D01*
X250420Y65580D01*
X250113Y66039D01*
X249655Y66345D01*
X249114Y66452D01*
X247342D01*
X246802Y66345D01*
X246343Y66039D01*
X246037Y65580D01*
X245930Y65039D01*
Y64781D01*
X245430Y64731D01*
X245368Y65040D01*
X244866Y65791D01*
X244115Y66293D01*
X243228Y66470D01*
D02*
G37*
G36*
X106299Y75331D02*
X105449Y75219D01*
X104657Y74891D01*
X103977Y74369D01*
X103455Y73689D01*
X103127Y72897D01*
X103015Y72047D01*
Y67323D01*
X103127Y66473D01*
X103455Y65681D01*
X103977Y65001D01*
X104657Y64479D01*
X105449Y64151D01*
X106299Y64039D01*
X107149Y64151D01*
X107941Y64479D01*
X108621Y65001D01*
X109143Y65681D01*
X109471Y66473D01*
X109583Y67323D01*
Y72047D01*
X109471Y72897D01*
X109143Y73689D01*
X108621Y74369D01*
X107941Y74891D01*
X107149Y75219D01*
X106299Y75331D01*
D02*
G37*
G36*
X85039D02*
X84189Y75219D01*
X83397Y74891D01*
X82717Y74369D01*
X82195Y73689D01*
X81867Y72897D01*
X81755Y72047D01*
Y67323D01*
X81867Y66473D01*
X82195Y65681D01*
X82717Y65001D01*
X83397Y64479D01*
X84189Y64151D01*
X85039Y64039D01*
X85889Y64151D01*
X86681Y64479D01*
X87362Y65001D01*
X87883Y65681D01*
X88212Y66473D01*
X88323Y67323D01*
Y72047D01*
X88212Y72897D01*
X87883Y73689D01*
X87362Y74369D01*
X86681Y74891D01*
X85889Y75219D01*
X85039Y75331D01*
D02*
G37*
G36*
X167008Y75334D02*
X165752Y75210D01*
X164545Y74844D01*
X163432Y74249D01*
X162457Y73449D01*
X161656Y72474D01*
X161061Y71361D01*
X160695Y70153D01*
X160571Y68898D01*
X160695Y67642D01*
X161061Y66435D01*
X161656Y65322D01*
X162457Y64346D01*
X163432Y63546D01*
X164545Y62951D01*
X165752Y62585D01*
X167008Y62461D01*
X168264Y62585D01*
X169471Y62951D01*
X170584Y63546D01*
X171559Y64346D01*
X172360Y65322D01*
X172954Y66435D01*
X173321Y67642D01*
X173444Y68898D01*
X173321Y70153D01*
X172954Y71361D01*
X172360Y72474D01*
X171559Y73449D01*
X170584Y74249D01*
X169471Y74844D01*
X168264Y75210D01*
X167008Y75334D01*
D02*
G37*
G36*
X119606D02*
X118351Y75210D01*
X117143Y74844D01*
X116030Y74249D01*
X115055Y73449D01*
X114254Y72474D01*
X113660Y71361D01*
X113294Y70153D01*
X113170Y68898D01*
X113294Y67642D01*
X113660Y66435D01*
X114254Y65322D01*
X115055Y64346D01*
X116030Y63546D01*
X117143Y62951D01*
X118351Y62585D01*
X119606Y62461D01*
X120862Y62585D01*
X122069Y62951D01*
X123182Y63546D01*
X124158Y64346D01*
X124958Y65322D01*
X125553Y66435D01*
X125919Y67642D01*
X126043Y68898D01*
X125919Y70153D01*
X125553Y71361D01*
X124958Y72474D01*
X124158Y73449D01*
X123182Y74249D01*
X122069Y74844D01*
X120862Y75210D01*
X119606Y75334D01*
D02*
G37*
G36*
X96850Y62349D02*
X94488D01*
X93330Y62197D01*
X92251Y61750D01*
X91324Y61039D01*
X90613Y60112D01*
X90165Y59032D01*
X90013Y57874D01*
X90165Y56716D01*
X90613Y55636D01*
X91324Y54710D01*
X92251Y53998D01*
X93330Y53551D01*
X94488Y53399D01*
X96850D01*
X98009Y53551D01*
X99088Y53998D01*
X100015Y54710D01*
X100726Y55636D01*
X101173Y56716D01*
X101326Y57874D01*
X101173Y59032D01*
X100726Y60112D01*
X100015Y61039D01*
X99088Y61750D01*
X98009Y62197D01*
X96850Y62349D01*
D02*
G37*
%LPD*%
D11*
X125236Y155933D02*
X132283Y148886D01*
X123661Y155933D02*
X125236D01*
X121389Y158206D02*
X123661Y155933D01*
X124409Y153937D02*
X130631Y147715D01*
X122835Y153937D02*
X124409D01*
X134319Y141339D02*
X137402D01*
X132283Y143374D02*
X134319Y141339D01*
X132283Y143374D02*
Y148886D01*
X133465Y139370D02*
X135433D01*
X130631Y142203D02*
X133465Y139370D01*
X130631Y142203D02*
Y147715D01*
X120051Y206299D02*
X120051Y206299D01*
X143880Y224290D02*
X144882Y225292D01*
X143880Y219077D02*
Y224290D01*
X145876Y223464D02*
X146376Y223964D01*
X145876Y218250D02*
Y223464D01*
X119393Y157379D02*
X122835Y153937D01*
X120051Y170905D02*
Y206299D01*
X119393Y170247D02*
X120051Y170905D01*
X119393Y157379D02*
Y170247D01*
X137402Y141339D02*
X137795Y141732D01*
X122047Y170472D02*
Y205472D01*
X121389Y169814D02*
X122047Y170472D01*
X121389Y158206D02*
Y169814D01*
X122047Y205472D02*
X132295Y215721D01*
X120051Y206299D02*
X131469Y217717D01*
X120051Y206299D02*
X120051D01*
X132295Y215721D02*
X143347D01*
X131469Y217717D02*
X142520D01*
X146900Y224410D02*
X147244D01*
X146454Y223964D02*
X146900Y224410D01*
X146376Y223964D02*
X146454D01*
X143347Y215721D02*
X145876Y218250D01*
X144882Y225292D02*
Y225590D01*
X142520Y217717D02*
X143880Y219077D01*
D24*
X202362Y137402D02*
D03*
X135433Y171653D02*
D03*
X135827Y159055D02*
D03*
X155511D02*
D03*
X147637Y162598D02*
D03*
X151968Y162992D02*
D03*
X131890Y183071D02*
D03*
X162899Y163386D02*
D03*
X131496Y166929D02*
D03*
X127513Y162946D02*
D03*
X139370Y155118D02*
D03*
X147638Y159449D02*
D03*
X131933Y163429D02*
D03*
X131890Y159449D02*
D03*
X135827Y175197D02*
D03*
X87008Y138976D02*
D03*
X202362Y71260D02*
D03*
X203543Y98425D02*
D03*
X222835Y82520D02*
D03*
X164567Y128347D02*
D03*
X153150D02*
D03*
X136221Y97638D02*
D03*
X176771Y145275D02*
D03*
X135827Y143307D02*
D03*
X221260Y107480D02*
D03*
X233071Y126378D02*
D03*
X226772D02*
D03*
X228209Y94095D02*
D03*
X183071Y170472D02*
D03*
X205906Y177953D02*
D03*
X201181Y184252D02*
D03*
X134252Y119685D02*
D03*
X137008Y118898D02*
D03*
X88189Y141732D02*
D03*
X134252Y134252D02*
D03*
X127165Y123622D02*
D03*
X103937Y150394D02*
D03*
X141732Y123228D02*
D03*
X207874Y172834D02*
D03*
X212598Y171260D02*
D03*
X210630Y166929D02*
D03*
X213844Y176048D02*
D03*
X143701Y198819D02*
D03*
X201968Y162598D02*
D03*
X201927Y169110D02*
D03*
X149606Y199213D02*
D03*
X165354Y177165D02*
D03*
X205511Y169685D02*
D03*
X209055Y176378D02*
D03*
X87795Y185433D02*
D03*
X82677Y187955D02*
D03*
X203543Y184252D02*
D03*
X198819D02*
D03*
X194882Y183858D02*
D03*
X192520Y177559D02*
D03*
X191339Y166535D02*
D03*
X179921Y177952D02*
D03*
X197638Y152362D02*
D03*
X182677Y185433D02*
D03*
X201969Y178347D02*
D03*
X135433Y139370D02*
D03*
X137795Y141732D02*
D03*
X105118Y183465D02*
D03*
X101969D02*
D03*
X99606Y185433D02*
D03*
X97244Y187402D02*
D03*
X94882Y185433D02*
D03*
X92913Y187402D02*
D03*
X90551Y185433D02*
D03*
X85039D02*
D03*
X84332Y202185D02*
D03*
X103149Y120079D02*
D03*
X155512Y183071D02*
D03*
X94095Y172441D02*
D03*
X103150Y129134D02*
D03*
X105905Y126771D02*
D03*
X106299Y130315D02*
D03*
X105905Y122047D02*
D03*
X103140Y125197D02*
D03*
X103150Y117717D02*
D03*
Y114567D02*
D03*
X151575Y147638D02*
D03*
X177559Y192913D02*
D03*
X85039Y160630D02*
D03*
X81890Y157874D02*
D03*
X87795Y152362D02*
D03*
X155118Y155905D02*
D03*
X154724Y122441D02*
D03*
X87008Y146850D02*
D03*
X85827Y150787D02*
D03*
X85433Y155118D02*
D03*
X83858Y152362D02*
D03*
X139764Y224410D02*
D03*
X155512Y175197D02*
D03*
X79134Y157480D02*
D03*
X130709Y111417D02*
D03*
X139370Y121260D02*
D03*
X144882Y225590D02*
D03*
X147244Y224410D02*
D03*
X137795Y202362D02*
D03*
X124016Y198819D02*
D03*
X148622Y118504D02*
D03*
X152362Y119291D02*
D03*
X131890Y221654D02*
D03*
X217717Y142126D02*
D03*
X220472Y141732D02*
D03*
X157480Y153543D02*
D03*
X149606Y141732D02*
D03*
X151575Y159449D02*
D03*
X138583Y206299D02*
D03*
X165354Y196850D02*
D03*
X169291D02*
D03*
X161417Y192913D02*
D03*
X173228Y149606D02*
D03*
X130709Y105512D02*
D03*
X135827Y147638D02*
D03*
X118110Y173228D02*
D03*
X142717Y118504D02*
D03*
X220866Y175197D02*
D03*
X217736Y181357D02*
D03*
X161417Y185039D02*
D03*
X214566Y181102D02*
D03*
X139764Y175197D02*
D03*
X145669Y196850D02*
D03*
X141732D02*
D03*
X129921Y192913D02*
D03*
X137795D02*
D03*
X133858Y196850D02*
D03*
X137795D02*
D03*
X157480Y192913D02*
D03*
X145669D02*
D03*
X224803Y177952D02*
D03*
X220866Y172047D02*
D03*
X217677Y175237D02*
D03*
X169291Y177165D02*
D03*
X143701Y159449D02*
D03*
X135827Y155512D02*
D03*
X143701Y175197D02*
D03*
X155512Y171260D02*
D03*
D71*
X153976Y150239D02*
Y152329D01*
Y150239D02*
X155641Y148574D01*
X127165Y123622D02*
Y124016D01*
X116142Y135039D02*
Y145669D01*
X112598Y149213D02*
X116142Y145669D01*
X112598Y149213D02*
Y194793D01*
Y214961D02*
X122047Y224410D01*
X111605Y195786D02*
Y201458D01*
X112598Y202451D02*
Y214961D01*
X111605Y201458D02*
X112598Y202451D01*
X111605Y195786D02*
X112598Y194793D01*
X116142Y135039D02*
X127165Y124016D01*
X153976Y152329D02*
X157480Y155833D01*
Y157480D01*
X122047Y224410D02*
X139764D01*
D72*
X216633Y172047D02*
G03*
X216873Y172287I0J239D01*
G01*
X217112Y173472D02*
G03*
X216873Y173232I0J-239D01*
G01*
X218070D02*
G03*
X217830Y173472I-239J0D01*
G01*
X218070Y171713D02*
G03*
X218309Y171473I239J0D01*
G01*
X219027D02*
G03*
X219267Y171713I0J239D01*
G01*
X219506Y172047D02*
G03*
X219267Y171808I0J-239D01*
G01*
X209378Y174280D02*
G03*
X209139Y174519I-239J0D01*
G01*
X209378Y173672D02*
G03*
X209618Y173433I239J0D01*
G01*
X210336D02*
G03*
X210575Y173672I0J239D01*
G01*
X210814Y174519D02*
G03*
X210575Y174280I0J-239D01*
G01*
X204740Y172234D02*
G03*
X204402Y172234I-169J-169D01*
G01*
X205335Y171639D02*
G03*
X205674Y171639I169J169D01*
G01*
X206182Y172147D02*
G03*
X206182Y172485I-169J169D01*
G01*
X205587Y173419D02*
G03*
X205587Y173081I169J-169D01*
G01*
X195652Y171504D02*
G03*
X195892Y171743I0J239D01*
G01*
X196131Y172117D02*
G03*
X195892Y171878I0J-239D01*
G01*
X197089D02*
G03*
X196849Y172117I-239J0D01*
G01*
X197089Y171743D02*
G03*
X197328Y171504I239J0D01*
G01*
X198046D02*
G03*
X198285Y171743I0J239D01*
G01*
X198525Y172117D02*
G03*
X198285Y171878I0J-239D01*
G01*
X199482D02*
G03*
X199243Y172117I-239J0D01*
G01*
X199482Y171743D02*
G03*
X199722Y171504I239J0D01*
G01*
X200586D02*
G03*
X200679Y171598I0J94D01*
G01*
X200919Y171837D02*
G03*
X200679Y171598I0J-239D01*
G01*
X201876D02*
G03*
X201637Y171837I-239J0D01*
G01*
X201876Y171598D02*
G03*
X201970Y171504I94J0D01*
G01*
X164734Y199261D02*
G03*
X164495Y199500I-239J0D01*
G01*
X164734Y199065D02*
G03*
X164974Y198826I239J0D01*
G01*
X165692D02*
G03*
X165931Y199065I0J239D01*
G01*
X166171Y199500D02*
G03*
X165931Y199261I0J-239D01*
G01*
X161417Y194406D02*
G03*
X161178Y194646I-239J0D01*
G01*
X160045Y194885D02*
G03*
X160284Y194646I239J0D01*
G01*
Y195843D02*
G03*
X160045Y195603I0J-239D01*
G01*
X161178Y195843D02*
G03*
X161417Y196082I0J239D01*
G01*
X160192Y198381D02*
G03*
X160192Y197878I252J-252D01*
G01*
X160192Y197374D02*
G03*
X160192Y197878I-252J252D01*
G01*
X158934Y196619D02*
G03*
X159437Y196619I252J252D01*
G01*
X158934Y196619D02*
G03*
X158430Y196619I-252J-252D01*
G01*
X202679Y173468D02*
G03*
X202918Y173228I239J0D01*
G01*
X202679Y174772D02*
G03*
X202439Y175011I-239J0D01*
G01*
X201721D02*
G03*
X201482Y174772I0J-239D01*
G01*
X201243Y172868D02*
G03*
X201482Y173108I0J239D01*
G01*
X200285D02*
G03*
X200524Y172868I239J0D01*
G01*
X200285Y174772D02*
G03*
X200046Y175011I-239J0D01*
G01*
X199328D02*
G03*
X199088Y174772I0J-239D01*
G01*
X198849Y173228D02*
G03*
X199088Y173468I0J239D01*
G01*
X188791Y192517D02*
G03*
X188791Y192125I196J-196D01*
G01*
X189821Y193546D02*
G03*
X189821Y193938I-196J196D01*
G01*
X189233Y194526D02*
G03*
X188841Y194526I-196J-196D01*
G01*
X187419Y193497D02*
G03*
X187811Y193497I196J196D01*
G01*
X186831Y194476D02*
G03*
X186831Y194085I196J-196D01*
G01*
X187861Y195506D02*
G03*
X187861Y195898I-196J196D01*
G01*
X187273Y196486D02*
G03*
X186881Y196486I-196J-196D01*
G01*
X185459Y195456D02*
G03*
X185851Y195456I196J196D01*
G01*
X184871Y196436D02*
G03*
X184871Y196044I196J-196D01*
G01*
X185901Y197466D02*
G03*
X185901Y197858I-196J196D01*
G01*
X185313Y198446D02*
G03*
X184921Y198446I-196J-196D01*
G01*
X183500Y197416D02*
G03*
X183892Y197416I196J196D01*
G01*
X182912Y198396D02*
G03*
X182912Y198004I196J-196D01*
G01*
X183941Y199425D02*
G03*
X183941Y199818I-196J196D01*
G01*
X183353Y200405D02*
G03*
X182961Y200405I-196J-196D01*
G01*
X181540Y199376D02*
G03*
X181932Y199376I196J196D01*
G01*
X161732Y201630D02*
G03*
X161455Y201353I0J-277D01*
G01*
X161178Y201076D02*
G03*
X161455Y201353I0J277D01*
G01*
X160069D02*
G03*
X160346Y201076I277J0D01*
G01*
X160069Y201353D02*
G03*
X159792Y201630I-277J0D01*
G01*
X158961D02*
G03*
X158684Y201353I0J-277D01*
G01*
X158406Y198321D02*
G03*
X158684Y198599I0J277D01*
G01*
X157298D02*
G03*
X157575Y198321I277J0D01*
G01*
X157298Y201353D02*
G03*
X157020Y201630I-277J0D01*
G01*
X156189D02*
G03*
X155912Y201353I0J-277D01*
G01*
X155635Y195484D02*
G03*
X155912Y195761I0J277D01*
G01*
X154526D02*
G03*
X154803Y195484I277J0D01*
G01*
X154526Y201353D02*
G03*
X154249Y201630I-277J0D01*
G01*
X219014Y147470D02*
G03*
X219291Y147748I0J277D01*
G01*
X217382Y147470D02*
G03*
X217105Y147193I0J-277D01*
G01*
Y146362D02*
G03*
X217382Y146084I277J0D01*
G01*
X219291Y145807D02*
G03*
X219014Y146084I-277J0D01*
G01*
X188740Y145553D02*
G03*
X189017Y145275I277J0D01*
G01*
X188740Y148769D02*
G03*
X188463Y149047I-277J0D01*
G01*
X187631D02*
G03*
X187354Y148769I0J-277D01*
G01*
X187077Y141504D02*
G03*
X187354Y141781I0J277D01*
G01*
X185968D02*
G03*
X186246Y141504I277J0D01*
G01*
X185968Y148769D02*
G03*
X185691Y149047I-277J0D01*
G01*
X184860D02*
G03*
X184582Y148769I0J-277D01*
G01*
X184305Y145275D02*
G03*
X184582Y145553I0J277D01*
G01*
X174991Y198468D02*
G03*
X174752Y198229I0J-239D01*
G01*
X174513Y196931D02*
G03*
X174752Y197170I0J239D01*
G01*
X173555D02*
G03*
X173794Y196931I239J0D01*
G01*
X173555Y198229D02*
G03*
X173316Y198468I-239J0D01*
G01*
X172598D02*
G03*
X172358Y198229I0J-239D01*
G01*
X172119Y196622D02*
G03*
X172358Y196861I0J239D01*
G01*
X171161D02*
G03*
X171401Y196622I239J0D01*
G01*
X171161Y198229D02*
G03*
X170922Y198468I-239J0D01*
G01*
X210763Y161919D02*
G03*
X210524Y162159I-239J0D01*
G01*
X209937Y162398D02*
G03*
X210176Y162159I239J0D01*
G01*
Y163356D02*
G03*
X209937Y163116I0J-239D01*
G01*
X210524Y163356D02*
G03*
X210763Y163595I0J239D01*
G01*
X207632Y157218D02*
G03*
X207632Y157556I-169J169D01*
G01*
X207071Y158455D02*
G03*
X207071Y158117I169J-169D01*
G01*
X207917Y158963D02*
G03*
X207579Y158963I-169J-169D01*
G01*
X208756Y158125D02*
G03*
X209094Y158125I169J169D01*
G01*
X209602Y158633D02*
G03*
X209602Y158971I-169J169D01*
G01*
Y159188D02*
G03*
X209602Y158971I108J-108D01*
G01*
X178899Y181676D02*
G03*
X178899Y181338I169J-169D01*
G01*
X179124Y181902D02*
G03*
X179124Y182240I-169J169D01*
G01*
X178616Y182748D02*
G03*
X178278Y182748I-169J-169D01*
G01*
X175497Y180306D02*
G03*
X175836Y180306I169J169D01*
G01*
X174989Y181152D02*
G03*
X174989Y180813I169J-169D01*
G01*
X177079Y183242D02*
G03*
X177079Y183580I-169J169D01*
G01*
X176571Y184088D02*
G03*
X176233Y184088I-169J-169D01*
G01*
X174287Y182481D02*
G03*
X174625Y182481I169J169D01*
G01*
X173779Y183327D02*
G03*
X173779Y182988I169J-169D01*
G01*
X176433Y185981D02*
G03*
X176433Y186319I-169J169D01*
G01*
X175925Y186827D02*
G03*
X175586Y186827I-169J-169D01*
G01*
X174328Y185908D02*
G03*
X174667Y185908I169J169D01*
G01*
X171436Y187008D02*
G03*
X171197Y186768I0J-239D01*
G01*
X170958Y186516D02*
G03*
X171197Y186755I0J239D01*
G01*
X170000D02*
G03*
X170239Y186516I239J0D01*
G01*
X170000Y187068D02*
G03*
X169761Y187307I-239J0D01*
G01*
X169043D02*
G03*
X168803Y187068I0J-239D01*
G01*
X168564Y186628D02*
G03*
X168803Y186867I0J239D01*
G01*
X167606D02*
G03*
X167846Y186628I239J0D01*
G01*
X167606Y187526D02*
G03*
X167367Y187765I-239J0D01*
G01*
X166649D02*
G03*
X166410Y187526I0J-239D01*
G01*
X166170Y186709D02*
G03*
X166410Y186948I0J239D01*
G01*
X165213D02*
G03*
X165452Y186709I239J0D01*
G01*
X165213Y187068D02*
G03*
X164973Y187307I-239J0D01*
G01*
X164255D02*
G03*
X164016Y187068I0J-239D01*
G01*
X163776Y185898D02*
G03*
X164016Y186138I0J239D01*
G01*
X162819D02*
G03*
X163058Y185898I239J0D01*
G01*
X162819Y186768D02*
G03*
X162580Y187008I-239J0D01*
G01*
X157323Y189216D02*
G03*
X157562Y188976I239J0D01*
G01*
X157323Y189555D02*
G03*
X157083Y189795I-239J0D01*
G01*
X156365D02*
G03*
X156126Y189555I0J-239D01*
G01*
X155887Y188976D02*
G03*
X156126Y189216I0J239D01*
G01*
X153525Y189782D02*
G03*
X153187Y189782I-169J-169D01*
G01*
X150765Y187699D02*
G03*
X151103Y187699I169J169D01*
G01*
X150257Y188545D02*
G03*
X150257Y188207I169J-169D01*
G01*
X152595Y190883D02*
G03*
X152595Y191222I-169J169D01*
G01*
X152087Y191730D02*
G03*
X151749Y191730I-169J-169D01*
G01*
X151577D02*
G03*
X151749Y191730I86J86D01*
G01*
X148901Y192913D02*
G03*
X148661Y192674I0J-239D01*
G01*
X148422Y189489D02*
G03*
X148661Y189728I0J239D01*
G01*
X147465D02*
G03*
X147704Y189489I239J0D01*
G01*
X147465Y192674D02*
G03*
X147225Y192913I-239J0D01*
G01*
X197600Y197620D02*
G03*
X197600Y197282I169J-169D01*
G01*
X197826Y197846D02*
G03*
X197826Y198185I-169J169D01*
G01*
X197318Y198693D02*
G03*
X196980Y198693I-169J-169D01*
G01*
X196203Y198255D02*
G03*
X196542Y198255I169J169D01*
G01*
X195696Y199101D02*
G03*
X195696Y198763I169J-169D01*
G01*
X196133Y199539D02*
G03*
X196133Y199878I-169J169D01*
G01*
X195626Y200385D02*
G03*
X195287Y200385I-169J-169D01*
G01*
X194722Y200159D02*
G03*
X195061Y200159I169J169D01*
G01*
X194215Y201006D02*
G03*
X194215Y200667I169J-169D01*
G01*
X194441Y201232D02*
G03*
X194441Y201570I-169J169D01*
G01*
X193933Y202078D02*
G03*
X193594Y202078I-169J-169D01*
G01*
X193030Y201852D02*
G03*
X193368Y201852I169J169D01*
G01*
X192522Y202698D02*
G03*
X192522Y202360I169J-169D01*
G01*
X192748Y202924D02*
G03*
X192748Y203263I-169J169D01*
G01*
X192240Y203771D02*
G03*
X191902Y203771I-169J-169D01*
G01*
X190576Y202783D02*
G03*
X190914Y202783I169J169D01*
G01*
X190068Y203629D02*
G03*
X190068Y203291I169J-169D01*
G01*
X191056Y204617D02*
G03*
X191056Y204956I-169J169D01*
G01*
X190548Y205463D02*
G03*
X190209Y205463I-169J-169D01*
G01*
X189645Y205237D02*
G03*
X189983Y205237I169J169D01*
G01*
X198819Y186091D02*
G03*
X198580Y186331I-239J0D01*
G01*
X197947Y186570D02*
G03*
X198186Y186331I239J0D01*
G01*
Y187528D02*
G03*
X197947Y187288I0J-239D01*
G01*
X199840Y187528D02*
G03*
X200080Y187767I0J239D01*
G01*
Y188485D02*
G03*
X199840Y188724I-239J0D01*
G01*
X197947Y188964D02*
G03*
X198186Y188724I239J0D01*
G01*
Y189921D02*
G03*
X197947Y189682I0J-239D01*
G01*
X199840Y189921D02*
G03*
X200080Y190161I0J239D01*
G01*
Y190879D02*
G03*
X199840Y191118I-239J0D01*
G01*
X198819Y191358D02*
G03*
X199058Y191118I239J0D01*
G01*
X193993Y198078D02*
G03*
X193993Y197740I169J-169D01*
G01*
X194450Y198536D02*
G03*
X194450Y198874I-169J169D01*
G01*
X193942Y199382D02*
G03*
X193604Y199382I-169J-169D01*
G01*
X192808Y198925D02*
G03*
X193146Y198925I169J169D01*
G01*
X192300Y199771D02*
G03*
X192300Y199432I169J-169D01*
G01*
X192757Y200228D02*
G03*
X192757Y200567I-169J169D01*
G01*
X192250Y201075D02*
G03*
X191911Y201075I-169J-169D01*
G01*
X191115Y200617D02*
G03*
X191454Y200617I169J169D01*
G01*
X188091Y203980D02*
G03*
X188091Y203642I169J-169D01*
G01*
X188548Y204438D02*
G03*
X188548Y204776I-169J169D01*
G01*
X188040Y205284D02*
G03*
X187702Y205284I-169J-169D01*
G01*
X186906Y204827D02*
G03*
X187244Y204827I169J169D01*
G01*
X192653Y196036D02*
G03*
X192653Y195698I169J-169D01*
G01*
X193105Y196489D02*
G03*
X193105Y196827I-169J169D01*
G01*
X192597Y197335D02*
G03*
X192259Y197335I-169J-169D01*
G01*
X191468Y196883D02*
G03*
X191806Y196883I169J169D01*
G01*
X190960Y197729D02*
G03*
X190960Y197390I169J-169D01*
G01*
X191413Y198182D02*
G03*
X191413Y198520I-169J169D01*
G01*
X190905Y199028D02*
G03*
X190566Y199028I-169J-169D01*
G01*
X189775Y198575D02*
G03*
X190114Y198575I169J169D01*
G01*
X189268Y199422D02*
G03*
X189268Y199083I169J-169D01*
G01*
X189720Y199874D02*
G03*
X189720Y200213I-169J169D01*
G01*
X189212Y200721D02*
G03*
X188874Y200721I-169J-169D01*
G01*
X188083Y200268D02*
G03*
X188421Y200268I169J169D01*
G01*
X187575Y201114D02*
G03*
X187575Y200776I169J-169D01*
G01*
X188027Y201567D02*
G03*
X188027Y201905I-169J169D01*
G01*
X187520Y202413D02*
G03*
X187181Y202413I-169J-169D01*
G01*
X186390Y201960D02*
G03*
X186729Y201960I169J169D01*
G01*
X173971Y195276D02*
G03*
X172585Y195276I-693J-0D01*
G01*
X178682Y191329D02*
G03*
X178682Y191812I-241J241D01*
G01*
X177085Y189732D02*
G03*
X177085Y189250I241J-241D01*
G01*
X177808Y188527D02*
G03*
X178290Y188527I241J241D01*
G01*
X181204Y190959D02*
G03*
X180722Y190959I-241J-241D01*
G01*
X181928Y189753D02*
G03*
X181928Y190236I-241J241D01*
G01*
X177405Y185230D02*
G03*
X177405Y184748I241J-241D01*
G01*
X178128Y184025D02*
G03*
X178610Y184025I241J241D01*
G01*
X183615Y188548D02*
G03*
X183133Y188548I-241J-241D01*
G01*
X184339Y187343D02*
G03*
X184339Y187825I-241J241D01*
G01*
X183986Y186990D02*
G03*
X183986Y186508I241J-241D01*
G01*
X198546Y181769D02*
G03*
X198938Y181769I196J196D01*
G01*
X200349Y182787D02*
G03*
X199957Y182787I-196J-196D01*
G01*
X200937Y181807D02*
G03*
X200937Y182199I-196J196D01*
G01*
X197600Y178470D02*
G03*
X197600Y178078I196J-196D01*
G01*
X198188Y177490D02*
G03*
X198580Y177490I196J196D01*
G01*
X200898Y179417D02*
G03*
X200506Y179417I-196J-196D01*
G01*
X183310Y163890D02*
G03*
X183071Y163650I0J-239D01*
G01*
X185607Y163890D02*
G03*
X185847Y164129I0J239D01*
G01*
Y164847D02*
G03*
X185607Y165087I-239J0D01*
G01*
X180295Y165326D02*
G03*
X180534Y165087I239J0D01*
G01*
Y166283D02*
G03*
X180295Y166044I0J-239D01*
G01*
X185607Y166283D02*
G03*
X185847Y166523I0J239D01*
G01*
Y167241D02*
G03*
X185607Y167480I-239J0D01*
G01*
X180295Y167720D02*
G03*
X180534Y167480I239J0D01*
G01*
Y168677D02*
G03*
X180295Y168438I0J-239D01*
G01*
X182832Y168677D02*
G03*
X183071Y168916I0J239D01*
G01*
X176893Y155688D02*
G03*
X176554Y155688I-169J-169D01*
G01*
X178517Y154064D02*
G03*
X178856Y154064I169J169D01*
G01*
X179364Y154572D02*
G03*
X179364Y154910I-169J169D01*
G01*
X175776Y158836D02*
G03*
X175776Y158497I169J-169D01*
G01*
X176623Y159344D02*
G03*
X176284Y159344I-169J-169D01*
G01*
X180210Y155756D02*
G03*
X180548Y155756I169J169D01*
G01*
X181056Y156264D02*
G03*
X181056Y156603I-169J169D01*
G01*
X177469Y160529D02*
G03*
X177469Y160190I169J-169D01*
G01*
X178315Y161036D02*
G03*
X177977Y161036I-169J-169D01*
G01*
X181902Y157449D02*
G03*
X182241Y157449I169J169D01*
G01*
X182749Y157957D02*
G03*
X182749Y158295I-169J169D01*
G01*
X179162Y162221D02*
G03*
X179162Y161883I169J-169D01*
G01*
X180008Y162729D02*
G03*
X179669Y162729I-169J-169D01*
G01*
X181632Y161105D02*
G03*
X181971Y161105I169J169D01*
G01*
X199857Y169349D02*
G03*
X200097Y169110I239J0D01*
G01*
X199857Y170233D02*
G03*
X199618Y170473I-239J0D01*
G01*
X198900D02*
G03*
X198661Y170233I0J-239D01*
G01*
X198421Y167169D02*
G03*
X198661Y167408I0J239D01*
G01*
X197464D02*
G03*
X197703Y167169I239J0D01*
G01*
X197464Y168870D02*
G03*
X197224Y169110I-239J0D01*
G01*
X155641Y148574D02*
X156720Y147494D01*
Y124437D02*
Y147494D01*
X142588Y151575D02*
X143701Y150462D01*
X140988Y151575D02*
X142588D01*
X143701Y146850D02*
Y150462D01*
X140988Y151575D02*
Y151577D01*
X139370Y153196D02*
X140988Y151577D01*
X139956Y146118D02*
X141827Y144248D01*
X138925Y145691D02*
X140795Y143821D01*
X139370Y153196D02*
Y155118D01*
X139956Y146118D02*
Y151150D01*
X138925Y145691D02*
Y150723D01*
X136720Y152928D02*
X138925Y150723D01*
X135919Y153728D02*
X136720Y152928D01*
X137752Y153355D02*
X139956Y151150D01*
X133858Y157480D02*
X134362Y157984D01*
X134438D01*
X135509Y159055D01*
X135827D01*
X137752Y155788D02*
X139444Y157480D01*
X137752Y153355D02*
Y155788D01*
X135919Y153728D02*
Y155419D01*
X135827Y155512D02*
X135919Y155419D01*
X148622Y118504D02*
X153039Y122921D01*
Y123859D02*
X155689Y126509D01*
X153039Y122921D02*
Y123859D01*
X93307Y120079D02*
X103149D01*
X92173Y121213D02*
X93307Y120079D01*
X92173Y121213D02*
Y139822D01*
X92520Y114567D02*
X103150D01*
X90004Y117083D02*
X92520Y114567D01*
X90004Y117083D02*
Y155272D01*
X157480Y114567D02*
X164457Y121543D01*
X146653Y114567D02*
X157480D01*
X142717Y118504D02*
X146653Y114567D01*
X140795Y135677D02*
Y143821D01*
X131890Y126772D02*
X140795Y135677D01*
X131890Y114961D02*
Y126772D01*
X139764Y136614D02*
Y143393D01*
X130709Y127559D02*
X139764Y136614D01*
X130709Y115861D02*
Y127559D01*
X107366Y136893D02*
Y158382D01*
X101181Y130709D02*
X107366Y136893D01*
X101181Y127953D02*
Y130709D01*
X164457Y121543D02*
Y128236D01*
X164567Y128347D01*
X155689Y126509D02*
Y136788D01*
X219865Y172047D02*
X220866D01*
X214843D02*
X215676D01*
X216633D01*
X216873Y172287D02*
Y173232D01*
X217112Y173472D02*
X217830D01*
X218070Y172047D02*
Y173232D01*
Y171713D02*
Y172047D01*
X218309Y171473D02*
X219027D01*
X219267Y171713D02*
Y171808D01*
X219506Y172047D02*
X219865D01*
X212370Y174519D02*
X212727Y174163D01*
X213573Y173317D01*
X214419Y172470D01*
X214843Y172047D01*
X206687Y174519D02*
X206984D01*
X208181D01*
X209139D01*
X209378Y173672D02*
Y174280D01*
X209618Y173433D02*
X210336D01*
X210575Y173672D02*
Y174280D01*
X210814Y174519D02*
X211772D01*
X212370D01*
X203671Y171504D02*
X203725Y171557D01*
X204402Y172234D01*
X204740D02*
X205335Y171639D01*
X205674D02*
X206182Y172147D01*
X205587Y173081D02*
X206182Y172485D01*
X205587Y173419D02*
X206264Y174096D01*
X206687Y174519D01*
X194733Y171504D02*
X195652D01*
X195892Y171743D02*
Y171878D01*
X196131Y172117D02*
X196849D01*
X197089Y171743D02*
Y171878D01*
X197328Y171504D02*
X198046D01*
X198285Y171743D02*
Y171878D01*
X198525Y172117D02*
X199243D01*
X199482Y171743D02*
Y171878D01*
X199722Y171504D02*
X200586D01*
X200919Y171837D02*
X201637D01*
X201970Y171504D02*
X203073D01*
X203671D01*
X189679Y176558D02*
X190078Y176159D01*
X190925Y175312D01*
X191771Y174466D01*
X192617Y173620D01*
X193464Y172773D01*
X194310Y171927D01*
X194733Y171504D01*
X189679Y187928D02*
Y188320D01*
Y186732D02*
Y187928D01*
Y185535D02*
Y186732D01*
Y184338D02*
Y185535D01*
Y183141D02*
Y184338D01*
Y181944D02*
Y183141D01*
Y180747D02*
Y181944D01*
Y179550D02*
Y180747D01*
Y178354D02*
Y179550D01*
Y177157D02*
Y178354D01*
Y176558D02*
Y177157D01*
X178498Y199500D02*
X179100Y198898D01*
X179946Y198052D01*
X180792Y197206D01*
X181639Y196360D01*
X182485Y195513D01*
X183331Y194667D01*
X184178Y193821D01*
X185024Y192974D01*
X185870Y192128D01*
X186717Y191282D01*
X187563Y190435D01*
X188409Y189589D01*
X189256Y188743D01*
X189679Y188320D01*
X163279Y199500D02*
X163538D01*
X164495D01*
X164734Y199065D02*
Y199261D01*
X164974Y198826D02*
X165692D01*
X165931Y199065D02*
Y199261D01*
X166171Y199500D02*
X167128D01*
X168325D01*
X169522D01*
X170719D01*
X171916D01*
X173112D01*
X174309D01*
X175506D01*
X176703D01*
X177900D01*
X178498D01*
X161417Y197638D02*
X163279Y199500D01*
X161417Y193626D02*
Y194406D01*
X160284Y194646D02*
X161178D01*
X160045Y194885D02*
Y195603D01*
X160284Y195843D02*
X161178D01*
X161417Y196082D02*
Y197039D01*
Y197638D01*
Y192913D02*
Y193626D01*
X190710Y176986D02*
X194467Y173228D01*
X190710Y176986D02*
Y188747D01*
X178926Y200532D02*
X190710Y188747D01*
X162343Y200532D02*
X178926D01*
X161514Y199703D02*
X162343Y200532D01*
X157480Y195669D02*
X158053Y196242D01*
X160192Y198381D02*
X161514Y199703D01*
X159437Y196619D02*
X160192Y197374D01*
X158053Y196242D02*
X158430Y196619D01*
X157480Y192913D02*
Y195669D01*
X207087Y176378D02*
X209055D01*
X205512Y174803D02*
X207087Y176378D01*
X203937Y173228D02*
X205512Y174803D01*
X202918Y173228D02*
X203937D01*
X202679Y173468D02*
Y174772D01*
X201721Y175011D02*
X202439D01*
X201482Y173228D02*
Y174772D01*
Y173108D02*
Y173228D01*
X200524Y172868D02*
X201243D01*
X200285Y173108D02*
Y173228D01*
Y174772D01*
X199328Y175011D02*
X200046D01*
X199088Y173468D02*
Y174772D01*
X197891Y173228D02*
X198849D01*
X197293D02*
X197891D01*
X194720D02*
X197293D01*
X191742Y178496D02*
X192520Y177718D01*
X191742Y178496D02*
Y189174D01*
X191554Y189361D02*
X191742Y189174D01*
X188791Y192125D02*
X191554Y189361D01*
X188791Y192517D02*
X189821Y193546D01*
X189233Y194526D02*
X189821Y193938D01*
X187811Y193497D02*
X188841Y194526D01*
X186831Y194085D02*
X187419Y193497D01*
X186831Y194476D02*
X187861Y195506D01*
X187273Y196486D02*
X187861Y195898D01*
X185851Y195456D02*
X186881Y196486D01*
X184871Y196044D02*
X185459Y195456D01*
X184871Y196436D02*
X185901Y197466D01*
X185313Y198446D02*
X185901Y197858D01*
X183892Y197416D02*
X184921Y198446D01*
X182912Y198004D02*
X183500Y197416D01*
X182912Y198396D02*
X183941Y199425D01*
X183353Y200405D02*
X183941Y199818D01*
X181932Y199376D02*
X182961Y200405D01*
X180756Y200160D02*
X181540Y199376D01*
X179776Y201140D02*
X180756Y200160D01*
X179286Y201630D02*
X179776Y201140D01*
X152024Y201630D02*
X152447D01*
X178085D02*
X179286D01*
X176699D02*
X178085D01*
X175313D02*
X176699D01*
X173928D02*
X175313D01*
X172542D02*
X173928D01*
X171156D02*
X172542D01*
X169770D02*
X171156D01*
X168384D02*
X169770D01*
X166999D02*
X168384D01*
X165613D02*
X166999D01*
X164227D02*
X165613D01*
X162841D02*
X164227D01*
X161732D02*
X162841D01*
X160346Y201076D02*
X161178D01*
X158961Y201630D02*
X159792D01*
X158684Y198599D02*
Y201353D01*
X157575Y198321D02*
X158406D01*
X157298Y198599D02*
Y201353D01*
X156189Y201630D02*
X157020D01*
X155912Y195761D02*
Y201353D01*
X154803Y195484D02*
X155635D01*
X154526Y195761D02*
Y201353D01*
X153140Y201630D02*
X154249D01*
X152447D02*
X153140D01*
X149606Y199213D02*
X152024Y201630D01*
X222019Y176799D02*
X223650Y175169D01*
Y170106D02*
Y175169D01*
X219291Y165748D02*
X223650Y170106D01*
X219291Y157219D02*
Y165748D01*
Y144095D02*
Y145392D01*
Y148856D02*
Y157219D01*
Y147748D02*
Y148856D01*
X217382Y147470D02*
X219014D01*
X217105Y146362D02*
Y147193D01*
X217382Y146084D02*
X219014D01*
X219291Y145392D02*
Y145807D01*
X217717Y142520D02*
X219291Y144095D01*
X220866Y175197D02*
X222551Y173512D01*
Y170976D02*
Y173512D01*
X221937Y170362D02*
X222551Y170976D01*
X214436Y170362D02*
X221937D01*
X212488Y168414D02*
X214436Y170362D01*
X212488Y159317D02*
Y168414D01*
X203848Y150677D02*
X212488Y159317D01*
X196740Y150677D02*
X203848D01*
X191338Y145275D02*
X196740Y150677D01*
X178296Y145275D02*
X183890D01*
X189017D02*
X191338D01*
X188740Y145553D02*
Y148769D01*
X187631Y149047D02*
X188463D01*
X187354Y145275D02*
Y148769D01*
Y141781D02*
Y145275D01*
X186246Y141504D02*
X187077D01*
X185968Y141781D02*
Y145275D01*
Y148769D01*
X184860Y149047D02*
X185691D01*
X184582Y145553D02*
Y148769D01*
X183890Y145275D02*
X184305D01*
X176771D02*
X178296D01*
X194467Y173228D02*
X194720D01*
X153027Y149729D02*
X155582Y147174D01*
Y136895D02*
X155689Y136788D01*
X155582Y136895D02*
Y147174D01*
X154724Y122441D02*
X156720Y124437D01*
X154403Y119363D02*
X157763Y122724D01*
Y123645D01*
X152434Y119363D02*
X154403D01*
X152362Y119291D02*
X152434Y119363D01*
X169291Y177165D02*
X173268Y173189D01*
X190641Y164850D02*
X192822D01*
X184685Y173189D02*
X191339Y166535D01*
X173268Y173189D02*
X184685D01*
X183769Y172158D02*
X187205Y168722D01*
Y168286D02*
Y168722D01*
Y168286D02*
X190641Y164850D01*
X162882Y172158D02*
X177165D01*
X183769D01*
X177559Y175984D02*
X180804D01*
X174409Y179134D02*
X177559Y175984D01*
X168504Y179134D02*
X174409D01*
X161191Y173849D02*
X162882Y172158D01*
X156693Y179134D02*
X158268D01*
X161191Y173849D02*
Y176211D01*
X158268Y179134D02*
X161191Y176211D01*
X155512Y180315D02*
Y183071D01*
Y180315D02*
X156693Y179134D01*
X183071Y169874D02*
Y170472D01*
X180804Y175984D02*
X184362Y179542D01*
X165354Y176887D02*
X165705Y177237D01*
X188647Y176131D02*
X195668Y169110D01*
X188647Y176131D02*
Y187892D01*
X178071Y198468D02*
X188647Y187892D01*
X177165Y198468D02*
X178071D01*
X175349D02*
X177165D01*
X174991D02*
X175349D01*
X174752Y197170D02*
Y198229D01*
X173794Y196931D02*
X174513D01*
X173555Y197170D02*
Y198229D01*
X172598Y198468D02*
X173316D01*
X172358Y196861D02*
Y198229D01*
X171401Y196622D02*
X172119D01*
X171161Y196861D02*
Y198229D01*
X169965Y198468D02*
X170922D01*
X168768D02*
X169965D01*
X167571D02*
X168768D01*
X166972D02*
X167571D01*
X165354Y196850D02*
X166972Y198468D01*
X210763Y165151D02*
Y166795D01*
Y160349D02*
Y160962D01*
Y161919D01*
X210176Y162159D02*
X210524D01*
X209937Y162398D02*
Y163116D01*
X210176Y163356D02*
X210524D01*
X210763Y163595D02*
Y164552D01*
Y165151D01*
X204855Y154441D02*
X205262Y154848D01*
X206109Y155694D01*
X206955Y156541D01*
X207632Y157218D01*
X207071Y158117D02*
X207632Y157556D01*
X207071Y158455D02*
X207579Y158963D01*
X207917D02*
X208648Y158233D01*
X208756Y158125D01*
X209094D02*
X209602Y158633D01*
Y159188D02*
X210340Y159926D01*
X210763Y160349D01*
X199717Y154441D02*
X201181D01*
X201863D01*
X203060D01*
X204257D01*
X204855D01*
X197638Y152362D02*
X199717Y154441D01*
X179921Y177952D02*
Y180315D01*
X178899Y181338D02*
X179921Y180315D01*
X178899Y181676D02*
X179124Y181902D01*
X178616Y182748D02*
X179124Y182240D01*
X177883Y182353D02*
X178278Y182748D01*
X175836Y180306D02*
X177883Y182353D01*
X174989Y180813D02*
X175497Y180306D01*
X174989Y181152D02*
X177037Y183200D01*
X177079Y183242D01*
X176571Y184088D02*
X177079Y183580D01*
X176190Y184046D02*
X176233Y184088D01*
X174625Y182481D02*
X176190Y184046D01*
X173779Y182988D02*
X174287Y182481D01*
X173779Y183327D02*
X175344Y184892D01*
X176433Y185981D01*
X175925Y186827D02*
X176433Y186319D01*
X174667Y185908D02*
X175586Y186827D01*
X173652Y186585D02*
X174328Y185908D01*
X173228Y187008D02*
X173652Y186585D01*
X172394Y187008D02*
X173228D01*
X171436D02*
X172394D01*
X171197Y186755D02*
Y186768D01*
X170239Y186516D02*
X170958D01*
X170000Y186755D02*
Y187008D01*
Y187068D01*
X169043Y187307D02*
X169761D01*
X168803Y187008D02*
Y187068D01*
Y186867D02*
Y187008D01*
X167846Y186628D02*
X168564D01*
X167606Y186867D02*
Y187008D01*
Y187526D01*
X166649Y187765D02*
X167367D01*
X166410Y187008D02*
Y187526D01*
Y186948D02*
Y187008D01*
X165452Y186709D02*
X166170D01*
X165213Y186948D02*
Y187008D01*
Y187068D01*
X164255Y187307D02*
X164973D01*
X164016Y187008D02*
Y187068D01*
Y186138D02*
Y187008D01*
X163058Y185898D02*
X163776D01*
X162819Y186138D02*
Y186768D01*
X161622Y187008D02*
X162580D01*
X161024D02*
X161622D01*
X159055Y188976D02*
X161024Y187008D01*
X158520Y188976D02*
X159055D01*
X157562D02*
X158520D01*
X157323Y189216D02*
Y189555D01*
X156365Y189795D02*
X157083D01*
X156126Y189216D02*
Y189555D01*
X154929Y188976D02*
X155887D01*
X154331D02*
X154929D01*
X154202Y189105D02*
X154331Y188976D01*
X153525Y189782D02*
X154202Y189105D01*
X151103Y187699D02*
X153187Y189782D01*
X150257Y188207D02*
X150765Y187699D01*
X150257Y188545D02*
X152509Y190798D01*
X152595Y190883D01*
X152087Y191730D02*
X152595Y191222D01*
X150817Y192490D02*
X151577Y191730D01*
X150394Y192913D02*
X150817Y192490D01*
X149858Y192913D02*
X150394D01*
X148901D02*
X149858D01*
X148661Y189728D02*
Y192674D01*
X147704Y189489D02*
X148422D01*
X147465Y189728D02*
Y192674D01*
X146268Y192913D02*
X147225D01*
X145669D02*
X146268D01*
X202756Y176378D02*
X204331Y177953D01*
X205906D01*
X134369Y200394D02*
X138327D01*
X129921Y192913D02*
Y195946D01*
X134369Y200394D01*
X201181Y184252D02*
Y193701D01*
X200561Y194321D02*
X201181Y193701D01*
X199715Y195167D02*
X200561Y194321D01*
X198869Y196013D02*
X199715Y195167D01*
X198445Y196437D02*
X198869Y196013D01*
X188809Y206073D02*
X189391Y205491D01*
X197600Y197282D02*
X198445Y196437D01*
X197600Y197620D02*
X197826Y197846D01*
X197318Y198693D02*
X197826Y198185D01*
X196584Y198298D02*
X196980Y198693D01*
X196542Y198255D02*
X196584Y198298D01*
X195696Y198763D02*
X196203Y198255D01*
X195696Y199101D02*
X195738Y199144D01*
X196133Y199539D01*
X195626Y200385D02*
X196133Y199878D01*
X195061Y200159D02*
X195287Y200385D01*
X194215Y200667D02*
X194722Y200159D01*
X194215Y201006D02*
X194441Y201232D01*
X193933Y202078D02*
X194441Y201570D01*
X193368Y201852D02*
X193594Y202078D01*
X192522Y202360D02*
X193030Y201852D01*
X192522Y202698D02*
X192748Y202924D01*
X192240Y203771D02*
X192748Y203263D01*
X191507Y203375D02*
X191902Y203771D01*
X190914Y202783D02*
X191507Y203375D01*
X190068Y203291D02*
X190576Y202783D01*
X190068Y203629D02*
X190660Y204222D01*
X191056Y204617D01*
X190548Y205463D02*
X191056Y204956D01*
X189983Y205237D02*
X190209Y205463D01*
X189391Y205491D02*
X189645Y205237D01*
X187760Y207122D02*
X188809Y206073D01*
X146609Y207122D02*
X187760D01*
X138849Y199362D02*
X146609Y207122D01*
X136370Y199362D02*
X138849D01*
X133858Y196850D02*
X136370Y199362D01*
X198819Y184252D02*
Y185827D01*
Y186091D01*
X198186Y186331D02*
X198580D01*
X197947Y186570D02*
Y187288D01*
X198186Y187528D02*
X198819D01*
X199840D01*
X200080Y187767D02*
Y188485D01*
X198819Y188724D02*
X199840D01*
X198186D02*
X198819D01*
X197947Y188964D02*
Y189682D01*
X198186Y189921D02*
X198819D01*
X199840D01*
X200080Y190161D02*
Y190879D01*
X199058Y191118D02*
X199840D01*
X198819Y191358D02*
Y192315D01*
Y192913D01*
X198179Y193553D02*
X198819Y192913D01*
X197332Y194400D02*
X198179Y193553D01*
X196486Y195246D02*
X197332Y194400D01*
X196063Y195669D02*
X196486Y195246D01*
X195516Y196216D02*
X196063Y195669D01*
X194670Y197063D02*
X195516Y196216D01*
X193993Y197740D02*
X194670Y197063D01*
X193993Y198078D02*
X194450Y198536D01*
X193942Y199382D02*
X194450Y198874D01*
X193146Y198925D02*
X193604Y199382D01*
X192300Y199432D02*
X192808Y198925D01*
X192300Y199771D02*
X192757Y200228D01*
X192250Y201075D02*
X192757Y200567D01*
X191454Y200617D02*
X191911Y201075D01*
X190438Y201294D02*
X191115Y200617D01*
X190015Y201717D02*
X190438Y201294D01*
X185709Y206024D02*
X186652Y205081D01*
X189614Y202118D02*
X190015Y201717D01*
X188768Y202965D02*
X189614Y202118D01*
X188091Y203642D02*
X188768Y202965D01*
X188091Y203980D02*
X188548Y204438D01*
X188040Y205284D02*
X188548Y204776D01*
X187244Y204827D02*
X187702Y205284D01*
X186652Y205081D02*
X186906Y204827D01*
X147064Y206024D02*
X185709D01*
X137891Y196850D02*
X147064Y206024D01*
X196845Y183469D02*
X197901Y182414D01*
X196845Y183469D02*
Y191505D01*
X194533Y193818D02*
X196845Y191505D01*
X192653Y195698D02*
X194533Y193818D01*
X192653Y196036D02*
X193105Y196489D01*
X192597Y197335D02*
X193105Y196827D01*
X191806Y196883D02*
X192259Y197335D01*
X190960Y197390D02*
X191468Y196883D01*
X190960Y197729D02*
X191413Y198182D01*
X190905Y199028D02*
X191413Y198520D01*
X190114Y198575D02*
X190566Y199028D01*
X189268Y199083D02*
X189775Y198575D01*
X189268Y199422D02*
X189720Y199874D01*
X189212Y200721D02*
X189720Y200213D01*
X188421Y200268D02*
X188874Y200721D01*
X187575Y200776D02*
X188083Y200268D01*
X187575Y201114D02*
X188027Y201567D01*
X187520Y202413D02*
X188027Y201905D01*
X186729Y201960D02*
X187181Y202413D01*
X185713Y202638D02*
X186390Y201960D01*
X184867Y203484D02*
X185713Y202638D01*
X184443Y203907D02*
X184867Y203484D01*
X183425Y204925D02*
X184443Y203907D01*
X147519Y204925D02*
X183425D01*
X141732Y199139D02*
X147519Y204925D01*
X141732Y196850D02*
Y199139D01*
X194882Y183858D02*
Y192010D01*
X148709Y203827D02*
X183065D01*
X194882Y192010D01*
X192803Y180011D02*
Y192630D01*
X182705Y202728D02*
X192803Y192630D01*
X150366Y202728D02*
X182705D01*
X189417Y208221D02*
X203543Y194095D01*
X146154Y208221D02*
X189417D01*
X189894Y209319D02*
X212205Y187008D01*
X190370Y210417D02*
X214566Y186221D01*
X190825Y211516D02*
X223933Y178408D01*
X145699Y209319D02*
X189894D01*
X145244Y210417D02*
X190370D01*
X144882Y211516D02*
X190825D01*
X212205Y177559D02*
Y187008D01*
X214566Y181102D02*
Y186221D01*
X212205Y177559D02*
X213716Y176048D01*
X187616Y175704D02*
X195891Y167429D01*
X187616Y175704D02*
Y187465D01*
X178230Y196850D02*
X187616Y187465D01*
X176772Y196850D02*
X178230D01*
X175197Y195276D02*
X176772Y196850D01*
X170866Y195276D02*
X171199D01*
X173971D02*
X175197D01*
X171199D02*
X172585D01*
X169291Y196850D02*
X170866Y195276D01*
X176607Y194925D02*
X178697D01*
X175591Y193909D02*
X176607Y194925D01*
X175591Y192126D02*
Y193909D01*
X174409Y190945D02*
X175591Y192126D01*
X154331Y190945D02*
X174409D01*
X150394Y194882D02*
X154331Y190945D01*
X143701Y194882D02*
X150394D01*
X185553Y174849D02*
X197520Y162882D01*
X185553Y174849D02*
Y184941D01*
X177580Y192913D02*
X178576Y191917D01*
X178682Y191812D01*
X177085Y189732D02*
X178682Y191329D01*
X177085Y189250D02*
X177808Y188527D01*
X178290D02*
X180128Y190365D01*
X180722Y190959D01*
X181204D02*
X181928Y190236D01*
X181334Y189160D02*
X181928Y189753D01*
X177405Y185230D02*
X181334Y189160D01*
X177405Y184748D02*
X178128Y184025D01*
X178610D02*
X182539Y187954D01*
X183133Y188548D01*
X183615D02*
X184339Y187825D01*
X183986Y186990D02*
X184339Y187343D01*
X183986Y186508D02*
X184950Y185543D01*
X185553Y184941D01*
X201192Y179123D02*
X201969Y178347D01*
X197901Y182414D02*
X198546Y181769D01*
X198938D02*
X199957Y182787D01*
X200349D02*
X200937Y182199D01*
X199722Y180593D02*
X200937Y181807D01*
X197600Y178470D02*
X199722Y180593D01*
X197600Y178078D02*
X198188Y177490D01*
X198580D02*
X200506Y179417D01*
X200898D02*
X201192Y179123D01*
X196850Y176378D02*
X202756D01*
X195286Y177942D02*
X196850Y176378D01*
X194872Y177942D02*
X195286D01*
X130709Y113779D02*
X131890Y114961D01*
X129024Y114176D02*
X130709Y115861D01*
X137008Y118898D02*
Y120707D01*
X137402Y121101D01*
Y130547D01*
X140945Y131102D02*
X149534Y139692D01*
X139370Y131057D02*
X145319Y137006D01*
Y145232D01*
X149534Y141660D02*
X149606Y141732D01*
X149534Y139692D02*
Y141660D01*
X98146Y167602D02*
X107366Y158382D01*
X140945Y124016D02*
X141732Y123228D01*
X183071Y162205D02*
Y162693D01*
Y163650D01*
X183310Y163890D02*
X185607D01*
X185847Y164129D02*
Y164847D01*
X183071Y165087D02*
X185607D01*
X180534D02*
X183071D01*
X180295Y165326D02*
Y166044D01*
X180534Y166283D02*
X183071D01*
X185607D01*
X185847Y166523D02*
Y167241D01*
X183071Y167480D02*
X185607D01*
X180534D02*
X183071D01*
X180295Y167720D02*
Y168438D01*
X180534Y168677D02*
X182832D01*
X183071Y168916D02*
Y169874D01*
X173228Y152362D02*
X176554Y155688D01*
X176893D02*
X178517Y154064D01*
X178856D02*
X179364Y154572D01*
X177570Y156704D02*
X179364Y154910D01*
X175776Y158497D02*
X177570Y156704D01*
X175776Y158836D02*
X176284Y159344D01*
X176623D02*
X178416Y157550D01*
X180210Y155756D01*
X180548D02*
X181056Y156264D01*
X179262Y158396D02*
X181056Y156603D01*
X177469Y160190D02*
X179262Y158396D01*
X177469Y160529D02*
X177977Y161036D01*
X178315D02*
X180109Y159243D01*
X181902Y157449D01*
X182241D02*
X182749Y157957D01*
X180955Y160089D02*
X182749Y158295D01*
X179162Y161883D02*
X180955Y160089D01*
X179162Y162221D02*
X179669Y162729D01*
X180008D02*
X181632Y161105D01*
X181971D02*
X182648Y161782D01*
X183071Y162205D01*
X173228Y149606D02*
Y152362D01*
X201090Y169110D02*
X201927D01*
X201054D02*
X201090D01*
X200097D02*
X201054D01*
X199857Y169349D02*
Y170233D01*
X198900Y170473D02*
X199618D01*
X198661Y169110D02*
Y170233D01*
Y167408D02*
Y169110D01*
X197703Y167169D02*
X198421D01*
X197464Y167408D02*
Y168870D01*
X196267Y169110D02*
X197224D01*
X195668D02*
X196267D01*
X211023Y171260D02*
X212598D01*
X208906Y169142D02*
X211023Y171260D01*
X208906Y162034D02*
Y169142D01*
X210630Y166929D02*
X210763Y166795D01*
X213716Y176048D02*
X213844D01*
X143701Y198819D02*
X148709Y203827D01*
X192822Y164850D02*
X198333Y159339D01*
X206210D01*
X208906Y162034D01*
X186584Y175277D02*
X199263Y162598D01*
X201968D01*
X145669Y198031D02*
X150366Y202728D01*
X165354Y176887D02*
Y177165D01*
X140945Y124016D02*
Y131102D01*
X139370Y121260D02*
Y131057D01*
X137402Y130547D02*
X141827Y134972D01*
X88976Y159843D02*
X92173Y156646D01*
X203543Y184252D02*
Y194095D01*
X123622Y198425D02*
X124016Y198819D01*
X192803Y180011D02*
X194872Y177942D01*
X184362Y179542D02*
Y183748D01*
X186584Y175277D02*
Y187038D01*
X192520Y177559D02*
Y177718D01*
X177559Y192913D02*
X177580D01*
X165705Y177237D02*
X166607D01*
X182677Y185433D02*
X184362Y183748D01*
X178697Y194925D02*
X186584Y187038D01*
X102252Y126882D02*
X105795D01*
X101181Y127953D02*
X102252Y126882D01*
X145669Y196850D02*
Y198031D01*
X143701Y146850D02*
X145319Y145232D01*
X141827Y134972D02*
Y144248D01*
X129024Y107197D02*
Y114176D01*
X130709Y111417D02*
Y113779D01*
X91453Y167602D02*
X98146D01*
X79370Y179685D02*
X91453Y167602D01*
X105795Y126882D02*
X105905Y126771D01*
X92173Y139823D02*
Y156646D01*
X124016Y198819D02*
X129528Y204331D01*
X92173Y139823D02*
X92173Y139822D01*
X129024Y107197D02*
X130709Y105512D01*
X88976Y159843D02*
Y161982D01*
X81274Y169685D02*
X88976Y161982D01*
X83367Y164685D02*
X86768Y161285D01*
Y158508D02*
Y161285D01*
X75984Y164685D02*
X83367D01*
X86768Y158508D02*
X90004Y155272D01*
X75984Y179685D02*
X79370D01*
X153027Y153815D02*
X155118Y155905D01*
X153027Y149729D02*
Y153815D01*
X75984Y169685D02*
X81274D01*
X138327Y200394D02*
X146154Y208221D01*
X138931Y202551D02*
X145699Y209319D01*
X137985Y202551D02*
X138931D01*
X139157Y204331D02*
X145244Y210417D01*
X129528Y204331D02*
X139157D01*
X139787Y206421D02*
X144882Y211516D01*
X138704Y206421D02*
X139787D01*
X137795Y202362D02*
X137985Y202551D01*
X217717Y142126D02*
Y142520D01*
X220472Y141732D02*
Y165354D01*
X224748Y169630D01*
X166607Y177237D02*
X168504Y179134D01*
X138583Y206299D02*
X138704Y206421D01*
X137795Y196850D02*
X137891D01*
X137795Y145362D02*
X139764Y143393D01*
X137795Y145362D02*
Y150394D01*
X133858Y154331D02*
X137795Y150394D01*
X133858Y154331D02*
Y157480D01*
X139444Y157480D02*
X141732D01*
X143701Y159449D01*
X224485Y177952D02*
X224803D01*
X223933Y178408D02*
X224030D01*
X224485Y177952D01*
X222019Y176799D02*
Y176800D01*
X221654Y177165D02*
X222019Y176800D01*
X219605Y177165D02*
X221654D01*
X223118Y177254D02*
X224105Y176267D01*
X223118Y177254D02*
Y177255D01*
X221934Y178438D02*
X223118Y177255D01*
X217736Y181357D02*
X217856D01*
X220775Y178438D01*
X141732Y192913D02*
X143701Y194882D01*
X137795Y192913D02*
X141732D01*
X224105Y176267D02*
X224105D01*
X224748Y175624D01*
Y169630D02*
Y175624D01*
X220775Y178438D02*
X221934D01*
X217677Y175237D02*
X219605Y177165D01*
D77*
X157753Y123655D02*
Y149728D01*
X157480Y150000D02*
X157753Y149728D01*
X157480Y150000D02*
Y153543D01*
X155511Y159055D02*
Y159449D01*
X155512Y159449D01*
X157480Y157480D01*
X151969Y133071D02*
X154331Y135433D01*
X151969Y129528D02*
Y133071D01*
Y129528D02*
X153150Y128347D01*
X154331Y135433D02*
Y144882D01*
X157753Y123655D02*
X157763Y123645D01*
X125984Y134252D02*
X134252D01*
X119975Y140261D02*
X125984Y134252D01*
X151575Y147638D02*
X154331Y144882D01*
X119975Y140261D02*
Y143411D01*
X113548Y149838D02*
X119975Y143411D01*
X113548Y149838D02*
Y195186D01*
X112554Y201064D02*
X113548Y202058D01*
X112554Y196180D02*
X113548Y195186D01*
Y202058D02*
Y213154D01*
X112554Y196180D02*
Y201064D01*
X113548Y213154D02*
X122047Y221654D01*
X131890D01*
D79*
X202939Y167168D02*
G03*
X202939Y166834I167J-167D01*
G01*
X204047Y165392D02*
G03*
X204047Y165726I-167J167D01*
G01*
X203212Y164891D02*
G03*
X203546Y164891I167J167D01*
G01*
X202104Y165999D02*
G03*
X201770Y165999I-167J-167D01*
G01*
X94095Y122047D02*
X105905D01*
X93201Y122941D02*
X94095Y122047D01*
X93201Y122941D02*
Y140248D01*
X92520Y117717D02*
X103150D01*
X91146Y119091D02*
X92520Y117717D01*
X91146Y119091D02*
Y139397D01*
X82256Y128319D02*
Y141434D01*
X81122Y127185D02*
X82256Y128319D01*
X73484Y127185D02*
X81122D01*
X83280Y125799D02*
Y141010D01*
X82165Y124685D02*
X83280Y125799D01*
X75984Y124685D02*
X82165D01*
X84303Y123280D02*
Y140586D01*
X83209Y122185D02*
X84303Y123280D01*
X73484Y122185D02*
X83209D01*
X85394Y120827D02*
Y138213D01*
X84252Y119685D02*
X85394Y120827D01*
X75984Y119685D02*
X84252D01*
X86968Y118465D02*
Y138937D01*
X85689Y117185D02*
X86968Y118465D01*
X73484Y117185D02*
X85689D01*
X88689Y116642D02*
Y139673D01*
X86732Y114685D02*
X88689Y116642D01*
X75984Y114685D02*
X86732D01*
X86968Y138937D02*
X87008Y138976D01*
X81232Y133890D02*
Y141858D01*
X80209Y136941D02*
Y142282D01*
X77953Y134685D02*
X80209Y136941D01*
X79185Y137847D02*
Y142706D01*
X78524Y137185D02*
X79185Y137847D01*
X85327Y138280D02*
Y140162D01*
Y138280D02*
X85394Y138213D01*
X78161Y141665D02*
Y143130D01*
X76181Y139685D02*
X78161Y141665D01*
X85327Y140162D02*
X86350Y141185D01*
X84303Y140586D02*
X85327Y141609D01*
X83280Y141010D02*
X84291Y142022D01*
X82256Y141434D02*
X83268Y142446D01*
X81232Y141858D02*
X82177Y142803D01*
X80209Y142282D02*
X81154Y143227D01*
X79185Y142706D02*
X80130Y143651D01*
X78161Y143130D02*
X79106Y144075D01*
X99213Y126772D02*
Y130394D01*
X195891Y167429D02*
X197571Y165748D01*
X204007Y168235D02*
X205362Y169590D01*
X203608Y167836D02*
X204007Y168235D01*
X202939Y167168D02*
X203608Y167836D01*
X202939Y166834D02*
X204047Y165726D01*
X203546Y164891D02*
X204047Y165392D01*
X202104Y165999D02*
X203212Y164891D01*
X201520Y165748D02*
X201770Y165999D01*
X207874Y164173D02*
Y172834D01*
X206582Y162882D02*
X207874Y164173D01*
X204629Y162882D02*
X206582D01*
X202664Y160917D02*
X204629Y162882D01*
X199485Y160917D02*
X202664D01*
X197520Y162882D02*
X199485Y160917D01*
X197571Y165748D02*
X201520D01*
X88189Y141732D02*
X88401Y141519D01*
X87008Y142928D02*
Y146850D01*
X86350Y142271D02*
X87008Y142928D01*
X86350Y141185D02*
Y142271D01*
X85327Y141609D02*
Y147546D01*
X84291Y142022D02*
Y149252D01*
X83268Y142446D02*
Y151771D01*
X82177Y142803D02*
Y153059D01*
X81154Y143227D02*
Y153988D01*
X80130Y143651D02*
Y155051D01*
X79106Y144075D02*
Y157453D01*
X81154Y153988D02*
X85039Y157874D01*
X82177Y153059D02*
X83162Y154043D01*
X85327Y147546D02*
X87795Y150015D01*
X84291Y149252D02*
X85827Y150787D01*
X83268Y151771D02*
X83858Y152362D01*
X79106Y157453D02*
X79134Y157480D01*
X80130Y155051D02*
X81759Y156680D01*
X106338Y137520D02*
Y157441D01*
X108394Y135952D02*
Y158808D01*
X109417Y133433D02*
Y159232D01*
X99213Y130394D02*
X106338Y137520D01*
X97205Y166575D02*
X106338Y157441D01*
X103150Y130709D02*
X108394Y135952D01*
X98264Y168937D02*
X108394Y158808D01*
X106299Y130315D02*
X109417Y133433D01*
X98424Y170225D02*
X109417Y159232D01*
X205362Y169590D02*
Y169685D01*
X207874Y172834D02*
X207874Y172834D01*
X205362Y169685D02*
X205511D01*
X90158Y160236D02*
X93201Y157193D01*
Y140248D02*
Y157193D01*
X87795Y159055D02*
X91145Y155705D01*
Y139397D02*
Y155705D01*
X87402Y187417D02*
Y216535D01*
X85891Y185906D02*
X87402Y187417D01*
X85832Y185906D02*
X85891D01*
X85359Y185433D02*
X85832Y185906D01*
X85039Y185433D02*
X85359D01*
X88976Y186614D02*
Y217323D01*
X87795Y185433D02*
X88976Y186614D01*
X99606Y185433D02*
Y190551D01*
X97165Y192992D02*
X99606Y190551D01*
X97165Y192992D02*
Y221732D01*
X82677Y187955D02*
Y192913D01*
X90158Y166575D02*
X97205D01*
X100787Y125197D02*
X102756D01*
X99213Y126772D02*
X100787Y125197D01*
X99213Y194882D02*
X105118Y188976D01*
Y183465D02*
Y188976D01*
X98189Y194458D02*
X101969Y190678D01*
Y183465D02*
Y190678D01*
X99213Y194882D02*
Y223495D01*
X96142Y188504D02*
Y220000D01*
Y188504D02*
X97244Y187402D01*
X85984Y227795D02*
X94882Y218898D01*
Y185433D02*
Y218898D01*
X92913Y187402D02*
Y218504D01*
X83484Y227933D02*
X92913Y218504D01*
X98189Y194458D02*
Y223071D01*
X93484Y227776D02*
X98189Y223071D01*
X90984Y227913D02*
X97165Y221732D01*
X98484Y224223D02*
X99213Y223495D01*
X88484Y227658D02*
X96142Y220000D01*
X80984Y227677D02*
X90551Y218110D01*
Y185433D02*
Y218110D01*
X78484Y227815D02*
X88976Y217323D01*
X75984Y227953D02*
X87402Y216535D01*
X75984Y227953D02*
Y231221D01*
Y194685D02*
X80905D01*
X82677Y192913D01*
X73681Y202185D02*
X84332D01*
X71181Y199685D02*
X73681Y202185D01*
X70984Y199685D02*
X71181D01*
X98484Y224223D02*
Y233720D01*
X93484Y227776D02*
Y233720D01*
X83484Y227933D02*
Y233720D01*
X85984Y227795D02*
Y231221D01*
X79350Y187185D02*
X94095Y172441D01*
X93933Y170225D02*
X98424D01*
X79473Y184685D02*
X93933Y170225D01*
X79232Y182185D02*
X92480Y168937D01*
X98264D01*
X75984Y184685D02*
X79473D01*
X73681Y182185D02*
X79232D01*
X103150Y129134D02*
Y130709D01*
X91145Y139397D02*
X91146Y139397D01*
X93201Y140248D02*
X93201Y140248D01*
X73484Y187185D02*
X79350D01*
X82320Y167185D02*
X87795Y161710D01*
Y159055D02*
Y161710D01*
X73681Y167185D02*
X82320D01*
X85039Y157874D02*
Y160630D01*
X81759Y157743D02*
X81890Y157874D01*
X81759Y156680D02*
Y157743D01*
X90158Y160236D02*
Y162736D01*
X80709Y172185D02*
X90158Y162736D01*
X73681Y172185D02*
X80709D01*
X79547Y177185D02*
X90158Y166575D01*
X73681Y177185D02*
X79547D01*
X87795Y150015D02*
Y152362D01*
X75984Y134685D02*
X77953D01*
X88401Y139960D02*
X88689Y139673D01*
X88401Y139960D02*
Y141519D01*
X75984Y139685D02*
X76181D01*
X83162Y154043D02*
X84039D01*
X85113Y155118D01*
X85433D01*
X79528Y132185D02*
X81232Y133890D01*
X70984Y114685D02*
X73484Y117185D01*
X70984Y119685D02*
X73484Y122185D01*
X73681Y137185D02*
X78524D01*
X73484Y132185D02*
X79528D01*
X70984Y129685D02*
X73484Y132185D01*
X90984Y227913D02*
Y231221D01*
X88484Y227658D02*
Y233720D01*
X80984Y227677D02*
Y231221D01*
X78484Y227815D02*
Y233720D01*
X70984Y124685D02*
X73484Y127185D01*
X71181Y134685D02*
X73681Y137185D01*
X70984Y134685D02*
X71181D01*
X80984Y236221D02*
X83484Y233720D01*
X75984Y236221D02*
X78484Y233720D01*
X95984Y236221D02*
X98484Y233720D01*
X85984Y236221D02*
X88484Y233720D01*
X71181Y169685D02*
X73681Y172185D01*
X70984Y169685D02*
X71181D01*
X70984Y184685D02*
X73484Y187185D01*
X71181Y179685D02*
X73681Y182185D01*
X70984Y179685D02*
X71181D01*
Y174685D02*
X73681Y177185D01*
X70984Y174685D02*
X71181D01*
X90984Y236221D02*
X93484Y233720D01*
X71181Y164685D02*
X73681Y167185D01*
X70984Y164685D02*
X71181D01*
D85*
X75984Y219685D02*
D03*
Y184685D02*
D03*
Y179685D02*
D03*
Y194685D02*
D03*
Y164685D02*
D03*
Y169685D02*
D03*
Y134685D02*
D03*
Y139685D02*
D03*
Y124685D02*
D03*
Y119685D02*
D03*
Y114685D02*
D03*
X70984Y124685D02*
D03*
Y164685D02*
D03*
Y199685D02*
D03*
Y184685D02*
D03*
Y179685D02*
D03*
Y174685D02*
D03*
Y169685D02*
D03*
Y129685D02*
D03*
Y119685D02*
D03*
Y114685D02*
D03*
Y134685D02*
D03*
X243976Y219685D02*
D03*
D88*
X120984Y231221D02*
D03*
X95984Y236221D02*
D03*
X90984D02*
D03*
X85984D02*
D03*
X80984D02*
D03*
X75984D02*
D03*
X85984Y231221D02*
D03*
X90984D02*
D03*
X75984D02*
D03*
X80984D02*
D03*
X248228Y59055D02*
D03*
X238976Y231221D02*
D03*
D90*
X219291Y112441D02*
D03*
D97*
X229921Y126378D02*
D03*
Y123228D02*
D03*
Y120079D02*
D03*
Y116929D02*
D03*
X233071D02*
D03*
Y120079D02*
D03*
Y123228D02*
D03*
Y113779D02*
D03*
X229921D02*
D03*
X226772D02*
D03*
Y116929D02*
D03*
Y120029D02*
D03*
Y123228D02*
D03*
M02*
