G04*
G04 #@! TF.GenerationSoftware,Altium Limited,Altium Designer,19.1.6 (110)*
G04*
G04 Layer_Color=8388736*
%FSLAX25Y25*%
%MOIN*%
G70*
G01*
G75*
G04:AMPARAMS|DCode=18|XSize=15.75mil|YSize=53.15mil|CornerRadius=2.05mil|HoleSize=0mil|Usage=FLASHONLY|Rotation=180.000|XOffset=0mil|YOffset=0mil|HoleType=Round|Shape=RoundedRectangle|*
%AMROUNDEDRECTD18*
21,1,0.01575,0.04906,0,0,180.0*
21,1,0.01165,0.05315,0,0,180.0*
1,1,0.00409,-0.00583,0.02453*
1,1,0.00409,0.00583,0.02453*
1,1,0.00409,0.00583,-0.02453*
1,1,0.00409,-0.00583,-0.02453*
%
%ADD18ROUNDEDRECTD18*%
G04:AMPARAMS|DCode=19|XSize=51.18mil|YSize=62.99mil|CornerRadius=6.65mil|HoleSize=0mil|Usage=FLASHONLY|Rotation=0.000|XOffset=0mil|YOffset=0mil|HoleType=Round|Shape=RoundedRectangle|*
%AMROUNDEDRECTD19*
21,1,0.05118,0.04969,0,0,0.0*
21,1,0.03787,0.06299,0,0,0.0*
1,1,0.01331,0.01894,-0.02484*
1,1,0.01331,-0.01894,-0.02484*
1,1,0.01331,-0.01894,0.02484*
1,1,0.01331,0.01894,0.02484*
%
%ADD19ROUNDEDRECTD19*%
G04:AMPARAMS|DCode=20|XSize=59.06mil|YSize=61.02mil|CornerRadius=7.68mil|HoleSize=0mil|Usage=FLASHONLY|Rotation=180.000|XOffset=0mil|YOffset=0mil|HoleType=Round|Shape=RoundedRectangle|*
%AMROUNDEDRECTD20*
21,1,0.05906,0.04567,0,0,180.0*
21,1,0.04370,0.06102,0,0,180.0*
1,1,0.01535,-0.02185,0.02284*
1,1,0.01535,0.02185,0.02284*
1,1,0.01535,0.02185,-0.02284*
1,1,0.01535,-0.02185,-0.02284*
%
%ADD20ROUNDEDRECTD20*%
%ADD38R,0.03661X0.03465*%
G04:AMPARAMS|DCode=39|XSize=15.35mil|YSize=38.58mil|CornerRadius=5.12mil|HoleSize=0mil|Usage=FLASHONLY|Rotation=0.000|XOffset=0mil|YOffset=0mil|HoleType=Round|Shape=RoundedRectangle|*
%AMROUNDEDRECTD39*
21,1,0.01535,0.02835,0,0,0.0*
21,1,0.00512,0.03858,0,0,0.0*
1,1,0.01024,0.00256,-0.01417*
1,1,0.01024,-0.00256,-0.01417*
1,1,0.01024,-0.00256,0.01417*
1,1,0.01024,0.00256,0.01417*
%
%ADD39ROUNDEDRECTD39*%
G04:AMPARAMS|DCode=40|XSize=15.35mil|YSize=38.58mil|CornerRadius=5.12mil|HoleSize=0mil|Usage=FLASHONLY|Rotation=270.000|XOffset=0mil|YOffset=0mil|HoleType=Round|Shape=RoundedRectangle|*
%AMROUNDEDRECTD40*
21,1,0.01535,0.02835,0,0,270.0*
21,1,0.00512,0.03858,0,0,270.0*
1,1,0.01024,-0.01417,-0.00256*
1,1,0.01024,-0.01417,0.00256*
1,1,0.01024,0.01417,0.00256*
1,1,0.01024,0.01417,-0.00256*
%
%ADD40ROUNDEDRECTD40*%
%ADD41R,0.10394X0.10394*%
%ADD42C,0.02362*%
%ADD43C,0.05600*%
G04:AMPARAMS|DCode=44|XSize=35.5mil|YSize=39.43mil|CornerRadius=6.1mil|HoleSize=0mil|Usage=FLASHONLY|Rotation=0.000|XOffset=0mil|YOffset=0mil|HoleType=Round|Shape=RoundedRectangle|*
%AMROUNDEDRECTD44*
21,1,0.03550,0.02724,0,0,0.0*
21,1,0.02331,0.03943,0,0,0.0*
1,1,0.01219,0.01165,-0.01362*
1,1,0.01219,-0.01165,-0.01362*
1,1,0.01219,-0.01165,0.01362*
1,1,0.01219,0.01165,0.01362*
%
%ADD44ROUNDEDRECTD44*%
%ADD45R,0.05718X0.02962*%
%ADD46R,0.05324X0.05324*%
%ADD47C,0.02165*%
%ADD48R,0.04734X0.06112*%
%ADD49R,0.02568X0.04931*%
%ADD50R,0.03750X0.03750*%
G04:AMPARAMS|DCode=51|XSize=37.58mil|YSize=65.25mil|CornerRadius=10.89mil|HoleSize=0mil|Usage=FLASHONLY|Rotation=270.000|XOffset=0mil|YOffset=0mil|HoleType=Round|Shape=RoundedRectangle|*
%AMROUNDEDRECTD51*
21,1,0.03758,0.04347,0,0,270.0*
21,1,0.01579,0.06525,0,0,270.0*
1,1,0.02179,-0.02173,-0.00789*
1,1,0.02179,-0.02173,0.00789*
1,1,0.02179,0.02173,0.00789*
1,1,0.02179,0.02173,-0.00789*
%
%ADD51ROUNDEDRECTD51*%
G04:AMPARAMS|DCode=52|XSize=25.68mil|YSize=27.65mil|CornerRadius=7.92mil|HoleSize=0mil|Usage=FLASHONLY|Rotation=270.000|XOffset=0mil|YOffset=0mil|HoleType=Round|Shape=RoundedRectangle|*
%AMROUNDEDRECTD52*
21,1,0.02568,0.01181,0,0,270.0*
21,1,0.00984,0.02765,0,0,270.0*
1,1,0.01584,-0.00591,-0.00492*
1,1,0.01584,-0.00591,0.00492*
1,1,0.01584,0.00591,0.00492*
1,1,0.01584,0.00591,-0.00492*
%
%ADD52ROUNDEDRECTD52*%
G04:AMPARAMS|DCode=53|XSize=25.68mil|YSize=25.68mil|CornerRadius=7.92mil|HoleSize=0mil|Usage=FLASHONLY|Rotation=270.000|XOffset=0mil|YOffset=0mil|HoleType=Round|Shape=RoundedRectangle|*
%AMROUNDEDRECTD53*
21,1,0.02568,0.00984,0,0,270.0*
21,1,0.00984,0.02568,0,0,270.0*
1,1,0.01584,-0.00492,-0.00492*
1,1,0.01584,-0.00492,0.00492*
1,1,0.01584,0.00492,0.00492*
1,1,0.01584,0.00492,-0.00492*
%
%ADD53ROUNDEDRECTD53*%
%ADD54C,0.11811*%
G04:AMPARAMS|DCode=55|XSize=25.68mil|YSize=25.68mil|CornerRadius=7.92mil|HoleSize=0mil|Usage=FLASHONLY|Rotation=180.000|XOffset=0mil|YOffset=0mil|HoleType=Round|Shape=RoundedRectangle|*
%AMROUNDEDRECTD55*
21,1,0.02568,0.00984,0,0,180.0*
21,1,0.00984,0.02568,0,0,180.0*
1,1,0.01584,-0.00492,0.00492*
1,1,0.01584,0.00492,0.00492*
1,1,0.01584,0.00492,-0.00492*
1,1,0.01584,-0.00492,-0.00492*
%
%ADD55ROUNDEDRECTD55*%
G04:AMPARAMS|DCode=56|XSize=25.68mil|YSize=27.65mil|CornerRadius=7.92mil|HoleSize=0mil|Usage=FLASHONLY|Rotation=180.000|XOffset=0mil|YOffset=0mil|HoleType=Round|Shape=RoundedRectangle|*
%AMROUNDEDRECTD56*
21,1,0.02568,0.01181,0,0,180.0*
21,1,0.00984,0.02765,0,0,180.0*
1,1,0.01584,-0.00492,0.00591*
1,1,0.01584,0.00492,0.00591*
1,1,0.01584,0.00492,-0.00591*
1,1,0.01584,-0.00492,-0.00591*
%
%ADD56ROUNDEDRECTD56*%
%ADD57O,0.04340X0.04143*%
G04:AMPARAMS|DCode=58|XSize=41.43mil|YSize=43.4mil|CornerRadius=11.86mil|HoleSize=0mil|Usage=FLASHONLY|Rotation=270.000|XOffset=0mil|YOffset=0mil|HoleType=Round|Shape=RoundedRectangle|*
%AMROUNDEDRECTD58*
21,1,0.04143,0.01968,0,0,270.0*
21,1,0.01772,0.04340,0,0,270.0*
1,1,0.02372,-0.00984,-0.00886*
1,1,0.02372,-0.00984,0.00886*
1,1,0.02372,0.00984,0.00886*
1,1,0.02372,0.00984,-0.00886*
%
%ADD58ROUNDEDRECTD58*%
%ADD59O,0.04143X0.04340*%
G04:AMPARAMS|DCode=60|XSize=41.43mil|YSize=43.4mil|CornerRadius=11.86mil|HoleSize=0mil|Usage=FLASHONLY|Rotation=180.000|XOffset=0mil|YOffset=0mil|HoleType=Round|Shape=RoundedRectangle|*
%AMROUNDEDRECTD60*
21,1,0.04143,0.01968,0,0,180.0*
21,1,0.01772,0.04340,0,0,180.0*
1,1,0.02372,-0.00886,0.00984*
1,1,0.02372,0.00886,0.00984*
1,1,0.02372,0.00886,-0.00984*
1,1,0.02372,-0.00886,-0.00984*
%
%ADD60ROUNDEDRECTD60*%
%ADD61C,0.05500*%
%ADD62C,0.07087*%
%ADD63O,0.04488X0.04291*%
G04:AMPARAMS|DCode=64|XSize=42.91mil|YSize=44.88mil|CornerRadius=12.11mil|HoleSize=0mil|Usage=FLASHONLY|Rotation=90.000|XOffset=0mil|YOffset=0mil|HoleType=Round|Shape=RoundedRectangle|*
%AMROUNDEDRECTD64*
21,1,0.04291,0.02067,0,0,90.0*
21,1,0.01870,0.04488,0,0,90.0*
1,1,0.02421,0.01034,0.00935*
1,1,0.02421,0.01034,-0.00935*
1,1,0.02421,-0.01034,-0.00935*
1,1,0.02421,-0.01034,0.00935*
%
%ADD64ROUNDEDRECTD64*%
%ADD65C,0.12411*%
%ADD66C,0.06506*%
%ADD67O,0.10836X0.08474*%
%ADD68O,0.06112X0.10836*%
G04:AMPARAMS|DCode=69|XSize=50.79mil|YSize=54.72mil|CornerRadius=14.57mil|HoleSize=0mil|Usage=FLASHONLY|Rotation=0.000|XOffset=0mil|YOffset=0mil|HoleType=Round|Shape=RoundedRectangle|*
%AMROUNDEDRECTD69*
21,1,0.05079,0.02559,0,0,0.0*
21,1,0.02165,0.05472,0,0,0.0*
1,1,0.02913,0.01083,-0.01280*
1,1,0.02913,-0.01083,-0.01280*
1,1,0.02913,-0.01083,0.01280*
1,1,0.02913,0.01083,0.01280*
%
%ADD69ROUNDEDRECTD69*%
%ADD70O,0.05079X0.05472*%
%ADD71C,0.04537*%
%ADD72C,0.02520*%
%ADD73C,0.02372*%
D18*
X139764Y229921D02*
D03*
X142323D02*
D03*
X144882D02*
D03*
X147441D02*
D03*
X150000D02*
D03*
D19*
X133302Y240551D02*
D03*
X156461D02*
D03*
D20*
X140945D02*
D03*
X148819D02*
D03*
D38*
X170374Y107874D02*
D03*
Y103937D02*
D03*
X165059Y107874D02*
D03*
Y103937D02*
D03*
D39*
X138779Y99961D02*
D03*
X142717D02*
D03*
X140748D02*
D03*
X138779Y115787D02*
D03*
X142717D02*
D03*
X140748D02*
D03*
X144685Y99961D02*
D03*
X146653D02*
D03*
X148622D02*
D03*
X144685Y115787D02*
D03*
X146653D02*
D03*
X148622D02*
D03*
D40*
X135787Y102953D02*
D03*
Y104921D02*
D03*
Y110827D02*
D03*
Y106890D02*
D03*
Y108858D02*
D03*
Y112795D02*
D03*
X151614Y102953D02*
D03*
Y104921D02*
D03*
Y106890D02*
D03*
Y112795D02*
D03*
Y108858D02*
D03*
Y110827D02*
D03*
D41*
X143701Y107874D02*
D03*
D42*
X118110Y137795D02*
D03*
X114173D02*
D03*
Y141732D02*
D03*
X118110D02*
D03*
X114173Y145669D02*
D03*
X122047Y137795D02*
D03*
Y141732D02*
D03*
X125984Y137795D02*
D03*
Y141732D02*
D03*
X118110Y145669D02*
D03*
Y149606D02*
D03*
X122047Y145669D02*
D03*
Y149606D02*
D03*
X125984Y145669D02*
D03*
X114173Y149606D02*
D03*
Y161417D02*
D03*
Y165354D02*
D03*
Y153543D02*
D03*
Y157480D02*
D03*
X118110Y153543D02*
D03*
Y157480D02*
D03*
X125984Y149606D02*
D03*
X122047Y153543D02*
D03*
X118110Y161417D02*
D03*
Y165354D02*
D03*
X125984Y157480D02*
D03*
X122047Y161417D02*
D03*
Y157480D02*
D03*
X133858Y137795D02*
D03*
X129921D02*
D03*
Y141732D02*
D03*
X133858D02*
D03*
X129921Y145669D02*
D03*
X137795Y137795D02*
D03*
Y141732D02*
D03*
X141732Y137795D02*
D03*
Y141732D02*
D03*
X133858Y145669D02*
D03*
Y149606D02*
D03*
X137795Y145669D02*
D03*
X141732Y149606D02*
D03*
Y145669D02*
D03*
X129921Y149606D02*
D03*
X125984Y153543D02*
D03*
X133858D02*
D03*
X129921Y161417D02*
D03*
X125984D02*
D03*
X129921Y153543D02*
D03*
Y157480D02*
D03*
X137795Y153543D02*
D03*
X133858Y157480D02*
D03*
X137795Y149606D02*
D03*
X141732Y153543D02*
D03*
X133858Y161417D02*
D03*
Y165354D02*
D03*
X137795Y157480D02*
D03*
Y161417D02*
D03*
X141732Y165354D02*
D03*
X114173Y169291D02*
D03*
Y173228D02*
D03*
X118110Y169291D02*
D03*
Y173228D02*
D03*
X114173Y177165D02*
D03*
Y181102D02*
D03*
X118110Y177165D02*
D03*
Y181102D02*
D03*
X122047Y165354D02*
D03*
Y169291D02*
D03*
X125984Y165354D02*
D03*
Y169291D02*
D03*
X122047Y173228D02*
D03*
Y177165D02*
D03*
X125984Y173228D02*
D03*
Y181102D02*
D03*
Y177165D02*
D03*
X114173Y185039D02*
D03*
Y188976D02*
D03*
X118110Y185039D02*
D03*
Y188976D02*
D03*
X114173Y192913D02*
D03*
Y196850D02*
D03*
X118110Y192913D02*
D03*
Y196850D02*
D03*
X122047Y181102D02*
D03*
Y185039D02*
D03*
X125984D02*
D03*
X122047Y188976D02*
D03*
Y192913D02*
D03*
Y196850D02*
D03*
X125984Y188976D02*
D03*
Y196850D02*
D03*
Y192913D02*
D03*
X129921Y165354D02*
D03*
Y169291D02*
D03*
X133858D02*
D03*
X129921Y173228D02*
D03*
Y177165D02*
D03*
Y181102D02*
D03*
X133858Y173228D02*
D03*
Y185039D02*
D03*
X137795Y165354D02*
D03*
Y169291D02*
D03*
X141732Y173228D02*
D03*
X137795D02*
D03*
X133858Y177165D02*
D03*
Y181102D02*
D03*
X137795Y177165D02*
D03*
Y181102D02*
D03*
X141732Y177165D02*
D03*
X129921Y185039D02*
D03*
Y188976D02*
D03*
X133858D02*
D03*
X129921Y192913D02*
D03*
X133858D02*
D03*
X129921Y196850D02*
D03*
X137795Y185039D02*
D03*
Y188976D02*
D03*
X141732Y185039D02*
D03*
Y188976D02*
D03*
X137795Y192913D02*
D03*
X133858Y196850D02*
D03*
X141732Y192913D02*
D03*
X137795Y196850D02*
D03*
X141732D02*
D03*
X145669Y137795D02*
D03*
Y141732D02*
D03*
X149606Y137795D02*
D03*
Y141732D02*
D03*
X145669Y145669D02*
D03*
Y149606D02*
D03*
X149606Y145669D02*
D03*
Y149606D02*
D03*
X153543Y137795D02*
D03*
Y141732D02*
D03*
X157480Y137795D02*
D03*
Y141732D02*
D03*
X153543Y145669D02*
D03*
Y149606D02*
D03*
X157480Y145669D02*
D03*
Y149606D02*
D03*
X161417Y145669D02*
D03*
X145669Y153543D02*
D03*
X141732Y157480D02*
D03*
X149606Y153543D02*
D03*
X145669Y157480D02*
D03*
Y161417D02*
D03*
X141732D02*
D03*
X149606Y157480D02*
D03*
X145669Y165354D02*
D03*
X153543Y153543D02*
D03*
Y157480D02*
D03*
X157480Y153543D02*
D03*
Y157480D02*
D03*
X149606Y161417D02*
D03*
Y165354D02*
D03*
X153543Y161417D02*
D03*
X157480Y165354D02*
D03*
Y161417D02*
D03*
X161417Y137795D02*
D03*
Y141732D02*
D03*
X165354Y137795D02*
D03*
Y141732D02*
D03*
Y145669D02*
D03*
X161417Y149606D02*
D03*
X165354D02*
D03*
Y153543D02*
D03*
X169291Y137795D02*
D03*
Y141732D02*
D03*
X173228Y137795D02*
D03*
Y141732D02*
D03*
X169291Y145669D02*
D03*
Y149606D02*
D03*
X173228Y145669D02*
D03*
X169291Y153543D02*
D03*
X173228Y149606D02*
D03*
X161417Y153543D02*
D03*
Y157480D02*
D03*
X169291D02*
D03*
X165354D02*
D03*
X161417Y161417D02*
D03*
Y165354D02*
D03*
X165354Y161417D02*
D03*
Y165354D02*
D03*
X173228Y153543D02*
D03*
X169291Y161417D02*
D03*
Y165354D02*
D03*
X173228Y157480D02*
D03*
Y165354D02*
D03*
Y161417D02*
D03*
X141732Y169291D02*
D03*
X145669D02*
D03*
Y173228D02*
D03*
Y177165D02*
D03*
X149606Y169291D02*
D03*
Y181102D02*
D03*
X153543Y169291D02*
D03*
X149606Y173228D02*
D03*
X153543Y165354D02*
D03*
X157480Y169291D02*
D03*
X153543Y173228D02*
D03*
X149606Y177165D02*
D03*
X157480Y173228D02*
D03*
X153543Y181102D02*
D03*
Y177165D02*
D03*
X145669Y181102D02*
D03*
X141732D02*
D03*
X149606Y185039D02*
D03*
X145669D02*
D03*
Y188976D02*
D03*
Y192913D02*
D03*
X149606Y188976D02*
D03*
X145669Y196850D02*
D03*
X153543Y188976D02*
D03*
Y192913D02*
D03*
X157480Y181102D02*
D03*
X153543Y185039D02*
D03*
X149606Y192913D02*
D03*
Y196850D02*
D03*
X157480Y192913D02*
D03*
X153543Y196850D02*
D03*
X157480D02*
D03*
X161417Y169291D02*
D03*
Y173228D02*
D03*
X165354D02*
D03*
X161417Y177165D02*
D03*
X157480D02*
D03*
X161417Y181102D02*
D03*
X165354Y177165D02*
D03*
Y181102D02*
D03*
X169291Y169291D02*
D03*
X165354D02*
D03*
X173228D02*
D03*
X169291Y173228D02*
D03*
Y177165D02*
D03*
Y181102D02*
D03*
X173228Y173228D02*
D03*
Y181102D02*
D03*
Y177165D02*
D03*
X161417Y185039D02*
D03*
X157480D02*
D03*
X165354D02*
D03*
X161417Y188976D02*
D03*
X157480D02*
D03*
X161417Y192913D02*
D03*
X165354Y188976D02*
D03*
X161417Y196850D02*
D03*
X165354D02*
D03*
X169291Y185039D02*
D03*
Y188976D02*
D03*
X173228Y185039D02*
D03*
Y188976D02*
D03*
X169291Y192913D02*
D03*
X165354D02*
D03*
X173228D02*
D03*
X169291Y196850D02*
D03*
X173228D02*
D03*
D43*
X194095Y120079D02*
D03*
Y131890D02*
D03*
D44*
X239173Y116556D02*
D03*
X245473D02*
D03*
X238583Y142126D02*
D03*
X244882D02*
D03*
D45*
X239173Y122931D02*
D03*
Y130411D02*
D03*
X247441Y126671D02*
D03*
D46*
X230883Y132874D02*
D03*
Y142126D02*
D03*
D47*
X197244Y154724D02*
D03*
Y157874D02*
D03*
X200394Y154724D02*
D03*
Y161024D02*
D03*
X197244Y164173D02*
D03*
Y161024D02*
D03*
X203543Y154724D02*
D03*
X200394Y157874D02*
D03*
X203543D02*
D03*
Y164173D02*
D03*
Y161024D02*
D03*
X197244Y167323D02*
D03*
Y170472D02*
D03*
X200394Y164173D02*
D03*
Y167323D02*
D03*
X197244Y176772D02*
D03*
Y179921D02*
D03*
X200394Y170472D02*
D03*
X197244Y173622D02*
D03*
X200394D02*
D03*
X203543Y176772D02*
D03*
X200394D02*
D03*
X203543Y167323D02*
D03*
Y170472D02*
D03*
Y179921D02*
D03*
X200394D02*
D03*
X216142Y154724D02*
D03*
Y157874D02*
D03*
X219291Y154724D02*
D03*
Y157874D02*
D03*
X216142Y161024D02*
D03*
Y164173D02*
D03*
X219291Y161024D02*
D03*
Y164173D02*
D03*
X222441D02*
D03*
Y154724D02*
D03*
Y157874D02*
D03*
Y161024D02*
D03*
X219291Y167323D02*
D03*
X216142D02*
D03*
Y170472D02*
D03*
X203543Y173622D02*
D03*
X216142D02*
D03*
Y179921D02*
D03*
Y176772D02*
D03*
X219291Y170472D02*
D03*
Y173622D02*
D03*
X222441Y167323D02*
D03*
Y170472D02*
D03*
X219291Y176772D02*
D03*
Y179921D02*
D03*
X222441Y173622D02*
D03*
Y179921D02*
D03*
Y176772D02*
D03*
D48*
X245177Y82284D02*
D03*
Y96457D02*
D03*
X250886Y82284D02*
D03*
Y96457D02*
D03*
D49*
X241339Y89370D02*
D03*
D50*
X238878Y109055D02*
D03*
X245374D02*
D03*
D51*
X196063Y77520D02*
D03*
Y87520D02*
D03*
Y82520D02*
D03*
Y92520D02*
D03*
X217520Y77520D02*
D03*
Y82520D02*
D03*
Y92520D02*
D03*
Y87520D02*
D03*
D52*
X230768Y89370D02*
D03*
X234311D02*
D03*
X166350Y112992D02*
D03*
X169894D02*
D03*
X166350Y98499D02*
D03*
X169894D02*
D03*
X239370Y135433D02*
D03*
X242913D02*
D03*
D53*
X230571Y94095D02*
D03*
X234508D02*
D03*
X192913Y137795D02*
D03*
X196850D02*
D03*
X144488Y123228D02*
D03*
X148425D02*
D03*
X214173Y107480D02*
D03*
X218110D02*
D03*
X214173Y103543D02*
D03*
X218110D02*
D03*
X241339Y103829D02*
D03*
X245276D02*
D03*
X159843Y94095D02*
D03*
X163779D02*
D03*
X196063Y98425D02*
D03*
X200000D02*
D03*
X196063Y71260D02*
D03*
X200000D02*
D03*
D54*
X105905Y211811D02*
D03*
X187008Y105905D02*
D03*
D55*
X175602Y103937D02*
D03*
Y107874D02*
D03*
X156693Y98425D02*
D03*
Y102362D02*
D03*
X204724Y130315D02*
D03*
Y134252D02*
D03*
X200787Y130315D02*
D03*
Y134252D02*
D03*
D56*
X156074Y111221D02*
D03*
Y114764D02*
D03*
D57*
X70984Y84685D02*
D03*
Y89685D02*
D03*
Y74685D02*
D03*
Y79685D02*
D03*
Y134685D02*
D03*
Y94685D02*
D03*
Y99685D02*
D03*
Y104685D02*
D03*
Y109685D02*
D03*
Y119685D02*
D03*
Y144685D02*
D03*
Y129685D02*
D03*
Y139685D02*
D03*
Y169685D02*
D03*
Y174685D02*
D03*
Y154685D02*
D03*
Y159685D02*
D03*
Y179685D02*
D03*
Y184685D02*
D03*
Y194685D02*
D03*
Y199685D02*
D03*
Y164685D02*
D03*
Y189685D02*
D03*
Y204685D02*
D03*
Y214685D02*
D03*
Y209685D02*
D03*
X75984Y89685D02*
D03*
Y94685D02*
D03*
Y74685D02*
D03*
Y79685D02*
D03*
X70984Y114685D02*
D03*
Y124685D02*
D03*
X75984Y99685D02*
D03*
Y104685D02*
D03*
Y114685D02*
D03*
Y119685D02*
D03*
Y84685D02*
D03*
Y109685D02*
D03*
Y124685D02*
D03*
Y129685D02*
D03*
Y139685D02*
D03*
Y134685D02*
D03*
Y144685D02*
D03*
X70984Y149685D02*
D03*
X75984D02*
D03*
Y154685D02*
D03*
Y169685D02*
D03*
Y174685D02*
D03*
Y159685D02*
D03*
Y164685D02*
D03*
Y189685D02*
D03*
Y194685D02*
D03*
Y179685D02*
D03*
Y184685D02*
D03*
Y214685D02*
D03*
Y219685D02*
D03*
Y199685D02*
D03*
Y209685D02*
D03*
Y204685D02*
D03*
X238976Y154685D02*
D03*
Y149685D02*
D03*
Y159685D02*
D03*
Y164685D02*
D03*
Y169685D02*
D03*
Y179685D02*
D03*
Y199685D02*
D03*
Y194685D02*
D03*
Y209685D02*
D03*
Y189685D02*
D03*
Y214685D02*
D03*
X243976Y154685D02*
D03*
Y149685D02*
D03*
X238976Y174685D02*
D03*
X243976Y159685D02*
D03*
Y169685D02*
D03*
Y164685D02*
D03*
Y174685D02*
D03*
Y179685D02*
D03*
X238976Y184685D02*
D03*
X243976D02*
D03*
X238976Y204685D02*
D03*
X243976Y189685D02*
D03*
Y194685D02*
D03*
Y204685D02*
D03*
Y199685D02*
D03*
Y219685D02*
D03*
Y209685D02*
D03*
Y214685D02*
D03*
D58*
X70984Y219685D02*
D03*
X238976D02*
D03*
D59*
X80984Y231221D02*
D03*
X75984D02*
D03*
X90984D02*
D03*
X85984D02*
D03*
X75984Y236221D02*
D03*
X80984D02*
D03*
X85984D02*
D03*
X90984D02*
D03*
X95984D02*
D03*
X105984Y231221D02*
D03*
X95984D02*
D03*
X100984D02*
D03*
X110984D02*
D03*
X115984D02*
D03*
X120984D02*
D03*
X110984Y236221D02*
D03*
X100984D02*
D03*
X105984D02*
D03*
X115984D02*
D03*
X183228Y59055D02*
D03*
X188228D02*
D03*
X178228D02*
D03*
X203228D02*
D03*
X208228D02*
D03*
X193228D02*
D03*
X188228Y64055D02*
D03*
X193228D02*
D03*
X178228D02*
D03*
X183228D02*
D03*
X198228D02*
D03*
Y59055D02*
D03*
X208228Y64055D02*
D03*
X203228D02*
D03*
X223228Y59055D02*
D03*
X228228D02*
D03*
X213228D02*
D03*
X218228D02*
D03*
X233228D02*
D03*
X238228D02*
D03*
X243228D02*
D03*
X248228D02*
D03*
X228228Y64055D02*
D03*
X233228D02*
D03*
X213228D02*
D03*
X223228D02*
D03*
X218228D02*
D03*
X238228D02*
D03*
X243228D02*
D03*
X173976Y231221D02*
D03*
X178976D02*
D03*
X168976D02*
D03*
X193976D02*
D03*
X198976D02*
D03*
X183976D02*
D03*
X178976Y236221D02*
D03*
X183976D02*
D03*
X168976D02*
D03*
X173976D02*
D03*
X188976D02*
D03*
Y231221D02*
D03*
X198976Y236221D02*
D03*
X193976D02*
D03*
X213976Y231221D02*
D03*
X218976D02*
D03*
X203976D02*
D03*
X208976D02*
D03*
X223976D02*
D03*
X228976D02*
D03*
X233976D02*
D03*
X238976D02*
D03*
X218976Y236221D02*
D03*
X223976D02*
D03*
X203976D02*
D03*
X213976D02*
D03*
X208976D02*
D03*
X228976D02*
D03*
X233976D02*
D03*
D60*
X120984D02*
D03*
X248228Y64055D02*
D03*
X238976Y236221D02*
D03*
D61*
X135039Y229921D02*
D03*
X154724D02*
D03*
D62*
X131102Y240551D02*
D03*
X158661D02*
D03*
D63*
X214291Y112441D02*
D03*
Y122441D02*
D03*
Y127441D02*
D03*
Y117441D02*
D03*
Y132441D02*
D03*
X219291Y117441D02*
D03*
Y122441D02*
D03*
Y127441D02*
D03*
Y132441D02*
D03*
D64*
Y112441D02*
D03*
D65*
X119606Y68898D02*
D03*
X167008D02*
D03*
D66*
X138386Y87441D02*
D03*
Y79567D02*
D03*
X148228D02*
D03*
Y87441D02*
D03*
D67*
X95669Y57874D02*
D03*
D68*
X85039Y69685D02*
D03*
X106299D02*
D03*
D69*
X87402Y79921D02*
D03*
D70*
X92913D02*
D03*
X98425D02*
D03*
X103937D02*
D03*
D71*
X247244Y234252D02*
D03*
X68898Y59055D02*
D03*
D72*
X141535Y105709D02*
D03*
Y110039D02*
D03*
X145866Y105709D02*
D03*
Y110039D02*
D03*
D73*
X149606Y153543D02*
D03*
X165354Y177165D02*
D03*
X125984D02*
D03*
X205511Y157480D02*
D03*
X137795Y141732D02*
D03*
X173228Y157480D02*
D03*
X161417Y169291D02*
D03*
X157480Y173228D02*
D03*
X157480Y177165D02*
D03*
X122047Y149606D02*
D03*
X165354Y185039D02*
D03*
X125984Y181102D02*
D03*
X118110Y185039D02*
D03*
X125984Y145669D02*
D03*
X118110Y149606D02*
D03*
X157480Y153543D02*
D03*
X149606Y141732D02*
D03*
X161417Y157480D02*
D03*
X165354D02*
D03*
X149606Y157480D02*
D03*
X153543Y185039D02*
D03*
X161417Y188976D02*
D03*
X165354Y192913D02*
D03*
X169291D02*
D03*
X165354Y188976D02*
D03*
X173228Y192913D02*
D03*
X165354Y181102D02*
D03*
X169291Y185039D02*
D03*
X169291Y188976D02*
D03*
X137795Y177165D02*
D03*
X141732Y177165D02*
D03*
X145669Y185039D02*
D03*
Y181102D02*
D03*
X149606D02*
D03*
X149606Y177165D02*
D03*
X153543Y181102D02*
D03*
X165354Y196850D02*
D03*
X114173D02*
D03*
X173228Y145669D02*
D03*
X173228Y181102D02*
D03*
X161417D02*
D03*
X153543Y177165D02*
D03*
X169291Y196850D02*
D03*
X161417Y192913D02*
D03*
X173228Y149606D02*
D03*
X161417Y141732D02*
D03*
X145669Y149606D02*
D03*
X118110Y173228D02*
D03*
Y177165D02*
D03*
Y181102D02*
D03*
X157480Y185039D02*
D03*
X161417D02*
D03*
X157480Y181102D02*
D03*
X133858Y177165D02*
D03*
X145669Y196850D02*
D03*
X141732D02*
D03*
X129921Y192913D02*
D03*
X137795D02*
D03*
X133858Y196850D02*
D03*
X137795D02*
D03*
X129921Y161417D02*
D03*
X141732Y153543D02*
D03*
X118110Y141732D02*
D03*
X157480Y192913D02*
D03*
X145669D02*
D03*
X137795Y137795D02*
D03*
X169291Y177165D02*
D03*
X125984Y169291D02*
D03*
X141732Y149606D02*
D03*
M02*
