G04*
G04 #@! TF.GenerationSoftware,Altium Limited,Altium Designer,19.1.6 (110)*
G04*
G04 Layer_Color=16711935*
%FSLAX25Y25*%
%MOIN*%
G70*
G01*
G75*
G04:AMPARAMS|DCode=45|XSize=35.5mil|YSize=39.43mil|CornerRadius=6.1mil|HoleSize=0mil|Usage=FLASHONLY|Rotation=0.000|XOffset=0mil|YOffset=0mil|HoleType=Round|Shape=RoundedRectangle|*
%AMROUNDEDRECTD45*
21,1,0.03550,0.02724,0,0,0.0*
21,1,0.02331,0.03943,0,0,0.0*
1,1,0.01219,0.01165,-0.01362*
1,1,0.01219,-0.01165,-0.01362*
1,1,0.01219,-0.01165,0.01362*
1,1,0.01219,0.01165,0.01362*
%
%ADD45ROUNDEDRECTD45*%
G04:AMPARAMS|DCode=53|XSize=27.69mil|YSize=29.65mil|CornerRadius=8.92mil|HoleSize=0mil|Usage=FLASHONLY|Rotation=270.000|XOffset=0mil|YOffset=0mil|HoleType=Round|Shape=RoundedRectangle|*
%AMROUNDEDRECTD53*
21,1,0.02769,0.01181,0,0,270.0*
21,1,0.00984,0.02965,0,0,270.0*
1,1,0.01784,-0.00591,-0.00492*
1,1,0.01784,-0.00591,0.00492*
1,1,0.01784,0.00591,0.00492*
1,1,0.01784,0.00591,-0.00492*
%
%ADD53ROUNDEDRECTD53*%
G04:AMPARAMS|DCode=54|XSize=27.69mil|YSize=27.69mil|CornerRadius=8.92mil|HoleSize=0mil|Usage=FLASHONLY|Rotation=270.000|XOffset=0mil|YOffset=0mil|HoleType=Round|Shape=RoundedRectangle|*
%AMROUNDEDRECTD54*
21,1,0.02769,0.00984,0,0,270.0*
21,1,0.00984,0.02769,0,0,270.0*
1,1,0.01784,-0.00492,-0.00492*
1,1,0.01784,-0.00492,0.00492*
1,1,0.01784,0.00492,0.00492*
1,1,0.01784,0.00492,-0.00492*
%
%ADD54ROUNDEDRECTD54*%
G04:AMPARAMS|DCode=56|XSize=27.69mil|YSize=29.65mil|CornerRadius=8.92mil|HoleSize=0mil|Usage=FLASHONLY|Rotation=180.000|XOffset=0mil|YOffset=0mil|HoleType=Round|Shape=RoundedRectangle|*
%AMROUNDEDRECTD56*
21,1,0.02769,0.01181,0,0,180.0*
21,1,0.00984,0.02965,0,0,180.0*
1,1,0.01784,-0.00492,0.00591*
1,1,0.01784,0.00492,0.00591*
1,1,0.01784,0.00492,-0.00591*
1,1,0.01784,-0.00492,-0.00591*
%
%ADD56ROUNDEDRECTD56*%
%ADD57C,0.04737*%
%ADD58O,0.04540X0.04343*%
G04:AMPARAMS|DCode=59|XSize=43.43mil|YSize=45.4mil|CornerRadius=12.86mil|HoleSize=0mil|Usage=FLASHONLY|Rotation=270.000|XOffset=0mil|YOffset=0mil|HoleType=Round|Shape=RoundedRectangle|*
%AMROUNDEDRECTD59*
21,1,0.04343,0.01968,0,0,270.0*
21,1,0.01772,0.04540,0,0,270.0*
1,1,0.02572,-0.00984,-0.00886*
1,1,0.02572,-0.00984,0.00886*
1,1,0.02572,0.00984,0.00886*
1,1,0.02572,0.00984,-0.00886*
%
%ADD59ROUNDEDRECTD59*%
G04:AMPARAMS|DCode=60|XSize=43.43mil|YSize=45.4mil|CornerRadius=12.86mil|HoleSize=0mil|Usage=FLASHONLY|Rotation=180.000|XOffset=0mil|YOffset=0mil|HoleType=Round|Shape=RoundedRectangle|*
%AMROUNDEDRECTD60*
21,1,0.04343,0.01968,0,0,180.0*
21,1,0.01772,0.04540,0,0,180.0*
1,1,0.02572,-0.00886,0.00984*
1,1,0.02572,0.00886,0.00984*
1,1,0.02572,0.00886,-0.00984*
1,1,0.02572,-0.00886,-0.00984*
%
%ADD60ROUNDEDRECTD60*%
%ADD61O,0.04343X0.04540*%
%ADD62C,0.07087*%
%ADD63C,0.05500*%
%ADD64O,0.04488X0.04291*%
G04:AMPARAMS|DCode=65|XSize=42.91mil|YSize=44.88mil|CornerRadius=12.11mil|HoleSize=0mil|Usage=FLASHONLY|Rotation=90.000|XOffset=0mil|YOffset=0mil|HoleType=Round|Shape=RoundedRectangle|*
%AMROUNDEDRECTD65*
21,1,0.04291,0.02067,0,0,90.0*
21,1,0.01870,0.04488,0,0,90.0*
1,1,0.02421,0.01034,0.00935*
1,1,0.02421,0.01034,-0.00935*
1,1,0.02421,-0.01034,-0.00935*
1,1,0.02421,-0.01034,0.00935*
%
%ADD65ROUNDEDRECTD65*%
%ADD66C,0.06706*%
%ADD67C,0.12611*%
%ADD68O,0.06312X0.11036*%
%ADD69O,0.05079X0.05472*%
G04:AMPARAMS|DCode=70|XSize=50.79mil|YSize=54.72mil|CornerRadius=14.57mil|HoleSize=0mil|Usage=FLASHONLY|Rotation=0.000|XOffset=0mil|YOffset=0mil|HoleType=Round|Shape=RoundedRectangle|*
%AMROUNDEDRECTD70*
21,1,0.05079,0.02559,0,0,0.0*
21,1,0.02165,0.05472,0,0,0.0*
1,1,0.02913,0.01083,-0.01280*
1,1,0.02913,-0.01083,-0.01280*
1,1,0.02913,-0.01083,0.01280*
1,1,0.02913,0.01083,0.01280*
%
%ADD70ROUNDEDRECTD70*%
%ADD71O,0.11036X0.08674*%
%ADD72C,0.02572*%
%ADD107R,0.05524X0.06312*%
G04:AMPARAMS|DCode=108|XSize=23.68mil|YSize=25.65mil|CornerRadius=6.04mil|HoleSize=0mil|Usage=FLASHONLY|Rotation=90.000|XOffset=0mil|YOffset=0mil|HoleType=Round|Shape=RoundedRectangle|*
%AMROUNDEDRECTD108*
21,1,0.02368,0.01358,0,0,90.0*
21,1,0.01161,0.02565,0,0,90.0*
1,1,0.01207,0.00679,0.00581*
1,1,0.01207,0.00679,-0.00581*
1,1,0.01207,-0.00679,-0.00581*
1,1,0.01207,-0.00679,0.00581*
%
%ADD108ROUNDEDRECTD108*%
G04:AMPARAMS|DCode=109|XSize=23.68mil|YSize=25.65mil|CornerRadius=6.04mil|HoleSize=0mil|Usage=FLASHONLY|Rotation=180.000|XOffset=0mil|YOffset=0mil|HoleType=Round|Shape=RoundedRectangle|*
%AMROUNDEDRECTD109*
21,1,0.02368,0.01358,0,0,180.0*
21,1,0.01161,0.02565,0,0,180.0*
1,1,0.01207,-0.00581,0.00679*
1,1,0.01207,0.00581,0.00679*
1,1,0.01207,0.00581,-0.00679*
1,1,0.01207,-0.00581,-0.00679*
%
%ADD109ROUNDEDRECTD109*%
D45*
X114173Y150394D02*
D03*
X107874D02*
D03*
X114567Y140945D02*
D03*
X108268D02*
D03*
D53*
X165157Y161417D02*
D03*
X161614D02*
D03*
X130118Y185039D02*
D03*
X126575D02*
D03*
X125787Y161417D02*
D03*
X122244D02*
D03*
X158858Y188583D02*
D03*
X155315D02*
D03*
X137598Y165354D02*
D03*
X134055D02*
D03*
X137598Y161417D02*
D03*
X134055D02*
D03*
X133705Y145669D02*
D03*
X130161D02*
D03*
X141535Y145669D02*
D03*
X137992D02*
D03*
X153346Y173228D02*
D03*
X149803D02*
D03*
X153346Y169291D02*
D03*
X149803D02*
D03*
X145472Y157087D02*
D03*
X141929D02*
D03*
X133661Y169291D02*
D03*
X130118D02*
D03*
X129724Y165354D02*
D03*
X126181D02*
D03*
X157283D02*
D03*
X153740D02*
D03*
X157283Y161417D02*
D03*
X153740D02*
D03*
X133661Y174016D02*
D03*
X130118D02*
D03*
X124212Y173228D02*
D03*
X120669D02*
D03*
X121850Y152756D02*
D03*
X118307D02*
D03*
X209646Y150074D02*
D03*
X206102D02*
D03*
X141929Y93701D02*
D03*
X138386D02*
D03*
X151378Y100394D02*
D03*
X147835D02*
D03*
X120276Y126060D02*
D03*
X116732D02*
D03*
X120276Y98075D02*
D03*
X116732D02*
D03*
X227165Y156299D02*
D03*
X223622D02*
D03*
X220079D02*
D03*
X227165Y160630D02*
D03*
X223622D02*
D03*
X220079D02*
D03*
X227165Y165354D02*
D03*
X223622D02*
D03*
X220079D02*
D03*
X211417Y181496D02*
D03*
X207874D02*
D03*
X204331D02*
D03*
D54*
X120472Y120591D02*
D03*
X116535D02*
D03*
D56*
X137795Y173031D02*
D03*
Y169488D02*
D03*
X141732Y173031D02*
D03*
Y169488D02*
D03*
X145669Y165157D02*
D03*
Y161614D02*
D03*
X149606Y165157D02*
D03*
Y161614D02*
D03*
X208268Y167126D02*
D03*
Y163583D02*
D03*
Y159252D02*
D03*
Y155709D02*
D03*
X216535Y167126D02*
D03*
Y163583D02*
D03*
Y159252D02*
D03*
Y155709D02*
D03*
X199213Y158465D02*
D03*
Y154921D02*
D03*
X198819Y179268D02*
D03*
Y175724D02*
D03*
X135039Y104528D02*
D03*
Y100984D02*
D03*
X195669Y172047D02*
D03*
Y168504D02*
D03*
Y164961D02*
D03*
D57*
X247244Y234252D02*
D03*
X68898Y59055D02*
D03*
D58*
X75984Y204685D02*
D03*
Y209685D02*
D03*
Y199685D02*
D03*
Y219685D02*
D03*
Y214685D02*
D03*
Y184685D02*
D03*
Y179685D02*
D03*
Y194685D02*
D03*
Y189685D02*
D03*
Y164685D02*
D03*
Y159685D02*
D03*
Y174685D02*
D03*
Y169685D02*
D03*
Y154685D02*
D03*
Y149685D02*
D03*
X70984D02*
D03*
X75984Y144685D02*
D03*
Y134685D02*
D03*
Y139685D02*
D03*
Y129685D02*
D03*
Y124685D02*
D03*
Y109685D02*
D03*
Y84685D02*
D03*
Y119685D02*
D03*
Y114685D02*
D03*
Y104685D02*
D03*
Y99685D02*
D03*
X70984Y124685D02*
D03*
Y114685D02*
D03*
X75984Y79685D02*
D03*
Y74685D02*
D03*
Y94685D02*
D03*
Y89685D02*
D03*
X70984Y209685D02*
D03*
Y214685D02*
D03*
Y204685D02*
D03*
Y189685D02*
D03*
Y164685D02*
D03*
Y199685D02*
D03*
Y194685D02*
D03*
Y184685D02*
D03*
Y179685D02*
D03*
Y159685D02*
D03*
Y154685D02*
D03*
Y174685D02*
D03*
Y169685D02*
D03*
Y139685D02*
D03*
Y129685D02*
D03*
Y144685D02*
D03*
Y119685D02*
D03*
Y109685D02*
D03*
Y104685D02*
D03*
Y99685D02*
D03*
Y94685D02*
D03*
Y134685D02*
D03*
Y79685D02*
D03*
Y74685D02*
D03*
Y89685D02*
D03*
Y84685D02*
D03*
X243976Y214685D02*
D03*
Y209685D02*
D03*
Y219685D02*
D03*
Y199685D02*
D03*
Y204685D02*
D03*
Y194685D02*
D03*
Y189685D02*
D03*
X238976Y204685D02*
D03*
X243976Y184685D02*
D03*
X238976D02*
D03*
X243976Y179685D02*
D03*
Y174685D02*
D03*
Y164685D02*
D03*
Y169685D02*
D03*
Y159685D02*
D03*
X238976Y174685D02*
D03*
X243976Y149685D02*
D03*
Y154685D02*
D03*
X238976Y214685D02*
D03*
Y189685D02*
D03*
Y209685D02*
D03*
Y194685D02*
D03*
Y199685D02*
D03*
Y179685D02*
D03*
Y169685D02*
D03*
Y164685D02*
D03*
Y159685D02*
D03*
Y149685D02*
D03*
Y154685D02*
D03*
D59*
X70984Y219685D02*
D03*
X238976D02*
D03*
D60*
X120984Y236221D02*
D03*
X248228Y64055D02*
D03*
X238976Y236221D02*
D03*
D61*
X115984D02*
D03*
X105984D02*
D03*
X100984D02*
D03*
X110984D02*
D03*
X120984Y231221D02*
D03*
X115984D02*
D03*
X110984D02*
D03*
X100984D02*
D03*
X95984D02*
D03*
X105984D02*
D03*
X95984Y236221D02*
D03*
X90984D02*
D03*
X85984D02*
D03*
X80984D02*
D03*
X75984D02*
D03*
X85984Y231221D02*
D03*
X90984D02*
D03*
X75984D02*
D03*
X80984D02*
D03*
X243228Y64055D02*
D03*
X238228D02*
D03*
X218228D02*
D03*
X223228D02*
D03*
X213228D02*
D03*
X233228D02*
D03*
X228228D02*
D03*
X248228Y59055D02*
D03*
X243228D02*
D03*
X238228D02*
D03*
X233228D02*
D03*
X218228D02*
D03*
X213228D02*
D03*
X228228D02*
D03*
X223228D02*
D03*
X203228Y64055D02*
D03*
X208228D02*
D03*
X198228Y59055D02*
D03*
Y64055D02*
D03*
X183228D02*
D03*
X178228D02*
D03*
X193228D02*
D03*
X188228D02*
D03*
X193228Y59055D02*
D03*
X208228D02*
D03*
X203228D02*
D03*
X178228D02*
D03*
X188228D02*
D03*
X183228D02*
D03*
X233976Y236221D02*
D03*
X228976D02*
D03*
X208976D02*
D03*
X213976D02*
D03*
X203976D02*
D03*
X223976D02*
D03*
X218976D02*
D03*
X238976Y231221D02*
D03*
X233976D02*
D03*
X228976D02*
D03*
X223976D02*
D03*
X208976D02*
D03*
X203976D02*
D03*
X218976D02*
D03*
X213976D02*
D03*
X193976Y236221D02*
D03*
X198976D02*
D03*
X188976Y231221D02*
D03*
Y236221D02*
D03*
X173976D02*
D03*
X168976D02*
D03*
X183976D02*
D03*
X178976D02*
D03*
X183976Y231221D02*
D03*
X198976D02*
D03*
X193976D02*
D03*
X168976D02*
D03*
X178976D02*
D03*
X173976D02*
D03*
D62*
X158661Y240551D02*
D03*
X131102D02*
D03*
D63*
X154724Y229921D02*
D03*
X135039D02*
D03*
D64*
X219291Y132441D02*
D03*
Y127441D02*
D03*
Y122441D02*
D03*
Y117441D02*
D03*
X214291Y132441D02*
D03*
Y117441D02*
D03*
Y127441D02*
D03*
Y122441D02*
D03*
Y112441D02*
D03*
D65*
X219291D02*
D03*
D66*
X148228Y87441D02*
D03*
Y79567D02*
D03*
X138386D02*
D03*
Y87441D02*
D03*
D67*
X167008Y68898D02*
D03*
X119606D02*
D03*
D68*
X106299Y69685D02*
D03*
X85039D02*
D03*
D69*
X103937Y79921D02*
D03*
X98425D02*
D03*
X92913D02*
D03*
D70*
X87402D02*
D03*
D71*
X95669Y57874D02*
D03*
D72*
X198425Y151575D02*
D03*
X205906Y169685D02*
D03*
X224019Y181496D02*
D03*
X203543Y185040D02*
D03*
X198819Y185039D02*
D03*
X214961Y181890D02*
D03*
X218110Y181869D02*
D03*
X211417Y172047D02*
D03*
X183071Y170472D02*
D03*
X205906Y177953D02*
D03*
X201181Y184252D02*
D03*
X213844Y176048D02*
D03*
X201968Y162598D02*
D03*
X201927Y169110D02*
D03*
X209055Y176378D02*
D03*
X194882Y183858D02*
D03*
X192520Y177559D02*
D03*
X194488Y180709D02*
D03*
X191339Y166535D02*
D03*
X179921Y177952D02*
D03*
X194881Y175590D02*
D03*
X201969Y178347D02*
D03*
X177559Y192913D02*
D03*
X220866Y175197D02*
D03*
X224803Y177952D02*
D03*
X220866Y172047D02*
D03*
X217677Y175237D02*
D03*
X169291Y177165D02*
D03*
D107*
X121850Y113779D02*
D03*
Y105118D02*
D03*
X115157Y113779D02*
D03*
Y105118D02*
D03*
D108*
X233071Y133760D02*
D03*
Y130020D02*
D03*
X226772Y133760D02*
D03*
Y130020D02*
D03*
X135433Y115256D02*
D03*
Y111516D02*
D03*
D109*
X142815Y100394D02*
D03*
X139075D02*
D03*
M02*
