M48
;Layer_Color=9474304
;FILE_FORMAT=2:5
INCH,LZ
;TYPE=PLATED
T1F00S00C0.00787
T2F00S00C0.00984
T3F00S00C0.01181
T4F00S00C0.02362
T6F00S00C0.02756
T7F00S00C0.03150
T8F00S00C0.03543
T9F00S00C0.03622
T11F00S00C0.04724
T12F00S00C0.09055
%
T01
X010315Y0114567
Y0117717
X0103149Y0120079
X0105905Y0122047
X0105905Y0126771
X0106299Y0130315
X010315Y0129134
X010314Y0125197
X0102362Y0138189
X0104331Y0140945
X0111294Y0139764
X011811Y0141732
Y0149606
X0122047
X0124409Y0148031
X0127953Y0147638
X0125984Y0145669
X0127953Y0143701
X0135827Y0143307
X0137795Y0141732
Y0137795
X0135433Y013937
X0134252Y0134252
X0135433Y0122441
X0134252Y0119685
X0137008Y0118898
X013937Y012126
X0141732Y0123228
X0142717Y0118504
X0148622
X0152362Y0119291
X0150799Y0123228
X0154724Y0122441
X0156074Y0117436
X015315Y0128347
X0150787Y0127953
X0147637Y0126771
X014685Y0130315
X0144095
X0147637Y0135039
X0149606Y0141732
X0151575Y0147638
X0147638
X0145669Y0149606
X0141732Y0149606
X0141732Y0153543
X013937Y0155118
X0135827Y0155512
X013189Y0155512
X0135827Y0147638
X0143701Y0143701
X0149606Y0153149
X0148031Y0155118
X0155118Y0155905
X0155511Y0151181
X0154004Y0132311
X0153949Y0100394
X0152756Y0097244
X0144882
Y0093701
X0135815
X0136221Y0097638
X0131933Y0100787
X0130709Y0105512
X0126378Y0105118
X01236Y0098053
X0118504Y0109449
X0110236Y0113386
X0116535Y0123687
X0123622Y0120472
X0127165Y0123622
X0130709Y0111417
X0133071Y0109055
X0098523Y0137106
X0097638Y0142519
X0094882Y0140945
X0095275Y0146456
X0100393Y0148819
X0101854Y0151941
X01Y0153543
X009685Y015433
X0087795Y0152362
X0085827Y0150787
X0083858Y0152362
X0085433Y0155118
X0087008Y014685
X0088189Y0141732
X0087008Y0138976
X0103937Y0150394
X0159449Y0151575
X0163386
X0167323
X0173228Y0149606
X0173228Y0145669
X0176771Y0145275
X0176378Y0151181
X0180709Y0141732
X0179921Y0137795
X0173622Y0133071
X0170078Y0129921
X0166535Y0129921
X0166929Y0132283
X0163779Y0134645
X0162598Y0130708
X0164567Y0128347
X0162205Y0125872
X016811Y012559
X0170673Y0122835
X0166142Y0122047
X0166535Y0118898
X0165748Y0116142
X0163779Y0112992
X0161823Y0107874
X0156693Y0096051
X0170091Y0095755
X0173622Y0120079
X0161417Y0141732
X015748Y0153543
X0159449Y0155512
X0194882Y0154724
X0197638Y0152362
X0203543Y0152756
X0212205Y015
X0213385Y0154677
X0222441Y0152756
X0220472Y0141732
X0217717Y0142126
X0202362Y0137402
X0200787Y0127559
X0226772Y0126378
X0233071
X0251575Y0126671
X025Y0116556
X0250787Y0101969
X023878Y0103829
Y008937
X0228209Y008937
Y0094095
X022126Y0103543
Y010748
X0211417Y0103543
X0203543Y0098425
X0202362Y007126
X0222835Y007752
Y008252
X0250984Y0076772
X0245669Y0135433
X0213593Y0158039
X0214173Y016063
X0214173Y0164173
X0214173Y0167716
X021063Y0166929
X0205905Y0167323
X0205511Y0169685
X0201927Y016911
X0201968Y0162598
X0205512Y0161024
X0205511Y0164567
Y015748
X019584Y0159449
X0191339Y0166535
X0183071Y0170472
Y0175197
X0179921Y0177952
X0181889Y0180315
X0182677Y0185433
X017559Y0188582
X0177559Y0192913
X0173228
X0169291Y0192913
X0165354
Y0188976
X0169291
X0169291Y0185039
X0165354
Y0181102
X0165354Y0177165
X0169291
X0173228Y0181102
X0161417
Y0185039
Y0188976
Y0192913
X015748
Y0185039
X015748Y0181102
X015748Y0177165
X0159449Y0175197
X015748Y0173228
X0159449Y017126
Y0167323
Y0163386
X0162899
X0163386Y0167323
X0167323
X0167323Y0163386
X0165354Y015748
X0161417
X0159449Y0159449
X017126
X0173228Y015748
X0161417Y0169291
X0165354Y019685
X0169291
X0194882Y0183858
X0194488Y0180709
X019252Y0177559
X0194881Y017559
X0201969Y0178347
X0205906Y0177953
X0209055Y0176378
X0207874Y0172834
X0212598Y017126
X0213844Y0176048
X0217677Y0175237
X0220866Y0175197
Y0172047
X0224803Y0177952
X0224409Y0180709
X0217736Y0181357
X0214566Y0181102
X0203543Y0184252
X0201181
X0198819
X0155512Y0183071
X0153543Y0185039
Y0181102
Y0177165
X0149606
X0149606Y0181102
X0145669
X0147638Y0179134
Y0175197
X0143701
X0141732Y0177165
X0139764Y0175197
X0135827
X0137795Y0177165
X0133858Y0177165
X013189Y0179134
Y0183071
X0125984Y0181102
X0125984Y0177165
X0124016Y0175591
Y0179134
X0127559Y0175197
X0125984Y0169291
X0123851Y0167094
X0124016Y016376
X0127513Y0162946
X0129921Y0161417
X013189Y0159449
X0131933Y0163429
X0131496Y0166929
X013189Y0171653
X0135433Y0171653
X0139763Y0170472
X0139764Y0167323
Y0163386
Y0159449
X0143701
X0143307Y0162992
X0147637Y0162598
X0147638Y0159449
X0151575
X0151968Y0162992
X0151181Y0166929
X0147638Y0167323
X0143701
X0144094Y0170866
X0147638Y017126
X0155512
X0155905Y0167717
X0155512Y0175197
X0155511Y0159055
X0149606Y015748
X0135827Y0159055
X0123383Y0159595
X011811Y0173228
Y0177165
Y0181102
Y0185039
X0115354Y0183071
X0105118Y0183465
X0101969
X0099606Y0185433
X0097244Y0187402
X0094882Y0185433
X0092913Y0187402
X0090551Y0185433
X0087795
X0085039
X0082677Y0187955
X0081496Y0197244
X0084332Y0202185
X0114173Y0200394
Y019685
X0124016Y0198819
X0123986Y0187431
X0127953Y0187402
X0129921Y0192913
X0137795
Y019685
X0141732
X0143701Y0198819
X0145669Y019685
Y0192913
Y0185039
X0139764Y0187008
X0133858Y019685
X0137795Y0202362
X0138583Y0206299
X0149606Y0199213
X0147244Y022441
X0144882Y022559
X0139764Y022441
Y0234252
X0141339Y0236221
X0148819
X013189Y0221654
X0107086Y0166535
X009685Y0162598
X0094095Y0164567
X0093701Y0159449
X0085039Y016063
X008189Y0157874
X0079134Y015748
X0066142Y0174016
X0094095Y0172441
T02
X0226772Y0113779
Y0116929
Y0120029
X0229921Y0120079
Y0123228
Y0126378
X0233071Y0123228
Y0120079
Y0116929
Y0113779
X0229921
Y0116929
X0226772Y0123228
T03
X0141535Y0105709
X0145866
Y0110039
X0141535
T04
X0070984Y0074685
X0075984
Y0079685
Y0084685
Y0089685
Y0094685
Y0099685
Y0104685
Y0109685
Y0114685
Y0119685
Y0124685
Y0129685
Y0134685
Y0139685
Y0144685
Y0149685
Y0154685
X0070984
Y0149685
Y0144685
Y0139685
Y0134685
Y0129685
Y0124685
Y0119685
Y0114685
Y0109685
Y0104685
Y0099685
Y0094685
Y0089685
Y0084685
Y0079685
X0178228Y0064055
X0183228
X0188228
X0193228
X0198228
X0203228
X0208228
X0213228
X0218228
X0223228
X0228228
X0233228
X0238228
X0243228
X0248228
Y0059055
X0243228
X0238228
X0233228
X0228228
X0223228
X0218228
X0213228
X0208228
X0203228
X0198228
X0193228
X0188228
X0183228
X0178228
X0238976Y0149685
X0243976
Y0154685
X0238976
Y0159685
X0243976
Y0164685
Y0169685
Y0174685
Y0179685
Y0184685
Y0189685
Y0194685
Y0199685
Y0204685
Y0209685
Y0214685
Y0219685
X0238976
Y0214685
Y0209685
Y0204685
Y0199685
Y0194685
Y0189685
Y0184685
Y0179685
Y0174685
Y0169685
Y0164685
X0238976Y0231221
Y0236221
X0233976
X0228976
X0223976
X0218976
X0213976
X0208976
X0203976
Y0231221
X0208976
X0213976
X0218976
X0223976
X0228976
X0233976
X0198976
Y0236221
X0193976
X0188976
Y0231221
X0183976
Y0236221
X0178976
X0173976
X0168976
Y0231221
X0173976
X0178976
X0193976
X0120984
Y0236221
X0115984
X0110984
X0105984
X0100984
Y0231221
X0095984
Y0236221
X0090984
X0085984
X0080984
X0075984
Y0231221
X0080984
X0085984
X0090984
X0105984
X0110984
X0115984
X0075984Y0219685
Y0214685
Y0209685
Y0204685
Y0199685
Y0194685
Y0189685
Y0184685
Y0179685
Y0174685
Y0169685
Y0164685
Y0159685
X0070984
Y0164685
Y0169685
Y0174685
Y0179685
Y0184685
Y0189685
Y0194685
Y0199685
Y0204685
Y0209685
Y0214685
Y0219685
T06
X0214291Y0112441
X0219291
Y0117441
Y0122441
Y0127441
Y0132441
X0214291
Y0127441
Y0122441
Y0117441
X0244488Y008937
X0251575
T07
X0087402Y0079921
X0092913
X0098425
X0103937
T08
X0135039Y0229921
X0154724
T09
X0138386Y0079567
Y0087441
X0148228
Y0079567
T11
X0158661Y0240551
X0131102
T12
X0119606Y0068898
X0167008
M30
