G04*
G04 #@! TF.GenerationSoftware,Altium Limited,Altium Designer,19.1.6 (110)*
G04*
G04 Layer_Color=128*
%FSLAX25Y25*%
%MOIN*%
G70*
G01*
G75*
G04:AMPARAMS|DCode=26|XSize=31.5mil|YSize=35.43mil|CornerRadius=4.1mil|HoleSize=0mil|Usage=FLASHONLY|Rotation=0.000|XOffset=0mil|YOffset=0mil|HoleType=Round|Shape=RoundedRectangle|*
%AMROUNDEDRECTD26*
21,1,0.03150,0.02724,0,0,0.0*
21,1,0.02331,0.03543,0,0,0.0*
1,1,0.00819,0.01165,-0.01362*
1,1,0.00819,-0.01165,-0.01362*
1,1,0.00819,-0.01165,0.01362*
1,1,0.00819,0.01165,0.01362*
%
%ADD26ROUNDEDRECTD26*%
G04:AMPARAMS|DCode=34|XSize=19.68mil|YSize=21.65mil|CornerRadius=4.92mil|HoleSize=0mil|Usage=FLASHONLY|Rotation=270.000|XOffset=0mil|YOffset=0mil|HoleType=Round|Shape=RoundedRectangle|*
%AMROUNDEDRECTD34*
21,1,0.01968,0.01181,0,0,270.0*
21,1,0.00984,0.02165,0,0,270.0*
1,1,0.00984,-0.00591,-0.00492*
1,1,0.00984,-0.00591,0.00492*
1,1,0.00984,0.00591,0.00492*
1,1,0.00984,0.00591,-0.00492*
%
%ADD34ROUNDEDRECTD34*%
G04:AMPARAMS|DCode=35|XSize=19.68mil|YSize=19.68mil|CornerRadius=4.92mil|HoleSize=0mil|Usage=FLASHONLY|Rotation=270.000|XOffset=0mil|YOffset=0mil|HoleType=Round|Shape=RoundedRectangle|*
%AMROUNDEDRECTD35*
21,1,0.01968,0.00984,0,0,270.0*
21,1,0.00984,0.01968,0,0,270.0*
1,1,0.00984,-0.00492,-0.00492*
1,1,0.00984,-0.00492,0.00492*
1,1,0.00984,0.00492,0.00492*
1,1,0.00984,0.00492,-0.00492*
%
%ADD35ROUNDEDRECTD35*%
G04:AMPARAMS|DCode=37|XSize=19.68mil|YSize=21.65mil|CornerRadius=4.92mil|HoleSize=0mil|Usage=FLASHONLY|Rotation=180.000|XOffset=0mil|YOffset=0mil|HoleType=Round|Shape=RoundedRectangle|*
%AMROUNDEDRECTD37*
21,1,0.01968,0.01181,0,0,180.0*
21,1,0.00984,0.02165,0,0,180.0*
1,1,0.00984,-0.00492,0.00591*
1,1,0.00984,0.00492,0.00591*
1,1,0.00984,0.00492,-0.00591*
1,1,0.00984,-0.00492,-0.00591*
%
%ADD37ROUNDEDRECTD37*%
%ADD103R,0.04724X0.05512*%
G04:AMPARAMS|DCode=104|XSize=19.68mil|YSize=21.65mil|CornerRadius=4.04mil|HoleSize=0mil|Usage=FLASHONLY|Rotation=90.000|XOffset=0mil|YOffset=0mil|HoleType=Round|Shape=RoundedRectangle|*
%AMROUNDEDRECTD104*
21,1,0.01968,0.01358,0,0,90.0*
21,1,0.01161,0.02165,0,0,90.0*
1,1,0.00807,0.00679,0.00581*
1,1,0.00807,0.00679,-0.00581*
1,1,0.00807,-0.00679,-0.00581*
1,1,0.00807,-0.00679,0.00581*
%
%ADD104ROUNDEDRECTD104*%
G04:AMPARAMS|DCode=105|XSize=19.68mil|YSize=21.65mil|CornerRadius=4.04mil|HoleSize=0mil|Usage=FLASHONLY|Rotation=180.000|XOffset=0mil|YOffset=0mil|HoleType=Round|Shape=RoundedRectangle|*
%AMROUNDEDRECTD105*
21,1,0.01968,0.01358,0,0,180.0*
21,1,0.01161,0.02165,0,0,180.0*
1,1,0.00807,-0.00581,0.00679*
1,1,0.00807,0.00581,0.00679*
1,1,0.00807,0.00581,-0.00679*
1,1,0.00807,-0.00581,-0.00679*
%
%ADD105ROUNDEDRECTD105*%
D26*
X114173Y150394D02*
D03*
X107874D02*
D03*
X114567Y140945D02*
D03*
X108268D02*
D03*
D34*
X165157Y161417D02*
D03*
X161614D02*
D03*
X130118Y185039D02*
D03*
X126575D02*
D03*
X125787Y161417D02*
D03*
X122244D02*
D03*
X158858Y188583D02*
D03*
X155315D02*
D03*
X137598Y165354D02*
D03*
X134055D02*
D03*
X137598Y161417D02*
D03*
X134055D02*
D03*
X133705Y145669D02*
D03*
X130161D02*
D03*
X141535Y145669D02*
D03*
X137992D02*
D03*
X153346Y173228D02*
D03*
X149803D02*
D03*
X153346Y169291D02*
D03*
X149803D02*
D03*
X145472Y157087D02*
D03*
X141929D02*
D03*
X133661Y169291D02*
D03*
X130118D02*
D03*
X129724Y165354D02*
D03*
X126181D02*
D03*
X157283D02*
D03*
X153740D02*
D03*
X157283Y161417D02*
D03*
X153740D02*
D03*
X133661Y174016D02*
D03*
X130118D02*
D03*
X124212Y173228D02*
D03*
X120669D02*
D03*
X121850Y152756D02*
D03*
X118307D02*
D03*
X209646Y150074D02*
D03*
X206102D02*
D03*
X141929Y93701D02*
D03*
X138386D02*
D03*
X151378Y100394D02*
D03*
X147835D02*
D03*
X120276Y126060D02*
D03*
X116732D02*
D03*
X120276Y98075D02*
D03*
X116732D02*
D03*
X227165Y156299D02*
D03*
X223622D02*
D03*
X220079D02*
D03*
X227165Y160630D02*
D03*
X223622D02*
D03*
X220079D02*
D03*
X227165Y165354D02*
D03*
X223622D02*
D03*
X220079D02*
D03*
X211417Y181496D02*
D03*
X207874D02*
D03*
X204331D02*
D03*
D35*
X120472Y120591D02*
D03*
X116535D02*
D03*
D37*
X137795Y173031D02*
D03*
Y169488D02*
D03*
X141732Y173031D02*
D03*
Y169488D02*
D03*
X145669Y165157D02*
D03*
Y161614D02*
D03*
X149606Y165157D02*
D03*
Y161614D02*
D03*
X208268Y167126D02*
D03*
Y163583D02*
D03*
Y159252D02*
D03*
Y155709D02*
D03*
X216535Y167126D02*
D03*
Y163583D02*
D03*
Y159252D02*
D03*
Y155709D02*
D03*
X199213Y158465D02*
D03*
Y154921D02*
D03*
X198819Y179268D02*
D03*
Y175724D02*
D03*
X135039Y104528D02*
D03*
Y100984D02*
D03*
X195669Y172047D02*
D03*
Y168504D02*
D03*
Y164961D02*
D03*
D103*
X121850Y113779D02*
D03*
Y105118D02*
D03*
X115157Y113779D02*
D03*
Y105118D02*
D03*
D104*
X233071Y133760D02*
D03*
Y130020D02*
D03*
X226772Y133760D02*
D03*
Y130020D02*
D03*
X135433Y115256D02*
D03*
Y111516D02*
D03*
D105*
X142815Y100394D02*
D03*
X139075D02*
D03*
M02*
